<?xml version="1.0" encoding="utf-8"?>
<!-- Generator: Adobe Illustrator 25.0.0, SVG Export Plug-In . SVG Version: 6.00 Build 0)  -->
<svg version="1.1" id="レイヤー_1" xmlns="http://www.w3.org/2000/svg" xmlns:xlink="http://www.w3.org/1999/xlink" x="0px"
	 y="0px" width="437px" height="36px" viewBox="0 0 437 36" style="enable-background:new 0 0 437 36;" xml:space="preserve">
<style type="text/css">
	.st0{fill:#231815;}
</style>
<g>
	<g id="uBrEAY_1_">
		<g>
			<path d="M399.14,16.87c-0.01,0.03-0.01,0.09-0.03,0.1c0,0-3.21,1.54-4.73,1.48c-0.49-0.02-0.74,0.22-1.21,0.13
				c-0.52-0.09-1.42,0.1-1.76-0.14c-0.19-0.13-0.4-0.33-0.56-0.41c-0.08-0.04-0.37,0.05-0.54,0.17c-0.1,0.07-0.21,0.46-0.31,0.22
				c-0.09,0.1-0.34,0.1-0.43,0.17c-0.36,0.24-0.15,0.18-0.53,0.21c-0.27,0.02-0.17,0.16-0.43,0.15c-0.4-0.01-0.8-0.08-0.96-0.5
				c-0.04-0.12-0.14-0.19-0.19-0.3c-0.06-0.14-0.2,0.15-0.26,0.26c-0.1,0.15-1,0.51-1.12,0.57c-0.29,0.14-1.06,0.35-1.44,0.48
				s-0.69,0.22-1.3,0.44c-0.06,0.02-0.36,0.1-0.43,0.05c-0.14-0.1-0.1,0-0.1,0.08c0,0.04-0.04,0.1-0.08,0.12
				c-0.32,0.14-0.62,0.3-0.95,0.39c-0.38,0.1-0.79,0-1.15,0.23c-0.04,0.03-0.1-0.01-0.14,0c-0.2,0.02-0.39,0-0.59,0.12
				c-0.4,0.25-0.83,0.13-1.17-0.13c-0.22-0.17-0.52-0.3-0.58-0.64c-0.04-0.21,0.04-0.23,0.2-0.24c0.33-0.02,0.62,0.11,0.87,0.3
				c0.07,0.06,0.16,0.11,0.24,0.08c0.1-0.04,0.03-0.16,0.04-0.24c0.01-0.47-0.48-0.93-0.85-1.15c-0.09-0.05-0.17-0.09-0.24-0.17
				c-0.08-0.1-0.18-0.14-0.31-0.07c-0.12,0.07-0.2,0.11-0.19,0.28c0.01,0.16-0.18,0.26-0.3,0.37c-0.1,0.09-0.53,0.6-0.57,0.61
				c-0.43,0.09-0.73,0.51-1.11,0.67c-0.46,0.19-0.33,0.23-0.75,0.51c-0.51,0.33-1.07,0.59-1.59,0.89c-0.56,0.33-1.98,0.28-2.61,0.55
				c-0.01,0-0.02,0.01-0.03,0c-0.68-0.23-1.53-0.12-2.09-0.56c-0.19-0.15-0.27-0.01-0.54,0.12c-0.1,0.05-0.17,0.19-0.29,0.24
				c-0.07,0.03-0.16,0.04-0.11,0.12c0.09,0.15-0.04,0.05-0.2,0.14c-0.21,0.12-0.16,0.41-0.28,0.22c-0.05-0.07-0.1,0.02-0.15,0.01
				c-0.05,0-0.2-0.11-0.25,0.01c-0.04,0.13,0.08,0.23-0.18,0.09c0.07-0.08-0.18,0.18-0.15,0.03c0.02-0.09-0.02-0.02-0.08-0.01
				c-0.24,0.04-0.94,0.33-1.16-0.08s-0.14-0.51-0.05-0.69c0.09-0.18,0.11-0.47,0.11-0.47c0.2-0.06,0.14-0.4,0.25-0.59
				c0,0.18,0.19-0.13,0.25-0.14c0.07-0.02,0.26-0.09,0.21-0.15c0,0,0.08-0.18,0.16-0.19s0.13-0.04,0.23-0.14
				c0.11-0.09,0.24-0.05,0.35-0.06c0.51-0.07,0.2-0.1,0.5-0.18c0.31-0.08,0.45,0,0.48,0.03c0.07,0.06,0.25,0.2,0.18,0.26
				c-0.07,0.06-0.33,0.19-0.37,0.13c-0.15-0.06-0.64,0.19-0.9,0.29c-0.26,0.1-0.4,0.27-0.58,0.46c-0.17,0.19-0.44,0.58-0.3,0.91
				c0.19,0.45,1.16-0.02,1.72-0.45c0.26-0.19,0.43-0.45,0.5-0.66s0.06-0.31-0.01-0.43c-0.07-0.14-0.02-0.24,0.15-0.28
				c0.05-0.01,0.06-0.06,0.07-0.1c0.06-0.15,0.21-0.43,0.32-0.53c0.13-0.12,0.33-0.17,0.43-0.08c0.11,0.1,0.19,0.18,0.09,0.39
				c-0.46,0.92-0.13,1.4,0.59,1.63c0.26,0.08,0.44,0.25,0.74,0.2c0.21-0.04,0.95,0.03,1.17,0c0.55-0.09,1.68-0.2,2.12-0.48
				c0.58-0.37,0.55-0.24,1.12-0.63c0.34-0.23,0.88-0.56,1.2-0.74c0.31-0.17,0.69-0.59,0.95-0.86c0.12-0.12,0.19-0.35,0.44-0.31
				c0.03,0.01,0.08-0.11,0.04-0.18c-0.06-0.1-0.06-0.28,0.03-0.3c0.27-0.07,0.3-0.18,0.2-0.33c-0.15-0.18-0.01-0.22,0.11-0.23
				c0.3-0.02,0.6-0.04,0.79,0.28c0.14,0.24,0.37,0.41,0.59,0.58c0.36,0.28,0.77,0.81,0.76,1.27c0,0.21,0.09,0.23,0.28,0.21
				c0.41-0.03,0.8-0.16,1.21-0.2c0.24-0.02,1.14-0.25,2.01-0.52c0.87-0.27,2.1-0.64,3.08-1.17c0.41-0.22,0.83-0.77,0.76-1.22
				c-0.02-0.12,0.13-0.44,0.36-0.57c0.26-0.16,0.21-0.04,0.37,0.12c0.12,0.12,0.02,0.35,0.03,0.5c0.02,0.28-0.29,0.74-0.09,0.97
				c0.26,0.3,0.46,0.47,0.87,0.33c0.18-0.06,0.34-0.15,0.51-0.23c0.36-0.18,0.04-0.13,0.44-0.42c0.25-0.17,0.37-0.46,0.28-0.59
				c-0.15-0.23-0.06-0.66,0.14-0.88c0.21-0.23,0.2-0.31,0.5-0.27c0.13,0.02,0.12,0.07,0.18,0.21c0.07,0.16,0.09,0.28-0.02,0.43
				c-0.31,0.39-0.06,0.67,0.45,1.06c0.41,0.31,0.57,0.34,1.27,0.37c0.74,0.03,1.94,0.01,2.62-0.13c0.69-0.14,1.66-0.29,2.59-0.74
				c0.92-0.45,1.06-0.52,1.13-0.52C399.13,16.83,399.13,16.86,399.14,16.87z"/>
			<path d="M359.75,25.64c-0.21,0.08-0.37,0.26-0.56,0.36c-0.19,0.1-0.32,0.35-0.58,0.3c-0.16-0.03-0.28,0.15-0.36,0.21
				c-0.7,0.59-1.53,0.99-2.21,1.59c-0.39,0.34-0.8,0.65-1.2,0.97c-0.5,0.4-0.94,0.85-1.36,1.33c-0.06,0.07-0.09,0.18-0.23,0.14
				c-0.09-0.02-0.11,0.15-0.1,0.17c0.17,0.32,0.05,0.64-0.03,0.97c-0.11,0.44-0.14,0.9-0.29,1.33c-0.06,0.19,0.03,0.35-0.05,0.49
				c-0.17,0.28-0.25,0.6-0.37,0.89c-0.14,0.33-0.41,0.57-0.49,0.83c-0.1,0.32-0.3,0.37-0.46,0.34c-0.2-0.03-0.46,0.08-0.62-0.17
				c-0.05-0.08-0.35,0.03-0.19-0.25c-0.23,0.12-0.3,0.01-0.32-0.21c-0.01-0.16-0.11-0.35-0.05-0.48c0.19-0.44,0.15-0.92,0.32-1.35
				c0.15-0.38,0.26-0.75,0.58-1.06c0.28-0.27,0.41-0.72,0.72-0.97c0.3-0.24,0.54-0.52,0.74-0.84c0.04-0.06,0.08-0.09,0.08-0.17
				c0.01-0.56,0.18-1.12,0.1-1.7c-0.04-0.28-0.04-0.61,0.01-0.92c0.03-0.17-0.01-0.36-0.02-0.53c-0.06-0.78-0.13-1.56-0.21-2.33
				c-0.05-0.49-0.16-0.96-0.42-1.39c-0.29-0.47-0.75-0.51-1.19-0.14c-0.45,0.37-0.89,0.75-1.27,1.19c-0.09,0.11-0.25,0.18-0.35,0.22
				c-0.24,0.08-0.19,0.35-0.43,0.47c-0.7,0.34-1.32,0.31-1.96-0.04c-0.42-0.23-0.56-0.57-0.63-1.06c-0.13-0.87,0.31-1.63,0.42-2.45
				c0.05-0.38,0.16-0.76,0.2-1.14c0.07-0.57,0.03-0.93-0.75-1.24c-0.47-0.19-0.96-0.12-1.45-0.16c-0.67-0.06-1.35,0.02-2.02,0.13
				c-0.09,0.01-0.23-0.03-0.19,0.17c0.02,0.09-0.15,0.11-0.21,0.07c-0.2-0.13-0.43-0.19-0.65-0.29c-0.07-0.03-0.13-0.09-0.11-0.18
				c0.03-0.1,0.13-0.09,0.2-0.09c0.79-0.03,1.58-0.23,2.38-0.19c0.65,0.03,1.32-0.05,1.94,0.16c0.46,0.16,0.99,0.25,1.26,0.77
				c0.16,0.31,0.17,0.63,0.16,0.95c-0.01,0.53-0.21,1.03-0.32,1.55c-0.14,0.62-0.43,1.23-0.34,1.89c0.11,0.82,0.86,1.17,1.6,0.75
				c0.62-0.35,1.1-0.87,1.65-1.32c0.57-0.46,1.11-0.9,1.89-0.61c0.19,0.07,0.34,0.14,0.44,0.31c0.08,0.14,0.16,0.3,0.29,0.38
				c0.37,0.25,0.35,0.62,0.32,1c-0.02,0.26,0.07,0.51,0.14,0.72c0.16,0.49,0.06,0.99,0.16,1.47c0.09,0.43-0.07,0.87-0.01,1.33
				c0.06,0.44,0.08,0.94-0.01,1.42c-0.03,0.15-0.21,0.22-0.15,0.41c0.04,0.12,0.1,0.11,0.19,0.12c0.16,0.03,0.08-0.08,0.09-0.13
				c0.06-0.18,0.58-0.55,0.76-0.54c0.07,0,0.13-0.04,0.14-0.1c0.06-0.25,0.15-0.34,0.48-0.46c0.11-0.04,0.08-0.2,0.21-0.27
				c0.16-0.09,0.24-0.31,0.47-0.21c0.07-0.25,0.34-0.24,0.48-0.41c0.25-0.31,0.59-0.5,0.94-0.67c0.25-0.12,0.41-0.36,0.67-0.5
				c0.35-0.18,0.65-0.46,1.05-0.55c0.21-0.05,0.33-0.26,0.49-0.4C359.45,25.28,359.65,25.33,359.75,25.64L359.75,25.64z
				 M352.15,31.34c0,0.07,0.19,0.14,0.03,0.22c-0.23,0.11-0.3,0.36-0.48,0.52c-0.2,0.18-0.37,0.44-0.48,0.65
				c-0.34,0.64-0.51,1.34-0.24,2.06c0.07,0.19,0.23,0.24,0.35,0.35c0.08,0.07,0.17-0.03,0.21-0.09c0.22-0.31,0.38-0.65,0.52-1.01
				c0.11-0.29,0.13-0.6,0.25-0.89c0.05-0.11,0.13-0.19,0.14-0.35c0.01-0.33,0.17-0.67,0.1-1c-0.04-0.19,0.22-0.09,0.16-0.24
				c-0.06-0.15,0.17-0.67-0.32-0.23C352.35,31.37,352.27,31.26,352.15,31.34z"/>
			<path d="M402.68,15.34c0.12-0.02,0.21-0.04,0.21,0.1c0,0.07,0.08,0.19-0.1,0.1c-0.05-0.03-0.07,0.07-0.05,0.11
				c0.36,0.5,0.2,1.21,0.59,1.71c0.05,0.07,0.13,0.26-0.03,0.39c-0.02,0.02-0.04,0.07-0.03,0.08c0.28,0.36-0.01,0.76,0.03,1.14
				c0.02,0.19,0.16,0.06,0.2,0.05c0.26-0.05,0.3-0.09,0.55-0.16c0.26-0.07,0.76-0.25,0.94-0.45c0.05-0.06,0.17-0.07,0.26-0.09
				c0.5-0.12,0.35-0.24,0.8-0.45c0.02-0.01,0.51-0.28,0.53-0.28c0.32-0.07,0.79-0.48,1.08-0.62c0.31-0.15,0.37-0.21,0.68-0.38
				c0.48-0.26,1.46-0.99,2.06-1.52c0.12-0.11,0.48-0.37,0.48-0.37c0.3-0.24,0.14-0.21,0.44-0.46c-0.04,0.14,0.31,0.21,0.12,0.25
				c-0.08,0.02-0.09,0.03-0.1,0.13c0,0.03-0.08,0.03-0.08,0.06c-0.33-0.11-0.14,0.34-0.42,0.37c-0.24,0.02-0.15,0.23-0.39,0.38
				c0-0.07-0.09,0.04-0.08,0c0.02-0.04,0.06-0.07,0.09-0.11c-0.05-0.01-0.11-0.05-0.14-0.04c-0.06,0.02-0.15,0.08-0.11,0.13
				c0.09,0.13-0.07,0.25-0.15,0.24c-0.47-0.05-0.22-0.06-0.36,0.25c-0.01,0.03-0.09,0.1-0.15,0.12c-0.01,0-0.14,0.13-0.16,0.13
				c-0.08-0.09,0.02-0.01-0.02-0.1c-0.26,0-0.21,0.07-0.25,0.22c-0.13,0.03-0.03,0.03-0.15,0.06c-0.09,0.08-0.05,0.17-0.16,0.09
				c-0.06-0.04-0.07,0.06-0.11,0.13c0.06,0.04-0.25,0.04-0.17,0.13c-0.32,0.23-0.49,0.31-0.74,0.54c-0.08-0.01-0.07,0.04-0.04,0.09
				c-0.13,0.06-0.19,0.33-0.4,0.16c-0.01-0.01-0.05,0-0.08,0.01c0.06,0.29-0.17,0.1-0.26,0.16c-0.07,0.05-0.13,0.03-0.18,0.15
				c-0.15,0.3-0.88,0.49-1.14,0.64c-0.59,0.33-0.84,0.44-1.4,0.8c-0.33,0.21-0.67,0.33-1,0.51c-0.13,0.07-0.27,0.16-0.25,0.38
				c0.03,0.24-0.14,0.47-0.23,0.7c-0.16,0.41-0.43,0.77-0.6,1.19c-0.07,0.16-0.27,0.36-0.4,0.52c-0.16,0.21-0.36,0.34-0.54,0.51
				c-0.16,0.17-0.4,0.27-0.57,0.31c-0.2,0.05-0.51,0.08-0.68-0.02c-0.19-0.11-0.42-0.21-0.54-0.44c-0.15-0.29-0.03-0.9,0.12-1.19
				c0.1-0.2,0.25-0.34,0.36-0.51c0.24-0.37,0.63-0.51,0.98-0.66c0.45-0.2,0.78-0.59,1.22-0.75c0.36-0.13,0.4-0.54,0.71-0.68
				c-0.1-0.19,0.03-0.38,0.01-0.57c-0.06-0.44-0.09-0.89-0.21-1.32c-0.1-0.36-0.24-0.71-0.35-1.07c-0.05-0.15,0.05-0.33-0.08-0.46
				c-0.1,0.13-0.19,0.27-0.31,0.37c-0.39,0.34-0.78,0.65-1.36,0.51c-0.47-0.11-0.81-0.39-0.85-0.88c-0.04-0.45,0.35-0.79,0.86-0.75
				c0.36,0.03,0.74,0.01,1.02,0.31c0.08,0.09,0.24,0.1,0.36-0.07c0.28-0.39,0.29-0.38,0.74-0.17
				C402.92,15.08,402.92,15.08,402.68,15.34z M400.07,22.65c0.04,0.22,0.34,0.37,0.5,0.27c0.33-0.21,0.66-0.42,0.88-0.76
				c0.39-0.58,0.83-1.14,0.98-1.85c0.02-0.1-0.04-0.12-0.06-0.18c-0.02-0.05-0.05-0.01-0.05,0.01c0.01,0.16-0.13,0.09-0.19,0.14
				c-0.19,0.15-0.4,0.28-0.6,0.4c-0.19,0.12-0.41,0.17-0.54,0.38c-0.02,0.03-0.08,0.06-0.1,0.05c-0.14-0.08-0.27-0.16-0.24,0.12
				c-0.36,0-0.25,0.54-0.61,0.54c-0.01,0-0.03,0.08-0.02,0.11C400.1,22.15,399.91,22.44,400.07,22.65z M400.45,15.78
				c0.08,0.13,0.03,0.44,0.4,0.36c0.26-0.06,0.43-0.24,0.49-0.45c0.06-0.18-0.44-0.43-0.68-0.39
				C400.37,15.34,400.4,15.53,400.45,15.78z"/>
			<path d="M435.01,8.84c-0.07,0.09-0.25,0.14-0.28,0.18c-0.17,0.16-0.5-0.06-0.56,0.19c-0.01,0.03-0.11,0.11-0.15,0.11
				c-0.46-0.04-0.61,0.21-0.97,0.36c-0.12,0.05-0.33,0.16-0.36,0.17c-0.42,0.01-1.04,0.3-1.31,0.52c-0.29,0.24-0.69,0.27-1,0.45
				c-0.39,0.23-0.58,0.36-1.02,0.51c-0.72,0.24-1.14,0.36-1.78,0.74c-0.07,0.04-0.44,0.2-0.5,0.21c-0.37,0.04-0.68,0.3-1.02,0.37
				c-0.32,0.06-0.37,0.24-0.69,0.31c-0.52,0.12-0.7,0.17-1.23,0.25c-0.56,0.09-1.3,0.48-1.85,0.6c-0.19,0.04-1.26,0.37-1.45,0.38
				c-0.7,0.03-1.04,0.09-1.74,0.16c-0.72,0.08-1.82,0.16-2.46-0.03c-0.21-0.06-0.46-0.15-0.71-0.16c-0.01,0-0.29-0.04-0.3-0.04
				c-0.28-0.22-0.81-0.26-0.9-0.39c-0.08-0.13-0.43-0.19-0.53-0.55c-0.01-0.04-0.35-0.32-0.37-0.36c-0.16-0.33-0.38,0.05-0.58,0.19
				c-0.07,0.04-0.16,0.17-0.21,0.1c-0.05-0.07,0-0.12-0.01-0.22c-0.02-0.13,0.09-0.15,0.15-0.14c0.22,0.04,0.19-0.21,0.32-0.31
				c0.09-0.12,0.21-0.26,0.38-0.57c0.17-0.3,0.16-0.45,0.26-0.74c0.1-0.3,0.1-0.44,0.39-0.41c0.04,0,0.08,0.02,0.11,0.02
				c0,0,0.05,0.11,0.02,0.28s-0.11,0.57-0.2,0.75c-0.09,0.18-0.25,0.6-0.08,0.72c0.2,0.14-0.14-0.07-0.02,0.16
				c0.02,0.04-0.04,0.14,0.02,0.12c0.12-0.05,0.17-0.14,0.09,0.05c-0.01,0.01,0.02,0.1,0.02,0.12c0.05,0.27,0.3,0.15,0.57,0.43
				s1.33,0.49,1.97,0.57c0.63,0.08,2.11,0.01,2.59-0.01c0.47-0.02,1.63-0.09,2.31-0.3c0.12-0.04,0.22-0.1,0.34-0.13
				c0.23-0.04,0.45-0.11,0.67-0.16c1-0.23,2.26-0.55,3.22-0.91c0.77-0.29,1.3-0.61,2.08-0.84c0.55-0.16,0.83-0.28,1.33-0.5
				c0.51-0.22,1.07-0.57,1.57-0.79c0.5-0.23,1.23-0.64,1.8-0.78c0.19-0.04,0.7-0.34,0.89-0.25c0.02,0.01,0.08-0.01,0.09-0.03
				c0.15-0.19,0.15-0.19,0.47-0.26c0.04-0.01,0.09-0.04,0.11-0.06C434.72,8.84,434.84,8.75,435.01,8.84z"/>
			<path d="M415.02,6.1c-0.01-0.15,0.14-0.02,0.04-0.14c-0.06-0.07-0.04-0.2,0.05-0.26c0.11-0.08,0.24-0.17,0.36-0.11
				c0.06,0.03,0.1,0.01,0.14,0.02c0.26,0.06,0.09-0.05,0.32,0.09c0.12,0.07,0.16,0.23,0.15,0.35c-0.01,0.11,0.04,0.13,0.03,0.22
				c-0.01,0.08-0.12,0.11-0.15,0.19c-0.03,0.07-0.12,0.12-0.22,0.17c-0.15,0.07-0.33,0.04-0.48,0.15c-0.04,0.03-0.07,0-0.11-0.02
				c-0.12-0.06-0.01-0.16-0.15-0.2c-0.07-0.02-0.12-0.18-0.07-0.24c0.05-0.06,0-0.09,0.08-0.11C415.07,6.18,414.93,6.04,415.02,6.1z
				"/>
			<path d="M359.75,25.65c0.02-0.03,0.07-0.07,0.06-0.08c-0.2-0.36,0.1-0.42,0.32-0.55c0.58-0.34,1.19-0.6,1.8-0.88
				c0.49-0.23,0.99-0.45,1.48-0.69c0.2-0.1,0.41-0.22,0.63-0.16c0.13,0.04,0.18-0.07,0.26-0.11c0.07-0.03,0.15-0.1,0.2-0.01
				c0.05,0.08,0,0.13-0.1,0.17c-0.24,0.09-0.5,0.04-0.72,0.2c-0.13-0.27-0.12,0.25-0.24,0.05c-0.17,0.33-0.57,0.24-0.8,0.48
				c-0.12,0.12-0.28,0.2-0.45,0.14c-0.08-0.03-0.15-0.01-0.21,0.06c-0.1,0.14-0.17,0.36-0.4,0.17c-0.08,0.28-0.42,0.15-0.55,0.38
				c-0.14,0.26-0.46,0.25-0.68,0.39c-0.13,0.08-0.28,0.2-0.38,0.33C359.91,25.62,359.86,25.68,359.75,25.65
				C359.75,25.64,359.75,25.65,359.75,25.65z"/>
			<path d="M411.9,14.1c-0.02-0.1-0.02-0.09-0.05-0.25c-0.06,0.32-0.15,0.49-0.41,0.46c0.09-0.12,0-0.25,0.23-0.38
				c0.07-0.04,0.1-0.29,0.21-0.21c0.07,0.05,0.17,0.01,0.14-0.05c-0.06-0.13,0.13-0.17,0.18-0.16c0.39,0.04,0.16,0.07,0.14,0.18
				c-0.02,0.1-0.03,0.16-0.1,0.17c-0.07,0.01-0.12,0.02-0.12,0.1C412.11,14.04,411.9,13.99,411.9,14.1z"/>
			<path d="M412.91,12.93c0.03,0.17-0.14,0.3-0.19,0.46c-0.02,0.06-0.02,0.13-0.13,0.1c-0.1-0.02-0.11-0.1-0.09-0.15
				C412.55,13.16,412.62,12.93,412.91,12.93z"/>
			<path d="M435.12,8.8c0-0.08,0-0.16,0.08-0.19c0.17-0.07,0.68-0.18,0.86-0.23c0.01,0,0.06,0.02,0.06,0.04
				c0,0.06-0.36,0.15-0.44,0.18c-0.01,0-0.02,0.01-0.03,0.01C435.47,8.67,435.3,8.74,435.12,8.8z"/>
		</g>
	</g>
	<g>
		<path class="st0" d="M127.74,8.61c0.39,0,0.77,0.06,1.14,0.19c0.37,0.13,0.69,0.32,0.96,0.59c0.56,0.56,0.84,1.32,0.84,2.28
			s-0.31,1.73-0.93,2.32c-0.57,0.54-1.33,0.8-2.26,0.8h-0.11l-0.11,0l-0.44-0.01c-0.07,0-0.15,0-0.22,0l-0.32-0.01h-0.32
			c-0.59,0-0.89-0.04-0.89-0.13c0-0.09,0.09-0.17,0.28-0.25s0.3-0.19,0.34-0.33c0.04-0.15,0.06-0.87,0.06-2.19
			c0-1.31-0.02-2.08-0.06-2.31c-0.04-0.23-0.09-0.36-0.14-0.4s-0.15-0.09-0.3-0.13c-0.14-0.04-0.21-0.1-0.21-0.16V8.81
			c0-0.09,0.28-0.14,0.83-0.14l1.53-0.06H127.74z M127.41,9.03h-0.22c-0.33,0-0.52,0.07-0.56,0.2c-0.02,0.06-0.03,0.48-0.03,1.27
			v1.26l0,0.15v0.38l0,0.16v0.38l0,0.3v0.45c0,0.33,0.03,0.55,0.09,0.64c0.06,0.1,0.26,0.14,0.6,0.14h0.22
			c0.98,0,1.64-0.48,1.98-1.44c0.11-0.32,0.17-0.64,0.17-0.98v-0.33c0-0.34-0.05-0.68-0.15-1.03c-0.19-0.67-0.58-1.14-1.18-1.4
			C128.06,9.08,127.76,9.03,127.41,9.03z"/>
		<path class="st0" d="M135.24,8.8c0-0.08,0.12-0.14,0.37-0.16c0.11-0.01,0.75-0.02,1.89-0.02l1.32,0c0.28,0,0.48,0.07,0.6,0.2
			s0.19,0.37,0.19,0.7c0,0.14-0.03,0.22-0.1,0.22c-0.03,0-0.11-0.06-0.24-0.18c-0.13-0.12-0.26-0.2-0.38-0.23
			c-0.4-0.11-0.84-0.17-1.33-0.17c-0.26,0-0.45,0.13-0.57,0.4c-0.12,0.26-0.18,0.62-0.18,1.07c0,0.26,0.08,0.44,0.23,0.54
			c0.15,0.1,0.38,0.16,0.68,0.16c0.11,0,0.25-0.06,0.42-0.19c0.17-0.13,0.29-0.19,0.35-0.19c0.07,0,0.14,0.05,0.2,0.15
			c0.07,0.1,0.1,0.29,0.1,0.58c0,0.29-0.05,0.48-0.14,0.57l-0.11,0.05c-0.05,0-0.21-0.1-0.47-0.28c-0.14-0.1-0.35-0.15-0.63-0.15
			c-0.28,0-0.48,0.09-0.59,0.26c-0.08,0.12-0.12,0.41-0.12,0.89c0,0.48,0.08,0.83,0.24,1.04c0.1,0.13,0.38,0.19,0.84,0.19
			c0.46,0,0.81-0.05,1.05-0.14c0.23-0.09,0.43-0.21,0.59-0.36c0.16-0.15,0.25-0.22,0.29-0.22c0.06,0,0.09,0.05,0.09,0.14
			c0,0.53-0.11,0.86-0.33,1c-0.1,0.07-0.59,0.1-1.45,0.1h-0.78c-1.01,0-1.61-0.01-1.79-0.03c-0.18-0.02-0.28-0.07-0.28-0.15
			c0-0.08,0.07-0.17,0.21-0.26c0.14-0.1,0.23-0.2,0.27-0.32c0.07-0.21,0.11-0.9,0.11-2.06l0.02-1.73c0-0.49-0.02-0.8-0.05-0.91
			s-0.13-0.2-0.29-0.26C135.32,8.99,135.24,8.91,135.24,8.8z"/>
		<path class="st0" d="M144.68,9c-0.17-0.05-0.25-0.13-0.25-0.23c0-0.1,0.12-0.15,0.37-0.15h0.26l0.13,0l0.39,0
			c0.54,0,0.86,0.01,0.97,0.04c0.11,0.03,0.16,0.08,0.16,0.17c0,0.06-0.09,0.13-0.26,0.22c-0.18,0.09-0.28,0.21-0.31,0.37
			c-0.07,0.32-0.1,1.15-0.1,2.49s0.03,2.06,0.08,2.15c0.08,0.13,0.37,0.2,0.89,0.2c0.52,0,0.86-0.04,1.03-0.12
			c0.17-0.08,0.34-0.25,0.51-0.51c0.17-0.26,0.28-0.39,0.35-0.39c0.11,0,0.16,0.09,0.16,0.27c0,0.64-0.08,1.03-0.25,1.17
			c-0.1,0.09-0.59,0.13-1.47,0.13h-0.39l-0.13,0h-0.26c-1.41,0-2.12-0.06-2.12-0.18c0-0.08,0.08-0.16,0.23-0.25
			c0.15-0.09,0.26-0.23,0.31-0.41c0.05-0.18,0.08-0.76,0.08-1.74l0.02-1.86c0-0.64-0.02-1.02-0.07-1.11
			C144.96,9.13,144.85,9.06,144.68,9z"/>
		<path class="st0" d="M155.59,8.64c0.19,0,0.29,0.05,0.29,0.14c0,0.07-0.08,0.15-0.24,0.23c-0.16,0.08-0.26,0.18-0.31,0.3
			c-0.05,0.12-0.07,0.61-0.07,1.46v0.2l0,0.2v0.2l0,0.1c0,0.07,0,0.14,0,0.2l-0.01,0.2l0,0.2v0.4l0,0.31l0.01,0.4l0.01,0.2
			c0,0.07,0,0.13,0,0.19c0,0.34,0.04,0.56,0.13,0.68c0.05,0.06,0.15,0.12,0.3,0.17c0.15,0.05,0.23,0.12,0.23,0.19
			c0,0.12-0.09,0.19-0.28,0.19h-0.19l-0.1,0c-0.06,0-0.13,0-0.2,0l-0.2-0.01c-0.07,0-0.13,0-0.2,0l-0.39,0.01
			c-0.51,0-0.76-0.05-0.76-0.16c0-0.08,0.09-0.16,0.26-0.24c0.17-0.08,0.28-0.17,0.32-0.28c0.08-0.21,0.11-0.75,0.11-1.61v-0.2
			l0-0.3c0-0.07,0-0.14,0-0.2l0-0.1c0-0.07,0-0.14,0-0.2l0.01-0.2c0-0.07,0-0.17,0-0.3l0-0.2l0-0.1l0-0.3c0-0.53-0.04-0.9-0.12-1.11
			c-0.05-0.12-0.13-0.2-0.26-0.24c-0.23-0.08-0.34-0.16-0.34-0.23c0-0.12,0.23-0.18,0.68-0.18l0.19,0l0.1,0h0.28l0.57-0.02H155.59z"
			/>
		<path class="st0" d="M164.86,11.71c0-0.21,0.23-0.32,0.68-0.32c0.26,0,0.39,0.05,0.39,0.16c0,0.06-0.06,0.17-0.18,0.32
			c-0.12,0.16-0.24,0.37-0.35,0.65c-0.11,0.28-0.17,0.54-0.17,0.79s0.09,0.47,0.27,0.69c0.09,0.11,0.22,0.21,0.38,0.29
			c0.16,0.09,0.24,0.15,0.24,0.19c0,0.04-0.02,0.07-0.05,0.09c-0.17,0.11-0.38,0.16-0.63,0.16s-0.49-0.05-0.72-0.15
			c-0.23-0.1-0.42-0.16-0.59-0.16c-0.05,0-0.25,0.07-0.62,0.21c-0.37,0.14-0.73,0.21-1.07,0.21c-0.51,0-0.93-0.16-1.27-0.46
			c-0.34-0.31-0.51-0.7-0.51-1.17c0-0.47,0.23-0.9,0.69-1.3c0.32-0.28,0.48-0.46,0.48-0.55c0-0.09-0.06-0.27-0.18-0.55
			c-0.12-0.28-0.18-0.53-0.18-0.77c0-0.34,0.13-0.63,0.39-0.89c0.26-0.26,0.59-0.38,0.99-0.38c0.4,0,0.72,0.11,0.95,0.32
			c0.23,0.21,0.34,0.47,0.34,0.76s-0.1,0.58-0.3,0.87c-0.2,0.28-0.3,0.56-0.3,0.82c0,0.26,0.12,0.52,0.37,0.78
			c0.14,0.15,0.33,0.23,0.56,0.23c0.06,0,0.12-0.04,0.19-0.12C164.79,12.26,164.86,12.02,164.86,11.71z M161.47,12.98v0.16
			c0,0.33,0.13,0.61,0.38,0.84s0.53,0.35,0.83,0.35h0.24c0.19,0,0.4-0.06,0.64-0.19c0.24-0.13,0.36-0.25,0.36-0.36v-0.03
			c0-0.05-0.26-0.39-0.79-1c-0.53-0.62-0.82-0.92-0.88-0.92c-0.17,0-0.33,0.14-0.51,0.41C161.56,12.5,161.47,12.75,161.47,12.98z
			 M162.28,9.81v0.09c0,0.19,0.1,0.47,0.31,0.85c0.12,0.23,0.24,0.34,0.34,0.34c0.09,0,0.21-0.1,0.36-0.3
			c0.16-0.2,0.24-0.38,0.24-0.53c0.01-0.04,0.01-0.06,0.01-0.08l0.01-0.14V9.92c0-0.23-0.06-0.44-0.17-0.62
			c-0.11-0.18-0.26-0.27-0.44-0.27h-0.05c-0.17,0-0.33,0.1-0.48,0.31C162.32,9.48,162.28,9.63,162.28,9.81z"/>
		<path class="st0" d="M115.86,26.2c0,0.46,0.02,0.77,0.05,0.93c0.03,0.16,0.1,0.29,0.21,0.4c0.11,0.11,0.17,0.2,0.17,0.28
			c0,0.13-0.42,0.19-1.27,0.19c-0.5,0-0.75-0.05-0.75-0.16c0-0.07,0.08-0.16,0.24-0.27c0.16-0.11,0.26-0.27,0.31-0.48
			c0.05-0.21,0.07-0.94,0.07-2.16c0-1.22-0.02-1.94-0.06-2.15c-0.04-0.21-0.12-0.36-0.24-0.45c-0.21-0.16-0.32-0.25-0.32-0.27
			c0-0.15,0.21-0.23,0.64-0.23h0.8c0.37,0,0.56,0.07,0.56,0.21c0,0.02-0.05,0.1-0.14,0.21c-0.09,0.12-0.15,0.28-0.19,0.49
			c-0.03,0.21-0.05,0.7-0.05,1.47c0,0.27,0.07,0.4,0.21,0.4c0.03,0,0.12-0.06,0.27-0.16c0.34-0.26,0.75-0.69,1.22-1.29
			c0.26-0.34,0.39-0.62,0.39-0.86l-0.03-0.22c0-0.09,0.05-0.15,0.15-0.18c0.1-0.03,0.35-0.04,0.75-0.04c0.4,0,0.6,0.05,0.6,0.15
			c0,0.04-0.21,0.22-0.64,0.54c-0.21,0.16-0.53,0.48-0.97,0.97c-0.43,0.49-0.65,0.84-0.65,1.06c0,0.15,0.52,0.89,1.57,2.21
			c0.22,0.28,0.4,0.47,0.53,0.58c0.34,0.28,0.51,0.43,0.51,0.45c0,0.13-0.26,0.19-0.79,0.19h-0.19c-0.26,0-0.46-0.06-0.59-0.19
			c-0.04-0.04-0.1-0.15-0.17-0.32c-0.07-0.17-0.21-0.41-0.41-0.73c-0.68-1.05-1.15-1.57-1.41-1.57
			C115.98,25.2,115.86,25.54,115.86,26.2z"/>
		<path class="st0" d="M126.77,21.87c0.19,0,0.29,0.05,0.29,0.14c0,0.07-0.08,0.15-0.24,0.23c-0.16,0.08-0.26,0.18-0.31,0.3
			c-0.05,0.12-0.07,0.61-0.07,1.46v0.2l0,0.2v0.2l0,0.1c0,0.07,0,0.14,0,0.2l-0.01,0.2l0,0.2v0.4l0,0.31l0.01,0.4l0.01,0.2
			c0,0.07,0,0.13,0,0.19c0,0.34,0.04,0.56,0.13,0.68c0.05,0.06,0.15,0.12,0.3,0.17c0.15,0.05,0.23,0.12,0.23,0.19
			c0,0.12-0.09,0.19-0.28,0.19h-0.19l-0.1,0c-0.06,0-0.13,0-0.2,0l-0.2-0.01c-0.07,0-0.13,0-0.2,0l-0.39,0.01
			c-0.51,0-0.76-0.05-0.76-0.16c0-0.08,0.09-0.16,0.26-0.24c0.17-0.08,0.28-0.17,0.32-0.28c0.08-0.21,0.11-0.75,0.11-1.61v-0.2
			l0-0.3c0-0.07,0-0.14,0-0.2l0-0.1c0-0.07,0-0.14,0-0.2l0.01-0.2c0-0.07,0-0.17,0-0.3l0-0.2l0-0.1l0-0.3c0-0.53-0.04-0.9-0.12-1.11
			c-0.05-0.12-0.13-0.2-0.26-0.24c-0.23-0.08-0.34-0.16-0.34-0.23c0-0.12,0.23-0.18,0.68-0.18l0.19,0l0.1,0h0.28l0.57-0.02H126.77z"
			/>
		<path class="st0" d="M133.45,27.81c0-0.07,0.1-0.15,0.3-0.25c0.2-0.1,0.32-0.27,0.36-0.5c0.04-0.23,0.07-0.99,0.07-2.28
			c0-1.29-0.02-2.01-0.07-2.16c-0.05-0.15-0.23-0.22-0.54-0.22s-0.53,0.04-0.67,0.12c-0.14,0.08-0.25,0.19-0.35,0.34
			c-0.19,0.3-0.31,0.45-0.34,0.45c-0.14,0-0.21-0.09-0.21-0.26v-0.13c0-0.6,0.07-0.94,0.21-1.01c0.05-0.03,0.82-0.04,2.31-0.04
			l1.82,0c0.1,0,0.2,0,0.3,0l0.29-0.01c0.15,0,0.25,0.04,0.3,0.11c0.08,0.12,0.12,0.42,0.12,0.91c0,0.25-0.04,0.38-0.12,0.38
			c-0.11,0-0.23-0.11-0.35-0.32c-0.12-0.21-0.26-0.36-0.4-0.43c-0.14-0.08-0.37-0.12-0.69-0.12c-0.32,0-0.51,0.07-0.56,0.22
			c-0.06,0.14-0.09,0.9-0.09,2.26c0,1.36,0.02,2.13,0.05,2.3c0.03,0.17,0.1,0.3,0.21,0.38c0.03,0.03,0.11,0.07,0.23,0.13
			c0.12,0.06,0.18,0.11,0.18,0.16c0,0.13-0.1,0.19-0.31,0.19h-0.29L134.34,28C133.75,28,133.45,27.94,133.45,27.81z"/>
		<path class="st0" d="M141.8,24.85c0-0.39,0.08-0.78,0.23-1.18c0.15-0.4,0.36-0.74,0.63-1.02c0.27-0.29,0.58-0.5,0.95-0.64
			c0.36-0.14,0.73-0.21,1.09-0.21c0.36,0,0.68,0.03,0.95,0.1c0.27,0.06,0.49,0.1,0.65,0.12c0.16,0.01,0.26,0.03,0.31,0.06
			c0.14,0.09,0.21,0.37,0.21,0.84c0,0.33-0.09,0.5-0.26,0.5c-0.06,0-0.18-0.12-0.34-0.37c-0.16-0.24-0.31-0.41-0.45-0.49
			c-0.31-0.19-0.65-0.28-1-0.28c-0.65,0-1.15,0.27-1.52,0.8c-0.3,0.44-0.45,1-0.45,1.7c0,0.87,0.16,1.54,0.49,2
			c0.37,0.52,0.91,0.79,1.61,0.79c0.37,0,0.69-0.08,0.95-0.24c0.13-0.08,0.29-0.22,0.46-0.41c0.18-0.19,0.32-0.29,0.42-0.29
			s0.15,0.07,0.15,0.2c0,0.13-0.05,0.3-0.15,0.49c-0.1,0.19-0.21,0.33-0.33,0.4c-0.12,0.07-0.35,0.15-0.68,0.24
			c-0.34,0.08-0.63,0.13-0.86,0.13h-0.31c-0.37,0-0.74-0.08-1.11-0.23c-0.72-0.31-1.21-0.85-1.46-1.62
			c-0.13-0.39-0.19-0.79-0.19-1.21V24.85z"/>
		<path class="st0" d="M157.58,27.83c0,0.13-0.33,0.19-0.99,0.19c-0.66,0-0.99-0.06-0.99-0.18c0-0.08,0.03-0.15,0.1-0.21
			c0.18-0.17,0.28-0.29,0.3-0.37c0.02-0.08,0.04-0.42,0.04-1.03s-0.07-0.96-0.2-1.05c-0.13-0.08-0.56-0.13-1.29-0.13
			c-0.73,0-1.17,0.05-1.32,0.16c-0.09,0.06-0.13,0.41-0.13,1.06s0.02,1,0.05,1.09c0.03,0.08,0.1,0.18,0.21,0.3
			c0.11,0.12,0.17,0.19,0.17,0.24c0,0.09-0.28,0.14-0.84,0.14l-0.21,0h-0.21c-0.53,0-0.8-0.07-0.8-0.22c0-0.07,0.09-0.15,0.27-0.24
			c0.18-0.09,0.29-0.21,0.33-0.35c0.04-0.14,0.07-0.87,0.07-2.19c0-1.32-0.02-2.09-0.06-2.29c-0.04-0.2-0.12-0.34-0.25-0.42
			c-0.23-0.13-0.34-0.22-0.34-0.26c0-0.12,0.43-0.18,1.29-0.18c0.5,0,0.75,0.05,0.75,0.16c0,0.08-0.04,0.14-0.11,0.2
			c-0.17,0.14-0.27,0.26-0.3,0.35c-0.03,0.09-0.04,0.4-0.04,0.94c0,0.53,0.06,0.84,0.19,0.92c0.13,0.08,0.56,0.12,1.3,0.12
			c0.74,0,1.16-0.04,1.26-0.11c0.1-0.07,0.15-0.3,0.15-0.69l0-0.21l0.01-0.21c0-0.09,0-0.23,0-0.43s-0.05-0.35-0.14-0.48l-0.2-0.2
			c-0.08-0.08-0.12-0.15-0.12-0.19c0-0.11,0.49-0.16,1.46-0.16c0.41,0,0.61,0.06,0.61,0.18c0,0.08-0.06,0.15-0.18,0.22
			c-0.23,0.13-0.36,0.24-0.38,0.34c-0.03,0.09-0.04,0.65-0.04,1.67l-0.03,2.4c0,0.38,0.05,0.63,0.14,0.76
			c0.04,0.05,0.13,0.12,0.27,0.19C157.51,27.72,157.58,27.78,157.58,27.83z"/>
		<path class="st0" d="M162.27,22.03c0-0.08,0.12-0.14,0.37-0.16c0.11-0.01,0.75-0.02,1.89-0.02l1.32,0c0.28,0,0.48,0.07,0.6,0.2
			c0.13,0.13,0.19,0.37,0.19,0.7c0,0.14-0.03,0.22-0.1,0.22c-0.03,0-0.11-0.06-0.24-0.18c-0.13-0.12-0.26-0.2-0.38-0.23
			c-0.4-0.11-0.84-0.17-1.33-0.17c-0.26,0-0.45,0.13-0.57,0.4c-0.12,0.26-0.18,0.62-0.18,1.07c0,0.26,0.08,0.44,0.23,0.54
			c0.15,0.1,0.38,0.16,0.68,0.16c0.11,0,0.25-0.06,0.42-0.19c0.17-0.13,0.29-0.19,0.35-0.19c0.07,0,0.14,0.05,0.2,0.15
			c0.07,0.1,0.1,0.29,0.1,0.58c0,0.29-0.05,0.48-0.14,0.57l-0.11,0.05c-0.05,0-0.21-0.1-0.47-0.28c-0.14-0.1-0.35-0.15-0.63-0.15
			c-0.28,0-0.48,0.09-0.59,0.26c-0.08,0.12-0.12,0.41-0.12,0.89c0,0.48,0.08,0.83,0.24,1.04c0.1,0.13,0.38,0.19,0.84,0.19
			s0.81-0.05,1.05-0.14c0.23-0.09,0.43-0.21,0.59-0.36c0.16-0.15,0.25-0.22,0.29-0.22c0.06,0,0.09,0.05,0.09,0.14
			c0,0.53-0.11,0.86-0.33,1c-0.1,0.07-0.59,0.1-1.45,0.1h-0.78c-1.01,0-1.61-0.01-1.79-0.03c-0.18-0.02-0.28-0.07-0.28-0.15
			s0.07-0.17,0.21-0.26c0.14-0.1,0.23-0.2,0.27-0.32c0.07-0.21,0.11-0.9,0.11-2.06l0.02-1.73c0-0.49-0.02-0.8-0.05-0.91
			c-0.04-0.11-0.13-0.2-0.29-0.26C162.35,22.22,162.27,22.13,162.27,22.03z"/>
		<path class="st0" d="M172.94,27.76c0,0.14-0.15,0.21-0.44,0.21h-0.6c-0.42,0-0.63-0.05-0.63-0.14c0-0.07,0.09-0.16,0.27-0.26
			c0.18-0.11,0.29-0.25,0.33-0.42c0.08-0.31,0.12-1.04,0.12-2.19c0-1.15-0.02-1.84-0.07-2.06c-0.05-0.22-0.13-0.39-0.27-0.51
			c-0.21-0.19-0.32-0.29-0.32-0.29c0-0.13,0.11-0.19,0.32-0.19c0.35,0,0.61,0.03,0.78,0.1c0.17,0.06,0.33,0.17,0.48,0.31
			c0.15,0.14,0.7,0.86,1.66,2.15c0.96,1.29,1.46,1.94,1.5,1.94c0.09,0,0.14-0.56,0.14-1.67l0.01-0.43l0-0.43
			c0-0.65-0.02-1.05-0.06-1.2c-0.04-0.14-0.14-0.26-0.28-0.36c-0.14-0.1-0.21-0.2-0.21-0.3c0-0.09,0.22-0.13,0.65-0.13h0.21
			c0.57,0,0.85,0.05,0.85,0.15s-0.09,0.21-0.25,0.34c-0.17,0.13-0.27,0.32-0.31,0.58c-0.06,0.38-0.08,0.99-0.08,1.84v1.6
			c0,0.14,0,0.28,0,0.42l0.01,0.42c0,0.29-0.02,0.48-0.06,0.56c-0.04,0.08-0.12,0.12-0.25,0.12c-0.19,0-0.44-0.2-0.76-0.59
			c-0.14-0.17-0.67-0.91-1.59-2.22c-0.92-1.31-1.44-1.96-1.54-1.96c-0.06,0-0.09,0.43-0.09,1.29l0.01,1.09
			c0,0.8,0.04,1.35,0.12,1.65c0.03,0.09,0.07,0.19,0.14,0.29l0.08,0.11C172.9,27.68,172.94,27.74,172.94,27.76z"/>
	</g>
	<g>
		<g id="CekHhr_1_">
			<g>
				<path d="M242.05,32.97c-0.69-0.39-1.83-0.75-2.38-1.29c-0.71-0.71-0.99-1.48-1.45-2.37c-0.66-1.28,0.46-4.81,1.63-5.72
					c1.56-1.21,3.27-1.8,5.23-1.69c0.4,0.02,0.82,0.01,1.22-0.06c1.5-0.3,1.68,0.88,1.74,1.78c0.08,1.06-0.68,1.56-1.77,1.76
					c-1.94,0.02-3.48,0.2-3.76,2.2c-0.05,0.33,0.31,1.44,0.51,1.58c0.41,0.29,0.98,0.55,1.46,0.51c0.86-0.07,1.71-0.34,2.54-0.6
					c1.1-0.35,1.81-0.97,1.85-2.29c0.07-2.47,0.41-4.94,0.36-7.4c-0.02-1.02-0.51-2.47-1.27-2.91c-0.82-0.48-2.28-0.26-3.3,0.1
					c-1.19,0.43-2.19,1.38-3.32,2.02c-0.33,0.19-0.89,0.26-1.22,0.11c-0.81-0.37-1.72-0.61-1.55-1.98c0.34-2.73,2.55-3.11,4.49-3.79
					c2.33-0.81,5.13-0.95,7.03,0.32c1.27,0.85,1.88,2.35,2.63,3.75c0.39,0.73,0.51,1.67,0.54,2.53c0.05,1.16-0.08,2.32-0.16,3.49
					c-0.11,1.61-0.28,3.22-0.38,4.83c-0.1,1.7,0.45,2.51,2.02,3.23c0.85,0.25,0.82,1.46,0.67,1.96c-0.13,0.45-0.81,0.91-1.33,1.06
					c-2.17,0.6-3.8-0.56-5.56-1.64c-0.64-0.39-1.91,0.28-2.9,0.43c-1.11,0.17-1.81,0.08-2.92,0.23
					C242.62,32.99,242.12,33.09,242.05,32.97z"/>
				<path d="M303.03,29.11c-0.59-0.68-0.41-1.39-0.89-2.15c0.05-0.03-0.31-0.56-0.37-0.83c-0.8-4.04-0.12-7.81,2.17-10.27
					c0.63-0.62,1.85-1.41,2.89-1.86c0.07-0.05,0.59-0.32,0.71-0.42c0.6-0.09,1.07-0.17,1.54-0.24c0.79-0.05,1.68,0.64,1.7,1.81
					c0.02,1.18-0.04,1.17-0.81,2.01c-0.3,0.32-2.15,1.05-2.61,1.25c-0.27,0.12-0.61,0.72-1,1.05c-0.25,0.56-0.63,1.73-0.78,2.82
					c-0.16,1.13-0.02,2.19,0.07,3.36c0,0.38-0.04,0.8,0.68,1.82c0.72,1.02,2.69,2.48,5.22,2.64c2.39,0.07,4.38-1.2,4.98-2.13
					c0.59-0.93,1.23-2.12,1.35-2.67c-0.1-2.01,0.36-2.53-0.38-4.83c-0.11-0.73-1.13-1.68-1.79-2.18c-0.59-0.45-1.51-0.45-2.14-0.87
					c-1.61-1.07-1.59-3.43,0.12-4.15c0.82-0.35,2.03,0.16,3.08,0.64c0.28,0.12,1.09,0.68,1.28,0.88c1.79,1.83,3.22,3.51,3.62,5.8
					c0.09,1.34,0.22,3.22-0.1,4.4c0.1,2.24-0.98,3.64-2.25,5.26c-0.63,0.8-1.87,1.87-2.78,2.36c-1.21,0.64-2.2,0.83-3.53,1.09
					c-1.19,0.23-2.49,0.03-3.72-0.13c-0.55-0.07-1.45-0.54-2.4-1c-0.65-0.45-2.2-1.48-2.58-1.82
					C303.92,30.42,303.63,29.79,303.03,29.11z"/>
				<path d="M276.47,19.41c0.03-0.63,0.03-1.19,0.07-1.22c-0.07-1.32,0.02-2.15-0.05-3.48c0,0,0.01,0,0.01,0
					c-0.04-0.84-0.01-2.28-0.05-3.07c0.07-0.44,0.02-1.61,0-2.03c-0.06-1.11,0.03-1.7-0.2-2.78c-0.47-2.16,0.4-3.51,2.57-3.6
					c0.4-0.02,1.03,0.23,1.27,0.75c0.17,0.1,0.25,0.35,0.3,0.8s-0.13,5.31-0.14,8.01c0,1.44-0.09,4.1-0.08,5.54
					c0,2.23,0.04,5.81,0.08,8.04c0.04,1.91,0.08,2.92,0.72,3.6c0.63,0.68,1.1,0.72,1.27,1.27c0.17,0.55,0.16,1.51-0.21,1.87
					c-0.66,0.64-1.76,0.93-2.61,0.57c-0.82-0.35-1.58-0.57-2.38-1.25c-0.8-0.68-0.76-1.95-0.85-3.13c-0.16-2.18,0.15-3.7,0.17-5.89
					C276.38,22.32,276.44,20.04,276.47,19.41z"/>
			</g>
		</g>
		<path d="M199.89,27.73c0.08-1.19,0.07-3.2,0-3.19c0.04-1.87-0.01-6.33-0.03-6.43c-0.01-3.18-0.01-5.99-0.02-8.79
			c0.07,0.01-0.2-1.76-0.17-2.64c0.03-1.02,0.34-2.06,0.58-3.02c0.23-0.9,1.27-1.21,1.87-1.13c1.88,0.23,2.34,0.95,2.1,3.26
			c-0.06,0.86,0.16,1.74,0.12,2.6c-0.06,1.15-0.31,2.29-0.38,3.45c-0.05,0.81,0.08,1.62,0.11,2.44c0.02,0.65,0.02,1.31,0.03,1.97
			c0.03,2.4,0.11,4.79,0.09,7.19c-0.02,1.76-0.18,3.52-0.24,5.28c-0.04,1.23,0.03,2.47-0.06,3.7c-0.04,0.52-0.08,1.35-0.56,1.45
			c-0.75,0.46-2,0.35-2.42,0.18s-0.62-0.51-0.76-1.16C200,32.23,199.81,27.67,199.89,27.73z"/>
		<path d="M217.13,26.6c0,0.97-0.15,1.98,0.06,2.9c0.22,0.99,0.82,1.52,1.12,2.5c0.15,0.48,0.15,1.34-0.14,1.58
			c-1.55,1.27-3.89,0.54-4.67,0.17c-0.37-0.06-0.77-1.12-0.79-1.73c-0.03-0.95,0.31-1.91,0.38-2.87c0.08-1.2,0.05-2.4,0.05-3.6
			c0.01-1.21,0.21-2.47-0.06-3.61c-0.27-1.15,0.1-2.66-1.35-3.11c-1.1-0.34-2.07,0.04-3.04,0.4c-0.71,0.26-1.41,0.5-1.79,0.37
			c-0.38-0.14-0.94-0.17-1.14-0.55c-0.22-0.41-0.27-1.27-0.13-1.69c0.14-0.42,1.07-1.19,1.65-1.34c0.21-0.06,0.37-0.25,0.61-0.41
			c0.07,0.03,0.67-0.26,0.77-0.22c0.16,0.06,0.31-0.14,0.42,0c0.08-0.24,0.65-0.24,0.73-0.29c0,0,0.42-0.04,0.53-0.02
			c1.76,0.26,3.54-0.69,5.36,1.56c0.09,0.28,0.34,0.54,0.42,0.82c0.33,1.12,0.66,2.25,0.78,3.4c0.16,1.64,0.13,3.3,0.16,4.95
			C217.08,26.06,217.06,26.59,217.13,26.6z"/>
	</g>
	<g>
		<path class="st0" d="M41.1,24.86c-0.36,0.07-0.67,0.35-0.87,0.69c-0.25,0.3-0.38,0.67-0.54,1.02c-0.15,0.38-0.29,0.73-0.22,1.12
			c-0.01,0.39,0.09,0.76,0.21,1.13c0.21,0.76,0.83,1.31,1.45,1.72c0.72,0.3,1.46,0.56,2.25,0.52c0.4,0.06,0.74-0.05,1.13-0.18
			c0.39-0.13,0.79-0.18,1.1-0.37c0.62-0.42,1.17-1.03,1.48-1.74c0.17-0.35,0.24-0.72,0.22-1.1c-0.04-0.38-0.15-0.76-0.29-1.11
			c-0.35-0.69-0.85-1.31-1.51-1.72l-0.01-0.01c-0.03-0.02-0.04-0.06-0.02-0.1c0.02-0.03,0.06-0.04,0.1-0.02
			c0.71,0.41,1.25,1.05,1.64,1.77c0.15,0.37,0.28,0.77,0.32,1.18c0.03,0.41-0.05,0.84-0.23,1.21c-0.33,0.75-0.87,1.38-1.56,1.86
			c-0.38,0.23-0.79,0.28-1.15,0.4c-0.36,0.13-0.8,0.26-1.2,0.19c-0.83,0.03-1.62-0.25-2.35-0.57c-0.69-0.45-1.31-1.06-1.54-1.85
			c-0.12-0.4-0.23-0.79-0.2-1.2c-0.07-0.41,0.1-0.83,0.25-1.18c0.18-0.36,0.31-0.75,0.58-1.07c0.21-0.34,0.53-0.64,0.97-0.73
			c0.04-0.01,0.08,0.02,0.08,0.06C41.17,24.82,41.14,24.86,41.1,24.86z"/>
		<g>
			<path class="st0" d="M42.98,23c-0.05-0.23,0-0.49,0.12-0.75c0.12-0.26,0.2-0.49,0.38-0.63c-0.26-0.18-0.69,0.01-0.93,0.21
				c-0.13,0.11-0.23,0.33-0.34,0.53c-0.09,0.17-0.08,0.37-0.07,0.6c0.01,0.22,0.06,0.49,0.25,0.69c0.23,0.22,0.48,0.3,0.6,0.35
				c-0.23,0.09-0.41,0.21-0.65,0.24c-0.24,0.02-0.5,0.01-0.74-0.03c-0.24-0.04-0.52-0.15-0.74-0.25c0.13,0.38,0.54,0.66,0.93,0.75
				c0.39,0.08,0.8,0,1.19-0.05c0.06,0.23,0.01,0.45-0.08,0.67c-0.09,0.21-0.24,0.38-0.42,0.53c-0.18,0.15-0.37,0.26-0.59,0.35
				c-0.21,0.09-0.48,0.18-0.7,0.25c0.2,0.13,0.6,0.25,0.96,0.23c0.31-0.01,0.66-0.08,0.91-0.27c0.26-0.2,0.46-0.46,0.59-0.72
				c0.15-0.28,0.19-0.62,0.22-0.92c0.15,0.18,0.24,0.48,0.3,0.78c0.05,0.26,0.03,0.53,0.03,0.81c-0.01,0.3,0.03,0.53-0.03,0.75
				c0.22-0.22,0.35-0.44,0.46-0.73c0.12-0.3,0.18-0.6,0.15-0.89c-0.03-0.32-0.11-0.61-0.34-0.82c0.3-0.04,0.59-0.16,0.84-0.34
				c0.25-0.18,0.53-0.38,0.68-0.64c0.16-0.27,0.27-0.61,0.27-0.91c0-0.22-0.14-0.45-0.24-0.65c-0.1-0.21-0.24-0.41-0.47-0.47
				c0.03,0.24,0.02,0.57-0.06,0.87c-0.08,0.29-0.17,0.61-0.31,0.81c-0.14,0.2-0.4,0.28-0.6,0.39c-0.22,0.12-0.43,0.14-0.66,0.13
				c-0.24-0.01-0.52,0.03-0.7-0.14C43.06,23.54,43.04,23.27,42.98,23z"/>
		</g>
		<g>
			<path class="st0" d="M37.63,20.41c-0.17-0.17-0.37-0.29-0.59-0.36c-0.23-0.07-0.52-0.1-0.76-0.04c0.23,0.21,0.53,0.45,0.7,0.71
				c0.18,0.28,0.25,0.58,0.21,0.91c-0.02,0.13-0.01,0.29-0.1,0.39c-0.12,0.13-0.31,0.14-0.49,0.16c-0.3,0.04-0.6,0.02-0.86-0.15
				c-0.25-0.15-0.45-0.35-0.64-0.57c-0.06,0.24-0.09,0.46,0,0.69c0.09,0.23,0.27,0.45,0.46,0.61c0.19,0.16,0.44,0.24,0.68,0.31
				c0.24,0.06,0.52,0.01,0.77-0.01c0.01,0.16-0.19,0.38-0.42,0.57c-0.16,0.14-0.3,0.36-0.54,0.45c-0.21,0.08-0.47,0.09-0.71,0.1
				c0.28,0.1,0.5,0.18,0.71,0.2c0.24,0.02,0.46-0.08,0.71-0.14c0.23-0.06,0.41-0.2,0.57-0.37c0.17-0.18,0.33-0.33,0.32-0.57
				c0.18,0.12,0.21,0.3,0.26,0.51c0.05,0.21,0.12,0.42,0.05,0.62c-0.07,0.2-0.14,0.43-0.29,0.59c-0.15,0.16-0.42,0.26-0.6,0.38
				c0.27,0.04,0.55-0.01,0.74-0.08c0.24-0.08,0.48-0.18,0.63-0.35c0.17-0.2,0.21-0.47,0.27-0.67c0.08-0.24-0.01-0.44-0.1-0.64
				c-0.1-0.24-0.18-0.4-0.33-0.5c0.32-0.02,0.58-0.13,0.84-0.25c0.27-0.13,0.53-0.29,0.74-0.52c0.15-0.16,0.27-0.38,0.34-0.61
				c0.06-0.21,0-0.45-0.03-0.69c-0.03-0.22-0.08-0.48-0.21-0.68c0.01,0.25-0.07,0.54-0.19,0.78c-0.11,0.23-0.2,0.51-0.39,0.69
				c-0.19,0.19-0.48,0.25-0.71,0.35c-0.25,0.12-0.5,0.22-0.74,0.19c0.01-0.2-0.04-0.45-0.03-0.7c0.01-0.23,0.13-0.48,0.09-0.71
				C37.95,20.77,37.8,20.58,37.63,20.41z"/>
		</g>
		<path class="st0" d="M34.86,23.78c-0.02,0-0.05-0.01-0.07-0.02c-0.06-0.04-0.08-0.12-0.05-0.19c0.15-0.25,0.49-0.49,0.66-0.54
			c0.07-0.02,0.15,0.01,0.17,0.09c0.02,0.07-0.01,0.15-0.09,0.17c-0.11,0.04-0.39,0.23-0.51,0.43
			C34.95,23.76,34.9,23.78,34.86,23.78z"/>
		<path class="st0" d="M34.61,24.4c-0.25,0.53-0.16,1.09-0.08,1.64c0.2,0.5,0.48,1.06,0.89,1.38c0.43,0.35,0.99,0.54,1.51,0.7
			c0.55,0.06,1.14,0.17,1.64-0.09c0.04-0.02,0.09-0.01,0.11,0.03c0.02,0.04,0.01,0.09-0.03,0.11c-0.27,0.15-0.57,0.22-0.87,0.24
			c-0.3-0.01-0.6-0.04-0.89-0.07c-0.57-0.16-1.15-0.34-1.63-0.71c-0.25-0.18-0.44-0.45-0.58-0.71c-0.14-0.26-0.28-0.51-0.37-0.81
			c-0.07-0.3-0.06-0.6-0.08-0.9c0-0.31,0.12-0.6,0.24-0.86l0-0.01c0.02-0.04,0.07-0.06,0.11-0.04
			C34.61,24.31,34.63,24.35,34.61,24.4C34.62,24.4,34.61,24.4,34.61,24.4z"/>
		<path class="st0" d="M39.78,22.99c0.4,0.13,0.72,0.49,0.78,0.94c0.01,0.05-0.03,0.09-0.07,0.1c-0.05,0.01-0.09-0.02-0.1-0.07
			l0-0.01c-0.08-0.34-0.42-0.56-0.69-0.8l-0.01-0.01c-0.04-0.03-0.04-0.09-0.01-0.13C39.71,22.99,39.75,22.98,39.78,22.99z"/>
		<path class="st0" d="M61.94,21.09c0.2-0.75,0.84-1.25,1.39-1.7c0.57-0.45,1.22-0.82,1.85-1.18c0.34-0.15,0.65-0.33,1.01-0.45
			c0.18-0.06,0.36-0.12,0.6-0.09c0.23,0.04,0.41,0.2,0.51,0.37c0.2,0.37,0.3,0.67,0.3,1.14c-0.21,0.27-0.37,0.22-0.55,0.31
			l-0.25,0.09c-0.07,0.01-0.17,0.12-0.14,0.05l-0.07-0.06c0.39,0.12,0.81,0.05,1.24,0.13l0.01,0c0.02,0,0.04,0.02,0.05,0.04
			c0.33,0.64,0.34,1.31,0.39,1.99c0,0.17,0,0.35-0.09,0.54c-0.14,0.24-0.38,0.22-0.54,0.24c-0.35,0.01-0.68-0.04-1.01-0.11
			c-0.66-0.12-1.3-0.28-1.94-0.32c-0.65-0.06-1.29,0.09-1.9,0.28l-0.01,0c-0.02,0.01-0.04,0.01-0.05,0
			c-0.18-0.05-0.36-0.18-0.42-0.38c-0.06-0.19-0.01-0.39,0.08-0.55l0.01-0.01l0-0.01c0.17-0.21,0.44-0.39,0.7-0.44l0.01,0
			c0.05-0.01,0.1,0.02,0.11,0.07c0.01,0.05-0.02,0.1-0.07,0.11c-0.26,0.06-0.44,0.19-0.62,0.39l0.01-0.02
			c-0.16,0.26-0.08,0.59,0.22,0.66l-0.06,0c0.64-0.22,1.31-0.39,1.99-0.33c0.68,0.04,1.33,0.19,1.97,0.29
			c0.32,0.06,0.65,0.12,0.96,0.12c0.15,0,0.32-0.03,0.34-0.1c0.06-0.1,0.07-0.27,0.07-0.43c-0.03-0.63-0.04-1.33-0.31-1.89
			l0.06,0.04c-0.39-0.08-0.83-0.01-1.25-0.13l-0.03-0.01c-0.02-0.01-0.04-0.03-0.04-0.05c0.03-0.27,0.17-0.22,0.24-0.28L67,19.3
			c0.15-0.05,0.39-0.16,0.4-0.18c-0.03-0.25-0.13-0.68-0.3-0.93c-0.18-0.3-0.47-0.3-0.82-0.18c-0.33,0.1-0.65,0.28-0.98,0.42
			c-0.63,0.35-1.26,0.69-1.83,1.13c-0.3,0.21-0.56,0.45-0.81,0.7c-0.28,0.23-0.43,0.55-0.54,0.88c-0.02,0.05-0.07,0.07-0.12,0.06
			C61.95,21.18,61.93,21.13,61.94,21.09z"/>
		<g>
			<g>
				<g>
					<path class="st0" d="M60.79,20.71c0.04-0.19-0.06-0.42-0.23-0.53c-0.17-0.11-0.42-0.09-0.64-0.08
						c-0.22,0.02-0.43,0.08-0.64,0.15c-0.22,0.07-0.39,0.16-0.55,0.32c-0.03,0.03-0.15,0.03-0.18-0.01
						c-0.03-0.03,0.03-0.08,0.04-0.11c0.12-0.24,0.35-0.37,0.58-0.46c0.24-0.09,0.48-0.07,0.73-0.08c0.25,0,0.5-0.01,0.73,0.15
						c0.22,0.15,0.42,0.41,0.35,0.69c-0.01,0.05-0.08,0.06-0.13,0.05C60.82,20.8,60.78,20.76,60.79,20.71z"/>
				</g>
				<g>
					<path class="st0" d="M57.87,20.07c-0.21-0.14-0.47-0.2-0.71-0.15c-0.24,0.05-0.46,0.22-0.59,0.43
						c-0.02,0.04-0.08,0.06-0.13,0.04c-0.04-0.02-0.07-0.08-0.06-0.12c0.11-0.31,0.42-0.51,0.73-0.57c0.31-0.07,0.66,0,0.89,0.23
						c0.03,0.04,0.01,0.08-0.03,0.12C57.93,20.07,57.9,20.09,57.87,20.07z"/>
				</g>
				<g>
					<path class="st0" d="M54.42,20.45c-0.21-0.23-0.5-0.32-0.79-0.25c-0.29,0.07-0.56,0.25-0.66,0.55
						c-0.02,0.06-0.08,0.08-0.13,0.06c-0.06-0.02-0.07-0.06-0.06-0.11c0.1-0.37,0.38-0.73,0.78-0.81c0.39-0.08,0.84,0.07,1.09,0.37
						c0.04,0.05-0.01,0.13-0.05,0.17C54.56,20.46,54.46,20.49,54.42,20.45z"/>
				</g>
				<g>
					<path class="st0" d="M56.61,21c-0.03-0.31-0.28-0.61-0.56-0.73c-0.14-0.07-0.3-0.09-0.46-0.08c-0.08,0.01-0.14,0.07-0.22,0.1
						c-0.07,0-0.09,0.04-0.11-0.04c0.04,0.04,0.02,0.09-0.02,0.13c-0.04,0.04-0.07,0.07-0.11,0.03c-0.09-0.09-0.06-0.25-0.02-0.28
						c0.04-0.05,0.12-0.07,0.17-0.08c0.09-0.04,0.19-0.03,0.29-0.04c0.2-0.02,0.42-0.07,0.6,0.01c0.37,0.17,0.58,0.6,0.6,0.99
						c0,0.06-0.05,0.09-0.11,0.1C56.61,21.09,56.61,21.06,56.61,21z"/>
				</g>
				<g>
					<path class="st0" d="M52.58,21.63c-0.15-0.13-0.33-0.27-0.52-0.31c-0.2-0.05-0.42,0.01-0.6,0.08
						c-0.35,0.14-0.59,0.65-0.39,0.95c0.04,0.06,0.05,0.12-0.01,0.16c-0.06,0.04-0.09,0-0.14-0.06c0,0-0.01,0-0.01,0
						c-0.14-0.25-0.17-0.5-0.08-0.73c0.1-0.24,0.27-0.5,0.51-0.6c0.24-0.1,0.5-0.01,0.74,0.04c0.24,0.05,0.48,0.12,0.67,0.28
						c0.06,0.05,0.11,0.16,0.06,0.21c-0.05,0.06-0.19,0.06-0.25,0.02C52.56,21.66,52.58,21.63,52.58,21.63z"/>
				</g>
				<g>
					<path class="st0" d="M51.49,22.55c-0.39-0.07-0.76,0.06-1.08,0.25c-0.32,0.17-0.5,0.56-0.27,0.85
						c0.03,0.04,0.03,0.14-0.01,0.17c-0.04,0.03-0.08-0.04-0.11-0.07c-0.17-0.19-0.26-0.41-0.2-0.64c0.06-0.23,0.23-0.44,0.43-0.56
						c0.19-0.13,0.41-0.19,0.63-0.22c0.23-0.02,0.44,0.02,0.65,0.1c0.05,0.02,0.06,0.03,0.04,0.08
						C51.55,22.54,51.53,22.55,51.49,22.55z"/>
				</g>
				<g>
					<path class="st0" d="M49.45,24.64c-0.28,0.05-0.5,0.24-0.61,0.48c-0.1,0.25-0.03,0.54,0.14,0.76c0.04,0.04,0.02,0.16-0.02,0.2
						c-0.04,0.03-0.11-0.02-0.14-0.06c-0.24-0.27-0.34-0.65-0.22-0.99c0.12-0.36,0.47-0.6,0.81-0.64c0.06-0.01,0.09,0.04,0.1,0.1
						C49.52,24.54,49.51,24.63,49.45,24.64z"/>
				</g>
				<g>
					<path class="st0" d="M49.03,25.99c-0.09,0.14-0.18,0.26-0.28,0.38c-0.09,0.13-0.3,0.22-0.32,0.36
						c-0.05,0.29,0.23,0.59,0.51,0.67c0,0,0.02-0.04,0.02-0.04c0,0,0,0.02,0,0.03c0.05,0.02,0.03,0.12,0.02,0.18
						c0,0.01,0.08,0.08,0.07,0.09c-0.2,0.25-0.18,0.57,0.04,0.81c0.22,0.24,0.56,0.29,0.89,0.23c0.05-0.01,0.21,0.07,0.22,0.12
						c0.01,0.05-0.11,0.16-0.16,0.17c0,0-0.01-0.03-0.01-0.03c-0.19,0.04-0.38-0.03-0.58-0.09c-0.19-0.05-0.45-0.03-0.59-0.18
						c-0.14-0.15-0.11-0.42-0.13-0.62c-0.02-0.2-0.03-0.36,0.1-0.54c0.09,0,0.06,0.03,0.09,0.11c0,0-0.05,0.07-0.06,0.07
						c-0.2-0.05-0.32-0.26-0.42-0.43c-0.11-0.17-0.22-0.36-0.2-0.55c0.02-0.2,0.16-0.34,0.26-0.5c0.13-0.14,0.22-0.32,0.37-0.42
						c0.04-0.03,0.11-0.02,0.14,0.03c0.02,0.03,0.02,0.08,0,0.11C49.03,25.97,49.04,25.97,49.03,25.99z"/>
				</g>
				<g>
					<path class="st0" d="M50.26,29.37c-0.07,0.33-0.04,0.71,0.2,0.94c0.21,0.25,0.6,0.37,0.94,0.32c0.05-0.01,0.1-0.02,0.11,0.02
						c0.01,0.04-0.02,0.12-0.06,0.13c-0.2,0.08-0.42,0.03-0.63-0.02c-0.2-0.05-0.41-0.13-0.56-0.28c-0.14-0.16-0.2-0.37-0.23-0.58
						c-0.04-0.21-0.04-0.42,0.06-0.61c0.02-0.04,0.05-0.02,0.09,0C50.2,29.33,50.26,29.34,50.26,29.37z"/>
				</g>
				<g>
					<path class="st0" d="M52.26,30.23c0.1,0.26,0.41,0.43,0.67,0.39c0.26-0.03,0.46-0.25,0.54-0.52c0.01-0.05,0.09-0.06,0.14-0.05
						c0.04,0.01,0.07,0.04,0.07,0.08c-0.01,0.38-0.34,0.7-0.73,0.73c-0.39,0.02-0.75-0.22-0.86-0.58c-0.01-0.05,0.02-0.07,0.07-0.08
						C52.21,30.19,52.24,30.18,52.26,30.23z"/>
				</g>
				<g>
					<path class="st0" d="M53.8,30.01c0.12,0.28,0.35,0.45,0.63,0.51c0.28,0.06,0.58,0.01,0.8-0.2c0.04-0.04,0.11-0.03,0.15,0.01
						c0.04,0.04,0.02,0.09-0.02,0.12c-0.25,0.27-0.62,0.39-0.99,0.33c-0.37-0.09-0.66-0.36-0.77-0.7c-0.02-0.05,0.01-0.07,0.06-0.09
						C53.71,29.99,53.78,29.97,53.8,30.01z"/>
				</g>
				<g>
					<path class="st0" d="M57.29,28.79c0.37,0.18,0.77,0.39,1.08,0.19c0.31-0.18,0.3-0.65,0.21-1.04c-0.01-0.04-0.03-0.09,0.01-0.1
						c0.04-0.01,0.04,0.05,0.05,0.08c0.1,0.2,0.17,0.39,0.17,0.63c0,0.24-0.1,0.5-0.33,0.62c-0.22,0.12-0.44,0.12-0.66,0.08
						c-0.24-0.05-0.46-0.14-0.63-0.27c-0.04-0.02-0.05-0.07-0.02-0.11C57.19,28.82,57.25,28.77,57.29,28.79z"/>
				</g>
				<g>
					<path class="st0" d="M56.02,29.8c0.25,0.17,0.67,0.11,0.85-0.13c0.21-0.23,0.19-0.62,0.09-0.94c-0.02-0.06,0.06-0.11,0.12-0.13
						c0.06-0.02,0.16-0.02,0.18,0.03c0.07,0.19,0.01,0.41-0.01,0.62c-0.03,0.2-0.07,0.39-0.2,0.56c-0.14,0.16-0.34,0.25-0.55,0.28
						c-0.21,0.04-0.45,0.06-0.63-0.07c-0.05-0.04-0.06-0.16-0.02-0.21C55.88,29.77,55.97,29.76,56.02,29.8z"/>
				</g>
				<g>
					<path class="st0" d="M62.98,22.86c0.12,0.16,0.24,0.34,0.29,0.54c0.06,0.19,0.07,0.41,0.03,0.61c-0.03,0.2-0.17,0.4-0.34,0.53
						c-0.16,0.14-0.34,0.24-0.54,0.28c-0.05,0.01-0.06-0.03-0.07-0.08c-0.01-0.05-0.01-0.03,0.04-0.05
						c0.17-0.05,0.33-0.16,0.45-0.28c0.12-0.12,0.1-0.3,0.14-0.47c0.08-0.33,0.03-0.68-0.17-0.98c-0.03-0.04-0.05-0.15,0-0.18
						C62.87,22.76,62.95,22.82,62.98,22.86z"/>
				</g>
				<g>
					<path class="st0" d="M62.3,24.33c0.16,0.19,0.29,0.43,0.33,0.67c0.04,0.24,0,0.51-0.09,0.74c-0.1,0.23-0.32,0.36-0.52,0.51
						c-0.2,0.14-0.4,0.33-0.65,0.35c-0.06,0-0.08-0.1-0.09-0.16c0-0.06,0-0.12,0.06-0.13c0.2-0.02,0.41-0.06,0.57-0.18
						c0.16-0.12,0.3-0.3,0.37-0.49c0.08-0.18,0.02-0.39-0.01-0.59c-0.03-0.2-0.06-0.39-0.19-0.54c-0.04-0.05-0.05-0.16,0-0.2
						C62.13,24.26,62.26,24.28,62.3,24.33z"/>
				</g>
				<g>
					<path class="st0" d="M60.75,26.21c0.08,0.18,0.21,0.35,0.25,0.56c0.04,0.2,0.01,0.46-0.12,0.65c-0.11,0.2-0.31,0.34-0.52,0.4
						c-0.21,0.06-0.47,0.07-0.66-0.05c-0.05-0.03-0.04-0.11-0.01-0.15c0.02-0.04,0.06-0.02,0.1,0c0.31,0.11,0.7-0.07,0.88-0.33
						c0.18-0.27,0.06-0.66-0.08-1.01c-0.02-0.05,0.01-0.08,0.06-0.1C60.69,26.16,60.72,26.16,60.75,26.21z"/>
				</g>
				<g>
					<path class="st0" d="M55.16,24.34c-0.29,0.01-0.6,0.13-0.8,0.33c-0.2,0.21-0.28,0.54-0.24,0.83c0.01,0.06-0.02,0.15-0.08,0.16
						c-0.06,0.01-0.12-0.07-0.13-0.12c-0.07-0.36,0.07-0.71,0.31-0.99c0.24-0.29,0.6-0.47,0.96-0.42c0.06,0.01,0.06,0.07,0.05,0.13
						C55.22,24.31,55.21,24.34,55.16,24.34z"/>
				</g>
				<g>
					<path class="st0" d="M51.37,25.35c-0.06,0-0.07-0.01-0.08-0.07c-0.05-0.21-0.05-0.42,0.03-0.62c0.08-0.2,0.18-0.41,0.36-0.53
						c0.18-0.12,0.4-0.19,0.62-0.2c0.22,0,0.41,0.1,0.6,0.22c0.06,0.04,0.1,0.09,0.06,0.15c-0.04,0.06-0.11,0.07-0.18,0.03
						c-0.28-0.18-0.67-0.17-0.94,0.02c-0.27,0.19-0.41,0.56-0.33,0.87c0.02,0.07-0.03,0.11-0.11,0.12
						C51.38,25.35,51.37,25.35,51.37,25.35z"/>
				</g>
				<g>
					<path class="st0" d="M52.08,26.85c-0.27,0.03-0.47,0.25-0.54,0.5c-0.08,0.25-0.11,0.55-0.06,0.85
						c0.01,0.06-0.01,0.16-0.06,0.17c-0.05,0.01-0.15-0.06-0.16-0.12c-0.07-0.3-0.13-0.65-0.01-0.99c0.12-0.34,0.45-0.57,0.81-0.59
						c0.06,0,0.15,0.02,0.15,0.08C52.22,26.8,52.13,26.84,52.08,26.85z"/>
				</g>
				<g>
					<path class="st0" d="M55.28,22.43c-0.16-0.19-0.5-0.13-0.71,0.01c-0.23,0.12-0.39,0.36-0.41,0.63c0,0.05-0.08,0.1-0.14,0.1
						c-0.05,0-0.11-0.06-0.11-0.11c0-0.35,0.22-0.66,0.52-0.85c0.3-0.16,0.72-0.19,0.96,0.14c0.03,0.04,0.06,0.12,0.02,0.15
						c-0.04,0.03-0.14,0-0.17-0.04C55.24,22.44,55.28,22.43,55.28,22.43z"/>
				</g>
				<g>
					<path class="st0" d="M65.07,21.11c-0.07,0-0.18-0.04-0.18-0.11c-0.01-0.08,0.1-0.14,0.17-0.15c0.29-0.03,0.61-0.1,0.9-0.11
						c0.38-0.01,0.72-0.01,0.9,0c0.07,0,0.18,0.12,0.18,0.19c0,0.07-0.12,0.19-0.19,0.19c0,0-0.01-0.02-0.01-0.02
						c-0.18-0.01-0.5,0-0.87,0.02c-0.29,0.01-0.6-0.02-0.89,0.01C65.08,21.12,65.08,21.11,65.07,21.11z"/>
				</g>
			</g>
		</g>
		<path class="st0" d="M56.34,14.92c0.85-1.4,1.72-2.84,3.05-3.85c0.65-0.48,1.32-1.1,2.24-1.04c0.43,0.04,0.82,0.23,1.21,0.36
			c0.36,0.21,0.74,0.39,1.04,0.69c0.32,0.26,0.61,0.57,0.9,0.86c0.25,0.34,0.51,0.66,0.69,1.05c0.16,0.41,0.22,0.83,0.18,1.27
			c-0.08,0.44-0.27,0.8-0.45,1.18c-0.87,1.43-2.07,2.57-3.32,3.63c-0.04,0.03-0.1,0.03-0.13-0.01c-0.03-0.04-0.03-0.1,0.01-0.13
			l0.01,0c1.22-1.06,2.4-2.21,3.22-3.6c0.16-0.35,0.34-0.73,0.4-1.1c0.03-0.37-0.03-0.78-0.17-1.13c-0.16-0.34-0.41-0.67-0.64-0.99
			c-0.28-0.29-0.55-0.58-0.86-0.84c-0.28-0.3-0.65-0.46-0.99-0.67c-0.37-0.13-0.74-0.3-1.12-0.34c-0.76-0.07-1.46,0.51-2.08,0.98
			c-1.3,0.97-2.18,2.39-3.02,3.75l-0.01,0.02c-0.03,0.04-0.08,0.06-0.13,0.03C56.33,15.02,56.31,14.96,56.34,14.92z"/>
		<g>
			<path class="st0" d="M60.26,13.26c0.02,0.21,0.2,0.39,0.36,0.6c0.16,0.21,0.28,0.44,0.46,0.55c0.23,0.1,0.45,0.21,0.67,0.32
				l0.73,0.2c0.06,0.02,0.1,0.08,0.08,0.14c-0.02,0.06-0.08,0.1-0.14,0.08l-0.01,0l-0.76-0.18c-0.24-0.11-0.48-0.22-0.72-0.34
				c-0.26-0.17-0.38-0.43-0.52-0.62c-0.14-0.2-0.35-0.4-0.39-0.72c-0.01-0.06,0.04-0.12,0.1-0.13
				C60.19,13.15,60.25,13.19,60.26,13.26L60.26,13.26z"/>
			<path class="st0" d="M62.46,15.18c-0.02,0-0.04,0-0.06-0.01c-0.27-0.13-0.53-0.36-0.83-0.73c-0.31-0.37-0.5-0.74-0.5-0.99
				c0-0.07,0.06-0.14,0.13-0.14c0,0,0,0,0,0c0.07,0,0.13,0.06,0.14,0.13c0.01,0.19,0.18,0.51,0.44,0.83
				c0.27,0.33,0.52,0.55,0.74,0.66c0.07,0.03,0.1,0.11,0.06,0.18C62.56,15.15,62.51,15.18,62.46,15.18z"/>
			<path class="st0" d="M58.79,14.93c0.1,0.2,0.24,0.38,0.39,0.54c0.15,0.17,0.36,0.28,0.54,0.41c0.37,0.28,0.78,0.48,1.18,0.71
				l0.03,0.02c0.06,0.03,0.08,0.11,0.04,0.16c-0.03,0.06-0.1,0.08-0.16,0.05c-0.42-0.23-0.87-0.43-1.26-0.72
				c-0.19-0.14-0.41-0.26-0.57-0.45c-0.17-0.18-0.31-0.39-0.42-0.61c-0.03-0.06-0.01-0.13,0.05-0.16
				C58.69,14.85,58.76,14.87,58.79,14.93z"/>
			<path class="st0" d="M60.07,17.13l-1.04-0.25c-0.34-0.13-0.65-0.31-0.93-0.57c-0.05-0.04-0.05-0.12,0-0.17
				c0.04-0.05,0.12-0.05,0.17,0c0.24,0.22,0.56,0.36,0.86,0.49l0.98,0.26l0.02,0.01c0.06,0.02,0.1,0.08,0.08,0.14
				C60.2,17.11,60.13,17.15,60.07,17.13z"/>
		</g>
		<path class="st0" d="M64.45,10.94c0.41-0.28,0.81-0.62,1.31-0.72c0.47-0.16,0.96-0.27,1.44-0.36c0.49-0.04,0.98-0.1,1.48-0.05
			c0.49,0.01,1,0.05,1.48,0.24c0.06,0.02,0.08,0.09,0.06,0.14c-0.02,0.06-0.09,0.08-0.14,0.06c-0.43-0.17-0.92-0.2-1.4-0.21
			c-0.48-0.04-0.96,0.02-1.44,0.07c-0.47,0.09-0.94,0.22-1.39,0.35c-0.49,0.08-0.85,0.39-1.25,0.64l-0.02,0.02
			c-0.05,0.03-0.12,0.02-0.15-0.03C64.39,11.04,64.4,10.97,64.45,10.94z"/>
		<path class="st0" d="M63.74,11.01c0.49-0.84,1.16-1.5,1.88-2.1c0.61-0.71,1.36-1.27,2.03-1.93c0.7-0.62,1.42-1.23,2.21-1.73
			c0.74-0.57,1.51-1.13,2.39-1.46l0.02-0.01c0.05-0.02,0.1,0.01,0.11,0.05c0.02,0.05-0.01,0.1-0.05,0.11
			c-0.87,0.33-1.62,0.89-2.35,1.47c-0.78,0.51-1.49,1.12-2.17,1.75c-0.65,0.67-1.42,1.2-2.04,1.91c-0.71,0.6-1.39,1.24-1.88,2.01
			l-0.01,0.01c-0.03,0.04-0.08,0.05-0.12,0.03C63.73,11.11,63.71,11.05,63.74,11.01z"/>
		<path class="st0" d="M62.42,9.47c0.36-0.06,0.57-0.48,0.69-0.87l0.19-0.59l0.09-0.61c0.05-0.2,0.01-0.41,0.02-0.62
			c0.02-0.21-0.01-0.41-0.07-0.61c-0.08-0.41-0.23-0.8-0.36-1.19l-0.01-0.02c-0.02-0.05,0.01-0.11,0.06-0.13
			c0.05-0.02,0.11,0.01,0.13,0.06c0.15,0.41,0.31,0.81,0.41,1.24c0.07,0.21,0.1,0.42,0.09,0.64c0,0.22,0.04,0.44-0.01,0.65
			l-0.1,0.65l-0.22,0.62c-0.14,0.38-0.36,0.89-0.88,0.98c-0.06,0.01-0.11-0.03-0.12-0.08C62.31,9.54,62.35,9.49,62.42,9.47
			L62.42,9.47L62.42,9.47z"/>
		<path class="st0" d="M65.62,3.93l0.09,0.93l-0.15,0.92l-0.19,0.9l-0.29,0.88c-0.27,0.55-0.53,1.11-0.77,1.67
			c-0.34,0.51-0.7,1.01-1.07,1.51c-0.03,0.05-0.1,0.06-0.15,0.02c-0.05-0.03-0.06-0.1-0.02-0.15l0.01-0.02
			c0.35-0.48,0.69-0.98,1.02-1.48c0.24-0.55,0.48-1.11,0.74-1.65c0.2-0.57,0.35-1.15,0.48-1.74l0.17-0.88l-0.07-0.88l0-0.02
			c0-0.06,0.04-0.11,0.1-0.11C65.56,3.83,65.61,3.87,65.62,3.93z"/>
		<g>
			<path class="st0" d="M66.53,7.86c-0.09-0.51,0.03-1.07,0.28-1.53c0.25-0.46,0.56-0.89,1.02-1.18c0.05-0.03,0.11-0.02,0.14,0.03
				c0.03,0.05,0.01,0.11-0.03,0.14c-0.4,0.26-0.69,0.68-0.91,1.12c-0.24,0.44-0.25,0.91-0.3,1.41c0,0.06-0.05,0.1-0.11,0.09
				C66.57,7.94,66.53,7.91,66.53,7.86z"/>
			<path class="st0" d="M65.71,5.04c0.3-0.05,0.57-0.08,0.83-0.18c0.27-0.09,0.51-0.25,0.74-0.4c0.25-0.13,0.42-0.37,0.62-0.56
				c0.2-0.19,0.33-0.44,0.53-0.65l0.03-0.03c0.04-0.04,0.09-0.04,0.13,0c0.03,0.03,0.04,0.08,0.02,0.11
				c-0.15,0.26-0.3,0.53-0.5,0.76c-0.22,0.2-0.4,0.45-0.68,0.59c-0.26,0.16-0.51,0.32-0.8,0.4c-0.29,0.1-0.6,0.13-0.87,0.17
				c-0.05,0.01-0.1-0.03-0.11-0.08C65.62,5.1,65.66,5.05,65.71,5.04z"/>
			<path class="st0" d="M68.81,1.93l-0.68,0.32l-0.61,0.44l-0.52,0.54l-0.38,0.65l-0.01,0.01c-0.03,0.05-0.09,0.07-0.14,0.04
				c-0.05-0.03-0.07-0.09-0.04-0.14l0.38-0.7l0.53-0.59l0.66-0.45l0.73-0.31c0.05-0.02,0.12,0,0.14,0.06c0.02,0.05,0,0.11-0.05,0.14
				L68.81,1.93z"/>
			<path class="st0" d="M65.48,3.01c0.09-0.48-0.03-0.97-0.28-1.39c-0.24-0.41-0.64-0.77-1.07-0.94l-0.01,0
				c-0.06-0.02-0.09-0.09-0.07-0.15c0.02-0.06,0.09-0.09,0.15-0.07c0.53,0.2,0.94,0.57,1.23,1.03c0.28,0.46,0.4,1.03,0.29,1.57
				c-0.01,0.06-0.08,0.11-0.14,0.09C65.51,3.13,65.47,3.07,65.48,3.01z"/>
			<path class="st0" d="M64.77,5.69c-0.52-0.42-0.87-1.04-1-1.68c-0.08-0.31-0.14-0.65-0.11-0.99c0.03-0.34,0.14-0.66,0.27-0.96
				c0.02-0.05,0.09-0.08,0.14-0.05c0.05,0.02,0.08,0.08,0.06,0.14c-0.12,0.29-0.2,0.59-0.22,0.89c-0.01,0.3,0.05,0.6,0.12,0.91
				c0.11,0.62,0.41,1.17,0.88,1.58c0.05,0.04,0.05,0.11,0.01,0.15C64.88,5.72,64.82,5.73,64.77,5.69z"/>
			<path class="st0" d="M63.3,7.47L62.7,6.9L62.2,6.22c-0.12-0.25-0.24-0.5-0.35-0.76c-0.09-0.26-0.17-0.57-0.04-0.88
				c0.02-0.06,0.09-0.08,0.15-0.06c0.06,0.02,0.08,0.09,0.06,0.15c-0.16,0.44,0.22,0.95,0.4,1.42l0.45,0.65l0.56,0.56l0.01,0.01
				c0.04,0.04,0.04,0.12,0,0.16C63.41,7.51,63.34,7.51,63.3,7.47z"/>
			<path class="st0" d="M72.07,6.03C71.82,6.29,71.61,6.6,71.3,6.8c-0.29,0.22-0.58,0.44-0.94,0.53c-0.33,0.16-0.7,0.19-1.06,0.2
				c-0.36,0.04-0.72-0.08-1.08-0.12c-0.06-0.01-0.11-0.06-0.1-0.12c0.01-0.06,0.06-0.1,0.12-0.1l0.05,0
				c0.34,0.02,0.67,0.12,1.01,0.08c0.34-0.03,0.68-0.03,0.99-0.18c0.34-0.08,0.61-0.28,0.88-0.48c0.29-0.18,0.48-0.47,0.73-0.7
				l0.04-0.03c0.04-0.04,0.12-0.04,0.16,0.01C72.12,5.92,72.11,5.99,72.07,6.03z"/>
			<path class="st0" d="M69.05,8.77l-0.72,0.14c-0.24,0.07-0.48,0.03-0.72,0.03c-0.24-0.01-0.49,0-0.73-0.06l-0.72-0.17
				c-0.06-0.01-0.1-0.08-0.09-0.14c0.01-0.06,0.07-0.1,0.13-0.09l0.04,0.01c0.46,0.07,0.89,0.2,1.36,0.19
				c0.23,0.01,0.47,0.05,0.69-0.02l0.68-0.12l0.02,0c0.06-0.01,0.12,0.03,0.14,0.09C69.16,8.7,69.11,8.76,69.05,8.77z"/>
			<path class="st0" d="M66.42,11.45c-0.05,0-0.1-0.03-0.12-0.07c-0.03-0.07-0.01-0.15,0.06-0.18c0.23-0.12,0.58-0.2,1-0.24
				c0.32-0.03,0.67-0.03,1-0.01c0.08,0,0.13,0.07,0.13,0.14c0,0.07-0.06,0.13-0.14,0.13c0,0-0.01,0-0.01,0
				c-0.31-0.02-0.65-0.02-0.95,0.01c-0.38,0.03-0.7,0.11-0.9,0.21C66.47,11.45,66.45,11.45,66.42,11.45z"/>
			<path class="st0" d="M71.68,2.46l-0.7,0.35l-0.6,0.48l-0.48,0.6L69.61,4.6L69.6,4.63c-0.03,0.07-0.11,0.1-0.18,0.07
				c-0.07-0.03-0.1-0.11-0.07-0.18l0,0l0.32-0.77l0.52-0.65l0.65-0.52l0.73-0.37c0.07-0.03,0.15-0.01,0.18,0.06
				c0.03,0.07,0.01,0.15-0.06,0.18l0,0L71.68,2.46z"/>
		</g>
		<path class="st0" d="M37.36,32.01c1.41,0.19,2.81,0.53,4.23,0.61c1.42,0.17,2.84,0.32,4.27,0.35c2.85,0.04,5.71,0.09,8.56-0.14
			l4.27-0.4c0.71-0.05,1.42-0.16,2.11-0.31c0.7-0.14,1.4-0.28,2.09-0.45c2.77-0.66,5.56-1.37,8.13-2.6c0.04-0.02,0.1-0.01,0.12,0.03
			c0.02,0.04,0,0.1-0.04,0.12c-2.6,1.25-5.39,1.96-8.17,2.63c-0.69,0.17-1.4,0.31-2.1,0.46c-0.7,0.16-1.41,0.27-2.13,0.32l-4.28,0.4
			c-2.85,0.24-5.72,0.2-8.58,0.17c-1.43-0.02-2.86-0.17-4.28-0.33c-1.43-0.07-2.83-0.41-4.25-0.59c-0.07-0.01-0.13-0.08-0.12-0.15
			c0.01-0.07,0.08-0.13,0.15-0.12h0L37.36,32.01z"/>
		<path class="st0" d="M71.24,31.18c-4.13,1.79-8.6,2.44-13.01,3.02c-0.56,0.03-1.1,0.19-1.66,0.22c-0.56-0.01-1.11,0.08-1.67,0.12
			c-0.28,0.01-0.56,0-0.84,0.03c-0.28,0.03-0.55,0.09-0.83,0.11c-0.56-0.03-1.12-0.02-1.67,0.02c-2.23,0.18-4.47,0.02-6.7-0.09
			c-2.23-0.12-4.46-0.36-6.66-0.71c-1.1-0.2-2.24-0.17-3.31-0.5l-0.83-0.1l-0.82-0.19l-1.63-0.42c-0.54-0.14-1.08-0.29-1.62-0.46
			c-0.27-0.09-0.52-0.14-0.8-0.21c-0.29-0.07-0.53-0.2-0.8-0.3c-0.26-0.09-0.54-0.23-0.76-0.38c-0.23-0.14-0.49-0.24-0.74-0.36
			c-0.51-0.24-1.04-0.43-1.51-0.73c-0.46-0.32-1.01-0.49-1.45-0.85l-0.65-0.55c-0.11-0.1-0.21-0.2-0.31-0.32
			c-0.11-0.11-0.14-0.36-0.13-0.47c0.01-0.55-0.06-1.11-0.12-1.66c-0.01-0.55-0.02-1.12-0.05-1.67c0-0.04,0.03-0.08,0.07-0.08
			c0.04,0,0.08,0.03,0.08,0.07c0.06,0.56,0.1,1.11,0.11,1.67c0.07,0.55,0.15,1.11,0.15,1.67c0.01,0.17,0,0.21,0.08,0.32
			c0.07,0.1,0.17,0.19,0.27,0.28l0.63,0.53c0.42,0.35,0.97,0.53,1.42,0.85c0.47,0.3,0.99,0.49,1.49,0.73
			c0.25,0.12,0.52,0.22,0.76,0.37c0.24,0.16,0.46,0.27,0.73,0.37c0.26,0.1,0.52,0.23,0.77,0.29c0.26,0.06,0.56,0.13,0.81,0.22
			c0.53,0.17,1.06,0.32,1.6,0.47c0.54,0.15,1.08,0.29,1.62,0.42l0.81,0.19l0.83,0.1c1.07,0.33,2.2,0.3,3.3,0.5
			c2.2,0.35,4.42,0.59,6.65,0.7c2.23,0.1,4.45,0.26,6.68,0.08c0.56-0.05,1.11-0.06,1.67-0.02c0.28-0.02,0.55-0.07,0.83-0.11
			c0.28-0.03,0.56-0.02,0.83-0.03c0.56-0.04,1.11-0.12,1.67-0.12c0.56-0.03,1.1-0.19,1.65-0.22c0.55-0.07,1.11-0.07,1.66-0.17
			c0.56-0.06,1.09-0.24,1.64-0.31c1.1-0.17,2.21-0.28,3.28-0.6c0.56-0.09,1.06-0.31,1.63-0.43c0.56-0.03,1.06-0.23,1.6-0.4
			c0.51-0.21,1.05-0.38,1.57-0.55c0.5-0.2,1.05-0.46,1.59-0.49l0.02,0c0.04,0,0.08,0.03,0.08,0.07
			C71.29,31.14,71.27,31.17,71.24,31.18z"/>
		<path class="st0" d="M69.13,19.44c0.91,0.31,1.81,0.67,2.63,1.18c0.84,0.46,1.66,0.98,2.35,1.67c0.37,0.31,0.63,0.75,0.9,1.14
			c0.3,0.41,0.34,0.98,0.27,1.44c-0.12,0.97-0.58,1.89-1.29,2.56c-0.04,0.04-0.1,0.04-0.14,0c-0.04-0.04-0.03-0.1,0-0.14
			c0.67-0.66,1.09-1.52,1.2-2.44c0.22-0.96-0.51-1.7-1.12-2.38c-0.67-0.65-1.48-1.16-2.29-1.64c-0.79-0.52-1.67-0.88-2.55-1.2
			l-0.01,0c-0.05-0.02-0.08-0.08-0.06-0.13C69.02,19.45,69.08,19.43,69.13,19.44z"/>
		<path class="st0" d="M75.31,24.58l0.01,1.85l0.01,0.93l0,0.46c-0.01,0.18-0.05,0.35-0.13,0.5c-0.31,0.59-0.83,0.98-1.33,1.36
			c-0.52,0.33-1,0.78-1.66,0.86c0,0-0.01,0-0.01,0c0,0,0,0,0,0c0.43-0.5,1.02-0.69,1.51-1.07c0.49-0.35,0.99-0.74,1.27-1.25
			c0.15-0.24,0.11-0.53,0.12-0.85l0.01-0.93l0.01-1.85c0-0.05,0.04-0.09,0.09-0.09C75.27,24.49,75.31,24.53,75.31,24.58z"/>
		<path class="st0" d="M25.96,26.09c0.45,0.62,1.2,1.08,1.97,1.04c0.76-0.01,1.47-0.53,1.75-1.27c0.01-0.04,0.06-0.06,0.1-0.04
			c0.04,0.01,0.05,0.05,0.05,0.09c-0.19,0.82-1.01,1.49-1.88,1.48c-0.87,0.01-1.69-0.49-2.1-1.22c-0.02-0.04-0.01-0.08,0.03-0.1
			C25.89,26.04,25.94,26.06,25.96,26.09z"/>
		<g>
			<g>
				<g>
					<path class="st0" d="M30.21,28.92c0.23-0.17,0.49-0.26,0.78-0.29c0.29-0.02,0.58,0.01,0.83,0.16c0.05,0.03,0.07,0.1,0.04,0.15
						c-0.03,0.04-0.11,0.09-0.16,0.07c-0.23-0.11-0.46-0.2-0.7-0.19c-0.24,0-0.47,0.12-0.68,0.26c-0.05,0.03-0.16,0.01-0.19-0.04
						C30.1,28.99,30.17,28.95,30.21,28.92z"/>
				</g>
				<g>
					<path class="st0" d="M26.34,22.82c0.17-0.16,0.32-0.37,0.53-0.48c0.21-0.11,0.46-0.12,0.69-0.17c0.23-0.05,0.47-0.16,0.7-0.15
						c0.23,0.01,0.45,0.17,0.67,0.26c0.05,0.02,0.09,0.05,0.08,0.1c-0.02,0.04-0.06,0-0.11-0.01c-0.28-0.06-0.58-0.06-0.87-0.05
						c-0.29,0.01-0.56,0.12-0.83,0.22c-0.27,0.1-0.57,0.17-0.79,0.36c-0.04,0.03-0.02,0.06-0.05,0.02
						C26.33,22.87,26.31,22.85,26.34,22.82z"/>
				</g>
				<g>
					<path class="st0" d="M25.79,24.34c0.17-0.18,0.42-0.26,0.67-0.29c0.25-0.03,0.5-0.04,0.72,0.07c0.05,0.03,0.1,0.1,0.08,0.15
						c-0.02,0.05-0.11,0.05-0.16,0.03c-0.19-0.07-0.39-0.04-0.58,0c-0.19,0.04-0.41,0.05-0.56,0.19c-0.04,0.04-0.09,0.04-0.13,0
						C25.78,24.46,25.75,24.38,25.79,24.34z"/>
				</g>
				<g>
					<path class="st0" d="M29.47,24.09c0.35,0.17,0.82,0.06,1.05-0.25c0.14-0.16,0.21-0.37,0.29-0.58c0.07-0.2,0.11-0.41,0.16-0.62
						c0.01-0.05,0.06-0.09,0.11-0.08c0.05,0.01,0.07,0.07,0.06,0.11c-0.04,0.22-0.12,0.44-0.18,0.67c-0.07,0.22-0.09,0.45-0.24,0.65
						c-0.15,0.18-0.41,0.28-0.65,0.35c-0.24,0.07-0.47,0.06-0.69-0.09c-0.04-0.03-0.09-0.07-0.06-0.11
						C29.33,24.11,29.43,24.07,29.47,24.09z"/>
				</g>
				<g>
					<path class="st0" d="M31.43,20.52c0.32,0.02,0.57,0.21,0.74,0.45c0.17,0.25,0.25,0.56,0.18,0.85
						c-0.01,0.06-0.06,0.08-0.11,0.07c-0.05-0.01-0.08-0.05-0.07-0.1c0.02-0.24-0.02-0.51-0.17-0.7c-0.12-0.2-0.37-0.37-0.57-0.39
						c-0.01,0-0.01-0.01-0.02-0.01c-0.06-0.01-0.08-0.03-0.07-0.09C31.35,20.55,31.37,20.52,31.43,20.52z"/>
				</g>
				<g>
					<path class="st0" d="M33.29,27.88c-0.32,0.02-0.66-0.05-0.91-0.22c-0.25-0.18-0.48-0.45-0.62-0.72
						c-0.14-0.31-0.07-0.68,0.03-0.97c0.1-0.29,0.27-0.54,0.5-0.76c0.04-0.04,0.13-0.06,0.17-0.02c0.04,0.04-0.01,0.1-0.04,0.14
						c0,0,0.01,0.02,0.01,0.03c-0.16,0.18-0.23,0.44-0.3,0.69c-0.08,0.26-0.12,0.5-0.02,0.72c0.11,0.23,0.29,0.4,0.5,0.56
						c0.21,0.16,0.42,0.4,0.68,0.39c0.06,0,0.12-0.04,0.13,0.02C33.41,27.79,33.34,27.87,33.29,27.88z"/>
				</g>
			</g>
		</g>
		<path class="st0" d="M34.21,31.81c-1.9-0.49-3.82-0.95-5.64-1.68c-1.81-0.73-3.67-1.57-4.99-3.09c-0.35-0.37-0.55-0.84-0.76-1.3
			c-0.19-0.45-0.29-1-0.16-1.5c0.17-1,0.78-1.88,1.51-2.55c1.54-1.29,3.39-2.05,5.33-2.46c0.05-0.01,0.11,0.02,0.12,0.08
			c0.01,0.05-0.02,0.11-0.08,0.12c0,0-0.01,0-0.01,0c-0.96,0.16-1.86,0.55-2.76,0.9c-0.47,0.13-0.85,0.47-1.27,0.69
			c-0.43,0.22-0.8,0.53-1.17,0.84c-0.7,0.65-1.26,1.49-1.41,2.41c-0.11,0.47-0.03,0.92,0.16,1.37c0.2,0.43,0.38,0.86,0.72,1.22
			c1.25,1.47,3.08,2.33,4.87,3.06c1.81,0.74,3.71,1.21,5.59,1.72l0.01,0c0.05,0.01,0.07,0.06,0.06,0.11
			C34.3,31.79,34.25,31.82,34.21,31.81z"/>
		<path class="st0" d="M35.93,10.72c-1.17,0.37-2.33,0.96-2.91,2.06c-0.33,0.51-0.49,1.11-0.4,1.72c0.02,0.3,0.13,0.58,0.28,0.85
			l0.2,0.41c0.09,0.12,0.2,0.23,0.3,0.34c0.19,0.23,0.41,0.45,0.64,0.65c0.12,0.1,0.22,0.22,0.35,0.3l0.41,0.22
			c0.55,0.27,1.04,0.68,1.65,0.85c1.14,0.5,2.39,0.71,3.61,0.96c1.23,0.2,2.47,0.47,3.72,0.26c0.31,0.01,0.62,0.04,0.94,0.03
			l0.93-0.11c0.62-0.05,1.25-0.08,1.85-0.24c0.61-0.16,1.16-0.4,1.79-0.56c0.31-0.05,0.57-0.18,0.85-0.33
			c0.28-0.13,0.56-0.28,0.83-0.43c0.55-0.29,0.99-0.74,1.47-1.12c0.24-0.19,0.38-0.48,0.57-0.71c0.15-0.26,0.25-0.55,0.38-0.83
			L53.4,15c0.02-0.05,0.08-0.07,0.13-0.05c0.05,0.02,0.07,0.08,0.05,0.13c-0.13,0.29-0.24,0.61-0.4,0.88
			c-0.2,0.25-0.35,0.55-0.6,0.75c-0.5,0.4-0.95,0.86-1.51,1.16c-0.28,0.16-0.55,0.31-0.84,0.44c-0.27,0.14-0.58,0.29-0.9,0.34
			c-0.59,0.15-1.19,0.41-1.8,0.56c-0.61,0.16-1.25,0.19-1.87,0.24l-0.94,0.11l-0.94-0.03c-1.25,0.22-2.52-0.05-3.76-0.25
			c-2.45-0.43-5.04-1.12-6.81-3.05c-0.1-0.12-0.22-0.24-0.32-0.37l-0.22-0.44c-0.16-0.28-0.28-0.6-0.3-0.93
			c-0.1-0.65,0.08-1.32,0.43-1.87c0.64-1.13,1.83-1.92,3.1-2.09c0.04-0.01,0.09,0.03,0.09,0.07C35.99,10.67,35.97,10.71,35.93,10.72
			z"/>
		<path class="st0" d="M49.29,11.74c0.33-0.36,0.81-0.6,1.32-0.64c0.49-0.05,1.01,0.05,1.45,0.26c0.45,0.19,0.88,0.52,1.11,0.96
			c0.26,0.42,0.37,0.94,0.31,1.42c0,0.04-0.04,0.07-0.08,0.07c-0.04,0-0.07-0.04-0.07-0.08c0.03-0.47-0.11-0.91-0.35-1.3
			c-0.23-0.4-0.6-0.67-1.03-0.84c-0.42-0.2-0.87-0.25-1.33-0.22c-0.46,0.01-0.86,0.22-1.24,0.49c-0.03,0.02-0.08,0.02-0.1-0.02
			C49.26,11.81,49.26,11.77,49.29,11.74z"/>
		<path class="st0" d="M49.59,8.25c1.14,0.13,2.2,0.65,3.12,1.32c0.97,0.63,1.68,1.58,2.16,2.61c0.6,1.03,0.6,2.23,0.55,3.35
			c0.03,1.13-0.16,2.3-0.78,3.3c-0.02,0.04-0.07,0.05-0.11,0.03c-0.03-0.02-0.05-0.06-0.03-0.1l0.01-0.01
			c0.4-1.01,0.72-2.11,0.65-3.22c0.05-1.1,0.04-2.26-0.52-3.21c-0.46-1.01-1.14-1.92-2.07-2.54c-0.88-0.67-1.91-1.13-3.01-1.34
			c-0.05-0.01-0.08-0.06-0.07-0.11C49.49,8.28,49.53,8.25,49.59,8.25L49.59,8.25z"/>
		<path class="st0" d="M40.46,17.29c0.12-0.64,0.46-1.09,0.78-1.6c0.19-0.23,0.37-0.47,0.56-0.69l0.74-0.5
			c0.95-0.66,2.07-1.13,3.25-1.25c0.29,0,0.6,0.01,0.87,0c0.28-0.03,0.61-0.03,0.89,0.09c0.28,0.1,0.59,0.13,0.85,0.3
			c0.26,0.16,0.47,0.36,0.7,0.55c0.5,0.35,0.74,0.95,0.97,1.48c0.08,0.29,0.18,0.57,0.23,0.86l-0.02,0.89
			c0,0.05-0.04,0.09-0.09,0.09c-0.05,0-0.09-0.04-0.09-0.09l0-0.01l-0.02-0.85c-0.05-0.27-0.15-0.54-0.23-0.81
			c-0.24-0.51-0.44-1.04-0.92-1.37c-0.22-0.18-0.44-0.38-0.67-0.52c-0.22-0.15-0.52-0.17-0.78-0.26c-0.27-0.1-0.52-0.1-0.82-0.07
			c-0.31,0.02-0.58,0.01-0.86,0.01c-1.12,0.1-2.21,0.53-3.16,1.18l-0.71,0.46c-0.19,0.21-0.36,0.43-0.54,0.65l-0.46,0.71
			c-0.12,0.25-0.27,0.53-0.3,0.76l0,0.03c-0.01,0.05-0.05,0.08-0.1,0.08C40.49,17.39,40.45,17.34,40.46,17.29
			C40.46,17.29,40.46,17.29,40.46,17.29z"/>
		<path class="st0" d="M34.98,16.35c-0.4-0.4-0.57-0.91-0.62-1.45c-0.02-0.55,0.16-1.04,0.4-1.53c0.32-0.49,0.8-0.69,1.24-0.99
			c0.22-0.16,0.47-0.23,0.71-0.33c0.24-0.11,0.5-0.16,0.75-0.2c0.51-0.13,1.04-0.08,1.56-0.09l0.78,0.03L40.56,12
			c1.03,0.21,1.88,1.01,2.43,1.88c0.02,0.04,0.01,0.09-0.03,0.11c-0.04,0.02-0.08,0.01-0.11-0.02l-0.01-0.01
			c-0.6-0.8-1.33-1.52-2.36-1.71l-0.72-0.19l-0.75-0.03c-0.5,0.01-1.01-0.04-1.5,0.08c-0.25,0.04-0.5,0.08-0.73,0.19
			c-0.23,0.09-0.48,0.16-0.68,0.31c-0.4,0.26-0.92,0.51-1.16,0.89c-0.21,0.43-0.4,0.93-0.39,1.41c0.02,0.47,0.2,1,0.53,1.33
			l0.01,0.01c0.03,0.03,0.03,0.08,0,0.12C35.06,16.38,35.01,16.38,34.98,16.35z"/>
		<g>
			<g>
				<g>
					<path class="st0" d="M44.16,15.91c0.33,0.17,0.7,0.28,1.07,0.37c0.36,0.07,0.75,0.23,1.07,0.12c0.01,0,0-0.03,0-0.04
						c0.05-0.02,0.18,0.04,0.2,0.09c0.02,0.05-0.07,0.09-0.12,0.11c-0.22,0.1-0.42,0.13-0.63,0.11c-0.21-0.01-0.41-0.05-0.6-0.11
						c-0.19-0.06-0.37-0.17-0.55-0.24c-0.18-0.07-0.35-0.17-0.53-0.28c-0.05-0.03-0.05,0-0.02-0.05c0.03-0.05,0.03-0.11,0.08-0.09
						C44.16,15.91,44.16,15.9,44.16,15.91z"/>
				</g>
				<g>
					<path class="st0" d="M43.95,17.57c0.14,0.19,0.32,0.34,0.51,0.45c0.2,0.11,0.42,0.2,0.66,0.17c0.06-0.01,0.1,0.03,0.11,0.09
						c0.01,0.06-0.02,0.1-0.08,0.11c-0.28,0.06-0.56,0.01-0.8-0.12c-0.25-0.13-0.46-0.33-0.6-0.56c-0.03-0.05-0.01-0.12,0.04-0.15
						C43.85,17.52,43.92,17.52,43.95,17.57z"/>
				</g>
				<g>
					<path class="st0" d="M37.31,14.64c0.18-0.38,0.58-0.44,0.89-0.54c0.34-0.06,0.66-0.08,1-0.05c0.05,0,0.06-0.01,0.06,0.04
						c0,0.04-0.02,0.07-0.05,0.07c-0.32,0.05-0.64,0.13-0.94,0.22c-0.31,0.06-0.68,0.09-0.85,0.3c-0.01,0.01,0.08,0.07,0.07,0.08
						c-0.03,0.03-0.12,0-0.15-0.03C37.3,14.71,37.3,14.67,37.31,14.64z"/>
				</g>
				<g>
					<path class="st0" d="M37.31,16.64c0.01-0.36,0.18-0.63,0.39-0.86c0.23-0.21,0.53-0.34,0.84-0.39c0.05-0.01,0.11,0,0.12,0.05
						c0.01,0.05-0.03,0.11-0.08,0.12c-0.26,0.07-0.5,0.22-0.69,0.41c-0.2,0.18-0.41,0.41-0.44,0.65c0,0.01,0.01,0.01,0.01,0.02
						c-0.01,0.05-0.04,0.06-0.09,0.05C37.32,16.7,37.31,16.69,37.31,16.64z"/>
				</g>
			</g>
		</g>
		<path class="st0" d="M38.53,10.95c0.05-0.87-0.25-1.69-0.39-2.54c-0.3-0.81-0.54-1.64-0.92-2.43c-0.15-0.41-0.3-0.82-0.46-1.22
			L36.7,4.6c-0.03-0.02-0.04-0.2-0.01-0.24l0.04-0.09c0.03-0.07,0.1-0.1,0.13-0.11c0.04-0.01,0.07-0.04,0.13-0.07
			c0.19-0.11,0.38-0.23,0.6-0.3c0.87-0.28,1.79-0.21,2.64,0.08c1.7,0.55,3.05,1.99,3.51,3.71c0.58,1.67,0.65,3.45,0.26,5.18
			c-0.01,0.04-0.05,0.07-0.09,0.06c-0.04-0.01-0.07-0.05-0.06-0.09l0-0.01c0.36-1.62,0.28-3.47-0.31-5.07
			c-0.2-0.84-0.69-1.55-1.25-2.19c-0.63-0.58-1.31-1.11-2.14-1.33c-1.39-0.53-4.31-0.29-2.71,1.77c0.37,0.79,0.6,1.63,0.89,2.45
			c0.14,0.86,0.43,1.71,0.37,2.59l0,0.01c0,0.04-0.04,0.08-0.08,0.07C38.56,11.03,38.53,10.99,38.53,10.95z"/>
		<path class="st0" d="M41.38,7.08c0.04,0.66-0.6,1.26-1.24,1.19c-0.65,0.03-1.24-0.58-1.19-1.23c0-0.32,0.16-0.64,0.39-0.85
			c0.21-0.21,0.5-0.42,0.86-0.41C40.86,5.8,41.41,6.42,41.38,7.08z M41.13,7.08c0.04-0.54-0.45-1-0.94-1.04
			c-0.47,0.01-1,0.5-1.01,1.01c-0.05,0.54,0.41,1.05,0.96,1.01C40.68,8.09,41.16,7.61,41.13,7.08z"/>
		<path class="st0" d="M47.04,6.98c0,0.34-0.15,0.67-0.39,0.9c-0.25,0.25-0.6,0.33-0.92,0.32c-0.67,0.04-1.29-0.6-1.24-1.26
			c0.01-0.32,0.09-0.65,0.34-0.9c0.27-0.25,0.63-0.26,0.93-0.27c0.3,0,0.67,0.03,0.93,0.3C46.93,6.32,47.04,6.66,47.04,6.98z
			 M46.77,6.98c0-0.27-0.08-0.55-0.26-0.73c-0.17-0.18-0.46-0.23-0.74-0.23c-0.29,0-0.58,0.02-0.77,0.19
			c-0.19,0.18-0.28,0.46-0.29,0.74C44.7,7.5,45.18,8,45.74,7.96C46.31,8.01,46.78,7.53,46.77,6.98z"/>
		<path class="st0" d="M47.31,10.22c0.01,0.67-0.59,1.27-1.27,1.26c-0.35,0-0.65-0.21-0.86-0.43c-0.21-0.21-0.42-0.52-0.39-0.87
			c0.06-0.67,0.67-1.2,1.33-1.18c0.31,0.01,0.65,0.07,0.89,0.32C47.24,9.57,47.31,9.91,47.31,10.22z M47.07,10.22
			c0-0.28-0.05-0.56-0.23-0.75c-0.17-0.19-0.46-0.26-0.73-0.27c-0.54-0.04-1.05,0.47-1.08,0.98c-0.02,0.26,0.14,0.49,0.34,0.69
			c0.19,0.2,0.43,0.34,0.68,0.34C46.56,11.23,47.07,10.75,47.07,10.22z"/>
		<path class="st0" d="M42.32,10.3c-0.01,0.67-0.63,1.25-1.29,1.2c-0.67,0.02-1.28-0.57-1.27-1.26c0.01-0.33,0.12-0.66,0.38-0.9
			c0.25-0.23,0.57-0.35,0.91-0.36c0.37,0,0.65,0.24,0.86,0.45C42.12,9.66,42.33,9.95,42.32,10.3z M42.12,10.3
			c0-0.26-0.17-0.5-0.37-0.7c-0.2-0.2-0.44-0.37-0.69-0.36c-0.55,0.01-1.02,0.46-1.03,1.02c-0.02,0.52,0.47,1.05,1.02,1.03
			C41.61,11.36,42.12,10.85,42.12,10.3z"/>
		<path class="st0" d="M43.2,6.31l0.13-1.97l0.03-0.99c0-0.18,0.08-0.4,0.26-0.52C43.8,2.71,44,2.69,44.17,2.68
			c0.34,0.03,0.68,0.1,1.02,0.16c0.35,0.11,0.62,0.33,0.89,0.5c0.58,0.36,1.07,0.84,1.43,1.42c0.18,0.29,0.36,0.57,0.49,0.88
			c0.15,0.3,0.28,0.61,0.37,0.94l0.29,0.95c0.11,0.34,0.07,0.68,0.08,1.01c0.01,0.67,0.03,1.34-0.11,2
			c-0.13,0.65-0.23,1.33-0.55,1.93c-0.02,0.04-0.07,0.06-0.11,0.03c-0.04-0.02-0.05-0.06-0.04-0.1c0.33-1.26,0.65-2.54,0.55-3.85
			C48.46,8.23,48.5,7.9,48.4,7.6l-0.28-0.94c-0.08-0.31-0.2-0.61-0.35-0.9c-0.12-0.3-0.3-0.57-0.47-0.85
			c-0.34-0.55-0.81-1.01-1.35-1.35c-0.28-0.18-0.55-0.38-0.83-0.47c-0.31-0.05-0.63-0.12-0.94-0.15c-0.32-0.01-0.56,0.12-0.56,0.43
			l-0.05,0.99l-0.19,1.98c0,0.05-0.05,0.08-0.09,0.08c-0.04,0-0.08-0.04-0.08-0.09L43.2,6.31z"/>
		<path class="st0" d="M36.86,8.11c-0.59-0.07-1.19,0.21-1.75,0.43c-0.28,0.13-0.57,0.25-0.84,0.4l-0.78,0.51
			c-1.07,0.63-1.79,1.71-2.32,2.8c-0.55,1.11-0.62,2.39-0.52,3.61c0.05,0.62,0.11,1.24,0.32,1.83l0.26,0.9
			c0.12,0.29,0.28,0.55,0.42,0.83l0,0.01c0.02,0.03,0,0.08-0.03,0.09c-0.03,0.02-0.07,0-0.09-0.03c-0.15-0.28-0.33-0.55-0.45-0.84
			l-0.29-0.91c-0.23-0.6-0.29-1.23-0.35-1.86c-0.11-1.25-0.06-2.59,0.5-3.74c0.55-1.14,1.31-2.25,2.42-2.91l0.8-0.52
			c0.28-0.15,0.58-0.27,0.86-0.4c0.61-0.21,1.19-0.49,1.88-0.41c0.06,0.01,0.1,0.06,0.09,0.12C36.97,8.07,36.91,8.11,36.86,8.11z"/>
		<g>
			<g>
				<g>
					<path class="st0" d="M72.97,24.12c-0.02-0.25-0.12-0.5-0.31-0.67c-0.18-0.18-0.43-0.27-0.68-0.29c-0.06,0-0.1-0.06-0.09-0.12
						c0-0.06,0.04-0.08,0.1-0.08c0.32-0.01,0.62,0.11,0.84,0.33c0.22,0.22,0.4,0.51,0.39,0.83c0,0.06-0.07,0.1-0.13,0.1
						C73.03,24.21,72.97,24.17,72.97,24.12z"/>
				</g>
				<g>
					<path class="st0" d="M71.7,26.06c-0.07,0.23-0.17,0.44-0.31,0.63c-0.13,0.19-0.31,0.34-0.49,0.49
						c-0.18,0.15-0.35,0.33-0.56,0.43c-0.22,0.09-0.46,0.11-0.69,0.14c-0.05,0.01-0.09-0.02-0.09-0.07
						c-0.01-0.05,0.02-0.08,0.07-0.09c0.28-0.06,0.53-0.21,0.77-0.35c0.24-0.15,0.47-0.32,0.66-0.53c0.19-0.22,0.39-0.43,0.51-0.69
						c0.02-0.05,0.04-0.07,0.08-0.05C71.69,25.98,71.71,26.02,71.7,26.06z"/>
				</g>
				<g>
					<path class="st0" d="M67.15,27.5c-0.13-0.21-0.2-0.46-0.18-0.71c0.02-0.25,0.13-0.48,0.32-0.65c0.04-0.03,0.11-0.05,0.14-0.01
						c0.03,0.03,0,0.08-0.02,0.12c-0.1,0.17-0.13,0.38-0.16,0.58c-0.03,0.2-0.01,0.39,0.07,0.58c0.02,0.05-0.02,0.11-0.07,0.13
						C67.22,27.55,67.18,27.53,67.15,27.5z"/>
				</g>
				<g>
					<path class="st0" d="M67.24,23.71c0.1,0.2,0.23,0.4,0.39,0.56c0.16,0.16,0.36,0.28,0.56,0.38c0.2,0.1,0.44,0.08,0.66,0.09
						c0.33,0.03,0.65-0.01,0.94-0.16c0.29-0.15,0.6-0.35,0.74-0.65c0.02-0.05,0-0.04,0.04-0.02c0.05,0.02,0.05,0,0.03,0.05
						c-0.1,0.23-0.23,0.43-0.42,0.6c-0.19,0.17-0.39,0.31-0.62,0.4c-0.24,0.08-0.48,0.07-0.73,0.03c-0.25-0.03-0.49-0.06-0.71-0.17
						c-0.22-0.11-0.47-0.21-0.64-0.39c-0.17-0.18-0.35-0.39-0.45-0.62c-0.02-0.05,0.06-0.14,0.11-0.16
						C67.2,23.61,67.22,23.66,67.24,23.71z"/>
				</g>
				<g>
					<path class="st0" d="M65.77,25.54c-0.2-0.22-0.54-0.27-0.81-0.13c-0.3,0.12-0.51,0.41-0.75,0.67c-0.03,0.04-0.1,0.05-0.13,0.01
						c-0.03-0.03,0-0.07,0.02-0.1c0.18-0.31,0.38-0.65,0.73-0.84c0.18-0.08,0.42-0.13,0.62-0.09c0.2,0.03,0.41,0.15,0.52,0.34
						c0.02,0.04-0.03,0.11-0.07,0.13c-0.04,0.02-0.08,0-0.1-0.03C65.79,25.51,65.77,25.55,65.77,25.54z"/>
				</g>
				<g>
					<path class="st0" d="M64.47,27.33c0.34,0.07,0.54,0.29,0.69,0.55c0.14,0.27,0.16,0.58,0.08,0.87
						c-0.02,0.07-0.08,0.13-0.14,0.11c-0.06-0.02-0.1-0.11-0.08-0.18c0.06-0.23,0.02-0.47-0.1-0.68c-0.1-0.21-0.28-0.41-0.48-0.45
						c-0.01,0-0.01-0.01-0.02-0.01c-0.07-0.01-0.1-0.08-0.08-0.15C64.35,27.34,64.4,27.31,64.47,27.33z"/>
				</g>
				<g>
					<path class="st0" d="M61.06,29.47c0.2-0.17,0.44-0.31,0.7-0.38c0.25-0.07,0.53-0.01,0.78,0.02c0.26,0.03,0.54,0.04,0.77,0.17
						c0.23,0.13,0.45,0.33,0.58,0.56c0.03,0.05-0.01,0.17-0.06,0.19c-0.04,0.02-0.07-0.06-0.1-0.09c-0.19-0.24-0.49-0.41-0.78-0.52
						c-0.29-0.12-0.61-0.09-0.91-0.06c-0.3,0.03-0.62,0.06-0.87,0.26c-0.04,0.03-0.05,0.01-0.08-0.03
						C61.06,29.54,61.02,29.5,61.06,29.47z"/>
				</g>
			</g>
		</g>
	</g>
	<g>
		<g>
			<g id="MFvlQb_4_">
				<g>
					<path d="M79.56,26.83c0.03-0.1,0.05-0.18,0.09-0.25c0.12-0.23,0.25-0.45,0.37-0.67c0.1-0.17,0.18-0.35,0.3-0.5
						c0.2-0.25,0.36-0.51,0.53-0.78c0.09-0.15,0.21-0.28,0.31-0.43c0.04-0.06,0.06-0.13,0.1-0.18c0.13-0.19,0.25-0.38,0.39-0.56
						c0.17-0.22,0.35-0.43,0.52-0.66c0.16-0.21,0.3-0.43,0.45-0.64c0.18-0.26,0.35-0.52,0.54-0.78c0.13-0.19,0.28-0.37,0.42-0.55
						c0.19-0.26,0.38-0.53,0.57-0.79c0.08-0.1,0.17-0.2,0.24-0.3c0.07-0.1,0.12-0.21,0.19-0.31c0.13-0.2,0.26-0.4,0.38-0.6
						c0.16-0.25,0.31-0.51,0.46-0.77c0.13-0.22,0.25-0.44,0.37-0.67c0.17-0.32,0.35-0.64,0.5-0.97c0.11-0.23,0.15-0.5,0.28-0.73
						c0.11-0.2,0.06-0.39,0.08-0.59c0.01-0.07,0.03-0.14,0.05-0.21c0.08-0.31,0.15-0.62,0.24-0.92c0.14-0.44,0.29-0.87,0.44-1.3
						c0.1-0.29,0.22-0.58,0.32-0.87c0.13-0.35,0.35-0.66,0.55-0.97c0.15-0.24,0.31-0.48,0.47-0.71c0.35-0.48,0.71-0.97,1.07-1.44
						c0.23-0.3,0.47-0.59,0.7-0.89c0.17-0.21,0.32-0.43,0.49-0.64c0.08-0.1,0.19-0.2,0.31-0.25c0.14-0.05,0.31-0.03,0.42,0.07
						c0.12,0.12,0.26,0.22,0.41,0.24c0.23,0.04,0.36,0.21,0.54,0.3c0.16,0.08,0.34,0.14,0.5,0.22c0.23,0.12,0.47,0.24,0.64,0.45
						c0.08,0.1,0.07,0.19,0.01,0.3c-0.08,0.15-0.15,0.31-0.22,0.47c-0.11,0.25-0.22,0.5-0.32,0.76c-0.06,0.14-0.1,0.29-0.15,0.43
						c-0.02,0.05-0.07,0.08-0.09,0.13c-0.09,0.19-0.17,0.39-0.25,0.59c-0.04,0.09-0.08,0.17-0.12,0.26
						c-0.08,0.18-0.15,0.36-0.23,0.54c-0.06,0.13-0.12,0.25-0.18,0.38c-0.08,0.17-0.15,0.34-0.24,0.51
						c-0.06,0.12-0.13,0.24-0.19,0.35c-0.08,0.16-0.15,0.31-0.23,0.47c-0.01,0.01-0.01,0.03-0.02,0.04
						c-0.04,0.05-0.09,0.1-0.13,0.15c-0.06,0.07-0.08,0.17-0.19,0.21c-0.06,0.02-0.08,0.13-0.12,0.2c-0.05,0.11-0.1,0.2-0.22,0.25
						c-0.01,0.01-0.02,0.03-0.03,0.05c-0.14,0.17-0.25,0.39-0.43,0.5c-0.19,0.12-0.25,0.37-0.48,0.45
						c-0.04,0.01-0.06,0.11-0.08,0.16c-0.01,0.01-0.01,0.03-0.02,0.04c-0.09,0.06-0.19,0.11-0.27,0.18
						c-0.07,0.06-0.12,0.13-0.16,0.18c-0.13,0.07-0.25,0.12-0.35,0.2c-0.14,0.1-0.27,0.22-0.4,0.33c-0.02,0.02-0.05,0.03-0.08,0.05
						c-0.06,0.05-0.11,0.11-0.17,0.16c-0.04,0.04-0.08,0.08-0.12,0.11c-0.2,0.15-0.4,0.29-0.56,0.5c-0.17,0.24-0.4,0.44-0.59,0.67
						c-0.18,0.22-0.34,0.46-0.52,0.7c-0.1,0.14-0.22,0.27-0.31,0.41c-0.14,0.2-0.27,0.42-0.41,0.62c-0.05,0.07-0.11,0.14-0.16,0.21
						c-0.05,0.07-0.14,0.15-0.14,0.22c-0.02,0.21-0.19,0.33-0.27,0.5c0,0.01-0.02,0.02-0.02,0.03c-0.04,0.22-0.22,0.37-0.3,0.56
						c-0.09,0.2-0.18,0.4-0.28,0.59c-0.04,0.08-0.11,0.16-0.16,0.24c-0.07,0.13-0.14,0.26-0.2,0.39c-0.02,0.04-0.05,0.08-0.07,0.12
						c-0.01,0.02-0.02,0.04-0.02,0.06c-0.01,0.02,0,0.05-0.01,0.06c-0.19,0.15-0.24,0.38-0.36,0.58c-0.13,0.21-0.24,0.44-0.35,0.66
						c-0.06,0.13-0.08,0.27-0.12,0.4c-0.06,0.17-0.13,0.34-0.19,0.52c-0.06,0.16-0.11,0.32-0.17,0.48
						c-0.06,0.14-0.12,0.29-0.18,0.43c-0.07,0.15-0.15,0.3-0.21,0.44c-0.06,0.13-0.11,0.27-0.18,0.4c-0.11,0.21-0.22,0.41-0.33,0.61
						c-0.07,0.13-0.15,0.26-0.21,0.39C81.99,27.45,82,27.48,82,27.51c0,0.07,0.02,0.13-0.09,0.17c-0.08,0.03-0.11,0.16-0.16,0.25
						c-0.02,0.03-0.02,0.08-0.04,0.11c-0.02,0.05-0.04,0.12-0.08,0.13c-0.14,0.04-0.21,0.16-0.3,0.26c-0.04,0.05-0.08,0.1-0.12,0.15
						c-0.11,0.12-0.26,0.15-0.4,0.17c-0.15,0.01-0.3,0.01-0.45-0.01c-0.2-0.03-0.41-0.06-0.56-0.22c-0.1-0.11-0.19-0.24-0.27-0.37
						c-0.05-0.09-0.08-0.2-0.11-0.3c-0.01-0.06,0.01-0.13,0.01-0.19c0-0.1,0.01-0.21-0.02-0.3c-0.04-0.17,0.01-0.31,0.06-0.46
						C79.5,26.86,79.55,26.84,79.56,26.83z M87.33,13.7c-0.11,0.1-0.16,0.21-0.15,0.35c0,0.03,0,0.06-0.01,0.09
						c-0.03,0.12-0.07,0.24-0.1,0.36c-0.02,0.09-0.03,0.19-0.06,0.28c-0.06,0.19-0.12,0.37-0.09,0.58c0.01,0.08,0,0.18-0.02,0.26
						c-0.06,0.18-0.13,0.36-0.2,0.54c-0.03,0.08-0.07,0.15-0.11,0.23c-0.07,0.16-0.14,0.32-0.21,0.49
						c-0.02,0.04-0.05,0.07-0.07,0.11c-0.08,0.16-0.15,0.32-0.23,0.48c-0.03,0.06-0.07,0.11-0.1,0.17c-0.07,0.13-0.13,0.27-0.2,0.39
						c-0.1,0.17-0.21,0.32-0.31,0.49c-0.08,0.13-0.15,0.27-0.23,0.39c-0.12,0.18-0.24,0.35-0.36,0.52
						c-0.03,0.05-0.03,0.11-0.07,0.16c-0.14,0.18-0.29,0.35-0.41,0.54c-0.04,0.06-0.07,0.13-0.12,0.18
						c-0.07,0.09-0.13,0.18-0.19,0.27c-0.02,0.04-0.03,0.08-0.06,0.12c-0.12,0.16-0.25,0.31-0.37,0.47
						c-0.08,0.11-0.14,0.24-0.22,0.35c-0.15,0.22-0.31,0.43-0.47,0.65c-0.09,0.12-0.15,0.26-0.24,0.38
						c-0.17,0.23-0.35,0.47-0.54,0.69c-0.12,0.13-0.22,0.28-0.33,0.42c-0.15,0.17-0.29,0.37-0.38,0.58
						c-0.1,0.24-0.29,0.41-0.39,0.64c-0.03,0.07-0.13,0.11-0.1,0.21c0,0.01-0.01,0.03-0.03,0.05c-0.06,0.06-0.14,0.1-0.19,0.16
						c-0.1,0.12-0.19,0.24-0.27,0.38c-0.08,0.13-0.13,0.27-0.2,0.4c-0.08,0.14-0.17,0.27-0.26,0.4c-0.08,0.12-0.17,0.24-0.22,0.37
						c-0.06,0.17-0.09,0.35-0.12,0.53c-0.01,0.08,0,0.17,0,0.26c0,0.3,0.08,0.56,0.32,0.75c0.02,0.02,0.05,0.04,0.06,0.06
						c0.04,0.1,0.12,0.1,0.2,0.08c0.11-0.02,0.23-0.06,0.34-0.04c0.13,0.03,0.23-0.04,0.33-0.07c0.13-0.05,0.23-0.16,0.34-0.26
						c0.02-0.02,0.03-0.06,0.05-0.09c0.02-0.03,0.03-0.07,0.05-0.11c0.12-0.21,0.24-0.43,0.36-0.64c0.07-0.12,0.12-0.24,0.18-0.36
						c0.04-0.07,0.1-0.13,0.13-0.21c0.11-0.25,0.22-0.5,0.33-0.75c0.04-0.08,0.1-0.14,0.13-0.22c0.13-0.29,0.26-0.57,0.38-0.86
						c0.05-0.13,0.09-0.27,0.14-0.4c0.06-0.17,0.14-0.34,0.2-0.52c0.05-0.15,0.07-0.31,0.14-0.45c0.12-0.25,0.27-0.49,0.4-0.73
						c0.21-0.37,0.42-0.74,0.62-1.12c0.09-0.17,0.18-0.34,0.27-0.51c0.07-0.13,0.13-0.26,0.2-0.38c0.06-0.12,0.13-0.23,0.19-0.35
						c0.1-0.19,0.18-0.38,0.29-0.57c0.14-0.23,0.29-0.44,0.44-0.67c0.17-0.26,0.34-0.53,0.55-0.77c0.11-0.13,0.2-0.28,0.3-0.42
						c0.05-0.07,0.09-0.13,0.13-0.2c0.05-0.07,0.12-0.13,0.17-0.19c0.07-0.08,0.12-0.18,0.19-0.26c0.16-0.17,0.33-0.34,0.5-0.5
						c0.06-0.06,0.09-0.14,0.16-0.19c0.25-0.18,0.46-0.4,0.68-0.6c0.26-0.24,0.55-0.45,0.83-0.67c0.06-0.05,0.13-0.08,0.18-0.13
						c0.16-0.17,0.3-0.35,0.47-0.51c0.12-0.12,0.26-0.22,0.37-0.34c0.24-0.28,0.47-0.57,0.7-0.87c0.14-0.18,0.26-0.38,0.37-0.57
						c0.13-0.23,0.26-0.47,0.38-0.71c0.09-0.17,0.17-0.35,0.25-0.52c0.1-0.23,0.19-0.46,0.29-0.68c0.16-0.34,0.33-0.67,0.48-1
						c0.1-0.22,0.19-0.45,0.29-0.67c0.15-0.34,0.3-0.69,0.45-1.03c0.03-0.07,0.04-0.15-0.05-0.2c-0.11-0.05-0.21-0.02-0.26,0.07
						c-0.28,0.51-0.56,1.02-0.83,1.53c-0.19,0.37-0.37,0.74-0.57,1.11c-0.21,0.4-0.42,0.8-0.63,1.2c-0.02,0.03-0.08,0.08-0.11,0.07
						c-0.16-0.06-0.21-0.22-0.12-0.37c0.08-0.13,0.15-0.27,0.22-0.4c0.09-0.17,0.15-0.35,0.24-0.53c0.18-0.34,0.37-0.68,0.55-1.02
						c0.11-0.21,0.22-0.43,0.34-0.64c0.22-0.38,0.44-0.76,0.66-1.13C93,8,93.01,7.96,92.94,7.93c-0.04-0.02-0.07-0.05-0.1-0.06
						c-0.09-0.03-0.18-0.03-0.23,0.06c-0.08,0.13-0.14,0.28-0.22,0.41c-0.09,0.16-0.2,0.31-0.3,0.46C92.03,8.9,91.96,9,91.9,9.1
						c-0.1,0.18-0.18,0.37-0.27,0.55c-0.08,0.16-0.17,0.32-0.25,0.48c-0.02,0.05-0.04,0.1-0.06,0.15c-0.02,0.04-0.06,0.06-0.08,0.1
						c-0.05,0.09-0.09,0.19-0.14,0.28c-0.06,0.12-0.13,0.24-0.2,0.36c-0.11,0.21-0.22,0.42-0.34,0.63c-0.09,0.15-0.16,0.16-0.3,0.06
						c-0.04-0.03-0.08-0.07-0.12-0.1c0.01-0.03,0.03-0.07,0.02-0.09c-0.05-0.1,0.02-0.16,0.06-0.24c0.19-0.33,0.39-0.65,0.58-0.98
						c0.24-0.4,0.47-0.79,0.71-1.19c0.1-0.18,0.2-0.36,0.3-0.54c0.13-0.23,0.26-0.47,0.39-0.7c0.05-0.09,0.11-0.19,0.16-0.28
						c-0.07-0.04-0.13-0.09-0.19-0.11c-0.04-0.02-0.11-0.02-0.14,0C92,7.53,91.94,7.59,91.9,7.66c-0.1,0.18-0.19,0.36-0.29,0.54
						c-0.05,0.1-0.12,0.19-0.18,0.29c-0.09,0.16-0.16,0.33-0.25,0.49c-0.12,0.2-0.25,0.4-0.37,0.6c-0.18,0.3-0.36,0.61-0.55,0.91
						c-0.09,0.14-0.11,0.32-0.26,0.42c0,0,0,0.01-0.01,0.01c-0.07,0.18-0.17,0.32-0.34,0.41c-0.07-0.02-0.15-0.03-0.2-0.07
						c-0.05-0.04-0.11-0.13-0.09-0.16c0.09-0.2,0.2-0.39,0.32-0.57c0.14-0.21,0.33-0.39,0.47-0.6c0.23-0.35,0.44-0.72,0.65-1.07
						c0.14-0.23,0.29-0.45,0.42-0.68c0.14-0.24,0.23-0.52,0.42-0.73c0.03-0.03,0.03-0.11,0.01-0.15c-0.06-0.1-0.32-0.11-0.4-0.01
						c-0.16,0.19-0.33,0.38-0.48,0.57c-0.2,0.26-0.37,0.54-0.57,0.8c-0.14,0.19-0.3,0.35-0.45,0.53c-0.14,0.17-0.27,0.36-0.4,0.54
						c-0.11,0.16-0.21,0.33-0.32,0.49c-0.16,0.24-0.31,0.48-0.49,0.71c-0.13,0.17-0.17,0.4-0.38,0.51c-0.01,0-0.01,0.02-0.02,0.03
						c-0.05,0.1-0.11,0.21-0.16,0.31c-0.02,0.03-0.05,0.07-0.05,0.1c0.01,0.18-0.08,0.33-0.15,0.49c-0.05,0.11-0.11,0.21-0.15,0.32
						c-0.02,0.05,0,0.12-0.02,0.15c-0.09,0.11-0.16,0.21-0.15,0.36c0,0.04-0.04,0.08-0.06,0.12c-0.05,0.1-0.1,0.21-0.16,0.31
						C87.29,13.65,87.31,13.67,87.33,13.7z"/>
					<path d="M88.48,11.94c0.03,0.02,0.06,0.04,0.08,0.06c-0.1,0.25-0.2,0.49-0.3,0.73c-0.09,0.23-0.21,0.45-0.28,0.69
						c-0.09,0.3-0.28,0.56-0.39,0.85c0,0.01-0.02,0.02-0.03,0.02C87.56,13.87,88.04,12.51,88.48,11.94z"/>
				</g>
			</g>
		</g>
		<g id="is2kq2_4_">
			<g>
				<path d="M83.38,31.13c-0.08-0.15-0.23-0.32-0.29-0.52c-0.04-0.14,0.02-0.32,0.04-0.48c0.01-0.07,0-0.15,0.03-0.21
					c0.06-0.13,0.13-0.27,0.22-0.38c0.19-0.23,0.4-0.44,0.61-0.65c0.53-0.52,1.06-1.04,1.59-1.56c0.41-0.39,0.82-0.77,1.23-1.15
					c0.05-0.04,0.06-0.12,0.1-0.17c0.04-0.07,0.09-0.13,0.15-0.19c0.3-0.29,0.6-0.58,0.89-0.87c0.05-0.05,0.06-0.15,0.1-0.22
					c0.07-0.12,0.17-0.24,0.23-0.36c0.11-0.22,0.2-0.45,0.3-0.67c0.04-0.08,0.09-0.16,0.12-0.25c0.04-0.11,0.07-0.22,0.04-0.35
					c-0.05-0.23,0.07-0.44,0.13-0.66c0.07-0.26,0.12-0.52,0.16-0.78c0.02-0.13-0.01-0.27,0.01-0.4c0.03-0.17,0.1-0.33,0.16-0.49
					c0.03-0.08,0.05-0.15,0.08-0.22c0.02-0.05,0.04-0.11,0.08-0.16c0.06-0.08,0.15-0.14,0.13-0.26c-0.01-0.05,0.04-0.12,0.09-0.16
					c0.17-0.16,0.3-0.35,0.44-0.54c0.15-0.21,0.32-0.43,0.51-0.62c0.19-0.21,0.38-0.41,0.59-0.6c0.12-0.11,0.25-0.21,0.37-0.31
					c0.06-0.06,0.1-0.14,0.17-0.19c0.19-0.15,0.37-0.32,0.58-0.44c0.19-0.11,0.35-0.24,0.48-0.41c0,0,0.01-0.01,0.01-0.01
					c0.15,0,0.15-0.15,0.22-0.22c0.2-0.18,0.41-0.35,0.61-0.53c0.11-0.1,0.21-0.21,0.32-0.31c0.18-0.16,0.37-0.31,0.55-0.45
					c0.05-0.04,0.12-0.04,0.17-0.08c0.11-0.08,0.22-0.17,0.3-0.27c0.17-0.24,0.44-0.35,0.65-0.53c0.13-0.11,0.28-0.21,0.42-0.32
					c0.51-0.36,1.02-0.72,1.53-1.08c0.36-0.26,0.72-0.52,1.09-0.77c0.26-0.18,0.53-0.34,0.81-0.49c0.1-0.05,0.25-0.05,0.36-0.03
					c0.13,0.02,0.21,0.25,0.21,0.38c0.01,0.3-0.17,0.51-0.34,0.72c-0.61,0.78-1.2,1.57-1.81,2.35c-0.23,0.29-0.49,0.56-0.74,0.84
					c-0.05,0.06-0.11,0.13-0.16,0.19c-0.4,0.47-0.8,0.94-1.19,1.41c-0.2,0.24-0.36,0.51-0.57,0.74c-0.12,0.13-0.2,0.3-0.4,0.35
					c-0.08,0.02-0.13,0.15-0.19,0.23c-0.02,0.02-0.02,0.05-0.04,0.07c-0.41,0.52-0.83,1.04-1.25,1.56c-0.43,0.54-0.86,1.09-1.3,1.62
					c-0.42,0.5-0.86,0.98-1.3,1.45c-0.76,0.81-1.5,1.64-2.17,2.54c-0.3,0.4-0.61,0.78-0.91,1.17c-0.6,0.77-1.2,1.54-1.8,2.31
					c-0.3,0.38-0.62,0.76-0.92,1.14c-0.06,0.07-0.11,0.16-0.16,0.24c-0.01,0.02-0.03,0.04-0.04,0.05c-0.11,0.06-0.22,0.15-0.34,0.18
					c-0.1,0.03-0.21-0.01-0.32-0.02c-0.04,0-0.09-0.02-0.12,0C83.72,31.36,83.59,31.21,83.38,31.13z M83.53,30.82
					c0.11,0.03,0.22,0.06,0.31,0.1c0.17,0.08,0.56,0.06,0.68-0.08c0.18-0.19,0.36-0.4,0.52-0.62c0.23-0.31,0.45-0.63,0.67-0.94
					c0.04-0.05,0.1-0.1,0.14-0.15c0.07-0.09,0.15-0.17,0.22-0.26c0.13-0.17,0.23-0.37,0.38-0.53c0.09-0.1,0.19-0.19,0.27-0.3
					c0.31-0.41,0.66-0.8,1-1.2c0.04-0.04,0.08-0.08,0.11-0.12c0.13-0.16,0.25-0.33,0.38-0.49c0.11-0.13,0.29-0.22,0.29-0.43
					c0-0.02,0.02-0.04,0.04-0.05c0.06-0.07,0.12-0.14,0.18-0.22c0.14-0.17,0.27-0.34,0.41-0.5c0.06-0.07,0.15-0.11,0.21-0.18
					c0.1-0.11,0.2-0.23,0.3-0.35c0.18-0.22,0.36-0.45,0.55-0.67c0.13-0.15,0.27-0.27,0.4-0.42c0.17-0.2,0.33-0.42,0.5-0.62
					c0.26-0.31,0.52-0.62,0.78-0.93c0.3-0.36,0.59-0.73,0.89-1.1c0.26-0.31,0.53-0.61,0.79-0.92c0.21-0.25,0.39-0.52,0.6-0.77
					c0.82-0.97,1.64-1.94,2.46-2.92c0.18-0.22,0.35-0.44,0.53-0.66c0.17-0.2,0.34-0.4,0.51-0.6c0.11-0.13,0.2-0.28,0.31-0.41
					c0.22-0.26,0.46-0.51,0.68-0.78c0.11-0.13,0.2-0.27,0.31-0.4c0.19-0.24,0.31-0.54,0.55-0.74c0.01-0.01,0.01-0.02,0.02-0.04
					c0.05-0.17,0.11-0.34,0.15-0.51c0.01-0.04-0.03-0.11-0.06-0.12c-0.04-0.02-0.11-0.01-0.15,0.01c-0.15,0.09-0.3,0.19-0.45,0.28
					c-0.09,0.06-0.18,0.12-0.27,0.18c-0.19,0.14-0.37,0.29-0.56,0.43c-0.22,0.17-0.45,0.33-0.67,0.5c-0.15,0.11-0.29,0.24-0.44,0.35
					c-0.12,0.09-0.24,0.17-0.36,0.26c-0.07,0.05-0.15,0.11-0.22,0.17c-0.12,0.1-0.23,0.22-0.35,0.31c-0.08,0.07-0.18,0.12-0.27,0.17
					c-0.07,0.04-0.14,0.06-0.2,0.11c-0.34,0.29-0.68,0.58-1.02,0.87c-0.19,0.16-0.4,0.32-0.59,0.48c-0.11,0.09-0.2,0.2-0.31,0.29
					c-0.3,0.25-0.61,0.48-0.91,0.73c-0.39,0.33-0.78,0.66-1.15,0.99c-0.42,0.38-0.92,0.68-1.24,1.16c-0.14,0.22-0.38,0.34-0.47,0.61
					c-0.05,0.16-0.19,0.29-0.28,0.44c-0.08,0.14-0.15,0.29-0.21,0.44c-0.06,0.14-0.11,0.29-0.14,0.43
					c-0.03,0.14-0.03,0.28-0.05,0.42c-0.05,0.36-0.09,0.72-0.16,1.08c-0.12,0.65-0.3,1.28-0.65,1.85c-0.02,0.03-0.03,0.06-0.03,0.09
					c0,0.16-0.12,0.26-0.21,0.36c-0.21,0.23-0.42,0.45-0.63,0.67c-0.16,0.18-0.31,0.36-0.48,0.53c-0.12,0.12-0.27,0.21-0.4,0.33
					c-0.39,0.39-0.77,0.79-1.16,1.19c-0.07,0.07-0.16,0.12-0.23,0.19c-0.15,0.14-0.29,0.3-0.44,0.45c-0.23,0.23-0.45,0.46-0.68,0.7
					c-0.11,0.12-0.21,0.24-0.32,0.36c-0.25,0.29-0.48,0.6-0.46,1.01c0,0.04,0.01,0.09-0.01,0.12C83.4,30.63,83.43,30.72,83.53,30.82
					z"/>
				<path d="M92,18.98c-0.19,0.16-0.4,0.3-0.57,0.47c-0.17,0.16-0.32,0.35-0.46,0.54c-0.11,0.15-0.18,0.31-0.26,0.48
					c-0.08,0.18-0.14,0.36-0.2,0.54c-0.02,0.06,0,0.14-0.03,0.19c-0.02,0.03-0.1,0.07-0.13,0.05c-0.05-0.02-0.13-0.08-0.13-0.13
					c0-0.21-0.02-0.44,0.04-0.64c0.05-0.19,0.16-0.37,0.29-0.52c0.23-0.27,0.49-0.52,0.74-0.76c0.19-0.18,0.39-0.36,0.59-0.53
					c0.05-0.04,0.14-0.03,0.21-0.05c0,0.06,0.01,0.13-0.01,0.19c-0.01,0.05-0.06,0.09-0.09,0.14C92,18.97,92,18.97,92,18.98z"/>
				<path d="M92.81,18.23c-0.06,0.04-0.1,0.09-0.14,0.1c-0.07,0.02-0.15,0.01-0.22,0.02c0.01-0.08-0.02-0.19,0.02-0.23
					c0.08-0.08,0.19-0.13,0.3-0.18c0.01-0.01,0.09,0.06,0.09,0.1C92.86,18.11,92.83,18.18,92.81,18.23z"/>
			</g>
		</g>
	</g>
	<g>
		<g id="wXI6Pt_3_">
			<g>
				<path d="M2.39,7.98C2.89,8.61,3.4,9.24,3.91,9.87c0.82,1.01,1.65,2.02,2.46,3.04c1.2,1.51,2.41,3.02,3.6,4.54
					c0.83,1.06,1.62,2.13,2.44,3.2c0.35,0.46,0.7,0.91,1.06,1.36c0.52,0.66,1.03,1.31,1.55,1.97c0.28,0.36,0.57,0.71,0.85,1.07
					c0.64,0.82,1.28,1.64,1.9,2.48c0.04,0.05,0,0.23-0.06,0.27c-0.25,0.17-0.51,0.31-0.77,0.46c-0.04,0.02-0.14,0-0.17-0.03
					c-0.51-0.64-1.01-1.27-1.5-1.92c-0.95-1.26-1.89-2.52-2.83-3.78c-0.3-0.4-0.6-0.8-0.89-1.2c-0.57-0.78-1.15-1.57-1.72-2.35
					c-0.33-0.45-0.66-0.9-0.99-1.35c-0.39-0.53-0.76-1.07-1.15-1.59c-0.33-0.45-0.67-0.89-1-1.33c-0.45-0.61-0.89-1.23-1.35-1.84
					C4.68,12,4.01,11.17,3.38,10.3C2.83,9.55,2.31,8.77,1.79,7.99C1.75,7.93,1.81,7.73,1.88,7.69C1.95,7.65,2.1,7.68,2.19,7.73
					C2.28,7.78,2.33,7.89,2.4,7.97C2.39,7.97,2.39,7.98,2.39,7.98z M11,19.99c0.46,0.7,0.89,1.41,1.37,2.08
					c0.47,0.68,0.99,1.33,1.48,2c0.64,0.86,1.28,1.71,1.92,2.57c0.33,0.43,0.67,0.85,1.01,1.28c0.02,0.02,0.09,0.03,0.12,0.02
					c0.11-0.05,0.22-0.1,0.31-0.18c0.11-0.09,0.38-0.12,0.16-0.38c-0.43-0.51-0.85-1.04-1.27-1.56c-0.49-0.61-0.97-1.22-1.45-1.84
					c-0.56-0.72-1.1-1.45-1.66-2.16c-0.53-0.69-1.08-1.37-1.63-2.06C11.24,19.83,11.09,19.93,11,19.99z M10.35,19.27
					c-0.01,0.01-0.01,0.01-0.02,0.02c0.1,0.12,0.21,0.25,0.31,0.37c0.19,0.23,0.33,0.01,0.46-0.08c0.03-0.02,0-0.18-0.05-0.24
					c-0.28-0.38-0.57-0.74-0.86-1.11c-0.4-0.51-0.82-1.02-1.21-1.53c-0.56-0.74-1.09-1.5-1.66-2.23c-0.74-0.96-1.52-1.89-2.28-2.83
					c-0.54-0.68-1.08-1.37-1.62-2.05C3.01,9.03,2.57,8.49,2.13,7.95C2.11,7.92,2.07,7.92,2.04,7.9c0,0.05-0.01,0.1,0.01,0.14
					c0.34,0.5,0.66,1.01,1.02,1.49c0.47,0.63,0.99,1.22,1.46,1.84C4.79,11.71,5,12.1,5.26,12.44c0.53,0.7,1.09,1.38,1.62,2.09
					c0.8,1.07,1.58,2.16,2.38,3.24C9.62,18.27,9.99,18.77,10.35,19.27z"/>
			</g>
		</g>
		<g>
			<path d="M13.3,30.58c-0.19,0.11-0.37,0.22-0.56,0.31c-0.03,0.02-0.11-0.06-0.16-0.1c-0.01-0.01,0-0.03,0-0.04
				c-0.27-0.51-0.54-1.03-0.82-1.53c-0.31-0.57-0.66-1.12-0.96-1.7c-0.29-0.55-0.53-1.13-0.81-1.68c-0.2-0.39-0.46-0.74-0.66-1.13
				c-0.23-0.44-0.41-0.9-0.63-1.35c-0.12-0.24-0.28-0.46-0.4-0.7c-0.21-0.42-0.4-0.85-0.61-1.26c-0.26-0.49-0.54-0.97-0.8-1.46
				c-0.23-0.44-0.45-0.88-0.69-1.32c-0.19-0.36-0.41-0.7-0.61-1.05c-0.08-0.15-0.17-0.29-0.24-0.44c-0.32-0.63-0.64-1.27-0.96-1.9
				c-0.22-0.42-0.45-0.84-0.66-1.26c-0.28-0.55-0.55-1.1-0.83-1.65c-0.23-0.43-0.48-0.85-0.71-1.28c-0.2-0.38-0.36-0.77-0.56-1.15
				C1.4,9.45,1.16,9.01,0.92,8.56c-0.1-0.18,0-0.38,0.12-0.4C1.16,8.14,1.36,8.28,1.44,8.4c0.39,0.61,0.78,1.23,1.13,1.86
				c0.82,1.5,1.61,3.02,2.43,4.52c0.31,0.56,0.68,1.09,1.01,1.64c0.35,0.58,0.68,1.17,1.01,1.75c0.21,0.37,0.39,0.76,0.61,1.12
				c0.18,0.29,0.42,0.53,0.59,0.82c0.44,0.74,0.87,1.5,1.29,2.25c0.13,0.24,0.23,0.49,0.36,0.73c0.32,0.58,0.65,1.16,0.96,1.75
				c0.26,0.48,0.49,0.97,0.75,1.44c0.29,0.52,0.6,1.03,0.9,1.55c0.33,0.58,0.66,1.16,1,1.73c0.11,0.19,0.27,0.34,0.4,0.52
				c0.03,0.04-0.01,0.16-0.05,0.19C13.66,30.39,13.48,30.48,13.3,30.58C13.3,30.58,13.3,30.58,13.3,30.58z M8.98,21.87
				c-0.22-0.35-0.22-0.35-0.64-0.25c-0.14,0.03-0.18,0.09-0.11,0.24c0.23,0.44,0.46,0.88,0.68,1.33c0.29,0.6,0.57,1.2,0.88,1.79
				c0.2,0.39,0.45,0.75,0.65,1.13c0.17,0.32,0.28,0.68,0.45,1c0.4,0.75,0.83,1.49,1.24,2.23c0.16,0.3,0.28,0.62,0.45,0.91
				c0.06,0.11,0.23,0.27,0.29,0.25c0.22-0.07,0.42-0.21,0.62-0.34c0.03-0.02,0.05-0.11,0.03-0.15c-0.17-0.3-0.36-0.6-0.54-0.89
				c-0.32-0.51-0.64-1.01-0.95-1.53c-0.3-0.51-0.57-1.03-0.86-1.54c-0.27-0.49-0.56-0.97-0.82-1.46
				C9.89,23.69,9.44,22.78,8.98,21.87z M1.25,8.39C1.2,8.4,1.16,8.41,1.11,8.42C1.12,8.54,1.1,8.69,1.15,8.79
				c0.2,0.37,0.44,0.73,0.64,1.1c0.57,1.02,1.13,2.04,1.68,3.07c0.29,0.54,0.54,1.1,0.82,1.64c0.25,0.49,0.51,0.99,0.77,1.47
				c0.26,0.48,0.56,0.94,0.82,1.43c0.35,0.66,0.68,1.34,1.03,2c0.29,0.54,0.6,1.07,0.89,1.61c0.2,0.36,0.19,0.36,0.49,0.15
				c0.07-0.05,0.14-0.1,0.21-0.15c-0.06-0.12-0.1-0.26-0.18-0.37c-0.33-0.52-0.68-1.04-0.99-1.57c-0.84-1.42-1.67-2.85-2.5-4.29
				c-0.45-0.79-0.88-1.59-1.31-2.38c-0.27-0.5-0.55-1-0.82-1.5c-0.18-0.34-0.35-0.7-0.54-1.04c-0.15-0.28-0.33-0.54-0.5-0.81
				C1.53,8.89,1.39,8.64,1.25,8.39z"/>
		</g>
	</g>
</g>
</svg>
