<?xml version="1.0" encoding="utf-8"?>
<!-- Generator: Adobe Illustrator 24.3.0, SVG Export Plug-In . SVG Version: 6.00 Build 0)  -->
<svg version="1.1" id="レイヤー_1" xmlns="http://www.w3.org/2000/svg" xmlns:xlink="http://www.w3.org/1999/xlink" x="0px"
	 y="0px" width="150px" height="200px" viewBox="0 0 150 200" style="enable-background:new 0 0 150 200;" xml:space="preserve">
<style type="text/css">
	.st0{fill:#231815;}
</style>
<g>
	<g>
		<g>
			<path class="st0" d="M12.1,17.9c0.4-0.2,0.9-0.4,1.4-0.5c0.5-0.1,1-0.1,1.4,0.1c1,0.3,1.7,0.9,2.3,2c0.6,1.1,0.7,2.1,0.4,3.1
				c-0.3,0.9-1,1.7-2,2.3l-0.1,0.1L15.4,25l-0.5,0.3c-0.1,0-0.2,0.1-0.2,0.1l-0.4,0.2l-0.3,0.2c-0.7,0.4-1,0.5-1.1,0.4
				s0-0.2,0.2-0.4c0.2-0.2,0.2-0.4,0.2-0.6c0-0.2-0.5-1-1.3-2.4c-0.8-1.4-1.3-2.3-1.5-2.5c-0.2-0.2-0.3-0.3-0.4-0.4
				c-0.1,0-0.2,0-0.4,0c-0.2,0-0.3,0-0.3,0l0-0.1c-0.1-0.1,0.2-0.3,0.8-0.7l1.6-1L12.1,17.9z M12,18.6l-0.2,0.1
				c-0.4,0.2-0.5,0.4-0.5,0.6c0,0.1,0.3,0.5,0.7,1.4l0.8,1.4l0.1,0.2l0.2,0.4l0.1,0.2l0.2,0.4l0.2,0.3l0.3,0.5
				c0.2,0.4,0.4,0.6,0.5,0.7c0.1,0.1,0.4,0,0.7-0.2l0.2-0.1c1.1-0.6,1.5-1.5,1.3-2.8c-0.1-0.4-0.2-0.8-0.4-1.2L16,20.1
				c-0.2-0.4-0.5-0.7-0.8-1c-0.6-0.6-1.3-0.9-2.1-0.8C12.8,18.3,12.4,18.4,12,18.6z"/>
			<path class="st0" d="M20.5,14c0-0.1,0.1-0.2,0.3-0.4c0.1-0.1,0.9-0.4,2.2-0.9l1.5-0.7c0.3-0.1,0.6-0.2,0.8-0.1
				c0.2,0.1,0.4,0.3,0.6,0.7c0.1,0.2,0.1,0.3,0,0.3c0,0-0.2,0-0.4-0.1c-0.2-0.1-0.4-0.1-0.5-0.1c-0.5,0.1-1.1,0.2-1.6,0.5
				c-0.3,0.1-0.4,0.4-0.5,0.7c0,0.4,0.1,0.8,0.3,1.3c0.1,0.3,0.3,0.5,0.5,0.5c0.2,0,0.5,0,0.9-0.2c0.1-0.1,0.3-0.2,0.4-0.4
				c0.1-0.2,0.2-0.4,0.3-0.4c0.1,0,0.2,0,0.3,0.1c0.1,0.1,0.3,0.3,0.4,0.6c0.1,0.3,0.2,0.6,0.1,0.7l-0.1,0.1c-0.1,0-0.3,0-0.7-0.1
				c-0.2,0-0.5,0-0.8,0.1c-0.3,0.1-0.5,0.3-0.6,0.6c0,0.2,0.1,0.5,0.3,1.1c0.2,0.6,0.5,0.9,0.8,1.1c0.2,0.1,0.5,0,1.1-0.2
				c0.5-0.2,0.9-0.4,1.1-0.7c0.2-0.2,0.4-0.5,0.5-0.7c0.1-0.2,0.2-0.4,0.2-0.4c0.1,0,0.1,0,0.2,0.1c0.3,0.6,0.3,1,0.1,1.3
				c-0.1,0.1-0.6,0.4-1.6,0.8l-0.9,0.4c-1.2,0.5-1.9,0.8-2.1,0.8c-0.2,0.1-0.4,0.1-0.4,0c0-0.1,0-0.2,0.1-0.4
				c0.1-0.2,0.2-0.3,0.2-0.5c0-0.3-0.3-1.1-0.9-2.4l-0.8-2c-0.2-0.6-0.4-0.9-0.5-1c-0.1-0.1-0.2-0.2-0.5-0.2
				C20.7,14.1,20.6,14.1,20.5,14z"/>
			<path class="st0" d="M31.9,9.8c-0.2,0-0.4-0.1-0.4-0.2c0-0.1,0.1-0.2,0.4-0.3l0.3-0.1l0.2,0L32.8,9c0.6-0.2,1-0.3,1.2-0.3
				c0.1,0,0.2,0,0.3,0.1c0,0.1-0.1,0.2-0.2,0.4c-0.2,0.2-0.3,0.4-0.2,0.6c0,0.4,0.3,1.4,0.8,3s0.8,2.4,0.9,2.5
				c0.1,0.1,0.5,0.1,1.1-0.1c0.6-0.2,1-0.4,1.2-0.5c0.2-0.2,0.3-0.4,0.4-0.8c0.1-0.4,0.2-0.6,0.3-0.6c0.1,0,0.2,0,0.3,0.3
				c0.2,0.8,0.3,1.3,0.1,1.5c-0.1,0.1-0.7,0.4-1.7,0.7l-0.5,0.1l-0.2,0L36.3,16c-1.7,0.5-2.6,0.7-2.6,0.6c0-0.1,0-0.2,0.2-0.4
				c0.2-0.2,0.2-0.4,0.2-0.6c0-0.2-0.2-0.9-0.6-2.1l-0.7-2.2c-0.2-0.8-0.4-1.2-0.5-1.3C32.3,9.8,32.1,9.8,31.9,9.8z"/>
			<path class="st0" d="M45.4,5.6c0.2-0.1,0.4,0,0.4,0.1c0,0.1-0.1,0.2-0.2,0.3c-0.2,0.1-0.3,0.3-0.3,0.5c0,0.2,0.1,0.8,0.3,1.8
				l0.1,0.2l0.1,0.2L45.8,9l0,0.1c0,0.1,0,0.2,0,0.2l0,0.2l0,0.2l0.1,0.5l0.1,0.4l0.1,0.5l0.1,0.2c0,0.1,0,0.2,0.1,0.2
				c0.1,0.4,0.2,0.7,0.3,0.8c0.1,0.1,0.2,0.1,0.4,0.1c0.2,0,0.3,0.1,0.3,0.2c0,0.2-0.1,0.3-0.3,0.3l-0.2,0.1l-0.1,0
				c-0.1,0-0.2,0-0.2,0l-0.2,0c-0.1,0-0.2,0-0.2,0l-0.5,0.1c-0.6,0.1-0.9,0.1-1,0c0-0.1,0.1-0.2,0.3-0.4c0.2-0.1,0.3-0.3,0.3-0.4
				c0-0.3-0.1-0.9-0.3-2l-0.1-0.2l-0.1-0.4c0-0.1,0-0.2-0.1-0.2l0-0.1c0-0.1,0-0.2,0-0.2l0-0.2c0-0.1,0-0.2-0.1-0.4l-0.1-0.2l0-0.1
				l-0.1-0.4C44.2,7.5,44,7,43.9,6.8c-0.1-0.1-0.2-0.2-0.4-0.2c-0.3,0-0.5-0.1-0.5-0.2c0-0.1,0.2-0.3,0.8-0.4l0.2,0l0.1,0l0.3-0.1
				l0.7-0.2L45.4,5.6z"/>
			<path class="st0" d="M59,7.3c0-0.3,0.2-0.4,0.8-0.5c0.3,0,0.5,0,0.5,0.1c0,0.1-0.1,0.2-0.2,0.4c-0.1,0.2-0.2,0.5-0.3,0.9
				c-0.1,0.4-0.1,0.7-0.1,1c0,0.3,0.2,0.6,0.4,0.8c0.1,0.1,0.3,0.2,0.5,0.3c0.2,0.1,0.3,0.1,0.3,0.2c0,0.1,0,0.1-0.1,0.1
				c-0.2,0.2-0.5,0.3-0.8,0.3s-0.6,0-0.9-0.1s-0.5-0.1-0.8-0.1c-0.1,0-0.3,0.1-0.7,0.3c-0.4,0.2-0.9,0.4-1.3,0.4
				c-0.6,0.1-1.2-0.1-1.6-0.4c-0.5-0.3-0.7-0.8-0.8-1.4s0.1-1.2,0.7-1.7c0.4-0.4,0.5-0.6,0.5-0.8S55,7,54.8,6.7s-0.3-0.6-0.3-0.9
				c0-0.4,0.1-0.8,0.4-1.2S55.5,4,56,4c0.5-0.1,0.9,0,1.2,0.3c0.3,0.2,0.5,0.5,0.5,0.9c0,0.4,0,0.7-0.2,1.1
				c-0.2,0.4-0.3,0.7-0.2,1.1c0,0.3,0.2,0.6,0.6,0.9c0.2,0.2,0.4,0.2,0.7,0.2c0.1,0,0.1-0.1,0.2-0.2C59,8,59,7.7,59,7.3z M55,9.4
				l0,0.2c0,0.4,0.2,0.7,0.6,1c0.3,0.3,0.7,0.4,1.1,0.3l0.3,0c0.2,0,0.5-0.1,0.8-0.3s0.4-0.4,0.4-0.5l0,0c0-0.1-0.4-0.4-1.1-1.1
				c-0.7-0.7-1.2-1-1.2-1c-0.2,0-0.4,0.2-0.6,0.6C55,8.8,54.9,9.1,55,9.4z M55.5,5.4l0,0.1c0,0.2,0.2,0.6,0.5,1
				c0.2,0.3,0.3,0.4,0.5,0.4c0.1,0,0.2-0.2,0.4-0.4s0.2-0.5,0.2-0.7c0,0,0-0.1,0-0.1l0-0.2l0-0.2c0-0.3-0.1-0.5-0.3-0.7
				c-0.2-0.2-0.4-0.3-0.6-0.3l-0.1,0c-0.2,0-0.4,0.2-0.5,0.5C55.5,4.9,55.5,5.1,55.5,5.4z"/>
			<path class="st0" d="M69.3,8.2c0,0.6,0,1,0.1,1.2c0,0.2,0.1,0.4,0.3,0.5c0.1,0.1,0.2,0.2,0.2,0.4c0,0.2-0.5,0.2-1.6,0.3
				c-0.6,0-0.9-0.1-0.9-0.2c0-0.1,0.1-0.2,0.3-0.3c0.2-0.1,0.3-0.3,0.4-0.6c0.1-0.3,0.1-1.2,0-2.7C68,5.1,68,4.2,67.9,4
				c-0.1-0.3-0.2-0.4-0.3-0.6c-0.3-0.2-0.4-0.3-0.4-0.3c0-0.2,0.3-0.3,0.8-0.3l1,0c0.5,0,0.7,0.1,0.7,0.2c0,0-0.1,0.1-0.2,0.3
				c-0.1,0.2-0.2,0.4-0.2,0.6c0,0.3,0,0.9,0,1.8c0,0.3,0.1,0.5,0.3,0.5c0,0,0.1-0.1,0.3-0.2c0.4-0.3,0.9-0.9,1.5-1.6
				c0.3-0.4,0.5-0.8,0.5-1.1l0-0.3c0-0.1,0.1-0.2,0.2-0.2c0.1,0,0.4-0.1,0.9-0.1c0.5,0,0.8,0,0.8,0.2c0,0-0.3,0.3-0.8,0.7
				c-0.3,0.2-0.7,0.6-1.2,1.2c-0.5,0.6-0.8,1.1-0.8,1.3c0,0.2,0.7,1.1,2,2.7c0.3,0.3,0.5,0.6,0.7,0.7c0.4,0.3,0.6,0.5,0.6,0.6
				c0,0.2-0.3,0.2-1,0.3l-0.2,0c-0.3,0-0.6-0.1-0.7-0.2c-0.1-0.1-0.1-0.2-0.2-0.4c-0.1-0.2-0.3-0.5-0.5-0.9C70.7,7.6,70.1,7,69.8,7
				C69.4,7,69.3,7.4,69.3,8.2z"/>
			<path class="st0" d="M83.4,3.2c0.2,0,0.4,0.1,0.3,0.2c0,0.1-0.1,0.2-0.3,0.3S83.1,3.9,83,4c-0.1,0.1-0.1,0.8-0.2,1.8l0,0.2l0,0.2
				l0,0.2l0,0.1c0,0.1,0,0.2,0,0.3l0,0.2l0,0.3l0,0.5l0,0.4l0,0.5l0,0.2c0,0.1,0,0.2,0,0.2c0,0.4,0,0.7,0.1,0.9
				c0.1,0.1,0.2,0.2,0.4,0.2c0.2,0.1,0.3,0.2,0.3,0.3c0,0.2-0.1,0.2-0.4,0.2l-0.2,0l-0.1,0c-0.1,0-0.2,0-0.2,0l-0.2,0
				c-0.1,0-0.2,0-0.2,0l-0.5,0c-0.6,0-1-0.1-0.9-0.3c0-0.1,0.1-0.2,0.3-0.3c0.2-0.1,0.4-0.2,0.4-0.3c0.1-0.3,0.2-0.9,0.3-2l0-0.2
				l0-0.4c0-0.1,0-0.2,0-0.3l0-0.1c0-0.1,0-0.2,0-0.3l0-0.2c0-0.1,0-0.2,0-0.4l0-0.2l0-0.1l0-0.4c0-0.7,0-1.1,0-1.4
				c0-0.2-0.1-0.3-0.3-0.3c-0.3-0.1-0.4-0.2-0.4-0.3c0-0.1,0.3-0.2,0.9-0.2l0.2,0l0.1,0l0.4,0l0.7,0L83.4,3.2z"/>
			<path class="st0" d="M91,11.5c0-0.1,0.2-0.2,0.4-0.3c0.3-0.1,0.4-0.3,0.5-0.5c0.1-0.3,0.3-1.2,0.5-2.8c0.3-1.6,0.4-2.5,0.3-2.7
				c0-0.2-0.2-0.3-0.6-0.4c-0.4-0.1-0.7-0.1-0.9,0C91.2,5,91,5.1,90.9,5.2c-0.3,0.3-0.5,0.5-0.5,0.5c-0.2,0-0.2-0.1-0.2-0.4l0-0.2
				C90.3,4.5,90.5,4,90.6,4c0.1,0,1,0.1,2.9,0.4l2.2,0.4c0.1,0,0.2,0,0.4,0.1l0.4,0c0.2,0,0.3,0.1,0.3,0.2c0.1,0.2,0.1,0.5,0,1.2
				c0,0.3-0.1,0.5-0.2,0.4c-0.1,0-0.3-0.2-0.4-0.5c-0.1-0.3-0.2-0.5-0.4-0.6c-0.2-0.1-0.4-0.2-0.8-0.3c-0.4-0.1-0.6,0-0.7,0.2
				c-0.1,0.2-0.3,1.1-0.6,2.8c-0.3,1.7-0.4,2.6-0.4,2.8c0,0.2,0.1,0.4,0.2,0.5c0,0,0.1,0.1,0.3,0.2c0.1,0.1,0.2,0.2,0.2,0.2
				c0,0.2-0.2,0.2-0.4,0.2l-0.4-0.1L92.1,12C91.3,11.8,91,11.7,91,11.5z"/>
			<path class="st0" d="M101.4,9.7c0.1-0.5,0.3-0.9,0.6-1.4c0.3-0.4,0.7-0.8,1.1-1c0.4-0.3,0.9-0.4,1.4-0.5c0.5-0.1,0.9,0,1.4,0.1
				s0.8,0.3,1.1,0.4c0.3,0.2,0.6,0.3,0.8,0.3c0.2,0.1,0.3,0.1,0.4,0.2c0.1,0.2,0.1,0.5,0,1.1c-0.1,0.4-0.3,0.6-0.5,0.5
				c-0.1,0-0.2-0.2-0.3-0.6c-0.1-0.3-0.3-0.6-0.4-0.7c-0.3-0.3-0.7-0.5-1.1-0.7c-0.8-0.2-1.5,0-2.1,0.5c-0.5,0.4-0.9,1.1-1.1,1.9
				c-0.3,1.1-0.3,1.9,0,2.6c0.3,0.8,0.9,1.2,1.7,1.5c0.4,0.1,0.9,0.1,1.2,0c0.2-0.1,0.4-0.2,0.7-0.4s0.5-0.3,0.6-0.2
				c0.1,0,0.2,0.1,0.1,0.3c0,0.2-0.2,0.3-0.3,0.5c-0.2,0.2-0.4,0.3-0.5,0.4c-0.2,0.1-0.5,0.1-0.9,0.1c-0.4,0-0.8,0-1.1-0.1l-0.4-0.1
				c-0.5-0.1-0.9-0.3-1.3-0.6c-0.8-0.6-1.2-1.4-1.3-2.4c0-0.5,0-1,0.2-1.5L101.4,9.7z"/>
			<path class="st0" d="M118.7,19.2c-0.1,0.1-0.5,0.1-1.2-0.2c-0.8-0.3-1.1-0.5-1.1-0.6c0-0.1,0.1-0.2,0.2-0.2
				c0.3-0.1,0.5-0.2,0.5-0.3c0.1-0.1,0.2-0.5,0.5-1.2c0.3-0.7,0.3-1.2,0.2-1.3c-0.1-0.2-0.6-0.4-1.5-0.7c-0.9-0.3-1.4-0.5-1.6-0.4
				c-0.1,0-0.3,0.4-0.6,1.2s-0.4,1.2-0.4,1.3c0,0.1,0,0.3,0.1,0.4c0.1,0.2,0.1,0.3,0.1,0.4c0,0.1-0.4,0-1-0.2l-0.2-0.1l-0.2-0.1
				c-0.6-0.2-0.9-0.4-0.8-0.6c0-0.1,0.2-0.1,0.4-0.2c0.2,0,0.4-0.1,0.5-0.3c0.1-0.1,0.5-1,1-2.5c0.6-1.6,0.9-2.5,0.9-2.7
				c0-0.3,0-0.5-0.1-0.6c-0.2-0.3-0.3-0.4-0.3-0.5c0.1-0.1,0.6,0,1.6,0.4c0.6,0.2,0.9,0.4,0.8,0.5c0,0.1-0.1,0.2-0.2,0.2
				c-0.3,0.1-0.4,0.2-0.5,0.3c-0.1,0.1-0.2,0.5-0.5,1.1c-0.2,0.6-0.3,1-0.2,1.2c0.1,0.1,0.6,0.4,1.5,0.7c0.9,0.3,1.4,0.5,1.5,0.4
				c0.1,0,0.3-0.3,0.5-0.7l0.1-0.2l0.1-0.2c0-0.1,0.1-0.3,0.2-0.5c0.1-0.2,0.1-0.4,0-0.6l-0.1-0.3c-0.1-0.1-0.1-0.2-0.1-0.3
				c0-0.1,0.6,0,1.8,0.5c0.5,0.2,0.7,0.3,0.6,0.5c0,0.1-0.1,0.2-0.3,0.2c-0.3,0.1-0.5,0.1-0.6,0.2c-0.1,0.1-0.3,0.7-0.8,1.9
				l-1.1,2.8c-0.2,0.4-0.2,0.8-0.2,0.9c0,0.1,0.1,0.2,0.2,0.3C118.6,19,118.7,19.1,118.7,19.2z"/>
			<path class="st0" d="M126.7,14.8c0-0.1,0.2-0.1,0.5,0c0.1,0.1,0.8,0.4,2.1,1l1.5,0.7c0.3,0.2,0.5,0.3,0.6,0.6
				c0.1,0.2,0,0.5-0.2,0.9c-0.1,0.2-0.2,0.2-0.2,0.2c0,0-0.1-0.1-0.2-0.3c-0.1-0.2-0.2-0.4-0.3-0.5c-0.4-0.3-0.8-0.7-1.4-0.9
				c-0.3-0.1-0.6-0.1-0.9,0.1s-0.6,0.6-0.8,1.1c-0.1,0.3-0.2,0.5,0,0.7s0.3,0.4,0.7,0.6c0.1,0.1,0.3,0.1,0.6,0c0.3,0,0.4-0.1,0.5,0
				c0.1,0,0.1,0.1,0.1,0.3c0,0.1-0.1,0.4-0.2,0.7c-0.2,0.3-0.3,0.5-0.5,0.6l-0.2,0c-0.1,0-0.2-0.2-0.4-0.6c-0.1-0.2-0.3-0.4-0.6-0.5
				c-0.3-0.2-0.6-0.2-0.8,0c-0.2,0.1-0.4,0.4-0.6,0.9c-0.3,0.5-0.4,1-0.3,1.3c0,0.2,0.3,0.4,0.8,0.7c0.5,0.3,0.9,0.4,1.2,0.4
				c0.3,0,0.6,0,0.9-0.1c0.3-0.1,0.4-0.1,0.5-0.1c0.1,0,0.1,0.1,0,0.2c-0.3,0.6-0.6,0.9-0.9,0.9c-0.2,0-0.7-0.2-1.7-0.7l-0.9-0.4
				c-1.1-0.6-1.8-0.9-2-1c-0.2-0.1-0.3-0.2-0.2-0.3c0-0.1,0.2-0.1,0.4-0.2c0.2,0,0.4-0.1,0.5-0.2c0.2-0.2,0.6-0.9,1.3-2.2l1-1.9
				c0.3-0.6,0.4-0.9,0.5-1c0-0.1,0-0.3-0.2-0.5C126.7,15.1,126.7,14.9,126.7,14.8z"/>
			<path class="st0" d="M134.6,27.4c-0.1,0.1-0.3,0.1-0.6-0.1l-0.6-0.4c-0.4-0.3-0.6-0.5-0.6-0.6c0-0.1,0.2-0.1,0.5-0.1
				c0.3,0,0.5-0.1,0.6-0.2c0.3-0.3,0.8-1,1.6-2.2c0.8-1.2,1.2-1.9,1.3-2.2c0.1-0.3,0.1-0.5,0.1-0.7c-0.1-0.3-0.1-0.5-0.1-0.5
				c0.1-0.1,0.2-0.1,0.5,0c0.4,0.2,0.6,0.4,0.8,0.6c0.1,0.2,0.2,0.4,0.3,0.7c0.1,0.2,0.1,1.4,0.3,3.4c0.1,2,0.2,3,0.2,3.1
				c0.1,0.1,0.5-0.5,1.3-1.7l0.3-0.4l0.3-0.5c0.4-0.7,0.7-1.1,0.8-1.3c0.1-0.2,0-0.4,0-0.6c-0.1-0.2-0.1-0.4,0-0.5
				c0.1-0.1,0.3,0,0.8,0.3l0.2,0.1c0.6,0.4,0.9,0.6,0.8,0.7c-0.1,0.1-0.2,0.2-0.5,0.2c-0.3,0-0.5,0.1-0.7,0.4
				c-0.3,0.4-0.8,1-1.3,1.9l-1.1,1.7c-0.1,0.1-0.2,0.3-0.3,0.4l-0.3,0.5c-0.2,0.3-0.3,0.5-0.4,0.5c-0.1,0.1-0.2,0-0.3,0
				c-0.2-0.1-0.3-0.5-0.4-1.1c0-0.3-0.1-1.4-0.1-3.4s-0.2-3-0.3-3.1c-0.1,0-0.4,0.4-1,1.3l-0.7,1.2c-0.5,0.8-0.9,1.4-1,1.8
				c0,0.1-0.1,0.2-0.1,0.4l0,0.2C134.7,27.3,134.7,27.4,134.6,27.4z"/>
		</g>
	</g>
	<g>
		<g id="CekHhr_3_">
			<g>
				<path d="M51.2,83c-0.8-0.4-2.1-0.9-2.7-1.5c-0.8-0.8-1.1-1.7-1.7-2.7c-0.8-1.5,0.5-5.5,1.9-6.6c1.8-1.4,3.8-2.1,6-1.9
					c0.5,0,0.9,0,1.4-0.1c1.7-0.3,1.9,1,2,2c0.1,1.2-0.8,1.8-2,2c-2.2,0-4,0.2-4.3,2.5c-0.1,0.4,0.4,1.7,0.6,1.8
					c0.5,0.3,1.1,0.6,1.7,0.6c1-0.1,2-0.4,2.9-0.7c1.3-0.4,2.1-1.1,2.1-2.6c0.1-2.8,0.5-5.7,0.4-8.5c0-1.2-0.6-2.8-1.5-3.3
					c-0.9-0.6-2.6-0.3-3.8,0.1c-1.4,0.5-2.5,1.6-3.8,2.3c-0.4,0.2-1,0.3-1.4,0.1c-0.9-0.4-2-0.7-1.8-2.3c0.4-3.1,2.9-3.6,5.2-4.4
					c2.7-0.9,5.9-1.1,8.1,0.4c1.5,1,2.2,2.7,3,4.3c0.5,0.8,0.6,1.9,0.6,2.9c0.1,1.3-0.1,2.7-0.2,4c-0.1,1.9-0.3,3.7-0.4,5.6
					c-0.1,2,0.5,2.9,2.3,3.7c1,0.3,0.9,1.7,0.8,2.3c-0.2,0.5-0.9,1-1.5,1.2c-2.5,0.7-4.4-0.6-6.4-1.9c-0.7-0.5-2.2,0.3-3.3,0.5
					C54,83.1,53.2,83,52,83.2C51.9,83.1,51.3,83.2,51.2,83z"/>
				<path d="M121.3,78.6c-0.7-0.8-0.5-1.6-1-2.5c0.1,0-0.4-0.6-0.4-0.9c-0.9-4.6-0.1-9,2.5-11.8c0.7-0.7,2.1-1.6,3.3-2.1
					c0.1-0.1,0.7-0.4,0.8-0.5c0.7-0.1,1.2-0.2,1.8-0.3c0.9-0.1,1.9,0.7,2,2.1c0,1.4,0,1.3-0.9,2.3c-0.3,0.4-2.5,1.2-3,1.4
					c-0.3,0.1-0.7,0.8-1.2,1.2c-0.3,0.6-0.7,2-0.9,3.2c-0.2,1.3,0,2.5,0.1,3.9c0,0.4,0,0.9,0.8,2.1s3.1,2.8,6,3
					c2.8,0.1,5-1.4,5.7-2.5c0.7-1.1,1.4-2.4,1.6-3.1c-0.1-2.3,0.4-2.9-0.4-5.5c-0.1-0.8-1.3-1.9-2.1-2.5c-0.7-0.5-1.7-0.5-2.5-1
					c-1.8-1.2-1.8-3.9,0.1-4.8c0.9-0.4,2.3,0.2,3.5,0.7c0.3,0.1,1.3,0.8,1.5,1c2.1,2.1,3.7,4,4.2,6.7c0.1,1.5,0.3,3.7-0.1,5.1
					c0.1,2.6-1.1,4.2-2.6,6c-0.7,0.9-2.1,2.2-3.2,2.7c-1.4,0.7-2.5,1-4.1,1.2c-1.4,0.3-2.9,0-4.3-0.1c-0.6-0.1-1.7-0.6-2.8-1.2
					c-0.7-0.5-2.5-1.7-3-2.1S122,79.4,121.3,78.6z"/>
				<path d="M90.8,67.4c0-0.7,0-1.4,0.1-1.4c-0.1-1.5,0-2.5-0.1-4c0,0,0,0,0,0c-0.1-1,0-2.6-0.1-3.5c0.1-0.5,0-1.9,0-2.3
					c-0.1-1.3,0-2-0.2-3.2c-0.5-2.5,0.5-4,3-4.1c0.5,0,1.2,0.3,1.5,0.9c0.2,0.1,0.3,0.4,0.3,0.9c0.1,0.5-0.1,6.1-0.2,9.2
					c0,1.7-0.1,4.7-0.1,6.4c0,2.6,0,6.7,0.1,9.2c0,2.2,0.1,3.4,0.8,4.1c0.7,0.8,1.3,0.8,1.5,1.5s0.2,1.7-0.2,2.1
					c-0.8,0.7-2,1.1-3,0.7c-0.9-0.4-1.8-0.7-2.7-1.4c-0.9-0.8-0.9-2.2-1-3.6c-0.2-2.5,0.2-4.3,0.2-6.8
					C90.7,70.8,90.8,68.2,90.8,67.4z"/>
			</g>
		</g>
		<path d="M2.7,77c0.1-1.4,0.1-3.7,0-3.7c0-2.1,0-7.3,0-7.4c0-3.7,0-6.9,0-10.1c0.1,0-0.2-2-0.2-3c0-1.2,0.4-2.4,0.7-3.5
			c0.3-1,1.5-1.4,2.1-1.3c2.2,0.3,2.7,1.1,2.4,3.7c-0.1,1,0.2,2,0.1,3c-0.1,1.3-0.4,2.6-0.4,4c-0.1,0.9,0.1,1.9,0.1,2.8
			c0,0.8,0,1.5,0,2.3c0,2.8,0.1,5.5,0.1,8.3c0,2-0.2,4-0.3,6.1c-0.1,1.4,0,2.8-0.1,4.3c0,0.6-0.1,1.6-0.6,1.7
			c-0.9,0.5-2.3,0.4-2.8,0.2S3.2,83.7,3,82.9C2.9,82.2,2.7,76.9,2.7,77z"/>
		<path d="M22.6,75.7c0,1.1-0.2,2.3,0.1,3.3c0.3,1.1,0.9,1.7,1.3,2.9c0.2,0.6,0.2,1.5-0.2,1.8c-1.8,1.5-4.5,0.6-5.4,0.2
			c-0.4-0.1-0.9-1.3-0.9-2c0-1.1,0.4-2.2,0.4-3.3c0.1-1.4,0.1-2.8,0.1-4.1c0-1.4,0.2-2.8-0.1-4.2c-0.3-1.3,0.1-3.1-1.5-3.6
			c-1.3-0.4-2.4,0-3.5,0.5c-0.8,0.3-1.6,0.6-2.1,0.4c-0.4-0.2-1.1-0.2-1.3-0.6c-0.2-0.5-0.3-1.5-0.1-1.9c0.2-0.5,1.2-1.4,1.9-1.5
			c0.2-0.1,0.4-0.3,0.7-0.5c0.1,0,0.8-0.3,0.9-0.3c0.2,0.1,0.4-0.2,0.5,0c0.1-0.3,0.7-0.3,0.8-0.3c0,0,0.5,0,0.6,0
			c2,0.3,4.1-0.8,6.2,1.8c0.1,0.3,0.4,0.6,0.5,0.9c0.4,1.3,0.8,2.6,0.9,3.9c0.2,1.9,0.2,3.8,0.2,5.7C22.5,75.1,22.5,75.7,22.6,75.7z
			"/>
	</g>
	<g>
		<g>
			<g id="MFvlQb_1_">
				<g>
					<path d="M113.8,177.1c0.1-0.1,0.1-0.3,0.2-0.4c0.3-0.3,0.5-0.6,0.8-0.9c0.2-0.2,0.4-0.5,0.6-0.7c0.4-0.3,0.7-0.7,1-1
						c0.2-0.2,0.4-0.4,0.6-0.5c0.1-0.1,0.1-0.2,0.2-0.2c0.2-0.2,0.5-0.5,0.8-0.7c0.3-0.3,0.7-0.5,1-0.8c0.3-0.3,0.6-0.5,0.9-0.8
						c0.4-0.3,0.7-0.7,1.1-1c0.3-0.2,0.5-0.5,0.8-0.7c0.4-0.3,0.7-0.7,1.1-1c0.1-0.1,0.3-0.2,0.5-0.4c0.1-0.1,0.2-0.3,0.4-0.4
						c0.3-0.3,0.5-0.5,0.8-0.8c0.3-0.3,0.6-0.7,0.9-1c0.3-0.3,0.5-0.6,0.8-0.9c0.4-0.4,0.7-0.9,1-1.3c0.2-0.3,0.4-0.7,0.6-1
						c0.2-0.3,0.2-0.6,0.3-0.9c0-0.1,0.1-0.2,0.1-0.3c0.2-0.4,0.4-0.9,0.7-1.3c0.3-0.6,0.7-1.2,1.1-1.8c0.2-0.4,0.5-0.8,0.8-1.2
						c0.3-0.5,0.7-0.9,1.1-1.3c0.3-0.3,0.6-0.6,0.9-0.9c0.7-0.6,1.4-1.2,2.1-1.8c0.4-0.4,0.9-0.7,1.3-1.1c0.3-0.3,0.6-0.6,0.9-0.8
						c0.2-0.1,0.3-0.2,0.5-0.3c0.2,0,0.5,0,0.6,0.2c0.1,0.2,0.3,0.4,0.5,0.5c0.3,0.1,0.5,0.4,0.7,0.6c0.2,0.2,0.5,0.3,0.7,0.5
						c0.3,0.3,0.6,0.5,0.8,0.9c0.1,0.2,0,0.3-0.1,0.5c-0.2,0.2-0.3,0.4-0.5,0.6c-0.2,0.3-0.5,0.7-0.7,1c-0.1,0.2-0.2,0.4-0.4,0.6
						c0,0.1-0.1,0.1-0.2,0.2c-0.2,0.3-0.4,0.5-0.6,0.8c-0.1,0.1-0.2,0.2-0.3,0.4c-0.2,0.2-0.3,0.5-0.5,0.7c-0.1,0.2-0.3,0.3-0.4,0.5
						c-0.2,0.2-0.3,0.5-0.5,0.7c-0.1,0.2-0.3,0.3-0.4,0.5c-0.2,0.2-0.3,0.4-0.5,0.6c0,0,0,0,0,0.1c-0.1,0.1-0.2,0.1-0.2,0.2
						c-0.1,0.1-0.2,0.2-0.3,0.3c-0.1,0-0.2,0.2-0.2,0.3c-0.1,0.1-0.2,0.3-0.4,0.3c0,0,0,0-0.1,0.1c-0.3,0.2-0.5,0.5-0.8,0.6
						c-0.3,0.1-0.5,0.5-0.9,0.5c-0.1,0-0.1,0.1-0.2,0.2c0,0,0,0,0,0.1c-0.2,0.1-0.3,0.1-0.5,0.2c-0.1,0.1-0.2,0.2-0.3,0.2
						c-0.2,0.1-0.4,0.1-0.6,0.2c-0.2,0.1-0.5,0.2-0.7,0.4c0,0-0.1,0-0.1,0.1c-0.1,0.1-0.2,0.1-0.3,0.2c-0.1,0-0.1,0.1-0.2,0.1
						c-0.3,0.2-0.7,0.3-1,0.6c-0.3,0.3-0.7,0.5-1.1,0.8c-0.3,0.3-0.7,0.6-1,0.9c-0.2,0.2-0.4,0.3-0.6,0.5c-0.3,0.3-0.5,0.5-0.8,0.8
						c-0.1,0.1-0.2,0.2-0.3,0.3c-0.1,0.1-0.2,0.2-0.3,0.3c-0.1,0.3-0.4,0.4-0.6,0.7c0,0,0,0,0,0c-0.1,0.3-0.4,0.5-0.6,0.7
						c-0.2,0.3-0.4,0.5-0.6,0.8c-0.1,0.1-0.2,0.2-0.3,0.3c-0.1,0.2-0.3,0.3-0.4,0.5c0,0.1-0.1,0.1-0.1,0.2c0,0,0,0.1-0.1,0.1
						c0,0,0,0.1,0,0.1c-0.3,0.2-0.5,0.5-0.7,0.8c-0.3,0.3-0.5,0.6-0.7,0.9c-0.1,0.2-0.2,0.4-0.3,0.6c-0.1,0.2-0.3,0.5-0.4,0.7
						c-0.1,0.2-0.3,0.5-0.4,0.7c-0.1,0.2-0.3,0.4-0.4,0.6c-0.1,0.2-0.3,0.4-0.5,0.6c-0.1,0.2-0.2,0.4-0.4,0.5
						c-0.2,0.3-0.5,0.5-0.7,0.8c-0.1,0.2-0.3,0.3-0.4,0.5c0,0,0,0.1,0,0.1c0,0.1,0,0.2-0.2,0.2c-0.1,0-0.2,0.2-0.3,0.3
						c0,0-0.1,0.1-0.1,0.2c0,0.1-0.1,0.2-0.2,0.2c-0.2,0-0.4,0.2-0.5,0.3c-0.1,0.1-0.1,0.1-0.2,0.2c-0.2,0.1-0.4,0.2-0.7,0.1
						c-0.2,0-0.5-0.1-0.7-0.2c-0.3-0.1-0.6-0.2-0.8-0.5c-0.1-0.2-0.2-0.4-0.3-0.6c-0.1-0.2-0.1-0.3-0.1-0.5c0-0.1,0.1-0.2,0.1-0.3
						c0-0.2,0.1-0.3,0.1-0.5c0-0.3,0.1-0.5,0.2-0.7C113.7,177.1,113.8,177.1,113.8,177.1z M129.5,159.9c-0.2,0.1-0.3,0.3-0.3,0.5
						c0,0,0,0.1,0,0.1c-0.1,0.2-0.2,0.3-0.3,0.5c-0.1,0.1-0.1,0.3-0.2,0.4c-0.2,0.3-0.3,0.5-0.3,0.8c0,0.1-0.1,0.3-0.1,0.4
						c-0.1,0.3-0.3,0.5-0.5,0.7c-0.1,0.1-0.2,0.2-0.2,0.3c-0.2,0.2-0.3,0.4-0.5,0.7c0,0.1-0.1,0.1-0.1,0.1c-0.2,0.2-0.3,0.4-0.5,0.7
						c-0.1,0.1-0.1,0.2-0.2,0.2c-0.1,0.2-0.3,0.4-0.4,0.5c-0.2,0.2-0.4,0.4-0.6,0.6c-0.2,0.2-0.3,0.4-0.5,0.5
						c-0.2,0.2-0.5,0.4-0.7,0.7c-0.1,0.1-0.1,0.2-0.2,0.2c-0.3,0.2-0.5,0.4-0.8,0.7c-0.1,0.1-0.2,0.2-0.2,0.2
						c-0.1,0.1-0.3,0.2-0.4,0.3c0,0-0.1,0.1-0.1,0.2c-0.2,0.2-0.5,0.4-0.7,0.6c-0.2,0.1-0.3,0.3-0.4,0.5c-0.3,0.3-0.6,0.6-0.9,0.8
						c-0.2,0.2-0.3,0.3-0.5,0.5c-0.3,0.3-0.7,0.6-1,0.9c-0.2,0.2-0.4,0.4-0.6,0.5c-0.3,0.2-0.6,0.5-0.8,0.7
						c-0.2,0.3-0.6,0.5-0.8,0.8c-0.1,0.1-0.2,0.1-0.2,0.3c0,0,0,0-0.1,0.1c-0.1,0.1-0.2,0.1-0.3,0.2c-0.2,0.1-0.4,0.3-0.5,0.5
						c-0.2,0.2-0.3,0.4-0.4,0.5c-0.2,0.2-0.3,0.3-0.5,0.5c-0.2,0.2-0.3,0.3-0.4,0.5c-0.1,0.2-0.2,0.5-0.3,0.8c0,0.1,0,0.3-0.1,0.4
						c-0.1,0.4-0.1,0.9,0.2,1.2c0,0,0.1,0.1,0.1,0.1c0,0.2,0.1,0.2,0.3,0.2c0.2,0,0.4,0,0.5,0c0.2,0.1,0.4,0,0.5,0
						c0.2,0,0.4-0.2,0.6-0.3c0,0,0.1-0.1,0.1-0.1c0,0,0.1-0.1,0.1-0.1c0.2-0.3,0.5-0.6,0.7-0.8c0.1-0.2,0.3-0.3,0.4-0.5
						c0.1-0.1,0.2-0.2,0.3-0.3c0.2-0.3,0.5-0.7,0.7-1c0.1-0.1,0.2-0.2,0.3-0.3c0.3-0.4,0.6-0.8,0.8-1.2c0.1-0.2,0.2-0.4,0.3-0.6
						c0.2-0.2,0.3-0.5,0.5-0.7c0.1-0.2,0.2-0.4,0.4-0.6c0.3-0.3,0.6-0.6,0.8-1c0.4-0.5,0.9-1,1.3-1.5c0.2-0.2,0.4-0.5,0.6-0.7
						c0.1-0.2,0.3-0.3,0.4-0.5c0.1-0.2,0.3-0.3,0.4-0.5c0.2-0.3,0.4-0.5,0.6-0.8c0.3-0.3,0.6-0.6,0.9-0.9c0.3-0.3,0.7-0.7,1.1-1
						c0.2-0.2,0.4-0.4,0.6-0.5c0.1-0.1,0.2-0.2,0.3-0.3c0.1-0.1,0.2-0.2,0.3-0.2c0.1-0.1,0.2-0.2,0.4-0.3c0.3-0.2,0.6-0.4,0.9-0.6
						c0.1-0.1,0.2-0.2,0.3-0.2c0.4-0.2,0.8-0.4,1.2-0.7c0.5-0.3,1-0.5,1.4-0.7c0.1-0.1,0.2-0.1,0.3-0.1c0.3-0.2,0.6-0.4,0.9-0.6
						c0.2-0.1,0.5-0.2,0.7-0.4c0.4-0.3,0.9-0.7,1.3-1.1c0.3-0.2,0.5-0.5,0.7-0.7c0.3-0.3,0.5-0.6,0.8-0.9c0.2-0.2,0.4-0.5,0.5-0.7
						c0.2-0.3,0.4-0.6,0.6-0.9c0.3-0.5,0.7-0.9,1-1.3c0.2-0.3,0.4-0.6,0.6-0.9c0.3-0.5,0.7-0.9,1-1.4c0.1-0.1,0.1-0.2,0-0.3
						c-0.1-0.1-0.3-0.1-0.4,0c-0.6,0.7-1.2,1.3-1.7,2c-0.4,0.5-0.8,1-1.2,1.5c-0.4,0.5-0.9,1.1-1.3,1.6c0,0-0.1,0.1-0.2,0.1
						c-0.2-0.1-0.2-0.4-0.1-0.6c0.2-0.2,0.3-0.4,0.5-0.5c0.2-0.2,0.3-0.5,0.5-0.7c0.4-0.5,0.8-0.9,1.1-1.4c0.2-0.3,0.5-0.6,0.7-0.9
						c0.4-0.5,0.9-1,1.3-1.5c0.1-0.1,0.1-0.1,0-0.2c0,0-0.1-0.1-0.1-0.1c-0.1-0.1-0.3-0.1-0.4,0c-0.2,0.2-0.3,0.4-0.5,0.5
						c-0.2,0.2-0.4,0.4-0.6,0.6c-0.1,0.1-0.3,0.2-0.4,0.4c-0.2,0.2-0.4,0.5-0.6,0.7c-0.2,0.2-0.4,0.4-0.5,0.6
						c-0.1,0.1-0.1,0.1-0.1,0.2c0,0-0.1,0.1-0.1,0.1c-0.1,0.1-0.2,0.3-0.3,0.4c-0.1,0.2-0.3,0.3-0.4,0.5c-0.2,0.3-0.5,0.6-0.7,0.8
						c-0.2,0.2-0.3,0.2-0.5,0c-0.1-0.1-0.1-0.1-0.2-0.2c0,0,0.1-0.1,0.1-0.1c0-0.2,0.1-0.2,0.2-0.3c0.4-0.4,0.8-0.9,1.2-1.3
						c0.5-0.5,1-1,1.4-1.6c0.2-0.2,0.4-0.5,0.6-0.7c0.3-0.3,0.5-0.6,0.8-0.9c0.1-0.1,0.2-0.2,0.3-0.4c-0.1-0.1-0.2-0.2-0.2-0.2
						c-0.1,0-0.2-0.1-0.2,0c-0.1,0-0.2,0.1-0.3,0.2c-0.2,0.2-0.4,0.5-0.6,0.7c-0.1,0.1-0.2,0.2-0.4,0.4c-0.2,0.2-0.3,0.4-0.5,0.7
						c-0.2,0.3-0.5,0.5-0.7,0.8c-0.4,0.4-0.7,0.8-1.1,1.2c-0.2,0.2-0.3,0.4-0.5,0.5c0,0,0,0,0,0c-0.2,0.2-0.4,0.4-0.6,0.5
						c-0.1-0.1-0.2-0.1-0.3-0.2c-0.1-0.1-0.1-0.2-0.1-0.3c0.2-0.3,0.4-0.5,0.7-0.8c0.3-0.3,0.6-0.5,0.9-0.8c0.5-0.5,0.9-0.9,1.3-1.4
						c0.3-0.3,0.6-0.6,0.8-0.9c0.3-0.3,0.5-0.7,0.9-1c0,0,0.1-0.2,0.1-0.2c-0.1-0.2-0.4-0.3-0.6-0.1c-0.3,0.2-0.6,0.5-0.9,0.7
						c-0.4,0.3-0.7,0.7-1.1,1c-0.3,0.2-0.6,0.4-0.8,0.7c-0.3,0.2-0.5,0.4-0.8,0.7c-0.2,0.2-0.4,0.4-0.6,0.6c-0.3,0.3-0.6,0.6-1,0.9
						c-0.2,0.2-0.4,0.6-0.7,0.6c0,0,0,0,0,0c-0.1,0.1-0.2,0.3-0.3,0.4c0,0-0.1,0.1-0.1,0.1c0,0.3-0.2,0.5-0.4,0.7
						c-0.1,0.2-0.2,0.3-0.3,0.4c0,0.1,0,0.2-0.1,0.2c-0.2,0.1-0.3,0.3-0.3,0.5c0,0.1-0.1,0.1-0.1,0.2c-0.1,0.1-0.2,0.3-0.3,0.4
						C129.5,159.8,129.5,159.8,129.5,159.9z"/>
					<path d="M131.8,157.6c0,0,0.1,0.1,0.1,0.1c-0.2,0.3-0.5,0.7-0.7,1c-0.2,0.3-0.4,0.6-0.6,0.9c-0.2,0.4-0.6,0.8-0.8,1.2
						c0,0,0,0,0,0C129.8,160.2,131,158.3,131.8,157.6z"/>
				</g>
			</g>
		</g>
		<g id="is2kq2_1_">
			<g>
				<path d="M118.2,184.7c-0.1-0.2-0.2-0.6-0.3-0.9c0-0.2,0.1-0.5,0.2-0.7c0-0.1,0.1-0.2,0.1-0.3c0.1-0.2,0.3-0.4,0.5-0.5
					c0.4-0.3,0.7-0.5,1.1-0.8c1-0.6,1.9-1.2,2.9-1.8c0.7-0.5,1.5-0.9,2.2-1.3c0.1-0.1,0.1-0.2,0.2-0.2c0.1-0.1,0.2-0.2,0.3-0.2
					c0.5-0.3,1.1-0.7,1.6-1c0.1-0.1,0.1-0.2,0.2-0.3c0.1-0.2,0.3-0.3,0.5-0.5c0.2-0.3,0.4-0.6,0.7-0.9c0.1-0.1,0.2-0.2,0.3-0.3
					c0.1-0.2,0.2-0.3,0.2-0.5c0-0.4,0.2-0.6,0.4-1c0.2-0.4,0.3-0.7,0.5-1.1c0.1-0.2,0.1-0.4,0.1-0.6c0.1-0.2,0.3-0.5,0.4-0.7
					c0.1-0.1,0.1-0.2,0.2-0.3c0-0.1,0.1-0.2,0.2-0.2c0.1-0.1,0.3-0.2,0.3-0.4c0-0.1,0.1-0.2,0.2-0.2c0.3-0.2,0.6-0.4,0.8-0.7
					c0.3-0.3,0.6-0.5,1-0.8c0.3-0.2,0.7-0.5,1.1-0.7c0.2-0.1,0.4-0.2,0.7-0.4c0.1-0.1,0.2-0.2,0.3-0.2c0.3-0.2,0.7-0.4,1-0.5
					c0.3-0.1,0.6-0.2,0.9-0.5c0,0,0,0,0,0c0.2,0,0.3-0.2,0.4-0.3c0.4-0.2,0.7-0.4,1.1-0.6c0.2-0.1,0.4-0.3,0.6-0.4
					c0.3-0.2,0.6-0.3,1-0.5c0.1,0,0.2,0,0.3-0.1c0.2-0.1,0.4-0.2,0.5-0.3c0.3-0.3,0.8-0.4,1.1-0.6c0.2-0.1,0.5-0.2,0.7-0.3
					c0.9-0.4,1.8-0.8,2.6-1.1c0.6-0.3,1.2-0.6,1.9-0.8c0.4-0.2,0.9-0.3,1.4-0.5c0.2,0,0.4,0,0.6,0.1c0.2,0.1,0.2,0.4,0.2,0.6
					c-0.1,0.5-0.4,0.7-0.7,1c-1.2,1-2.3,2-3.5,3c-0.4,0.4-0.9,0.7-1.4,1c-0.1,0.1-0.2,0.2-0.3,0.2c-0.7,0.6-1.5,1.2-2.2,1.7
					c-0.4,0.3-0.7,0.7-1.1,0.9c-0.2,0.2-0.4,0.4-0.7,0.4c-0.1,0-0.2,0.2-0.4,0.3c0,0-0.1,0.1-0.1,0.1c-0.8,0.6-1.6,1.3-2.4,1.9
					c-0.8,0.7-1.6,1.4-2.5,2c-0.8,0.6-1.6,1.2-2.4,1.8c-1.4,1-2.8,2-4,3.1c-0.6,0.5-1.2,1-1.7,1.5c-1.1,1-2.3,1.9-3.4,2.9
					c-0.6,0.5-1.2,0.9-1.7,1.4c-0.1,0.1-0.2,0.2-0.3,0.3c0,0-0.1,0.1-0.1,0.1c-0.2,0.1-0.4,0.2-0.6,0.2c-0.2,0-0.3-0.1-0.5-0.1
					c-0.1,0-0.1-0.1-0.2,0C118.6,185.2,118.5,184.9,118.2,184.7z M118.5,184.3c0.1,0.1,0.3,0.2,0.4,0.3c0.2,0.2,0.8,0.3,1,0.1
					c0.3-0.2,0.7-0.5,1-0.8c0.4-0.4,0.9-0.8,1.3-1.2c0.1-0.1,0.2-0.1,0.3-0.2c0.1-0.1,0.3-0.2,0.4-0.3c0.2-0.2,0.5-0.5,0.7-0.7
					c0.2-0.1,0.3-0.2,0.5-0.4c0.6-0.5,1.2-1,1.9-1.5c0.1-0.1,0.1-0.1,0.2-0.1c0.2-0.2,0.5-0.4,0.7-0.6c0.2-0.2,0.5-0.2,0.6-0.6
					c0,0,0,0,0.1-0.1c0.1-0.1,0.2-0.2,0.3-0.3c0.3-0.2,0.5-0.4,0.8-0.6c0.1-0.1,0.3-0.1,0.4-0.2c0.2-0.1,0.4-0.3,0.6-0.4
					c0.3-0.3,0.7-0.6,1-0.8c0.2-0.2,0.5-0.3,0.7-0.5c0.3-0.2,0.6-0.5,0.9-0.8c0.5-0.4,1-0.8,1.5-1.1c0.6-0.5,1.1-0.9,1.7-1.4
					c0.5-0.4,1-0.7,1.5-1.1c0.4-0.3,0.7-0.7,1.1-1c1.5-1.2,3.1-2.4,4.6-3.6c0.3-0.3,0.7-0.6,1-0.8c0.3-0.2,0.6-0.5,0.9-0.7
					c0.2-0.2,0.4-0.4,0.6-0.5c0.4-0.3,0.8-0.6,1.3-0.9c0.2-0.2,0.4-0.3,0.6-0.5c0.4-0.3,0.6-0.7,1.1-0.9c0,0,0,0,0-0.1
					c0.1-0.2,0.3-0.5,0.4-0.7c0-0.1,0-0.2-0.1-0.2c-0.1,0-0.2,0-0.2,0c-0.3,0.1-0.5,0.2-0.8,0.3c-0.2,0.1-0.3,0.1-0.5,0.2
					c-0.3,0.2-0.6,0.3-1,0.5c-0.4,0.2-0.8,0.4-1.2,0.5c-0.3,0.1-0.5,0.3-0.8,0.4c-0.2,0.1-0.4,0.2-0.6,0.3c-0.1,0.1-0.3,0.1-0.4,0.2
					c-0.2,0.1-0.4,0.3-0.6,0.4c-0.1,0.1-0.3,0.1-0.5,0.2c-0.1,0-0.2,0-0.3,0.1c-0.6,0.3-1.2,0.7-1.8,1c-0.3,0.2-0.7,0.3-1,0.5
					c-0.2,0.1-0.4,0.2-0.6,0.3c-0.5,0.3-1.1,0.5-1.6,0.8c-0.7,0.4-1.4,0.7-2,1.1c-0.7,0.4-1.6,0.7-2.2,1.4c-0.3,0.3-0.7,0.4-0.9,0.8
					c-0.1,0.2-0.4,0.4-0.6,0.6c-0.2,0.2-0.3,0.4-0.5,0.6c-0.1,0.2-0.3,0.4-0.3,0.6c-0.1,0.2-0.1,0.4-0.2,0.6
					c-0.2,0.5-0.4,1.1-0.6,1.6c-0.4,0.9-0.9,1.8-1.6,2.6c0,0-0.1,0.1-0.1,0.1c-0.1,0.2-0.3,0.3-0.4,0.5c-0.4,0.3-0.8,0.5-1.2,0.8
					c-0.3,0.2-0.6,0.4-0.9,0.6c-0.2,0.1-0.5,0.2-0.7,0.4c-0.7,0.5-1.4,0.9-2.1,1.4c-0.1,0.1-0.3,0.1-0.4,0.2
					c-0.3,0.2-0.5,0.4-0.8,0.5c-0.4,0.3-0.8,0.6-1.2,0.8c-0.2,0.1-0.4,0.3-0.6,0.4c-0.5,0.4-0.9,0.7-1,1.4c0,0.1,0,0.1,0,0.2
					C118.4,184,118.4,184.1,118.5,184.3z"/>
				<path d="M134.9,169.2c-0.3,0.2-0.7,0.3-1,0.5c-0.3,0.2-0.6,0.4-0.9,0.7c-0.2,0.2-0.4,0.4-0.5,0.6c-0.2,0.2-0.3,0.5-0.5,0.8
					c0,0.1,0,0.2-0.1,0.3c0,0-0.2,0.1-0.2,0c-0.1-0.1-0.2-0.2-0.2-0.2c0.1-0.3,0.1-0.7,0.3-0.9c0.1-0.3,0.4-0.5,0.6-0.7
					c0.4-0.3,0.9-0.6,1.3-0.9c0.3-0.2,0.7-0.4,1-0.6c0.1,0,0.2,0,0.3,0c0,0.1,0,0.2-0.1,0.3C135,169.1,134.9,169.2,134.9,169.2
					C134.9,169.2,134.9,169.2,134.9,169.2z"/>
				<path d="M136.3,168.4c-0.1,0-0.2,0.1-0.2,0.1c-0.1,0-0.2,0-0.3,0c0-0.1,0-0.3,0.1-0.3c0.1-0.1,0.3-0.1,0.5-0.2
					c0,0,0.1,0.1,0.1,0.2C136.4,168.2,136.4,168.3,136.3,168.4z"/>
			</g>
		</g>
	</g>
	<g>
		<g id="wXI6Pt_5_">
			<g>
				<path d="M3.2,153.9c0.9,0.8,1.9,1.6,2.8,2.5c1.5,1.3,3,2.6,4.5,3.9c2.2,2,4.4,3.9,6.6,5.9c1.5,1.4,3,2.8,4.5,4.2
					c0.6,0.6,1.3,1.2,1.9,1.8c0.9,0.9,1.9,1.7,2.8,2.6c0.5,0.5,1,0.9,1.6,1.4c1.2,1.1,2.3,2.1,3.5,3.2c0.1,0.1,0.1,0.4,0,0.4
					c-0.3,0.3-0.7,0.6-1,0.9c-0.1,0-0.2,0-0.3,0c-0.9-0.8-1.9-1.7-2.8-2.5c-1.8-1.6-3.5-3.3-5.2-5c-0.6-0.5-1.1-1.1-1.7-1.6
					c-1.1-1-2.1-2.1-3.2-3.1c-0.6-0.6-1.2-1.2-1.8-1.8c-0.7-0.7-1.4-1.4-2.2-2.1c-0.6-0.6-1.2-1.2-1.9-1.7c-0.8-0.8-1.7-1.6-2.5-2.4
					c-1.2-1.1-2.4-2.2-3.6-3.3c-1-1-2-2-3-3.1c-0.1-0.1,0-0.4,0.1-0.5c0.1-0.1,0.3-0.1,0.5,0C2.9,153.7,3,153.8,3.2,153.9
					C3.2,153.9,3.2,153.9,3.2,153.9z M19.3,169.8c0.9,0.9,1.7,1.9,2.6,2.8c0.9,0.9,1.8,1.8,2.8,2.6c1.2,1.1,2.4,2.3,3.6,3.4
					c0.6,0.6,1.2,1.1,1.9,1.7c0,0,0.1,0,0.2,0c0.2-0.1,0.3-0.2,0.4-0.4c0.1-0.2,0.5-0.3,0.1-0.6c-0.8-0.7-1.5-1.3-2.3-2
					c-0.9-0.8-1.8-1.6-2.7-2.4c-1-0.9-2-1.9-3.1-2.8c-1-0.9-2-1.8-3-2.7C19.6,169.5,19.4,169.7,19.3,169.8z M18.1,168.9
					C18.1,168.9,18.1,168.9,18.1,168.9c0.2,0.2,0.4,0.3,0.5,0.5c0.4,0.3,0.5-0.1,0.7-0.2c0,0-0.1-0.3-0.1-0.4
					c-0.5-0.5-1.1-1-1.6-1.5c-0.7-0.7-1.5-1.3-2.2-2c-1-1-2-2-3.1-2.9c-1.4-1.2-2.8-2.4-4.2-3.7c-1-0.9-2-1.8-3-2.7
					c-0.8-0.7-1.6-1.4-2.4-2.1c0,0-0.1,0-0.2,0c0,0.1,0,0.2,0,0.2c0.6,0.7,1.3,1.3,1.9,2c0.9,0.8,1.8,1.6,2.7,2.4
					c0.5,0.4,0.9,1,1.4,1.4c1,0.9,2,1.8,3,2.7c1.5,1.4,2.9,2.8,4.4,4.3C16.7,167.6,17.4,168.2,18.1,168.9z"/>
			</g>
		</g>
		<g>
			<path d="M25.5,185.2c-0.3,0.2-0.5,0.4-0.8,0.6c0,0-0.2-0.1-0.3-0.1c0,0,0,0,0-0.1c-0.5-0.7-1.1-1.4-1.6-2.1
				c-0.6-0.8-1.3-1.5-1.9-2.3c-0.6-0.8-1.1-1.6-1.7-2.3c-0.4-0.5-0.9-1-1.3-1.5c-0.5-0.6-0.9-1.3-1.3-1.9c-0.2-0.3-0.5-0.6-0.8-0.9
				c-0.4-0.6-0.8-1.2-1.3-1.7c-0.5-0.7-1.1-1.3-1.6-2c-0.5-0.6-0.9-1.2-1.4-1.8c-0.4-0.5-0.8-0.9-1.2-1.4c-0.2-0.2-0.3-0.4-0.5-0.6
				c-0.6-0.9-1.3-1.7-1.9-2.6c-0.4-0.6-0.9-1.1-1.3-1.7c-0.6-0.8-1.1-1.5-1.7-2.3c-0.5-0.6-0.9-1.2-1.4-1.8
				c-0.4-0.5-0.7-1.1-1.1-1.6c-0.5-0.6-0.9-1.2-1.4-1.8c-0.2-0.3-0.1-0.6,0.1-0.6c0.2-0.1,0.5,0.1,0.6,0.3c0.7,0.8,1.5,1.6,2.2,2.5
				c1.6,2,3.2,4.1,4.8,6.2c0.6,0.8,1.3,1.5,1.9,2.2c0.7,0.8,1.3,1.6,2,2.4c0.4,0.5,0.8,1,1.2,1.5c0.3,0.4,0.8,0.7,1.1,1.1
				c0.9,1,1.7,2,2.5,3.1c0.3,0.3,0.5,0.7,0.7,1c0.6,0.8,1.3,1.6,1.9,2.4c0.5,0.7,1,1.3,1.5,2c0.6,0.7,1.2,1.4,1.8,2.1
				c0.7,0.8,1.3,1.6,2,2.4c0.2,0.3,0.5,0.4,0.7,0.7c0,0.1,0,0.2,0,0.3C26,184.8,25.7,185,25.5,185.2
				C25.5,185.2,25.5,185.2,25.5,185.2z M16.7,173.2c-0.4-0.5-0.4-0.5-1-0.2c-0.2,0.1-0.3,0.2-0.1,0.4c0.5,0.6,0.9,1.2,1.4,1.8
				c0.6,0.8,1.2,1.7,1.8,2.5c0.4,0.5,0.9,1,1.3,1.5c0.3,0.4,0.6,1,0.9,1.4c0.8,1,1.6,2,2.4,3c0.3,0.4,0.6,0.9,0.9,1.3
				c0.1,0.1,0.4,0.3,0.5,0.3c0.3-0.2,0.6-0.4,0.8-0.7c0,0,0-0.2,0-0.2c-0.3-0.4-0.7-0.8-1-1.2c-0.6-0.7-1.2-1.4-1.8-2.1
				c-0.6-0.7-1.1-1.4-1.7-2.1c-0.5-0.7-1.1-1.3-1.6-2C18.6,175.7,17.6,174.4,16.7,173.2z M1.6,154.8c-0.1,0-0.1,0.1-0.2,0.1
				c0,0.2,0,0.4,0.2,0.5c0.4,0.5,0.8,1,1.3,1.5c1.1,1.4,2.2,2.8,3.3,4.2c0.6,0.7,1.1,1.5,1.7,2.3c0.5,0.7,1,1.4,1.5,2
				c0.5,0.7,1.1,1.3,1.6,1.9c0.7,0.9,1.4,1.8,2.1,2.7c0.6,0.7,1.2,1.5,1.8,2.2c0.4,0.5,0.4,0.5,0.8,0.1c0.1-0.1,0.2-0.2,0.3-0.3
				c-0.1-0.2-0.2-0.4-0.4-0.5c-0.6-0.7-1.3-1.4-1.9-2.1c-1.6-1.9-3.3-3.9-4.9-5.8c-0.9-1.1-1.7-2.2-2.6-3.3
				c-0.5-0.7-1.1-1.4-1.6-2.1c-0.4-0.5-0.7-1-1.1-1.4c-0.3-0.4-0.6-0.7-1-1.1C2.1,155.5,1.8,155.2,1.6,154.8z"/>
		</g>
	</g>
	<g>
		<path class="st0" d="M61.9,183.2c-1,0.2-1.5,1.4-1.9,2.4c-0.2,0.5-0.4,1-0.3,1.5c0,0.5,0.1,1.1,0.3,1.6c0.4,1,1,1.9,2.1,2.3
			l0.7,0.4c0.2,0.1,0.5,0.2,0.8,0.3c0.5,0.2,1,0.2,1.6,0.1c0.6,0,1.1,0.1,1.6-0.2c0.5-0.1,1-0.4,1.5-0.6c1-0.5,1.6-1.4,2.1-2.3
			c0.1-0.2,0.1-0.5,0.2-0.8l0-0.8c-0.1-0.5-0.2-1-0.4-1.5c-0.4-1-1.1-1.9-2-2.4c-0.1,0-0.1-0.1,0-0.1c0,0,0.1-0.1,0.1,0
			c1,0.5,1.7,1.5,2.2,2.5c0.2,0.5,0.3,1.1,0.4,1.6l0,0.9c0,0.3-0.1,0.5-0.2,0.8c-0.5,1-1.2,2-2.2,2.5c-0.5,0.3-1,0.5-1.5,0.7
			c-0.3,0.1-0.5,0.2-0.8,0.2c-0.3,0-0.6,0-0.8,0c-0.3,0-0.5,0.1-0.8,0.1c-0.3,0-0.6-0.1-0.8-0.2c-0.3-0.1-0.5-0.2-0.8-0.3l-0.7-0.4
			c-0.2-0.1-0.5-0.3-0.7-0.4c-0.3-0.2-0.4-0.4-0.6-0.6c-0.2-0.2-0.4-0.4-0.5-0.7c-0.1-0.3-0.3-0.5-0.4-0.8c-0.2-0.5-0.3-1.1-0.3-1.7
			c-0.1-0.6,0.2-1.2,0.4-1.6c0.2-0.5,0.4-1,0.8-1.5c0.3-0.5,0.8-0.9,1.4-1c0.1,0,0.1,0,0.1,0.1C61.9,183.2,61.9,183.2,61.9,183.2
			L61.9,183.2z"/>
		<g>
			<path class="st0" d="M64.3,180.7c0-0.2,0.1-0.5,0.1-0.7c0.1-0.2,0.2-0.5,0.3-0.7c0.1-0.2,0.5-0.4,0.6-0.5c-0.2-0.1-0.5-0.1-0.8,0
				c-0.2,0.1-0.5,0.2-0.7,0.3c-0.2,0.2-0.3,0.5-0.5,0.7c-0.1,0.2-0.3,0.5-0.3,0.8c0,0.2,0.1,0.5,0.3,0.7c0.1,0.2,0.4,0.3,0.6,0.4
				c0.2,0.2,0.5,0.4,0.7,0.4c-0.2,0.1-0.6,0.1-0.8,0.2c-0.2,0-0.5,0-0.8,0c-0.3,0-0.5-0.2-0.7-0.2c-0.2-0.1-0.6-0.1-0.8-0.2
				c0.1,0.3,0.3,0.6,0.5,0.8c0.2,0.2,0.5,0.1,0.8,0.2c0.3,0.1,0.5,0.1,0.8,0.1c0.3,0,0.5,0.1,0.8,0.1c0.1,0.2,0,0.3,0,0.5
				c0,0.2,0,0.4-0.1,0.6c-0.1,0.2-0.3,0.3-0.5,0.4c-0.2,0.1-0.3,0.3-0.5,0.4c-0.2,0.1-0.4,0.2-0.6,0.3c-0.2,0.1-0.4,0.1-0.6,0.1
				c0.2,0.1,0.4,0.2,0.6,0.3c0.2,0,0.4,0,0.7,0c0.2,0,0.4,0,0.7-0.1c0.2-0.1,0.4-0.2,0.5-0.4c0.2-0.2,0.5-0.3,0.7-0.5
				c0.2-0.2,0.2-0.5,0.3-0.8c0.1-0.3,0.2-0.5,0.3-0.7c0.1,0.2,0.2,0.3,0.3,0.5c0.1,0.2,0.1,0.4,0.1,0.7c0,0.2,0,0.4,0,0.7
				c0,0.2,0,0.5,0,0.7c0,0.2,0,0.6-0.1,0.8c0.2-0.2,0.4-0.5,0.5-0.7c0.1-0.2,0.3-0.5,0.4-0.7c0.1-0.3,0-0.5,0-0.8
				c0-0.3-0.1-0.5-0.2-0.7c-0.1-0.2-0.2-0.5-0.4-0.7c0.2,0,0.6,0,0.8-0.1c0.2-0.1,0.5-0.2,0.7-0.4c0.2-0.2,0.3-0.4,0.5-0.6
				c0.2-0.2,0.3-0.4,0.4-0.7c0.1-0.2,0.2-0.5,0.2-0.8c0-0.2-0.1-0.4-0.2-0.6c-0.1-0.2-0.1-0.4-0.3-0.6c-0.1-0.2-0.3-0.2-0.5-0.3
				c0,0.2-0.1,0.4-0.1,0.7c0,0.3,0,0.6-0.1,0.8c-0.1,0.3-0.3,0.5-0.4,0.7c-0.2,0.2-0.4,0.3-0.6,0.5c-0.2,0.1-0.5,0.2-0.7,0.2
				c-0.3,0-0.5,0.1-0.8,0c-0.2-0.1-0.5-0.2-0.7-0.4C64.5,181.2,64.3,181,64.3,180.7z"/>
		</g>
		<g>
			<path class="st0" d="M57.1,177.1c-0.2-0.2-0.3-0.3-0.5-0.4c-0.2-0.1-0.4-0.2-0.6-0.3c-0.2,0-0.4,0-0.7,0.1
				c0.2,0.1,0.4,0.3,0.5,0.4c0.2,0.2,0.3,0.3,0.5,0.5c0.1,0.2,0.2,0.4,0.3,0.6c0.1,0.2,0,0.5,0,0.7c0,0.2-0.1,0.3-0.3,0.5
				c-0.2,0.2-0.4,0.3-0.6,0.4c-0.3,0-0.5-0.2-0.8-0.3c-0.2-0.1-0.4-0.2-0.7-0.4c-0.2-0.2-0.5-0.2-0.6-0.4c-0.1,0.2,0,0.4,0,0.6
				c0,0.2,0,0.5,0.1,0.7c0.1,0.2,0.4,0.3,0.5,0.4c0.2,0.1,0.3,0.3,0.5,0.4c0.2,0.1,0.4,0.1,0.7,0.1c0.2,0,0.5,0.1,0.7,0.1
				c0,0.2-0.1,0.4-0.3,0.7c-0.1,0.2-0.3,0.3-0.6,0.4c-0.2,0.1-0.4,0.1-0.7,0.2c-0.2,0.1-0.4,0.2-0.6,0.2c0.2,0.1,0.4,0.2,0.5,0.2
				c0.2,0,0.5-0.1,0.7-0.1c0.2,0,0.4,0,0.6-0.1c0.2-0.1,0.4-0.1,0.6-0.2c0.2-0.1,0.4-0.3,0.5-0.5c0.1-0.2,0.1-0.4,0.1-0.6
				c0.2,0.2,0.5,0.4,0.5,0.7c0.1,0.3,0.1,0.6,0,0.9c-0.1,0.3-0.3,0.5-0.5,0.7c-0.2,0.2-0.5,0.4-0.8,0.6c0.3,0,0.6,0.1,0.8,0
				c0.3-0.1,0.5-0.2,0.7-0.3c0.2-0.1,0.4-0.4,0.5-0.5c0.1-0.2,0.2-0.5,0.2-0.7c0.1-0.2,0.2-0.4,0.2-0.6c0-0.2-0.2-0.4-0.4-0.5
				c-0.1-0.2-0.3-0.4-0.5-0.5c0.3,0,0.6,0,0.8-0.1c0.3-0.1,0.5-0.2,0.8-0.3c0.2-0.1,0.4-0.4,0.6-0.6c0.2-0.2,0.3-0.4,0.4-0.6
				c0.1-0.2,0-0.5,0.1-0.7c0-0.2,0.2-0.5,0.1-0.7c-0.1-0.2-0.2-0.5-0.4-0.7c0,0.2,0,0.6,0,0.8c-0.1,0.2-0.2,0.5-0.3,0.7
				c-0.1,0.2-0.4,0.3-0.5,0.5c-0.2,0.2-0.3,0.4-0.5,0.5c-0.2,0.1-0.4,0.2-0.7,0.3c-0.2,0.1-0.4,0-0.6,0c0-0.2,0-0.4,0-0.7
				c0-0.2,0.1-0.5,0.1-0.7c0-0.2-0.2-0.5-0.2-0.7C57.3,177.5,57.2,177.3,57.1,177.1z"/>
		</g>
		<path class="st0" d="M53.3,181.8c0,0-0.1,0-0.1,0c-0.1-0.1-0.1-0.2-0.1-0.3c0.2-0.3,0.7-0.7,0.9-0.7c0.1,0,0.2,0,0.2,0.1
			c0,0.1,0,0.2-0.1,0.2c-0.1,0-0.5,0.3-0.7,0.6C53.4,181.7,53.3,181.8,53.3,181.8z"/>
		<path class="st0" d="M52.9,182.6c-0.3,0.7-0.3,1.5-0.1,2.2c0.1,0.4,0.3,0.7,0.5,1c0.2,0.3,0.4,0.6,0.7,0.8c0.3,0.2,0.6,0.5,1,0.6
			c0.2,0.1,0.3,0.2,0.5,0.2l0.6,0.1c0.7,0.1,1.6,0.2,2.2-0.1c0.1,0,0.1,0,0.2,0.1c0,0.1,0,0.1,0,0.2c-0.7,0.4-1.6,0.4-2.4,0.2
			l-0.6-0.1c-0.2-0.1-0.4-0.2-0.6-0.2c-0.4-0.1-0.7-0.4-1.1-0.6c-0.4-0.2-0.6-0.6-0.8-0.9c-0.2-0.4-0.4-0.7-0.5-1.1
			c-0.2-0.8-0.2-1.7,0.2-2.4l0,0c0-0.1,0.1-0.1,0.2-0.1C52.9,182.5,53,182.5,52.9,182.6z"/>
		<path class="st0" d="M60,180.6c0.5,0.1,1,0.7,1.1,1.3c0,0.1-0.1,0.1-0.1,0.1c-0.1,0-0.1,0-0.1-0.1l0,0c-0.1-0.5-0.5-0.8-0.9-1.1
			c-0.1,0-0.1-0.1,0-0.2C59.9,180.6,60,180.6,60,180.6z"/>
		<path class="st0" d="M90.5,178c0.2-0.5,0.4-1,0.8-1.3c0.4-0.4,0.7-0.7,1.1-1c0.8-0.6,1.7-1.2,2.6-1.6c0.4-0.2,0.9-0.4,1.4-0.6
			c0.2-0.1,0.5-0.2,0.8-0.2c0.3,0.1,0.6,0.3,0.7,0.5c0.3,0.5,0.4,1,0.4,1.6c-0.1,0.3-0.3,0.2-0.4,0.3l-0.4,0.1l-0.3,0.1
			c-0.1,0-0.2,0.2-0.2,0.1l-0.1-0.1c0.1,0,0.2,0.1,0.4,0.1c0.1,0,0.3,0,0.5,0l0.9,0.1l0,0c0,0,0.1,0,0.1,0.1
			c0.4,0.9,0.5,1.8,0.5,2.7c0,0.2,0,0.5-0.2,0.7c-0.2,0.3-0.5,0.3-0.7,0.3c-0.5,0-0.9-0.1-1.4-0.1c-0.9-0.1-1.8-0.4-2.6-0.5
			c-0.4-0.1-0.9,0-1.3,0c-0.4,0.1-0.8,0.2-1.3,0.3l0,0c0,0,0,0-0.1,0c-0.2-0.1-0.5-0.2-0.6-0.5c-0.1-0.3,0-0.5,0.1-0.7l0,0l0,0
			c0.2-0.3,0.6-0.5,1-0.6l0,0c0.1,0,0.1,0,0.2,0.1c0,0.1,0,0.1-0.1,0.2c-0.3,0.1-0.6,0.3-0.8,0.5l0,0c-0.1,0.2-0.1,0.4-0.1,0.5
			c0,0.2,0.2,0.3,0.4,0.3l-0.1,0c0.4-0.1,0.9-0.3,1.3-0.4c0.5,0,0.9-0.2,1.4-0.1c0.9,0.1,1.8,0.3,2.7,0.4c0.8,0.1,2,0.5,1.9-0.6
			c0-0.8-0.1-1.8-0.4-2.6l0.1,0.1l-0.8-0.1c-0.1,0-0.3,0-0.4,0c-0.2,0-0.3,0-0.5-0.1l0,0c0,0-0.1,0-0.1-0.1c0-0.2,0.1-0.2,0.2-0.3
			c0.1,0,0.1-0.1,0.2-0.1l0.4-0.1l0.3-0.1c0.1,0,0.2-0.2,0.2-0.1c0-0.4-0.2-0.9-0.4-1.3c-0.1-0.2-0.3-0.3-0.5-0.4
			c-0.1,0-0.4,0.1-0.6,0.1c-0.5,0.2-0.9,0.4-1.4,0.6c-0.9,0.4-1.7,1-2.5,1.6c-0.4,0.3-0.8,0.6-1.1,1c-0.4,0.3-0.6,0.7-0.8,1.2
			c0,0.1-0.1,0.1-0.2,0.1C90.5,178.2,90.5,178.1,90.5,178z"/>
		<g>
			<g>
				<g>
					<path class="st0" d="M88.9,177.5c0-0.3-0.1-0.5-0.4-0.7c-0.2-0.1-0.5-0.3-0.8-0.3c-0.3,0-0.6,0.2-0.9,0.3
						c-0.3,0.1-0.5,0.3-0.7,0.5c0,0-0.2,0-0.2-0.1c0,0-0.1-0.1-0.1-0.1c0.2-0.3,0.5-0.6,0.9-0.7c0.3-0.1,0.7-0.2,1-0.2
						c0.3,0,0.7,0.1,1.1,0.3c0.2,0.1,0.2,0.3,0.3,0.5c0.1,0.2,0.2,0.4,0.2,0.6c0,0.1-0.2,0.2-0.3,0.2
						C88.9,177.7,88.9,177.6,88.9,177.5z"/>
				</g>
				<g>
					<path class="st0" d="M84.9,176.6c-0.2-0.1-0.4-0.2-0.6-0.2c-0.2,0-0.4,0.1-0.6,0.2c-0.2,0.1-0.3,0.2-0.5,0.4c0,0.1-0.1,0-0.2,0
						c-0.1,0,0,0,0-0.1c0.1-0.2,0.1-0.4,0.3-0.6c0.2-0.1,0.4-0.2,0.6-0.2c0.2,0,0.4-0.1,0.6,0c0.2,0.1,0.5,0.1,0.6,0.3
						c0,0.1,0,0.2,0,0.3C85,176.7,84.9,176.7,84.9,176.6z"/>
				</g>
				<g>
					<path class="st0" d="M80.2,177.2c-0.1-0.2-0.3-0.3-0.5-0.4c-0.2-0.1-0.4-0.1-0.6,0c-0.2,0-0.3,0.2-0.5,0.4
						c-0.2,0.1-0.4,0.2-0.4,0.4c0,0.1,0,0.1-0.1,0.1c-0.1,0-0.1-0.1-0.1-0.1c0.1-0.3,0.2-0.5,0.4-0.7c0.2-0.2,0.5-0.3,0.7-0.3
						c0.3-0.1,0.5-0.1,0.8,0c0.3,0.1,0.5,0.2,0.7,0.5c0.1,0.1,0,0.2-0.1,0.2C80.3,177.2,80.2,177.2,80.2,177.2z"/>
				</g>
				<g>
					<path class="st0" d="M83.1,177.9c0-0.2-0.2-0.4-0.3-0.5c-0.1-0.2-0.3-0.3-0.4-0.4c-0.2-0.1-0.4-0.2-0.6-0.1
						c-0.1,0-0.2,0-0.3,0.1c-0.1,0-0.1,0.1-0.2,0c0.1,0.1,0.1,0.2,0.1,0.3c-0.1,0.1-0.1,0-0.2,0c-0.1-0.1,0-0.3,0-0.3
						c0.1-0.1,0.1-0.2,0.2-0.2c0.1-0.1,0.3-0.1,0.4-0.1c0.3,0,0.6,0,0.8,0.1c0.3,0.1,0.4,0.4,0.5,0.6c0.1,0.2,0.3,0.5,0.3,0.7
						c0,0.1,0,0.2-0.1,0.2C83.2,178.1,83.1,178,83.1,177.9z"/>
				</g>
				<g>
					<path class="st0" d="M77.6,178.8c-0.2-0.2-0.5-0.4-0.7-0.4c-0.3-0.1-0.5,0.1-0.8,0.2c-0.2,0.1-0.5,0.2-0.6,0.5
						c-0.1,0.2-0.1,0.5,0.1,0.7c0.1,0.1,0,0.2-0.1,0.3c-0.1,0.1-0.2,0-0.2-0.1c0,0,0,0,0,0c-0.1-0.2-0.1-0.3-0.1-0.5
						c0-0.2-0.1-0.4,0-0.5c0.1-0.3,0.4-0.6,0.8-0.7c0.2-0.1,0.4-0.1,0.7-0.1c0.2,0,0.4,0,0.7,0.1c0.2,0.1,0.4,0.2,0.6,0.3
						c0.1,0.1,0.1,0.2,0,0.3C77.8,178.8,77.7,178.8,77.6,178.8C77.6,178.8,77.6,178.8,77.6,178.8z"/>
				</g>
				<g>
					<path class="st0" d="M76.1,180.1c-0.3,0-0.5-0.1-0.8,0c-0.3,0-0.5,0.2-0.7,0.4c-0.2,0.1-0.4,0.3-0.4,0.5
						c-0.1,0.2-0.1,0.5,0,0.7c0,0,0,0,0,0c0,0.1-0.1,0.1-0.1,0.2c-0.1,0-0.1,0.1-0.1,0c-0.2-0.2-0.3-0.6-0.2-0.9
						c0.1-0.3,0.3-0.6,0.6-0.8c0.2-0.1,0.4-0.2,0.6-0.3c0.2-0.1,0.4-0.1,0.6-0.1c0.2,0,0.4,0.1,0.6,0.2
						C76.3,179.9,76.2,179.9,76.1,180.1C76.2,180,76.2,180.1,76.1,180.1z"/>
				</g>
				<g>
					<path class="st0" d="M73.3,182.9c-0.2,0-0.4,0.1-0.5,0.2c-0.1,0.1-0.2,0.3-0.3,0.5c-0.1,0.2-0.1,0.4,0,0.5c0,0.2,0,0.4,0.2,0.5
						c0.1,0.1,0.1,0.1,0,0.2c-0.1,0-0.1,0-0.2-0.1c-0.2-0.2-0.3-0.4-0.4-0.6c0-0.2,0-0.5,0-0.7c0.1-0.2,0.3-0.4,0.5-0.6
						c0.2-0.2,0.4-0.3,0.7-0.3c0.1,0,0.1,0.1,0.1,0.2C73.4,182.8,73.4,182.9,73.3,182.9z"/>
				</g>
				<g>
					<path class="st0" d="M72.7,184.8c-0.2,0.1-0.3,0.3-0.4,0.5c-0.1,0.2-0.2,0.4-0.2,0.6c0,0.2,0.1,0.3,0.2,0.5
						c0.1,0.2,0.1,0.5,0.3,0.5c0,0,0.1-0.2,0.1-0.2c0,0,0,0.2,0,0.2c0.1,0,0.2,0.1,0.2,0.2c0,0-0.1,0-0.1,0
						c-0.1,0.2-0.3,0.4-0.2,0.6c0,0.2,0.2,0.4,0.3,0.6c0.2,0.2,0.4,0.2,0.6,0.3c0.2,0.1,0.4,0.1,0.7,0c0.1,0,0.2,0.1,0.2,0.1
						c0,0.1,0,0.2-0.1,0.2c0,0,0-0.1,0-0.1c-0.3,0.1-0.5,0-0.8-0.1c-0.3-0.1-0.5-0.2-0.7-0.4c-0.2-0.2-0.5-0.4-0.5-0.7
						c0-0.3,0.1-0.5,0.3-0.7c0.1,0,0.2,0,0.2,0.1c0,0-0.1,0.1-0.1,0.1c-0.3-0.1-0.5-0.3-0.7-0.5c-0.2-0.2-0.3-0.5-0.2-0.8
						c0-0.3,0.1-0.6,0.2-0.8c0.1-0.2,0.4-0.4,0.7-0.5c0.1,0,0.2,0,0.2,0.1C72.8,184.6,72.8,184.7,72.7,184.8z"/>
				</g>
				<g>
					<path class="st0" d="M74.4,189.4c0,0.2,0,0.5,0.1,0.7c0.1,0.2,0.1,0.4,0.3,0.6c0.1,0.2,0.3,0.3,0.6,0.4c0.2,0.1,0.4,0,0.7,0
						c0.1,0,0.1,0.1,0.2,0.1c0,0.1,0,0.1-0.1,0.1c-0.3,0.1-0.6,0.2-0.9,0.1c-0.3-0.1-0.5-0.3-0.7-0.5c-0.2-0.2-0.3-0.5-0.4-0.8
						c-0.1-0.3-0.1-0.6,0.1-0.9C74.2,189.3,74.3,189.3,74.4,189.4C74.4,189.3,74.4,189.4,74.4,189.4z"/>
				</g>
				<g>
					<path class="st0" d="M77.2,190.6c0.1,0.2,0.2,0.3,0.4,0.4c0.2,0.1,0.4,0.1,0.5,0.1c0.2,0,0.3-0.1,0.5-0.3
						c0.1-0.1,0.3-0.2,0.4-0.4c0-0.1,0-0.1,0.1-0.1c0.1,0,0.1,0.1,0.1,0.1c0,0.3-0.1,0.5-0.3,0.7c-0.2,0.2-0.4,0.3-0.7,0.4
						c-0.3,0-0.6,0-0.8-0.2c-0.2-0.1-0.4-0.4-0.4-0.7c0-0.1,0.1-0.1,0.1-0.1C77.1,190.5,77.2,190.5,77.2,190.6z"/>
				</g>
				<g>
					<path class="st0" d="M79.2,190.3c0.1,0.2,0.3,0.3,0.4,0.4c0.2,0.1,0.3,0.2,0.5,0.2c0.2,0,0.4,0,0.6,0c0.2-0.1,0.4-0.2,0.5-0.3
						c0.1-0.1,0.1,0,0.2,0.1c0,0.1,0.1,0.1,0.1,0.2c-0.2,0.2-0.4,0.3-0.7,0.3c-0.2,0.1-0.5,0.1-0.8,0.1c-0.2-0.1-0.5-0.2-0.7-0.3
						c-0.2-0.2-0.2-0.5-0.3-0.7c0-0.1,0-0.1,0-0.1C79.2,190.3,79.2,190.3,79.2,190.3z"/>
				</g>
				<g>
					<path class="st0" d="M84,188.7c0.2,0.1,0.5,0.1,0.8,0.2c0.3,0.1,0.6,0.1,0.8,0c0.2-0.1,0.3-0.4,0.3-0.6c0-0.3-0.1-0.5-0.1-0.8
						c0-0.1,0.1-0.1,0.2-0.2c0.1,0,0.1,0,0.1,0.1c0.1,0.3,0.2,0.6,0.2,0.9c0,0.3-0.1,0.7-0.4,0.9c-0.2,0.1-0.4,0.1-0.6,0.1
						c-0.2,0-0.4,0-0.6-0.1c-0.2-0.1-0.4-0.2-0.6-0.3c-0.1,0-0.1-0.2,0-0.2C83.9,188.6,84,188.7,84,188.7z"/>
				</g>
				<g>
					<path class="st0" d="M82.3,190c0.2,0.1,0.4,0.2,0.6,0.1c0.2,0,0.4-0.2,0.6-0.3c0.1-0.2,0.2-0.4,0.2-0.6c0-0.2,0-0.4-0.1-0.7
						c0-0.1,0.1-0.2,0.1-0.2c0.1,0,0.1,0,0.2,0.1c0.1,0.3,0.1,0.5,0.1,0.8c0,0.3-0.1,0.6-0.3,0.8c-0.2,0.2-0.5,0.3-0.8,0.4
						c-0.3,0-0.6,0-0.8-0.1c-0.1-0.1-0.1-0.1,0-0.2C82.2,190,82.3,190,82.3,190z"/>
				</g>
				<g>
					<path class="st0" d="M91.9,180.5c0.2,0.2,0.3,0.4,0.4,0.7c0.1,0.3,0.2,0.5,0.1,0.8c0,0.3-0.3,0.5-0.5,0.7
						c-0.2,0.2-0.5,0.4-0.7,0.4c-0.1,0-0.2-0.1-0.2-0.2c0-0.1,0.1-0.2,0.1-0.2c0.2-0.1,0.5-0.1,0.6-0.3c0.2-0.2,0.2-0.4,0.3-0.6
						c0.1-0.2,0-0.5-0.1-0.7c-0.1-0.2-0.1-0.4-0.2-0.6c0-0.1,0-0.1,0.1-0.2C91.8,180.4,91.8,180.5,91.9,180.5z"/>
				</g>
				<g>
					<path class="st0" d="M91,182.5c0.1,0.2,0.2,0.4,0.3,0.6c0.1,0.2,0.1,0.4,0.1,0.7c0,0.2-0.1,0.4-0.2,0.6
						c-0.1,0.2-0.2,0.4-0.3,0.6c-0.2,0.2-0.3,0.4-0.5,0.5c-0.2,0.1-0.4,0.2-0.7,0.2c-0.1,0-0.1-0.1-0.2-0.2c0-0.1,0-0.1,0.1-0.1
						c0.3,0,0.5-0.2,0.7-0.4c0.2-0.2,0.5-0.3,0.6-0.6c0.1-0.2,0-0.5,0-0.8c0-0.3,0-0.6-0.2-0.8c-0.1-0.1,0-0.1,0-0.2
						C90.8,182.5,90.9,182.4,91,182.5z"/>
				</g>
				<g>
					<path class="st0" d="M88.8,185.1c0.1,0.2,0.2,0.5,0.3,0.8c0.1,0.3,0.1,0.6-0.1,0.9c-0.1,0.2-0.3,0.3-0.5,0.4
						c-0.2,0.1-0.4,0.3-0.6,0.3c-0.2,0-0.4,0-0.6-0.2c-0.1,0,0-0.1,0-0.2c0-0.1,0.1-0.1,0.1-0.1c0,0,0,0,0,0c0.2,0.1,0.4,0.1,0.6,0
						c0.2-0.1,0.4-0.2,0.5-0.4c0.1-0.2,0.1-0.4,0-0.7c0-0.2-0.1-0.5-0.2-0.7c0-0.1,0-0.2,0.1-0.2C88.7,185,88.8,185,88.8,185.1z"/>
				</g>
				<g>
					<path class="st0" d="M81.2,182.6c-0.2,0-0.4,0-0.6,0c-0.2,0.1-0.3,0.2-0.5,0.4c-0.1,0.1-0.3,0.3-0.4,0.5c-0.1,0.2,0,0.4,0,0.6
						c0,0.1-0.1,0.2-0.2,0.2c-0.1,0-0.2,0-0.2-0.1c0-0.2,0-0.5,0.1-0.8c0.1-0.2,0.2-0.5,0.4-0.7c0.2-0.2,0.4-0.3,0.6-0.4
						c0.2-0.1,0.5-0.2,0.7-0.2c0.1,0,0.1,0.1,0.1,0.2C81.3,182.5,81.2,182.6,81.2,182.6z"/>
				</g>
				<g>
					<path class="st0" d="M76,184c-0.1,0-0.1-0.1-0.2-0.2c-0.1-0.3-0.1-0.6,0.1-0.9c0.1-0.3,0.3-0.5,0.5-0.7
						c0.2-0.2,0.5-0.3,0.8-0.3c0.3,0,0.6,0.2,0.8,0.4c0.1,0.1,0.1,0.1,0.1,0.2c-0.1,0.1-0.1,0.1-0.2,0.1c-0.2-0.1-0.4-0.1-0.7-0.1
						c-0.2,0-0.5,0-0.7,0.1c-0.2,0.1-0.3,0.4-0.4,0.6c-0.1,0.2-0.1,0.4,0,0.6C76.2,183.8,76.1,184,76,184C76,184,76,184,76,184z"/>
				</g>
				<g>
					<path class="st0" d="M76.9,185.9c-0.4,0-0.7,0.3-0.8,0.7c-0.1,0.2-0.1,0.4-0.1,0.6c0,0.2,0,0.4,0,0.6c0,0.1,0,0.2-0.1,0.2
						c-0.1,0-0.2-0.1-0.2-0.1c-0.1-0.2-0.1-0.4-0.1-0.7c0-0.2,0-0.5,0.1-0.7c0.1-0.2,0.2-0.4,0.4-0.6c0.2-0.1,0.4-0.2,0.7-0.2
						c0.1,0,0.2,0,0.2,0.1C77.1,185.9,77,185.9,76.9,185.9z"/>
				</g>
				<g>
					<path class="st0" d="M81.3,179.9c-0.2-0.2-0.6-0.3-0.9-0.1c-0.3,0.2-0.5,0.5-0.6,0.9c0,0.1-0.1,0.1-0.2,0.1
						c-0.1,0-0.2,0-0.2-0.1c0-0.2,0.1-0.5,0.3-0.7c0.1-0.2,0.2-0.5,0.4-0.6c0.2-0.1,0.5-0.2,0.7-0.2c0.2,0,0.6,0.1,0.7,0.4
						c0,0.1,0,0.2-0.1,0.2C81.4,180,81.3,180,81.3,179.9C81.3,180,81.3,179.9,81.3,179.9z"/>
				</g>
				<g>
					<path class="st0" d="M94.8,178.1c-0.1,0-0.2-0.1-0.2-0.2c0-0.1,0.1-0.2,0.2-0.2c0.3,0,0.6,0,0.8,0c0.3,0,0.6-0.1,0.8-0.1
						c0.3,0,0.6-0.1,0.8-0.1c0.1,0,0.2,0.2,0.2,0.3c0,0.1-0.1,0.1-0.3,0.1c-0.2,0-0.5,0-0.8,0c-0.2,0-0.5,0-0.8,0.1
						C95.3,178,95.1,178.1,94.8,178.1C94.8,178.2,94.8,178.1,94.8,178.1z"/>
				</g>
			</g>
		</g>
		<path class="st0" d="M82.8,169.6c1.2-1.9,2.4-3.9,4.2-5.3c0.8-0.7,1.9-1.4,3.1-1.5c1.2,0.1,2.2,0.8,3.1,1.5
			c0.4,0.4,0.8,0.8,1.2,1.2c0.3,0.5,0.8,0.8,1,1.4c0.1,0.3,0.2,0.5,0.3,0.9c0,0.3,0,0.6-0.1,0.9c-0.1,0.3-0.2,0.6-0.2,0.8
			c-0.1,0.3-0.2,0.5-0.4,0.8c-0.3,0.5-0.6,1-0.9,1.4l-1.1,1.3c-0.8,0.8-1.7,1.5-2.5,2.3c-0.1,0-0.1,0-0.2,0c0-0.1,0-0.1,0-0.2
			c1.7-1.4,3.3-3,4.4-4.9c0.2-0.2,0.3-0.5,0.3-0.7c0.1-0.3,0.2-0.5,0.2-0.8c0.1-0.5,0.1-1-0.2-1.5c-0.2-0.5-0.6-0.9-1-1.3
			c-0.3-0.4-0.7-0.8-1.1-1.2c-0.4-0.3-0.9-0.6-1.4-0.9c-0.2-0.2-0.5-0.2-0.7-0.3c-0.3-0.1-0.5-0.2-0.8-0.2c-1,0-2.1,0.6-2.9,1.4
			c-1.8,1.3-3,3.3-4.1,5.2l0,0c0,0.1-0.1,0.1-0.2,0C82.8,169.7,82.7,169.6,82.8,169.6z"/>
		<g>
			<path class="st0" d="M88.2,167.3c0,0.3,0.3,0.5,0.5,0.8c0.2,0.3,0.4,0.6,0.6,0.8c0.3,0.1,0.6,0.3,0.9,0.4l1,0.3
				c0.1,0,0.1,0.1,0.1,0.2c0,0.1-0.1,0.1-0.2,0.1l0,0l-1-0.2c-0.3-0.1-0.7-0.3-1-0.5c-0.4-0.2-0.5-0.6-0.7-0.9
				c-0.2-0.3-0.5-0.6-0.5-1c0-0.1,0.1-0.2,0.1-0.2C88.1,167.1,88.2,167.2,88.2,167.3L88.2,167.3z"/>
			<path class="st0" d="M91.2,170C91.2,170,91.1,170,91.2,170c-0.4-0.2-0.7-0.4-0.9-0.6c-0.2-0.2-0.4-0.5-0.6-0.8
				c-0.3-0.4-0.4-0.7-0.4-1c0-0.1,0.1-0.2,0.2-0.2c0.1,0,0.2,0.1,0.2,0.2c0,0.1,0,0.3,0.3,0.8c0.2,0.3,0.3,0.5,0.6,0.7
				c0.2,0.2,0.5,0.4,0.7,0.6c0.1,0,0.1,0.2,0.1,0.3C91.3,169.9,91.3,170,91.2,170z"/>
			<path class="st0" d="M86.2,169.6c0.1,0.3,0.3,0.5,0.5,0.7l0.8,0.6l0.8,0.6l0.9,0.4l0,0c0.1,0,0.1,0.1,0.1,0.2
				c0,0.1-0.1,0.1-0.2,0.1l-0.9-0.4l-0.8-0.6l-0.8-0.6c-0.2-0.2-0.4-0.6-0.6-0.8c0-0.1,0-0.2,0.1-0.2
				C86,169.5,86.1,169.5,86.2,169.6z"/>
			<path class="st0" d="M87.9,172.6l-0.7-0.1c-0.2,0-0.5-0.1-0.7-0.2c-0.5-0.2-0.9-0.4-1.3-0.7c-0.1-0.1-0.1-0.2,0-0.2
				c0.1-0.1,0.2-0.1,0.2,0l0,0c0.3,0.3,0.8,0.4,1.2,0.6c0.2,0.1,0.4,0.2,0.7,0.2l0.7,0.1l0,0c0.1,0,0.1,0.1,0.1,0.2
				C88.1,172.6,88,172.6,87.9,172.6z"/>
		</g>
		<path class="st0" d="M93.9,164.1c0.3-0.2,0.6-0.4,0.8-0.6c0.3-0.2,0.7-0.2,1-0.4c0.3-0.1,0.6-0.3,1-0.3c0.3,0,0.7-0.1,1-0.1
			c0.7-0.1,1.4-0.1,2-0.1c0.3,0,0.7,0,1,0l1,0.3c0.1,0,0.1,0.1,0.1,0.2c0,0.1-0.1,0.1-0.2,0.1l0,0l-0.9-0.2c-0.3,0-0.7,0-1,0
			c-0.7,0-1.3,0.1-2,0.1c-0.3,0-0.7,0.1-1,0.2c-0.3,0.1-0.6,0.2-0.9,0.3c-0.3,0.1-0.7,0.2-0.9,0.3l-0.8,0.6l0,0
			c-0.1,0.1-0.2,0-0.2,0C93.8,164.2,93.9,164.1,93.9,164.1z"/>
		<path class="st0" d="M92.9,164.2l0.5-0.8c0.2-0.3,0.4-0.5,0.6-0.7c0.5-0.5,1-0.8,1.4-1.4c0.2-0.2,0.5-0.5,0.7-0.7
			c0.3-0.2,0.5-0.4,0.7-0.6c0.4-0.5,0.9-0.9,1.4-1.3c0.5-0.5,1-0.8,1.5-1.2c0.5-0.4,1-0.8,1.5-1.2c0.6-0.3,1.1-0.6,1.6-1
			c0.2-0.2,0.5-0.4,0.8-0.6c0.3-0.2,0.6-0.2,0.9-0.4c0.1,0,0.1,0,0.2,0.1c0,0.1,0,0.1-0.1,0.2c-0.3,0.2-0.6,0.2-0.9,0.4
			c-0.3,0.1-0.5,0.4-0.8,0.6c-0.5,0.4-1.1,0.8-1.6,1c-0.5,0.3-1,0.8-1.5,1.2c-0.5,0.4-1,0.8-1.5,1.2c-0.5,0.4-0.9,0.9-1.4,1.3
			c-0.2,0.2-0.5,0.5-0.7,0.7c-0.3,0.2-0.5,0.4-0.7,0.6c-0.8,1-2,1.7-2.6,2.8l0,0c0,0.1-0.1,0.1-0.2,0.1
			C92.9,164.3,92.9,164.3,92.9,164.2C92.9,164.2,92.9,164.2,92.9,164.2z"/>
		<path class="st0" d="M91.1,162.1c0.5-0.1,0.8-0.7,0.9-1.2l0.3-0.8l0.1-0.8c0.1-0.3,0-0.6,0-0.8l0-0.4l-0.1-0.4
			c-0.1-0.6-0.3-1.1-0.5-1.6l0,0c0-0.1,0-0.2,0.1-0.2c0.1,0,0.2,0,0.2,0.1c0.2,0.6,0.4,1.1,0.6,1.7l0.1,0.4l0,0.4c0,0.3,0,0.6,0,0.9
			l-0.1,0.9l-0.3,0.9c-0.2,0.5-0.5,1.2-1.2,1.4c-0.1,0-0.2,0-0.2-0.1C91,162.2,91,162.1,91.1,162.1L91.1,162.1L91.1,162.1z"/>
		<path class="st0" d="M95.5,154.5c0,0.4,0.2,0.9,0.1,1.3l-0.2,1.3c-0.1,0.8-0.4,1.7-0.7,2.4c-0.2,0.4-0.2,0.8-0.5,1.2
			c-0.2,0.4-0.4,0.7-0.6,1.1c-0.2,0.4-0.4,0.7-0.7,1.1l-0.8,1c-0.1,0.1-0.1,0.1-0.2,0c-0.1-0.1-0.1-0.1,0-0.2l0,0l0.7-1
			c0.3-0.3,0.5-0.7,0.7-1c0.2-0.4,0.4-0.7,0.6-1.1c0.2-0.4,0.3-0.8,0.4-1.2c0.3-0.8,0.6-1.6,0.7-2.4l0.2-1.2c0.1-0.4,0-0.8-0.1-1.2
			l0,0c0-0.1,0.1-0.2,0.1-0.2C95.5,154.3,95.5,154.4,95.5,154.5z"/>
		<g>
			<path class="st0" d="M96.8,159.9c0-0.4,0-0.7,0-1.1l0.4-1l0.6-0.9c0.2-0.3,0.5-0.5,0.8-0.7c0.1,0,0.2,0,0.2,0c0,0.1,0,0.2,0,0.2
				c-0.3,0.2-0.5,0.4-0.7,0.7l-0.5,0.9l-0.3,0.9c0,0.3,0,0.7-0.1,1l0,0c0,0.1-0.1,0.1-0.2,0.1C96.8,160,96.8,159.9,96.8,159.9z"/>
			<path class="st0" d="M95.7,156c0.4-0.1,0.8-0.1,1.1-0.3c0.2-0.1,0.4-0.1,0.5-0.2l0.5-0.3c0.3-0.2,0.6-0.5,0.9-0.8
				c0.3-0.3,0.4-0.6,0.7-0.9l0,0c0.1-0.1,0.1-0.1,0.2,0c0,0,0.1,0.1,0,0.2c-0.2,0.4-0.4,0.8-0.7,1.1c-0.3,0.3-0.6,0.6-1,0.8
				l-0.5,0.3c-0.2,0.1-0.4,0.1-0.6,0.2c-0.4,0.2-0.8,0.2-1.2,0.2c-0.1,0-0.1,0-0.2-0.1C95.5,156.1,95.6,156,95.7,156L95.7,156z"/>
			<path class="st0" d="M99.9,151.7l-0.9,0.4l-0.8,0.6l-0.7,0.7l-0.5,0.9l0,0c0,0.1-0.1,0.1-0.2,0.1c-0.1,0-0.1-0.1-0.1-0.2l0.5-1
				l0.7-0.8l0.9-0.6l1-0.4c0.1,0,0.2,0,0.2,0.1C100.1,151.6,100,151.7,99.9,151.7L99.9,151.7z"/>
			<path class="st0" d="M95.3,153.2c0.1-0.7,0-1.3-0.4-1.9c-0.3-0.6-0.9-1.1-1.5-1.3l0,0c-0.1,0-0.1-0.1-0.1-0.2
				c0-0.1,0.1-0.1,0.2-0.1c0.4,0.1,0.7,0.3,1,0.6c0.3,0.2,0.5,0.5,0.7,0.8c0.4,0.6,0.6,1.4,0.4,2.2c0,0.1-0.1,0.2-0.2,0.1
				C95.4,153.4,95.3,153.3,95.3,153.2z"/>
			<path class="st0" d="M94.4,156.9c-0.3-0.3-0.6-0.6-0.9-1c-0.2-0.4-0.4-0.8-0.5-1.3c0-0.2-0.2-0.4-0.2-0.7l0-0.7
				c0-0.5,0.2-0.9,0.3-1.3c0-0.1,0.1-0.1,0.2-0.1c0.1,0,0.1,0.1,0.1,0.2l0,0.1c-0.1,0.4-0.2,0.8-0.2,1.2c0,0.4,0,0.8,0.1,1.2
				c0.1,0.4,0.2,0.8,0.4,1.2c0.2,0.4,0.5,0.6,0.8,1l0,0c0.1,0.1,0,0.2,0,0.2C94.5,157,94.4,157,94.4,156.9z"/>
			<path class="st0" d="M92.3,159.3l-0.8-0.8l-0.7-0.9c-0.2-0.3-0.3-0.7-0.5-1c-0.1-0.4-0.2-0.8-0.1-1.2c0-0.1,0.1-0.1,0.2-0.1
				c0.1,0,0.1,0.1,0.1,0.2c-0.1,0.3,0,0.6,0.1,1c0.2,0.3,0.3,0.6,0.5,1l0.6,0.9l0.8,0.8l0,0c0.1,0.1,0.1,0.2,0,0.2
				C92.5,159.4,92.4,159.4,92.3,159.3z"/>
			<path class="st0" d="M104.4,157.4c-0.3,0.4-0.6,0.8-1.1,1.1c-0.4,0.4-0.8,0.5-1.3,0.8c-0.5,0.1-1,0.3-1.5,0.2
				c-0.5,0.1-1-0.1-1.5-0.2c-0.1,0-0.1-0.1-0.1-0.2c0-0.1,0.1-0.1,0.2-0.1l0,0c0.5,0.1,0.9,0.2,1.4,0.1c0.5,0,0.9-0.1,1.4-0.2
				c0.4-0.2,0.9-0.4,1.2-0.7c0.4-0.3,0.7-0.6,1-1l0,0c0.1-0.1,0.2-0.1,0.2,0C104.5,157.2,104.5,157.3,104.4,157.4z"/>
			<path class="st0" d="M100.3,161.1l-1,0.2l-1,0l-1-0.1l-1-0.3c-0.1,0-0.1-0.1-0.1-0.2c0-0.1,0.1-0.1,0.2-0.1l0,0l0.9,0.2l0.9,0.1
				l1,0l0.9-0.2l0,0c0.1,0,0.2,0,0.2,0.1C100.4,161,100.3,161.1,100.3,161.1z"/>
			<path class="st0" d="M96.6,164.8c-0.1,0-0.1,0-0.2-0.1c0-0.1,0-0.2,0.1-0.3c0.2-0.1,0.6-0.2,0.9-0.3c0.3,0,0.6-0.1,0.9-0.1
				c0.3,0,0.6,0,0.8,0l0.1,0c0.1,0,0.2,0.1,0.2,0.2c0,0.1-0.1,0.2-0.2,0.2c0,0,0,0,0,0l-0.1,0c-0.3,0-0.5,0-0.8,0
				c-0.3,0-0.6,0-0.9,0.1C97.2,164.6,96.9,164.7,96.6,164.8C96.7,164.8,96.7,164.8,96.6,164.8z"/>
			<path class="st0" d="M103.9,152.5l-1,0.5l-0.8,0.7c-0.3,0.3-0.5,0.5-0.7,0.8l-0.4,1l0,0c0,0.1-0.2,0.1-0.3,0.1
				c-0.1,0-0.1-0.2-0.1-0.3l0,0l0.4-1.1c0.2-0.3,0.5-0.6,0.7-0.9l0.9-0.7l1-0.5c0.1,0,0.2,0,0.3,0.1
				C104,152.3,104,152.4,103.9,152.5L103.9,152.5L103.9,152.5z"/>
		</g>
		<path class="st0" d="M56.7,193c1.9,0.3,3.9,0.7,5.8,0.9c1,0.1,1.9,0.2,2.9,0.3c1,0.1,2,0.1,2.9,0.1c3.9,0.2,7.8,0.2,11.8-0.2
			c1-0.1,2-0.1,2.9-0.2l2.9-0.3c0.5,0,1-0.1,1.5-0.2c0.5-0.1,1-0.1,1.4-0.2c0.5-0.1,1-0.2,1.4-0.3c0.5-0.1,1-0.2,1.4-0.3
			c1.9-0.5,3.9-0.8,5.7-1.5c1.9-0.5,3.7-1.2,5.4-2.1c0.1,0,0.1,0,0.2,0.1c0,0.1,0,0.1-0.1,0.2c-1.7,0.9-3.6,1.7-5.5,2.2
			c-1.8,0.7-3.8,1-5.7,1.5c-0.5,0.1-1,0.2-1.4,0.3c-0.5,0.1-1,0.2-1.4,0.3c-0.5,0.2-1,0.1-1.5,0.2c-0.5,0.1-1,0.1-1.5,0.2l-2.9,0.3
			c-1,0.1-2,0.1-2.9,0.2c-3.9,0.4-7.9,0.5-11.8,0.3c-1,0-2-0.1-3-0.1c-1-0.1-2-0.2-2.9-0.3c-2-0.2-3.9-0.5-5.8-0.8
			c-0.1,0-0.2-0.1-0.2-0.2C56.5,193.1,56.6,193,56.7,193L56.7,193L56.7,193z"/>
		<path class="st0" d="M103.3,191.9c-5.7,2.5-11.8,3.5-17.9,4.2c-0.4,0-0.8,0.1-1.1,0.1c-0.4,0.1-0.8,0-1.1,0.1
			c-0.4,0-0.7,0.2-1.1,0.2c-0.4,0-0.8,0-1.2,0c-1.5,0.1-3.1,0.3-4.6,0.3c-3.1,0-6.1,0.1-9.2-0.1c-1.5-0.1-3-0.4-4.6-0.4
			c-0.4,0-0.8,0-1.2-0.1c-0.4-0.1-0.7-0.2-1.1-0.2c-0.8,0-1.5-0.2-2.3-0.3c-1.5-0.2-3-0.6-4.6-0.7c-0.4-0.1-0.7-0.1-1.1-0.2
			c-0.4-0.1-0.7-0.3-1.1-0.3c-0.8-0.2-1.5-0.2-2.3-0.5c-0.4-0.1-0.8-0.2-1.1-0.2c-0.4-0.1-0.7-0.3-1.1-0.4l-1.1-0.4
			c-0.4-0.1-0.7-0.3-1.1-0.4c-0.7-0.2-1.4-0.6-2.1-0.9c-0.7-0.4-1.4-0.6-2.1-1c-0.7-0.4-1.3-0.8-2-1.2c-0.3-0.2-0.6-0.5-0.9-0.7
			c-0.1-0.1-0.3-0.3-0.4-0.5c-0.1-0.2-0.1-0.5-0.2-0.6c-0.1-0.7,0.1-1.5-0.1-2.3c-0.1-0.8-0.1-1.5-0.1-2.3l0,0
			c0-0.1,0.1-0.1,0.1-0.1c0.1,0,0.1,0,0.1,0.1c0,0.8,0.1,1.5,0.2,2.3c0.2,0.8,0,1.5,0.1,2.3c-0.1,0.7,0.8,1.1,1.3,1.6
			c0.7,0.4,1.3,0.8,1.9,1.2c0.7,0.3,1.4,0.6,2.1,1c0.7,0.3,1.3,0.7,2.1,1c0.4,0.1,0.7,0.3,1.1,0.4l1.1,0.4c0.4,0.1,0.7,0.3,1.1,0.4
			c0.4,0.1,0.8,0.1,1.1,0.2c0.7,0.3,1.5,0.3,2.2,0.5c0.4,0,0.8,0.2,1.1,0.3c0.3,0.1,0.7,0.1,1.1,0.2c1.5,0.1,3,0.4,4.5,0.6
			c0.8,0.1,1.5,0.3,2.3,0.3c0.4,0,0.8,0.1,1.1,0.2c0.4,0.1,0.8,0,1.1,0.1c1.5,0,3,0.3,4.6,0.4c3.1,0.2,6.1,0.1,9.2,0.1
			c1.5,0,3.1-0.2,4.6-0.3c0.4,0,0.8,0,1.1,0c0.3,0,0.7-0.2,1.1-0.2c0.4,0,0.8,0,1.1-0.1c0.4,0,0.8-0.1,1.1-0.1
			c6.1-0.7,12.1-2,17.8-4.1c0.1,0,0.1,0,0.1,0.1C103.3,191.8,103.3,191.9,103.3,191.9z"/>
		<path class="st0" d="M100.4,175.8c0.6,0.2,1.3,0.4,1.9,0.7c0.6,0.3,1.2,0.6,1.7,0.9c1.2,0.6,2.3,1.4,3.2,2.3
			c0.5,0.5,0.9,1,1.3,1.5c0.3,0.6,0.3,1.3,0.3,2c-0.1,0.3-0.1,0.7-0.2,1l-0.4,0.9l-0.6,0.8l-0.6,0.8c-0.1,0.1-0.1,0.1-0.2,0
			c-0.1-0.1-0.1-0.1,0-0.2l0,0l0.6-0.7l0.5-0.8l0.4-0.9c0.1-0.3,0.1-0.6,0.2-0.9c0-0.6,0-1.3-0.3-1.8c-0.4-0.5-0.8-1-1.2-1.4
			c-0.9-0.9-2-1.6-3.1-2.3c-0.6-0.3-1.1-0.7-1.7-0.9l-1.8-0.7l0,0c-0.1,0-0.1-0.1-0.1-0.2C100.2,175.8,100.3,175.7,100.4,175.8z"/>
		<path class="st0" d="M108.9,182.8l0,2.5l0,1.3l0,0.6c0,0.2-0.1,0.5-0.2,0.7c-0.4,0.8-1.1,1.4-1.8,1.9c-0.3,0.3-0.7,0.5-1.1,0.7
			c-0.2,0.1-0.4,0.2-0.6,0.3c-0.2,0.1-0.4,0.3-0.6,0.1c0,0,0,0,0,0c0.1-0.3,0.3-0.3,0.5-0.5l0.5-0.3c0.4-0.2,0.7-0.4,1.1-0.7
			c0.7-0.5,1.4-1,1.7-1.7c0.1-0.2,0.1-0.4,0.2-0.5l0-0.6l0-1.3l0-2.5c0-0.1,0.1-0.1,0.1-0.1C108.8,182.7,108.9,182.8,108.9,182.8z"
			/>
		<path class="st0" d="M41.1,184.9c0.4,0.4,0.7,0.8,1.2,1.1c0.5,0.2,1,0.4,1.5,0.3c0.5,0,1-0.2,1.4-0.5c0.5-0.3,0.8-0.7,0.9-1.2
			c0-0.1,0.1-0.1,0.1-0.1c0.1,0,0.1,0.1,0.1,0.1c-0.1,0.3-0.1,0.6-0.3,0.8c-0.2,0.3-0.4,0.5-0.6,0.6c-0.4,0.4-1,0.6-1.6,0.6
			c-0.6,0-1.2-0.2-1.7-0.4c-0.5-0.3-0.8-0.8-1.2-1.2c0,0,0-0.1,0-0.2C40.9,184.8,41,184.8,41.1,184.9L41.1,184.9z"/>
		<g>
			<g>
				<g>
					<path class="st0" d="M46.9,188.8c0.2-0.1,0.3-0.3,0.5-0.4c0.2-0.1,0.4-0.1,0.6-0.2c0.2,0,0.4,0,0.6,0c0.2,0,0.4,0.2,0.5,0.3
						c0.1,0,0.1,0.1,0,0.2c0,0.1-0.1,0-0.2,0c-0.3-0.1-0.7-0.2-1-0.1c-0.3,0-0.7,0.1-0.9,0.3c-0.1,0-0.1,0-0.2-0.1
						C46.8,188.9,46.8,188.8,46.9,188.8z"/>
				</g>
				<g>
					<path class="st0" d="M41.6,180.5c0.2-0.2,0.4-0.4,0.6-0.5c0.2-0.1,0.5-0.2,0.7-0.3c0.2-0.1,0.5-0.2,0.7-0.3
						c0.3,0,0.5-0.1,0.8-0.1c0.3,0,0.5,0.1,0.8,0.2c0.1,0,0.1,0.2,0.1,0.2c0,0.1-0.1,0-0.1,0c-0.2-0.1-0.5,0-0.7,0
						c-0.2,0-0.5,0-0.7,0c-0.2,0-0.5,0-0.7,0.1c-0.2,0.1-0.4,0.3-0.6,0.4c-0.2,0.1-0.5,0.1-0.6,0.3
						C41.7,180.6,41.6,180.6,41.6,180.5C41.5,180.5,41.6,180.5,41.6,180.5z"/>
				</g>
				<g>
					<path class="st0" d="M40.8,182.5c0.1-0.2,0.4-0.3,0.6-0.4c0.2-0.1,0.5-0.2,0.7-0.1c0.2,0,0.5,0.1,0.7,0.2c0.1,0,0.1,0.2,0,0.2
						c0,0.1-0.1,0.1-0.2,0.1c-0.3-0.1-0.6-0.1-0.8-0.1c-0.3,0.1-0.5,0.2-0.7,0.4c-0.1,0.1-0.2,0-0.2-0.1
						C40.8,182.7,40.8,182.5,40.8,182.5z"/>
				</g>
				<g>
					<path class="st0" d="M45.8,182.3c0.2,0.1,0.6,0.1,0.8,0c0.2-0.1,0.5-0.3,0.6-0.5c0.2-0.2,0.3-0.5,0.4-0.8
						c0.1-0.3,0.1-0.6,0.1-0.9c0-0.1,0.2-0.1,0.3-0.1c0.1,0,0.1,0.1,0.1,0.2c0,0.2,0,0.4-0.1,0.6c0,0.2-0.2,0.4-0.3,0.6
						c-0.1,0.2-0.2,0.4-0.3,0.5c-0.2,0.3-0.5,0.4-0.8,0.5c-0.3,0.1-0.7,0.1-1-0.1c-0.1,0-0.1-0.1,0-0.2
						C45.7,182.2,45.8,182.3,45.8,182.3z"/>
				</g>
				<g>
					<path class="st0" d="M48.6,177.3c0.2,0,0.4,0.1,0.6,0.2c0.2,0.1,0.4,0.3,0.5,0.4c0.1,0.2,0.2,0.4,0.2,0.6c0,0.2,0,0.4-0.1,0.6
						c0,0.1-0.1,0.1-0.2,0.1c-0.1,0-0.2,0-0.2-0.1c0-0.3,0-0.7-0.2-0.9c-0.2-0.3-0.5-0.5-0.8-0.5c0,0,0-0.1,0-0.1
						c-0.1,0-0.1,0-0.1-0.1C48.5,177.3,48.5,177.3,48.6,177.3z"/>
				</g>
				<g>
					<path class="st0" d="M51.1,187.3c-0.2,0-0.5,0.1-0.7,0c-0.2-0.1-0.3-0.3-0.5-0.4c-0.2-0.1-0.3-0.3-0.5-0.4
						c-0.1-0.2-0.4-0.3-0.5-0.5c-0.1-0.2-0.2-0.5-0.2-0.7c0-0.2,0.1-0.5,0.1-0.7c0.1-0.2,0.3-0.3,0.4-0.5c0.1-0.2,0.1-0.4,0.3-0.6
						c0.1-0.1,0.2-0.1,0.3,0c0.1,0.1-0.1,0.1-0.1,0.2c0,0,0.1,0.1,0.1,0.1c-0.1,0.2-0.2,0.4-0.3,0.6c-0.1,0.2-0.1,0.4-0.2,0.7
						c0,0.2,0,0.4,0.1,0.6c0.1,0.2,0.2,0.4,0.4,0.6c0.2,0.2,0.3,0.3,0.6,0.4c0.2,0.1,0.4,0.2,0.7,0.2c0.1,0,0.3,0.1,0.3,0.2
						C51.4,187.3,51.2,187.3,51.1,187.3z"/>
				</g>
			</g>
		</g>
		<path class="st0" d="M52.4,192.8c-0.6-0.2-1.3-0.4-2-0.5l-2-0.5c-1.3-0.4-2.6-0.8-3.8-1.3c-2.5-1-5-2.2-6.9-4.3
			c-0.9-1-1.5-2.5-1.2-3.8c0-0.4,0.2-0.7,0.3-1c0.1-0.3,0.3-0.6,0.5-0.9l0.6-0.9c0.2-0.3,0.5-0.5,0.7-0.7c2.1-1.8,4.6-2.9,7.3-3.4
			c0.1,0,0.2,0,0.2,0.1c0,0.1,0,0.2-0.1,0.2c-2.6,0.5-5.1,1.7-7.1,3.4c-0.2,0.2-0.5,0.4-0.7,0.7l-0.5,0.8c-0.2,0.3-0.4,0.5-0.5,0.9
			c-0.1,0.3-0.2,0.6-0.2,0.9c-0.2,1.3,0.3,2.6,1.2,3.5c1.7,2,4.2,3.2,6.7,4.2c1.3,0.5,2.5,0.9,3.8,1.3l1.9,0.5
			c0.7,0.1,1.3,0.3,1.9,0.5l0,0c0.1,0,0.1,0.1,0.1,0.2C52.5,192.8,52.4,192.8,52.4,192.8z"/>
		<path class="st0" d="M54.8,163.8c-0.8,0.4-1.6,0.5-2.3,1c-0.7,0.4-1.2,1.1-1.7,1.8c-0.3,0.7-0.6,1.5-0.5,2.4
			c0.1,0.8,0.6,1.5,1,2.2c0.2,0.3,0.6,0.5,1,0.8c0.3,0.3,0.6,0.5,1,0.8l1.1,0.6c0.4,0.2,0.8,0.3,1.2,0.5c0.8,0.3,1.6,0.6,2.4,0.8
			c0.8,0.3,1.6,0.5,2.5,0.6c0.4,0,0.9,0,1.3,0.1c0.2,0.1,0.4,0.1,0.6,0.1l0.6,0c0.9,0,1.7,0.1,2.6,0.1l1.3-0.1
			c0.4-0.1,0.9-0.1,1.3,0c0.8-0.1,1.7-0.2,2.5-0.4c1.7-0.4,3.3-0.9,4.8-1.8c0.4-0.2,0.7-0.5,1-0.7c0.3-0.3,0.7-0.5,1-0.8
			c0.6-0.6,1-1.3,1.3-2.1l0,0c0-0.1,0.1-0.1,0.2-0.1c0.1,0,0.1,0.1,0.1,0.2c-0.3,0.8-0.7,1.6-1.4,2.3c-0.3,0.4-0.7,0.6-1,0.9
			c-0.4,0.2-0.7,0.6-1.1,0.7c-1.5,0.9-3.2,1.5-4.9,1.8c-0.8,0.2-1.7,0.3-2.6,0.4c-0.9-0.1-1.7,0.1-2.6,0.1c-0.9,0-1.7-0.1-2.6-0.1
			l-0.7,0c-0.2,0-0.4-0.1-0.6-0.1c-0.4-0.1-0.8-0.1-1.3-0.1c-0.9-0.1-1.7-0.4-2.5-0.6c-0.8-0.2-1.7-0.5-2.5-0.8
			c-1.7-0.5-3.1-1.6-4.4-2.8c-0.4-0.8-1-1.5-1.1-2.4c-0.2-0.9,0.2-1.8,0.5-2.6c1-1.5,2.6-2.6,4.3-2.8c0.1,0,0.1,0,0.1,0.1
			C54.8,163.7,54.8,163.8,54.8,163.8L54.8,163.8z"/>
		<path class="st0" d="M73.1,165.2c0.4-0.5,1.2-0.8,1.8-0.9c0.7,0,1.4,0,2,0.3c1.2,0.6,2.1,2,2,3.3c0,0.1-0.1,0.1-0.1,0.1
			c-0.1,0-0.1-0.1-0.1-0.1c0-1.2-0.8-2.5-1.9-3c-0.5-0.3-1.2-0.2-1.8-0.2c-0.7,0-1.2,0.3-1.7,0.6c0,0-0.1,0-0.2,0
			C73.1,165.3,73.1,165.2,73.1,165.2L73.1,165.2z"/>
		<path class="st0" d="M73.5,160.4c1.6,0.2,3,0.9,4.3,1.8c1.4,0.9,2.2,2.2,3,3.6c0.2,0.4,0.3,0.7,0.4,1.1c0.1,0.4,0.2,0.8,0.2,1.2
			c0,0.8,0.2,1.6,0.2,2.3c0,0.8-0.2,1.6-0.3,2.3c-0.2,0.8-0.4,1.6-0.8,2.2c0,0.1-0.1,0.1-0.2,0c0,0-0.1-0.1,0-0.1l0,0
			c0.6-1.4,0.9-2.9,1-4.4c0-0.8-0.1-1.5-0.2-2.3c0-0.4-0.1-0.7-0.2-1.1c-0.1-0.4-0.2-0.7-0.4-1c-0.8-1.3-1.6-2.6-2.9-3.5
			c-1.2-0.9-2.6-1.5-4.1-1.8c-0.1,0-0.1-0.1-0.1-0.2C73.4,160.4,73.4,160.4,73.5,160.4L73.5,160.4z"/>
		<path class="st0" d="M61,172.8c0.2-0.9,0.6-1.5,1.1-2.2c0.2-0.4,0.5-0.6,0.8-0.9c0.3-0.3,0.6-0.5,1-0.8c0.7-0.4,1.4-0.8,2.1-1.1
			c0.4-0.2,0.8-0.3,1.2-0.4c0.4-0.1,0.7-0.2,1.2-0.3c0.4,0,0.8,0,1.2,0c0.4,0.1,0.8,0.1,1.2,0.2c0.4,0,0.8,0.2,1.2,0.4l0.5,0.3
			l0.5,0.4c1.3,1.1,1.6,2.9,1.6,4.5c0,0.1-0.1,0.1-0.1,0.1c-0.1,0-0.1-0.1-0.1-0.1l0,0c-0.1-0.8-0.1-1.6-0.4-2.3
			c-0.3-0.7-0.6-1.5-1.2-1.9l-0.4-0.4l-0.5-0.3c-0.3-0.2-0.7-0.3-1.1-0.4c-0.4,0-0.8-0.1-1.2-0.2c-0.4,0-0.8,0-1.2,0
			c-0.3,0-0.8,0.2-1.1,0.3c-0.4,0.1-0.8,0.1-1.1,0.3c-0.7,0.3-1.4,0.6-2.1,1c-0.3,0.2-0.6,0.5-0.9,0.7c-0.3,0.3-0.6,0.5-0.8,0.8
			c-0.4,0.6-0.9,1.4-1,2l0,0.1c0,0.1-0.1,0.1-0.2,0.1C61,173,61,172.9,61,172.8z"/>
		<path class="st0" d="M53.4,171.5c-0.3-0.3-0.5-0.6-0.6-0.9c-0.1-0.3-0.2-0.7-0.3-1.1c0-0.8,0.2-1.4,0.5-2.1
			c0.2-0.3,0.5-0.6,0.8-0.8c0.3-0.2,0.6-0.4,0.9-0.6c0.3-0.2,0.6-0.3,1-0.5c0.3-0.2,0.7-0.2,1-0.3c1.4-0.2,2.9-0.2,4.3,0.2
			c0.7,0.2,1.3,0.6,1.9,1c0.3,0.2,0.5,0.5,0.8,0.8c0.2,0.3,0.4,0.6,0.6,0.9c0,0.1,0,0.1,0,0.2c-0.1,0-0.1,0-0.2,0l0,0
			c-0.2-0.3-0.4-0.6-0.6-0.8c-0.3-0.2-0.5-0.5-0.7-0.7c-0.6-0.4-1.2-0.7-1.8-0.9c-0.7-0.1-1.3-0.3-2-0.3c-0.7,0.1-1.4,0-2.1,0.1
			c-0.3,0.1-0.7,0.1-1,0.3c-0.3,0.1-0.7,0.2-0.9,0.4c-0.5,0.4-1.3,0.7-1.6,1.2c-0.3,0.6-0.5,1.3-0.5,1.9c0,0.6,0.3,1.4,0.7,1.8l0,0
			c0,0,0,0.1,0,0.2C53.6,171.6,53.5,171.6,53.4,171.5z"/>
		<g>
			<g>
				<g>
					<path class="st0" d="M66.1,170.9c0.2,0.1,0.5,0.2,0.7,0.3c0.2,0.1,0.5,0.2,0.7,0.3c0.2,0.1,0.5,0,0.8,0.1c0.3,0,0.5,0,0.7,0
						c0,0,0,0,0,0c0.1,0,0.2,0,0.2,0.1c0,0.1,0,0.2-0.1,0.2c-0.3,0.2-0.6,0.1-0.9,0.1c-0.3,0-0.6-0.1-0.8-0.2
						c-0.3-0.1-0.6-0.1-0.8-0.2c-0.3-0.1-0.5-0.2-0.8-0.4c-0.1,0,0-0.2,0-0.3c0-0.1,0.1,0,0.2,0C66.1,171,66.1,170.9,66.1,170.9z"/>
				</g>
				<g>
					<path class="st0" d="M65.7,173.2c0.1,0.2,0.3,0.3,0.5,0.4c0.2,0.1,0.4,0.2,0.6,0.3c0.2,0.1,0.4,0.1,0.6,0
						c0.1,0,0.2,0.1,0.2,0.2c0,0.1,0,0.2-0.1,0.2c-0.2,0-0.4,0-0.6,0c-0.2,0-0.4-0.1-0.6-0.2c-0.2-0.1-0.3-0.2-0.4-0.4
						c-0.1-0.1-0.3-0.2-0.4-0.4c0-0.1,0-0.2,0.1-0.2C65.6,173.1,65.7,173.2,65.7,173.2z"/>
				</g>
				<g>
					<path class="st0" d="M56.7,169.2c0.1-0.3,0.3-0.4,0.5-0.6c0.2-0.1,0.5-0.1,0.7-0.2c0.2,0,0.5-0.1,0.7-0.1c0.2,0,0.5-0.1,0.7,0
						c0.1,0,0.1,0,0.1,0.1c0,0.1,0,0.1-0.1,0.1c0,0,0,0,0,0c-0.2,0-0.4,0.1-0.6,0.2c-0.2,0-0.5,0-0.7,0.1c-0.2,0-0.4,0.1-0.6,0.2
						c-0.2,0.1-0.4,0.2-0.5,0.3c0,0,0,0,0,0c0,0.1-0.1,0.1-0.2,0C56.6,169.3,56.7,169.2,56.7,169.2z"/>
				</g>
				<g>
					<path class="st0" d="M56.6,171.9c0-0.2,0.1-0.4,0.2-0.6c0.1-0.2,0.3-0.4,0.4-0.5c0.2-0.1,0.3-0.3,0.5-0.4
						c0.2-0.1,0.4-0.3,0.6-0.3c0.1,0,0.1,0.1,0.1,0.2c0,0.1,0,0.1-0.1,0.1c-0.2,0.1-0.3,0.2-0.5,0.3c-0.2,0.1-0.4,0.1-0.5,0.3
						c-0.3,0.2-0.5,0.6-0.6,0.9c0,0,0.1,0,0.1,0c0,0.1-0.1,0.2-0.2,0.2C56.6,172.1,56.6,172,56.6,171.9z"/>
				</g>
			</g>
		</g>
		<path class="st0" d="M58.3,164.1c-0.1-2.4-0.9-4.6-1.8-6.8c-0.2-0.5-0.5-1.1-0.6-1.7c0-0.2-0.1-0.2-0.1-0.5c0-0.1,0-0.1,0.1-0.3
			c0.2-0.2,0.2-0.1,0.3-0.2c0.3-0.1,0.6-0.3,0.8-0.4l0.9-0.2l0.9,0c0.6,0,1.2,0.1,1.8,0.3c1.2,0.4,2.1,1.2,3,2
			c0.4,0.5,0.8,0.9,1.2,1.4c0.3,0.6,0.5,1.1,0.7,1.7c0.1,0.3,0.2,0.6,0.2,0.9c0,0.3,0,0.6,0.1,0.9c0.1,0.3,0.2,0.6,0.2,0.9
			c0,0.3,0,0.6,0.1,0.9c0,1.2,0.2,2.4-0.3,3.6l0,0c0,0.1-0.1,0.1-0.1,0.1c-0.1,0-0.1-0.1-0.1-0.1c0.4-1.1,0.2-2.3,0.2-3.5l-0.1-0.9
			c0-0.3-0.2-0.6-0.2-0.9c-0.1-0.3-0.1-0.6-0.1-0.9c0-0.3-0.1-0.5-0.2-0.8c-0.1-0.6-0.4-1.1-0.7-1.6c-0.3-0.5-0.8-0.9-1.2-1.3
			c-0.9-0.8-1.8-1.6-2.9-1.9c-0.5-0.2-1.1-0.2-1.7-0.3l-0.9,0l-0.8,0.2c-0.3,0.1-0.5,0.2-0.8,0.4c0,0-0.2,0.1-0.1,0.1l-0.1,0.1
			c0,0,0,0.2,0.1,0.3c0.1,0.6,0.4,1.1,0.6,1.7c0.2,0.6,0.4,1.1,0.6,1.7c0.2,0.6,0.3,1.1,0.5,1.7c0.2,0.6,0.2,1.2,0.4,1.8
			c0,0.3,0.1,0.6,0.2,0.9l0,0.9c0,0.1-0.1,0.1-0.1,0.1C58.4,164.2,58.3,164.2,58.3,164.1z"/>
		<path class="st0" d="M62.2,158.8c0.1,0.9-0.8,1.7-1.7,1.6c-0.9,0-1.7-0.8-1.6-1.7c0-0.4,0.2-0.9,0.5-1.2c0.3-0.3,0.7-0.6,1.2-0.6
			c0.5,0,0.9,0.3,1.2,0.6C62.1,157.9,62.3,158.4,62.2,158.8z M61.9,158.8c0-0.4-0.1-0.7-0.4-1c-0.3-0.3-0.6-0.5-0.9-0.5
			c-0.3,0-0.7,0.2-0.9,0.4c-0.3,0.2-0.4,0.6-0.5,0.9c-0.1,0.7,0.6,1.4,1.3,1.4C61.3,160.2,61.9,159.5,61.9,158.8z"/>
		<path class="st0" d="M70,158.7c0,0.5-0.2,0.9-0.5,1.2c-0.3,0.3-0.8,0.5-1.3,0.4c-0.9,0.1-1.8-0.8-1.7-1.7c0-0.4,0.1-0.9,0.5-1.2
			c0.4-0.3,0.9-0.4,1.3-0.4c0.4,0,0.9,0,1.3,0.4C69.9,157.7,70,158.2,70,158.7z M69.6,158.7c0-0.4-0.1-0.7-0.4-1
			c-0.2-0.2-0.6-0.3-1-0.3c-0.4,0-0.8,0-1,0.3c-0.3,0.2-0.4,0.6-0.4,1c0,0.8,0.6,1.4,1.4,1.4c0.4,0,0.8-0.1,1-0.4
			C69.5,159.4,69.6,159,69.6,158.7z"/>
		<path class="st0" d="M70.4,163.1c0,0.9-0.8,1.8-1.8,1.7c-0.5,0-0.9-0.3-1.2-0.6c-0.3-0.3-0.6-0.7-0.5-1.2c0.1-0.9,0.9-1.7,1.8-1.6
			c0.4,0,0.9,0.1,1.2,0.4C70.3,162.2,70.4,162.7,70.4,163.1z M70,163.1c0-0.4-0.1-0.8-0.3-1c-0.2-0.3-0.6-0.4-1-0.4
			c-0.7-0.1-1.4,0.6-1.5,1.3c0,0.3,0.2,0.7,0.5,0.9c0.3,0.3,0.6,0.5,0.9,0.5C69.3,164.5,70,163.8,70,163.1z"/>
		<path class="st0" d="M63.5,163.2c0,0.9-0.9,1.7-1.8,1.7c-0.9,0-1.8-0.8-1.8-1.7c0-0.4,0.2-0.9,0.5-1.2c0.3-0.3,0.8-0.5,1.3-0.5
			c0.5,0,0.9,0.3,1.2,0.6C63.3,162.3,63.5,162.7,63.5,163.2z M63.2,163.2c0-0.4-0.2-0.7-0.5-1c-0.3-0.3-0.6-0.5-0.9-0.5
			c-0.8,0-1.4,0.6-1.4,1.4c0,0.7,0.6,1.4,1.4,1.4c0.4,0,0.8-0.1,1-0.3C63.1,164,63.2,163.6,63.2,163.2z"/>
		<path class="st0" d="M64.7,157.7l0.2-2.7c0-0.5,0-0.9,0-1.4c0-0.3,0.1-0.6,0.4-0.7c0.2-0.2,0.5-0.2,0.8-0.2c0.5,0,0.9,0.2,1.4,0.3
			c0.4,0.1,0.9,0.3,1.3,0.6c0.8,0.5,1.4,1.3,1.9,2c1.1,1.5,1.7,3.4,1.6,5.2c0,0.9,0,1.8,0,2.8c-0.2,0.9-0.3,1.8-0.7,2.7
			c0,0.1-0.1,0.1-0.2,0.1c0,0-0.1-0.1-0.1-0.1l0,0c0.1-0.9,0.5-1.7,0.6-2.6c0.1-0.9,0.1-1.8,0-2.7l-0.1-1.3
			c-0.1-0.4-0.2-0.9-0.3-1.3l-0.2-0.6c-0.1-0.2-0.2-0.4-0.3-0.6l-0.7-1.2c-0.5-0.7-1.1-1.4-1.8-1.9c-0.3-0.3-0.8-0.4-1.2-0.5
			c-0.4-0.1-0.9-0.3-1.3-0.3c-0.4,0-0.8,0.2-0.8,0.6c0,0.4,0,0.9-0.1,1.4l-0.3,2.7c0,0.1-0.1,0.1-0.1,0.1
			C64.8,157.9,64.7,157.8,64.7,157.7L64.7,157.7z"/>
		<path class="st0" d="M56,160.2c-1.6,0-3.2,0.9-4.6,1.8c-0.7,0.5-1.3,1.1-1.8,1.7c-0.6,0.6-1,1.4-1.3,2.1c-0.3,0.8-0.6,1.6-0.7,2.4
			c-0.1,0.4-0.1,0.8-0.1,1.3c0,0.4,0.1,0.8,0.1,1.3c0,0.9,0.2,1.7,0.4,2.5c0.2,0.8,0.5,1.6,0.9,2.4c0,0,0,0.1,0,0.1c0,0-0.1,0-0.1,0
			c-0.5-0.7-0.8-1.5-1-2.4c-0.2-0.8-0.5-1.7-0.5-2.6c0-0.4-0.1-0.9-0.1-1.3c0-0.4,0.1-0.9,0.1-1.3c0.1-0.9,0.4-1.7,0.6-2.6
			c0.3-0.8,0.8-1.6,1.4-2.2c0.5-0.7,1.2-1.3,1.9-1.8c1.5-0.9,3.1-1.8,4.9-1.8c0.1,0,0.2,0.1,0.1,0.2C56.2,160.1,56.1,160.2,56,160.2
			L56,160.2z"/>
		<g>
			<g>
				<g>
					<path class="st0" d="M105.6,182.2c0-0.2-0.1-0.4-0.2-0.6c-0.1-0.2-0.3-0.3-0.5-0.5c-0.2-0.1-0.4-0.2-0.6-0.2
						c-0.1,0-0.1-0.1-0.1-0.2c0-0.1,0-0.2,0.1-0.2c0.2,0,0.5,0,0.7,0.1c0.2,0.1,0.4,0.2,0.5,0.4c0.2,0.2,0.2,0.4,0.3,0.6
						c0.1,0.2,0.1,0.4,0.1,0.6c0,0.1-0.1,0.2-0.1,0.2C105.7,182.4,105.6,182.3,105.6,182.2z"/>
				</g>
				<g>
					<path class="st0" d="M103.9,184.9c-0.1,0.2-0.1,0.5-0.3,0.7c-0.1,0.2-0.3,0.4-0.5,0.6c-0.2,0.2-0.4,0.4-0.6,0.5
						c-0.2,0.1-0.4,0.3-0.7,0.4c-0.2,0.1-0.5,0.1-0.8,0.2c-0.1,0-0.2-0.1-0.2-0.2c0-0.1,0.1-0.2,0.1-0.2c0.2-0.1,0.5-0.1,0.7-0.2
						c0.2-0.1,0.4-0.2,0.6-0.4c0.2-0.1,0.4-0.3,0.5-0.5c0.2-0.2,0.4-0.3,0.5-0.5c0.1-0.2,0.2-0.4,0.3-0.6c0-0.1,0.1-0.1,0.2-0.1
						C103.9,184.8,103.9,184.8,103.9,184.9z"/>
				</g>
				<g>
					<path class="st0" d="M97.6,186.9c-0.1-0.2-0.2-0.4-0.2-0.7c0-0.2,0.1-0.5,0.1-0.7c0.1-0.2,0.1-0.4,0.3-0.6c0.1,0,0.1,0,0.2,0
						c0,0,0.1,0.1,0,0.1c-0.1,0.2-0.3,0.5-0.3,0.8c0,0.3,0,0.6,0.1,0.8c0,0.1,0,0.2,0,0.2C97.7,187,97.6,186.9,97.6,186.9z"/>
				</g>
				<g>
					<path class="st0" d="M97.8,181.6c0.1,0.2,0.2,0.4,0.4,0.6c0.1,0.2,0.4,0.2,0.6,0.4c0.2,0.1,0.3,0.4,0.5,0.5
						c0.2,0.1,0.5,0.1,0.7,0.1c0.2,0,0.5,0.1,0.7,0c0.2,0,0.4-0.2,0.6-0.3c0.2-0.1,0.3-0.3,0.5-0.5c0.2-0.2,0.3-0.3,0.4-0.5
						c0-0.1,0.1-0.1,0.2-0.1c0.1,0,0.2,0.2,0.1,0.2c-0.1,0.2-0.3,0.5-0.5,0.7c-0.2,0.2-0.4,0.3-0.6,0.5c-0.2,0.1-0.5,0.3-0.7,0.3
						c-0.3,0.1-0.5,0.1-0.8,0c-0.3,0-0.5-0.1-0.7-0.2c-0.2-0.1-0.4-0.3-0.6-0.5c-0.2-0.2-0.4-0.3-0.6-0.5c-0.2-0.2-0.3-0.4-0.4-0.7
						c0-0.1,0-0.1,0.1-0.1C97.7,181.6,97.8,181.6,97.8,181.6z"/>
				</g>
				<g>
					<path class="st0" d="M95.7,184.2c-0.1-0.2-0.3-0.2-0.5-0.2c-0.2,0-0.4,0-0.6,0.1c-0.2,0.1-0.4,0.2-0.6,0.4
						c-0.2,0.2-0.3,0.3-0.5,0.5c0,0.1-0.1,0.1-0.1,0c0,0-0.1-0.1,0-0.1c0.1-0.2,0.3-0.4,0.4-0.6c0.2-0.2,0.4-0.3,0.6-0.5
						c0.3-0.1,0.5-0.2,0.8-0.1c0.3,0,0.6,0.2,0.7,0.5c0,0.1,0,0.2-0.1,0.2C95.9,184.2,95.8,184.2,95.7,184.2z"/>
				</g>
				<g>
					<path class="st0" d="M94,186.5c0.2,0,0.4,0.2,0.6,0.3c0.2,0.1,0.3,0.3,0.4,0.5c0.1,0.2,0.2,0.4,0.2,0.6c0,0.2,0,0.4,0,0.6
						c0,0.1-0.2,0.2-0.2,0.1c-0.1,0-0.1-0.1-0.1-0.2c0.1-0.3,0-0.6-0.2-0.9c-0.1-0.3-0.4-0.6-0.6-0.6c0,0,0,0,0,0
						c-0.1,0-0.2-0.1-0.2-0.2C93.8,186.6,93.9,186.5,94,186.5z"/>
				</g>
				<g>
					<path class="st0" d="M89.3,189.6c0.2-0.2,0.4-0.3,0.6-0.4c0.2-0.1,0.5-0.2,0.7-0.2c0.2,0,0.5-0.1,0.7,0c0.2,0,0.5,0.1,0.7,0.2
						c0.2,0.1,0.4,0.2,0.6,0.4c0.2,0.2,0.3,0.4,0.5,0.6c0,0.1,0,0.1-0.1,0.2c-0.1,0-0.1,0-0.1,0c-0.2-0.2-0.4-0.3-0.6-0.5
						c-0.2-0.1-0.5-0.2-0.7-0.3c-0.2-0.1-0.5-0.2-0.7-0.2c-0.3,0-0.5,0.1-0.7,0.1c-0.2,0.1-0.5,0.1-0.7,0.3c-0.1,0-0.1,0.1-0.1,0
						C89.3,189.7,89.2,189.6,89.3,189.6z"/>
				</g>
			</g>
		</g>
	</g>
	<g>
		<g>
			<path d="M85.6,115.5c0,0,0,0.1-0.1,0.1c0,0-4.8,1.4-6.9,1c-0.7-0.1-1.1,0.1-1.7-0.1c-0.7-0.3-2-0.2-2.4-0.6
				c-0.2-0.2-0.5-0.5-0.7-0.7c-0.1-0.1-0.5,0-0.8,0.1c-0.1,0.1-0.4,0.6-0.5,0.2c-0.2,0.1-0.5,0.1-0.6,0.1c-0.6,0.3-0.3,0.2-0.8,0.2
				c-0.4,0-0.3,0.2-0.6,0.1c-0.6-0.1-1.1-0.3-1.2-0.9c0-0.2-0.1-0.3-0.2-0.5c0-0.2-0.3,0.2-0.4,0.3c-0.2,0.2-1.5,0.5-1.7,0.5
				c-0.4,0.1-1.5,0.2-2.1,0.3c-0.6,0.1-1,0.1-1.9,0.3c-0.1,0-0.5,0.1-0.6,0c-0.2-0.2-0.1,0-0.2,0.1c0,0.1-0.1,0.1-0.1,0.1
				c-0.5,0.1-0.9,0.3-1.4,0.3c-0.5,0-1.1-0.2-1.7,0c-0.1,0-0.1,0-0.2,0c-0.3,0-0.5-0.1-0.9,0c-0.6,0.3-1.2,0-1.6-0.4
				c-0.3-0.3-0.6-0.5-0.7-1c0-0.3,0.1-0.3,0.3-0.3c0.5,0,0.8,0.3,1.1,0.6c0.1,0.1,0.2,0.2,0.3,0.2c0.2,0,0.1-0.2,0.1-0.3
				c0.1-0.6-0.5-1.4-0.9-1.8c-0.1-0.1-0.2-0.2-0.3-0.3c-0.1-0.2-0.2-0.2-0.4-0.2c-0.2,0.1-0.3,0.1-0.3,0.4c0,0.2-0.3,0.3-0.5,0.4
				c-0.2,0.1-0.9,0.7-0.9,0.7c-0.6,0-1.1,0.5-1.7,0.7c-0.7,0.2-0.5,0.2-1.2,0.5c-0.8,0.3-1.6,0.6-2.4,0.9c-0.9,0.3-2.8-0.1-3.8,0.2
				c0,0,0,0,0,0c-0.9-0.5-2.1-0.5-2.8-1.3c-0.2-0.3-0.4-0.1-0.8,0c-0.2,0-0.3,0.2-0.5,0.3c-0.1,0-0.2,0-0.2,0.1
				c0.1,0.2-0.1,0.1-0.3,0.2c-0.3,0.1-0.3,0.5-0.4,0.2c0-0.1-0.1,0-0.2,0c-0.1,0-0.3-0.2-0.3,0c-0.1,0.2,0.1,0.3-0.3,0.1
				c0.1-0.1-0.3,0.2-0.2,0c0.1-0.1,0,0-0.1,0c-0.3,0-1.4,0.2-1.6-0.4c-0.2-0.6-0.1-0.7,0.1-1s0.3-0.6,0.3-0.6c0.3,0,0.3-0.5,0.5-0.8
				c0,0.2,0.3-0.1,0.4-0.1c0.1,0,0.4-0.1,0.3-0.2c0,0,0.2-0.2,0.3-0.2c0.1,0,0.2,0,0.4-0.1s0.3,0,0.5,0c0.7,0,0.3-0.1,0.7-0.1
				s0.6,0.1,0.7,0.2c0.1,0.1,0.3,0.3,0.2,0.4c-0.1,0.1-0.5,0.2-0.5,0.1c-0.2-0.1-0.9,0.1-1.3,0.2s-0.6,0.3-0.9,0.5
				c-0.3,0.2-0.8,0.7-0.6,1.2c0.2,0.7,1.6,0.2,2.5-0.2c0.4-0.2,0.7-0.5,0.8-0.8c0.1-0.3,0.1-0.4,0.1-0.6c-0.1-0.2,0-0.3,0.3-0.4
				c0.1,0,0.1-0.1,0.1-0.1c0.1-0.2,0.4-0.6,0.6-0.7c0.2-0.1,0.5-0.2,0.6,0c0.1,0.2,0.2,0.3,0,0.6c-0.9,1.2-0.5,1.9,0.4,2.4
				c0.3,0.2,0.6,0.4,1,0.4c0.3,0,1.3,0.3,1.6,0.3c0.8,0,2.4,0.1,3.1-0.2c0.9-0.4,0.8-0.2,1.7-0.6c0.5-0.2,1.4-0.6,1.8-0.7
				c0.5-0.2,1.1-0.7,1.5-1c0.2-0.1,0.3-0.4,0.7-0.3c0,0,0.1-0.1,0.1-0.2c-0.1-0.2,0-0.4,0.1-0.4c0.4,0,0.5-0.2,0.4-0.4
				c-0.2-0.3,0-0.3,0.2-0.3c0.4,0,0.8,0.1,1,0.6c0.1,0.4,0.4,0.7,0.7,0.9c0.4,0.5,0.9,1.3,0.8,1.9c-0.1,0.3,0.1,0.3,0.3,0.4
				c0.6,0.1,1.1,0,1.7,0c0.3,0,1.6-0.1,2.9-0.3c1.3-0.2,3.1-0.4,4.6-0.9c0.6-0.2,1.3-0.9,1.3-1.5c0-0.2,0.3-0.6,0.6-0.7
				c0.4-0.2,0.3,0,0.5,0.3c0.1,0.2-0.1,0.5-0.1,0.7c0,0.4-0.6,1-0.3,1.3c0.3,0.5,0.5,0.8,1.1,0.7c0.3,0,0.5-0.1,0.8-0.2
				c0.5-0.2,0.1-0.2,0.7-0.5c0.4-0.2,0.6-0.5,0.5-0.8c-0.2-0.4,0.1-0.9,0.4-1.2c0.3-0.3,0.3-0.4,0.8-0.3c0.2,0.1,0.1,0.1,0.2,0.3
				c0.1,0.2,0.1,0.4-0.1,0.6c-0.5,0.5-0.2,0.9,0.4,1.6c0.5,0.5,0.7,0.6,1.7,0.8c1,0.2,2.7,0.5,3.7,0.4c1,0,2.4,0,3.8-0.4
				C85.3,115.5,85.5,115.5,85.6,115.5C85.6,115.5,85.6,115.5,85.6,115.5z"/>
		</g>
		<g>
			<path d="M29.4,118.4c-0.3,0.1-0.5,0.3-0.8,0.3c-0.3,0.1-0.5,0.4-0.8,0.3c-0.2-0.1-0.4,0.1-0.5,0.2c-1,0.6-2.2,0.9-3.2,1.6
				c-0.6,0.4-1.2,0.7-1.7,1c-0.7,0.4-1.4,0.9-2,1.4c-0.1,0.1-0.1,0.2-0.3,0.1c-0.1,0-0.2,0.2-0.2,0.2c0.1,0.5-0.1,0.8-0.2,1.2
				c-0.2,0.5-0.4,1.1-0.7,1.6c-0.1,0.2,0,0.5-0.2,0.6c-0.3,0.3-0.4,0.7-0.7,1.1c-0.2,0.4-0.6,0.6-0.8,1c-0.2,0.4-0.5,0.4-0.7,0.3
				c-0.3-0.1-0.6,0-0.8-0.4c0-0.1-0.5,0-0.2-0.4c-0.3,0.1-0.4,0-0.4-0.3c0-0.2-0.1-0.5,0-0.6c0.3-0.5,0.4-1.1,0.7-1.7
				c0.3-0.5,0.5-0.9,1-1.2c0.4-0.3,0.7-0.8,1.1-1.1c0.4-0.2,0.8-0.5,1.1-0.9c0.1-0.1,0.1-0.1,0.1-0.2c0.1-0.7,0.5-1.4,0.5-2.2
				c0-0.4,0.1-0.8,0.2-1.2c0.1-0.2,0.1-0.5,0.1-0.7c0.1-1,0.2-2,0.2-3c0-0.6,0-1.3-0.2-1.9c-0.3-0.7-0.9-0.8-1.5-0.4
				c-0.7,0.4-1.3,0.8-1.9,1.3c-0.1,0.1-0.4,0.2-0.5,0.2c-0.3,0.1-0.3,0.4-0.7,0.5c-1,0.3-1.8,0.1-2.5-0.5c-0.5-0.4-0.6-0.9-0.6-1.5
				c0-1.1,0.8-2,1.1-3c0.1-0.5,0.4-0.9,0.5-1.4c0.2-0.7,0.2-1.2-0.7-1.8c-0.6-0.3-1.2-0.4-1.8-0.5c-0.9-0.2-1.7-0.3-2.6-0.3
				c-0.1,0-0.3-0.1-0.3,0.2c0,0.1-0.2,0.1-0.3,0c-0.2-0.2-0.5-0.3-0.8-0.5c-0.1-0.1-0.1-0.1-0.1-0.3c0.1-0.1,0.2-0.1,0.3-0.1
				c1,0.1,2.1,0,3.1,0.3c0.8,0.2,1.7,0.2,2.5,0.6c0.6,0.3,1.2,0.5,1.5,1.3c0.1,0.4,0.1,0.9,0,1.3c-0.1,0.7-0.5,1.3-0.7,1.9
				c-0.3,0.8-0.8,1.5-0.8,2.3c0,1.1,0.9,1.7,1.9,1.3c0.9-0.3,1.6-0.9,2.4-1.3c0.8-0.5,1.6-0.9,2.6-0.4c0.2,0.1,0.4,0.2,0.5,0.5
				c0.1,0.2,0.1,0.4,0.3,0.6c0.4,0.4,0.3,0.9,0.2,1.3c-0.1,0.3,0,0.7,0,1c0.1,0.7-0.1,1.3-0.1,1.9c0,0.6-0.3,1.1-0.3,1.7
				c0,0.6-0.1,1.2-0.3,1.8c-0.1,0.2-0.3,0.2-0.3,0.5c0,0.2,0.1,0.2,0.2,0.2c0.2,0.1,0.1-0.1,0.1-0.2c0.1-0.2,0.9-0.6,1.1-0.5
				c0.1,0,0.2,0,0.2-0.1c0.1-0.3,0.3-0.4,0.7-0.5c0.2,0,0.1-0.2,0.3-0.3c0.2-0.1,0.4-0.3,0.7-0.2c0.1-0.3,0.5-0.2,0.7-0.4
				c0.4-0.3,0.9-0.5,1.4-0.7c0.3-0.1,0.6-0.4,1-0.5c0.5-0.2,0.9-0.4,1.5-0.5c0.3,0,0.5-0.3,0.7-0.4C29.1,117.9,29.3,118,29.4,118.4
				L29.4,118.4z M18.4,124.1c0,0.1,0.2,0.2,0,0.3c-0.3,0.1-0.5,0.4-0.7,0.6c-0.3,0.2-0.6,0.5-0.7,0.7c-0.6,0.8-0.9,1.6-0.7,2.6
				c0.1,0.3,0.2,0.4,0.4,0.5c0.1,0.1,0.2,0,0.3-0.1c0.4-0.4,0.6-0.8,0.9-1.2c0.2-0.4,0.3-0.7,0.5-1.1c0.1-0.1,0.2-0.2,0.2-0.4
				c0.1-0.4,0.4-0.8,0.3-1.3c0-0.2,0.3-0.1,0.3-0.3c0-0.2,0.4-0.8-0.4-0.4C18.7,124.2,18.6,124,18.4,124.1z"/>
			<path d="M29.4,118.4C29.4,118.4,29.5,118.4,29.4,118.4c-0.1-0.6,0.3-0.6,0.6-0.7c0.8-0.3,1.7-0.5,2.5-0.7c0.7-0.2,1.4-0.4,2-0.6
				c0.3-0.1,0.6-0.2,0.8-0.1c0.2,0.1,0.2-0.1,0.4-0.1c0.1,0,0.2-0.1,0.3,0c0,0.1,0,0.2-0.2,0.2c-0.3,0.1-0.7-0.1-1,0.1
				c-0.1-0.4-0.2,0.3-0.3,0c-0.3,0.4-0.8,0.2-1.1,0.4c-0.2,0.1-0.4,0.2-0.6,0.1c-0.1-0.1-0.2-0.1-0.3,0c-0.2,0.2-0.3,0.4-0.5,0.1
				c-0.2,0.3-0.6,0.1-0.8,0.4c-0.2,0.3-0.6,0.2-0.9,0.4c-0.2,0.1-0.4,0.2-0.6,0.3C29.6,118.4,29.5,118.5,29.4,118.4
				C29.4,118.4,29.4,118.4,29.4,118.4z"/>
		</g>
		<path d="M91.6,114.2c0.2,0,0.3,0,0.3,0.2c0,0.1,0.1,0.3-0.2,0.1c-0.1,0-0.1,0.1-0.1,0.1c0.4,0.7,0,1.7,0.4,2.4
			c0.1,0.1,0.1,0.4-0.1,0.5c0,0-0.1,0.1-0.1,0.1c0.3,0.5-0.2,1-0.2,1.5c0,0.3,0.2,0.1,0.3,0.1c0.4,0,0.4,0,0.8-0.1
			c0.4,0,1.1-0.2,1.4-0.4c0.1-0.1,0.2-0.1,0.4-0.1c0.7,0,0.5-0.2,1.2-0.4c0,0,0.7-0.3,0.8-0.3c0.4,0,1.2-0.5,1.6-0.6
			c0.4-0.1,0.5-0.2,1-0.4c0.7-0.2,2.2-1,3.1-1.6c0.2-0.1,0.7-0.4,0.7-0.4c0.4-0.2,0.2-0.2,0.7-0.5c-0.1,0.2,0.4,0.3,0.1,0.4
			c-0.1,0-0.1,0-0.2,0.1c0,0-0.1,0-0.1,0.1c-0.4-0.2-0.3,0.4-0.6,0.4c-0.3,0-0.2,0.3-0.6,0.4c0-0.1-0.1,0-0.1,0
			c0-0.1,0.1-0.1,0.2-0.1c-0.1,0-0.1-0.1-0.2-0.1c-0.1,0-0.2,0.1-0.2,0.2c0.1,0.2-0.1,0.3-0.2,0.3c-0.6-0.2-0.3-0.1-0.5,0.3
			c0,0-0.1,0.1-0.2,0.1c0,0-0.2,0.1-0.2,0.1c-0.1-0.1,0,0,0-0.1c-0.4-0.1-0.3,0-0.4,0.2c-0.2,0-0.1,0-0.2,0.1
			c-0.1,0.1-0.1,0.2-0.2,0.1c-0.1-0.1-0.1,0.1-0.2,0.1c0.1,0.1-0.3,0-0.3,0.1c-0.5,0.2-0.7,0.3-1.1,0.6c-0.1,0-0.1,0-0.1,0.1
			c-0.2,0-0.3,0.4-0.6,0.1c0,0-0.1,0-0.1,0c0,0.4-0.3,0.1-0.4,0.2c-0.1,0-0.2,0-0.3,0.2c-0.3,0.4-1.3,0.5-1.7,0.6
			c-0.9,0.3-1.2,0.4-2.1,0.8c-0.5,0.2-1,0.3-1.5,0.5c-0.2,0.1-0.4,0.2-0.4,0.5c0,0.3-0.3,0.6-0.5,0.9c-0.3,0.5-0.7,0.9-1.1,1.5
			c-0.1,0.2-0.4,0.4-0.7,0.6c-0.3,0.2-0.6,0.4-0.8,0.6c-0.3,0.2-0.6,0.3-0.8,0.3c-0.3,0-0.7,0-0.9-0.2c-0.2-0.2-0.5-0.4-0.6-0.7
			c-0.1-0.4,0.2-1.2,0.4-1.6c0.2-0.2,0.4-0.4,0.6-0.6c0.4-0.4,1-0.5,1.4-0.7c0.6-0.2,1.2-0.6,1.8-0.7c0.5-0.1,0.7-0.6,1.1-0.8
			c-0.1-0.3,0.1-0.5,0.1-0.8c0-0.6,0.1-1.2,0-1.8c-0.1-0.5-0.2-1-0.2-1.5c0-0.2,0.1-0.4,0-0.6c-0.2,0.1-0.3,0.3-0.5,0.4
			c-0.6,0.4-1.2,0.7-1.9,0.4c-0.6-0.3-1-0.7-0.9-1.4c0-0.6,0.6-1,1.3-0.8c0.5,0.1,1,0.2,1.3,0.6c0.1,0.1,0.3,0.2,0.5,0
			c0.5-0.5,0.5-0.4,1-0.1C92,113.9,92,113.9,91.6,114.2z M86.5,123.4c0,0.3,0.4,0.6,0.6,0.5c0.5-0.2,1-0.4,1.3-0.8
			c0.6-0.7,1.4-1.3,1.7-2.2c0-0.1,0-0.2,0-0.2c0-0.1-0.1,0-0.1,0c0,0.2-0.2,0.1-0.3,0.1c-0.3,0.2-0.6,0.3-0.9,0.4
			c-0.3,0.1-0.6,0.1-0.8,0.4c0,0-0.1,0.1-0.1,0c-0.2-0.1-0.3-0.3-0.3,0.1c-0.5-0.1-0.5,0.7-0.9,0.6c0,0-0.1,0.1,0,0.1
			C86.7,122.8,86.3,123.1,86.5,123.4z M88.5,114.3c0.1,0.2-0.1,0.6,0.5,0.6c0.4,0,0.6-0.2,0.8-0.5c0.1-0.2-0.5-0.7-0.8-0.7
			C88.5,113.7,88.5,114,88.5,114.3z"/>
		<path d="M136.2,112.8c-0.1,0.1-0.4,0.1-0.4,0.2c-0.3,0.2-0.7-0.2-0.8,0.1c0,0-0.2,0.1-0.2,0.1c-0.6-0.1-0.9,0.1-1.4,0.3
			c-0.2,0-0.5,0.1-0.5,0.1c-0.6-0.1-1.5,0.2-1.9,0.4c-0.4,0.3-1,0.2-1.4,0.4c-0.6,0.2-0.9,0.3-1.5,0.4c-1,0.2-1.6,0.2-2.5,0.6
			c-0.1,0-0.6,0.2-0.7,0.2c-0.5,0-1,0.3-1.4,0.3c-0.4,0-0.6,0.2-1,0.3c-0.7,0-1,0.1-1.7,0.1c-0.8,0-1.8,0.3-2.6,0.4
			c-0.3,0-1.8,0.2-2,0.2c-0.9-0.1-1.4-0.1-2.4-0.2c-1-0.1-2.5-0.2-3.3-0.6c-0.3-0.1-0.6-0.3-0.9-0.4c0,0-0.4-0.1-0.4-0.1
			c-0.3-0.4-1-0.5-1.1-0.7s-0.5-0.3-0.6-0.8c0-0.1-0.4-0.5-0.4-0.6c-0.1-0.5-0.5,0-0.8,0.1c-0.1,0-0.3,0.2-0.3,0.1
			c-0.1-0.1,0-0.2,0-0.3c0-0.2,0.2-0.2,0.2-0.1c0.3,0.1,0.3-0.2,0.5-0.3c0.1-0.1,0.3-0.3,0.6-0.7s0.3-0.6,0.5-0.9
			c0.2-0.4,0.2-0.6,0.6-0.5c0.1,0,0.1,0,0.1,0.1c0,0,0,0.2,0,0.4c-0.1,0.2-0.3,0.7-0.4,1c-0.2,0.2-0.5,0.8-0.3,0.9
			c0.2,0.2-0.2-0.1-0.1,0.2c0,0.1-0.1,0.2,0,0.2c0.2,0,0.3-0.1,0.1,0.1c0,0,0,0.1,0,0.2c0,0.4,0.4,0.3,0.7,0.7s1.7,0.9,2.5,1.2
			c0.8,0.3,2.8,0.5,3.5,0.6s2.2,0.2,3.1,0.1c0.2,0,0.3-0.1,0.5-0.1c0.3,0,0.6,0,0.9-0.1c1.4-0.1,3.1-0.2,4.5-0.5
			c1.1-0.2,1.9-0.5,3-0.7c0.8-0.1,1.2-0.2,1.9-0.4c0.7-0.2,1.6-0.5,2.3-0.7c0.7-0.2,1.8-0.6,2.6-0.6c0.3,0,1-0.3,1.2-0.1
			c0,0,0.1,0,0.1,0c0.2-0.2,0.2-0.2,0.7-0.2c0.1,0,0.1,0,0.2-0.1C135.8,112.7,136,112.6,136.2,112.8z"/>
		<path d="M110.1,104.6c0-0.2,0.2,0,0.1-0.2c-0.1-0.1,0-0.3,0.1-0.3c0.2-0.1,0.4-0.2,0.5-0.1c0.1,0.1,0.1,0,0.2,0.1
			c0.3,0.1,0.1,0,0.4,0.2c0.2,0.1,0.2,0.3,0.1,0.5c0,0.1,0,0.2,0,0.3c0,0.1-0.2,0.1-0.2,0.2c-0.1,0.1-0.2,0.1-0.3,0.2
			c-0.2,0.1-0.5,0-0.7,0.1c-0.1,0-0.1,0-0.1-0.1c-0.1-0.1,0-0.2-0.1-0.3c-0.1,0-0.1-0.3,0-0.3c0.1-0.1,0-0.1,0.1-0.1
			C110.2,104.8,110,104.5,110.1,104.6z"/>
		<path d="M104.2,114.6c0-0.1,0-0.1,0-0.3c-0.1,0.4-0.3,0.6-0.7,0.5c0.1-0.1,0.1-0.3,0.4-0.5c0.1,0,0.2-0.4,0.3-0.2
			c0.1,0.1,0.2,0,0.2,0c-0.1-0.2,0.2-0.2,0.3-0.2c0.5,0.1,0.2,0.1,0.1,0.3c0,0.1-0.1,0.2-0.2,0.2c-0.1,0-0.2,0-0.2,0.1
			C104.5,114.6,104.2,114.5,104.2,114.6z"/>
		<path d="M105.8,113.3c0,0.2-0.3,0.4-0.4,0.6c0,0.1-0.1,0.2-0.2,0.1c-0.1-0.1-0.1-0.2-0.1-0.2C105.3,113.5,105.4,113.2,105.8,113.3
			z"/>
		<path d="M136.4,112.7c0-0.1,0-0.2,0.2-0.2c0.2-0.1,0.9-0.1,1.2-0.1c0,0,0.1,0,0.1,0.1c0,0.1-0.5,0.1-0.6,0.1c0,0,0,0,0,0
			C136.9,112.6,136.6,112.7,136.4,112.7z"/>
	</g>
</g>
</svg>
