<?xml version="1.0" encoding="utf-8"?>
<!-- Generator: Adobe Illustrator 25.0.0, SVG Export Plug-In . SVG Version: 6.00 Build 0)  -->
<svg version="1.1" id="レイヤー_1" xmlns="http://www.w3.org/2000/svg" xmlns:xlink="http://www.w3.org/1999/xlink" x="0px"
	 y="0px" width="43px" height="43px" viewBox="0 0 43 43" style="enable-background:new 0 0 43 43;" xml:space="preserve">
<g>
	<path d="M21.5,3.97c5.71,0,6.39,0.02,8.64,0.12c2.08,0.1,3.22,0.44,3.97,0.74c1,0.39,1.71,0.85,2.46,1.6
		c0.75,0.75,1.21,1.46,1.6,2.46c0.29,0.75,0.64,1.89,0.74,3.97c0.1,2.25,0.12,2.93,0.12,8.64s-0.02,6.39-0.12,8.64
		c-0.1,2.08-0.44,3.22-0.74,3.97c-0.39,1-0.85,1.71-1.6,2.46c-0.75,0.75-1.46,1.21-2.46,1.6c-0.75,0.29-1.89,0.64-3.97,0.74
		c-2.25,0.1-2.93,0.12-8.64,0.12s-6.39-0.02-8.64-0.12c-2.08-0.1-3.22-0.44-3.97-0.74c-1-0.39-1.71-0.85-2.46-1.6
		c-0.75-0.75-1.21-1.46-1.6-2.46c-0.29-0.75-0.64-1.89-0.74-3.97c-0.1-2.25-0.12-2.93-0.12-8.64s0.02-6.39,0.12-8.64
		c0.1-2.08,0.44-3.22,0.74-3.97c0.39-1,0.85-1.71,1.6-2.46c0.75-0.75,1.46-1.21,2.46-1.6c0.75-0.29,1.89-0.64,3.97-0.74
		C15.11,3.99,15.79,3.97,21.5,3.97 M21.5,0.12c-5.81,0-6.54,0.02-8.82,0.13c-2.28,0.1-3.83,0.47-5.19,0.99
		C6.09,1.79,4.9,2.52,3.71,3.71C2.52,4.9,1.79,6.09,1.24,7.49c-0.53,1.36-0.89,2.91-0.99,5.19c-0.1,2.28-0.13,3.01-0.13,8.82
		c0,5.81,0.02,6.54,0.13,8.82c0.1,2.28,0.47,3.83,0.99,5.19c0.55,1.41,1.28,2.6,2.47,3.79c1.19,1.19,2.38,1.92,3.79,2.47
		c1.36,0.53,2.91,0.89,5.19,0.99c2.28,0.1,3.01,0.13,8.82,0.13s6.54-0.02,8.82-0.13c2.28-0.1,3.83-0.47,5.19-0.99
		c1.41-0.55,2.6-1.28,3.79-2.47c1.19-1.19,1.92-2.38,2.47-3.79c0.53-1.36,0.89-2.91,0.99-5.19c0.1-2.28,0.13-3.01,0.13-8.82
		s-0.02-6.54-0.13-8.82c-0.1-2.28-0.47-3.83-0.99-5.19c-0.55-1.41-1.28-2.6-2.47-3.79c-1.19-1.19-2.38-1.92-3.79-2.47
		c-1.36-0.53-2.91-0.89-5.19-0.99C28.04,0.14,27.31,0.12,21.5,0.12L21.5,0.12z"/>
	<path d="M21.5,10.52c-6.06,0-10.98,4.92-10.98,10.98s4.92,10.98,10.98,10.98s10.98-4.92,10.98-10.98S27.56,10.52,21.5,10.52z
		 M21.5,28.63c-3.94,0-7.13-3.19-7.13-7.13s3.19-7.13,7.13-7.13s7.13,3.19,7.13,7.13S25.44,28.63,21.5,28.63z"/>
	<circle cx="32.91" cy="10.09" r="2.57"/>
</g>
</svg>
