<?xml version="1.0" encoding="utf-8"?>
<!-- Generator: Adobe Illustrator 24.3.0, SVG Export Plug-In . SVG Version: 6.00 Build 0)  -->
<svg version="1.1" id="レイヤー_1" xmlns="http://www.w3.org/2000/svg" xmlns:xlink="http://www.w3.org/1999/xlink" x="0px"
	 y="0px" width="278px" height="66.8px" viewBox="0 0 278 66.8" style="enable-background:new 0 0 278 66.8;" xml:space="preserve">
<style type="text/css">
	.st0{fill:#F7931E;}
	.st1{fill:#FFFFFF;}
</style>
<path class="st0" d="M269.8,66.8H8.3c-4.6,0-8.3-3.7-8.3-8.3V0.2h278v58.3C278,63.1,274.3,66.8,269.8,66.8z"/>
<g>
	<path class="st1" d="M84.4,33.8c-1.6,0-4.1-0.1-6.8-0.1c-0.1,4.4-1.4,7.5-5.6,9.5l-2-1.7c4-1.5,5.4-4.2,5.4-7.4v-0.4
		c-3.2,0-6.3,0-8.1,0.1v-2c1.9,0.1,4.9,0.1,8,0.1c3.4,0,6.9,0,9.1-0.1V33.8z M81.7,28.8c-1.6-0.1-3.8-0.1-6-0.1
		c-2.2,0-4.3,0-5.8,0.1v-2c1.3,0.1,3.4,0.1,5.4,0.1c2.3,0,4.6,0,6.3-0.1V28.8z"/>
	<path class="st1" d="M96.2,42.9c0-2.4,0.1-5.1,0.1-7.6c0-0.7,0-1.5,0-2.1c-2.2,1.5-4.6,2.8-7,4.1l-1.6-1.8
		c5.1-2.2,11.7-6.4,14.2-10.1l2,1.4c-1.6,1.7-3.3,3.3-5.3,4.8c-0.1,1.8-0.1,3.8-0.1,5.8c0,1.9,0,3.8,0.1,5.6H96.2z"/>
	<path class="st1" d="M109.6,41c6.9-1.4,10.8-5.8,12.1-10.7c-0.5,0-1,0-1.6,0c-1.7,0-3.6,0.1-5.2,0.1c-1.3,1.8-3,3.4-5.2,4.7
		l-1.8-1.5c3.9-1.9,6.2-5.1,7-8.1l2.2,0.6c-0.3,0.7-0.6,1.5-1,2.2h1c1.9,0,4,0,5.7-0.1l1.5,1.4c-2,6.3-5,11.1-12.7,13.3L109.6,41z"
		/>
	<path class="st1" d="M137.1,34c2.8-1.1,4.2-3,4.8-5h-1.4c-3.4,0-8.7,0.1-12.3,0.2l-0.1-2.2c2.4,0.1,5.7,0.1,8.6,0.1
		c2.5,0,4.9,0,6.2-0.1l1.7,1.3c-1.2,3.2-2.8,5.8-5.8,7.5L137.1,34z M128.6,41c4.9-1.7,6-5.4,6-9.2c0-0.3,0-0.6,0-0.9L137,31
		c-0.4,5.4-1.1,9.1-6.6,11.8L128.6,41z"/>
	<path class="st1" d="M151.3,40.6c6.5-0.7,9.8-4.4,10.3-9.9h-3.8c-2.4,0-5.2,0-6.9,0c0,0.5-0.1,1.3-0.1,2.1s0,1.8,0,2.6l-2.2,0
		c0-1,0.1-2.3,0.1-3.7c0-1.1,0-2.2-0.1-3.1c1.4,0.1,4,0.1,6.6,0.1c0-0.5,0-1,0-1.5c0-0.7,0-1.4,0-2l2.3,0c-0.1,0.7-0.1,1.4-0.1,2.2
		c0,0.4,0,0.9,0,1.3c2.2,0,4.2,0,5-0.1l1.6,1.1c-0.9,6.4-2.9,11.2-11.2,12.9L151.3,40.6z"/>
	<path class="st1" d="M172.9,43.2c0.1-3.3,0.1-8.6,0.1-13c0-1.8,0-3.5,0-4.8l2.3,0c0,1.7-0.1,4-0.1,6.6l1.1-1.2
		c2.2,1,5.3,2.5,7.3,3.9l-1.3,1.9c-2.2-1.6-4.7-3-7.2-4.1v2.7c0,2.9,0,5.9,0.1,8L172.9,43.2z"/>
	<path class="st1" d="M195.8,40.3c0.6,0.1,1,0.1,1.4,0.1c0.9,0,1.3-0.3,1.3-1.2v-0.1c0-2,0-4.8-0.1-7.7c-1.7,3.6-4.3,6.8-8.6,9.5
		l-2.1-1.5c3.6-1.8,6.8-4.9,8.3-8c-2.9,0-5.7,0-7.6,0.1v-2c2.4,0.1,6.3,0.1,9.9,0.1c0-1.4-0.1-2.7-0.1-3.8l2.2,0c0,1,0,2.3,0,3.8
		c1.7,0,3.3,0,4.4-0.1v1.9c-1.1,0-2.7,0-4.4-0.1c0,3,0.1,6.2,0.2,8.1c0,0.2,0,0.4,0,0.5c0,1.9-0.6,2.5-4.2,2.8L195.8,40.3z"/>
	<path class="st1" d="M224.8,35.2c-1.8-0.1-5-0.1-8.3-0.1c-3.3,0-6.6,0-8.4,0.1V33c1.4,0,4.6,0.1,7.8,0.1c3.7,0,7.5,0,8.9-0.1V35.2z
		"/>
	<path class="st1" d="M228.4,41.2c3.8-0.9,6.9-2.4,9.2-4.5c-1.1-1-2.7-2.1-4.1-2.8l1.4-1.4c1.4,0.7,2.9,1.7,4.2,2.6
		c1.2-1.4,2.1-3.1,2.7-4.9c-1.7,0-4.6,0-7.1,0c-1.2,1.6-2.7,3.2-4.7,4.8l-1.8-1.4c3.7-2.5,5.6-5.3,6.8-8l2.2,0.6
		c-0.4,0.7-0.8,1.5-1.2,2.2h2.1c1.8,0,3.7,0,5.4-0.1l1.1,1c-3.1,8-6.6,11.4-14.6,13.9L228.4,41.2z M243.3,27.7
		c-0.6-0.7-1.3-1.4-2-2.1l1.1-0.9c0.7,0.6,1.5,1.3,2.1,2L243.3,27.7z M245.7,27c-0.6-0.7-1.3-1.4-2-2l1.1-0.9c0.7,0.6,1.4,1.3,2,1.9
		L245.7,27z"/>
	<path class="st1" d="M264.9,35.2c-1.8-0.1-5-0.1-8.3-0.1c-3.3,0-6.6,0-8.4,0.1V33c1.4,0,4.6,0.1,7.8,0.1c3.7,0,7.5,0,8.9-0.1V35.2z
		"/>
</g>
<g>
	<path class="st1" d="M24.4,22.1v-4.4c0-0.6,0.5-1.1,1.1-1.1h14.6c0.6,0,1.1,0.5,1.1,1.1v4.4h4.2v-4.4c0-2.9-2.4-5.3-5.3-5.3H25.5
		c-2.9,0-5.3,2.4-5.3,5.3v4.4H24.4z"/>
	<g>
		<polygon class="st1" points="27.6,34.4 29.2,34.4 28.4,32 		"/>
		<path class="st1" d="M25.1,42.5c-0.9,0-1.7,1-1.7,2.3c0,1.2,0.8,2.3,1.7,2.3c0.9,0,1.7-1,1.7-2.3C26.8,43.5,26,42.5,25.1,42.5z"/>
		<path class="st1" d="M52.9,24.4H12.7c-1.1,0-2,0.9-2,2v25.8c0,1.1,0.9,2,2,2h40.2c1.1,0,2-0.9,2-2V26.4
			C54.9,25.3,54,24.4,52.9,24.4z M18.4,31.3v-1.6h6.1v1.6h-2.1V38h-2v-6.7H18.4z M25.1,48.9c-2.1,0-3.8-1.9-3.8-4.2
			c0-2.3,1.7-4.2,3.8-4.2c2.1,0,3.8,1.9,3.8,4.2C28.9,47,27.2,48.9,25.1,48.9z M27.1,36l-0.6,2l-1.9,0l2.7-8.3h2.4l2.7,8.3l-1.9,0
			l-0.6-2L27.1,36z M36.5,45.5c0,1.9-1.5,3.4-3.3,3.4c-1.9,0-3.3-1.5-3.3-3.4v-4.9h2.2v4.7c0,0.9,0.4,1.4,1.2,1.4
			c0.8,0,1.2-0.5,1.2-1.4v-4.7h2.1V45.5z M35.9,34.8l-0.5,0.6V38h-2.2v-8.3h2.2v2.6l2.3-2.6h2.6l-2.9,3.4l3.1,4.8h-2.6L35.9,34.8z
			 M44.2,42.2h-2.1v6.7h-2v-6.7h-2.1v-1.6h6.1V42.2z M47.2,38l-5.6,0v-8.3l5.5,0l0,1.6h-3.7l0,1.6l2.9,0l0,1.6h-2.9l0,1.8h3.7
			L47.2,38z"/>
	</g>
</g>
</svg>
