<?xml version="1.0" encoding="utf-8"?>
<!-- Generator: Adobe Illustrator 24.3.0, SVG Export Plug-In . SVG Version: 6.00 Build 0)  -->
<svg version="1.1" id="レイヤー_1" xmlns="http://www.w3.org/2000/svg" xmlns:xlink="http://www.w3.org/1999/xlink" x="0px"
	 y="0px" width="165px" height="66.8px" viewBox="0 0 165 66.8" style="enable-background:new 0 0 165 66.8;" xml:space="preserve">
<style type="text/css">
	.st0{fill:#0071BC;}
	.st1{fill:#FFFFFF;}
</style>
<path class="st0" d="M158.6,66.8H6.4c-3.5,0-6.4-2.9-6.4-6.4V0h165v60.4C165,63.9,162.1,66.8,158.6,66.8z"/>
<g>
	<path class="st1" d="M70.2,27.6v4.8c0,3.8-0.1,7.4-1.5,10.1L67,40.9c1.2-2.1,1.2-5.4,1.2-9.5v-5.5h7.1v-1.4h2.2v1.4h7.1v1.7H70.2z
		 M70.2,41.7V40h6.3v-2.4h-5.3v-1.6h5.3v-7.8h2v7.8H84v1.6h-5.6V40h6.7v1.7H70.2z M75,34.6c-0.5-0.3-1.1-1-1.7-2.1
		c-0.3,0.8-0.9,1.7-1.5,2.3l-1.5-1.3c2.3-1.9,2.5-5,2.5-5l1.8,0.4c0,0-0.1,0.9-0.6,2.3c0.4,0.5,1.1,1.4,2.2,1.9L75,34.6z M83.5,34.6
		c-0.9-0.6-1.6-1.6-2-2.2c-0.2,0.7-0.8,1.7-1.4,2.3l-1.6-1.2c2-1.8,2.3-5,2.3-5l1.8,0.4c0,0-0.1,0.8-0.5,2.1
		c0.4,0.6,1.2,1.6,2.5,2.2L83.5,34.6z"/>
	<path class="st1" d="M90.2,27.4v4.2c0,4-0.1,7.7-1.5,10.5l-1.6-1.5c1.1-2,1.1-5.2,1.1-9v-5.9h7.1v-1.3h2.2v1.3h7.1v1.7H90.2z
		 M100.2,39.7c2,0,2.3-0.1,2.3-0.6v-2h-3.8v5.4h-1.9v-5.4h-3.4v4.4h-1.9v-6h5.3v-1.4h-3.6v-3.2h-2.3v-1.6h2.3V28h2v1.3h5.3V28h2v1.3
		h2.6v1.6h-2.6v3.2h-3.7v1.4h5.8V39c0,2.2-1.5,2.4-3.4,2.4L100.2,39.7z M100.4,30.9h-5.3v1.7h5.3V30.9z"/>
	<path class="st1" d="M119.3,37c0,0,2.3-1.5,3.4-3.9h-5v6.2c0,2-0.6,3.1-5.2,3.1l-1-1.9c3.7,0,4.1-0.1,4.1-1.1v-6.3h-8.3v-1.8h8.7
		c-1.5-1.4-3.3-2.6-3.3-2.6l1.4-1.2c0,0,1.2,0.8,2.2,1.6c2.1-1,3.5-2.2,3.5-2.2h-10.4v-1.7h13.3v1.7c0,0-2.3,2.1-5,3.4l0.6,0.5
		l-0.6,0.5h7.1v1.6c-0.9,3-3.9,5.6-3.9,5.6L119.3,37z"/>
	<path class="st1" d="M127.1,41.1c0.8-2.4,1.2-5.1,1.2-5.1l1.6,0.2c0,0-0.5,3.6-1.1,5.4L127.1,41.1z M130.4,42.5v-7.4
		c-1.6,0-3,0-3,0l-0.3-1.8c0,0,0.6,0,1.4,0c0.6-0.7,1.2-1.3,1.8-2c-0.8-0.8-2-1.8-3.1-2.6l1.1-1.5c0.2,0.2,0.4,0.3,0.6,0.5
		c0.6-0.7,1.4-1.9,2-3.3l1.8,0.8c-0.7,1.3-1.8,2.8-2.5,3.6c0.4,0.3,0.8,0.7,1,1c1.1-1.5,1.7-2.7,1.7-2.7l1.7,1c0,0-2,3-4.1,5.1
		c0.6,0,1.9,0,2.5-0.1c-0.2-0.3-0.5-0.9-0.5-0.9l1.5-0.7c1,1.7,1.7,3.5,1.7,3.5l-1.7,0.7c0,0-0.1-0.5-0.3-1.1
		c-0.4,0-1.1,0.1-1.6,0.1v7.5H130.4z M133.7,41.2c0,0-0.3-2.3-0.8-4.5l1.5-0.4c0.6,2.4,1.1,4.5,1.1,4.5L133.7,41.2z M138.2,40.4
		c4.3-0.1,4.4,0,4.4-10.3v-1.4h-4.7c-0.6,1.2-1.4,2.4-2.5,3.3l-1.3-1.6c2.5-2.2,3.2-5.8,3.2-5.8l2,0.2c0,0-0.2,0.9-0.6,2.1h5.8
		c0,14.1,0,15.1-5.4,15.5L138.2,40.4z M139,36.9c-1.1-2.6-2.2-4.3-2.2-4.3l1.7-0.9c0,0,1.1,1.7,2.3,4.3L139,36.9z"/>
</g>
<g>
	<path class="st1" d="M36.9,44.3c0,0.5,0.4,0.9,0.9,0.8l1.4-0.3c0.4-0.1,0.6-0.4,0.6-0.8v-4.8l-3,0.6V44.3z"/>
	<path class="st1" d="M48.2,32.5c-1.3-0.8-6.6-4-6.6-4c-0.6-0.3-1.2-0.6-1.7-0.8V11.6c0-0.5-0.4-0.9-0.9-0.8l-1.4,0.3
		c-0.4,0.1-0.6,0.4-0.6,0.8v0.6l-16.5,3.4v-0.2c0-0.5-0.4-0.9-0.9-0.8L18,15.2c-0.4,0.1-0.6,0.4-0.6,0.8v32.4c0,0.5,0.4,0.9,0.9,0.8
		l1.4-0.3c0.4-0.1,0.6-0.4,0.6-0.8V33c0,0,0.1,0.1,0.1,0.1l6.3,4.8c0.4,0.3,0.9,0.6,1.4,0.8v15.4c0,0.5,0.4,0.9,0.9,0.8l1.4-0.3
		c0.4-0.1,0.6-0.4,0.6-0.8V39.3c0.4,0,0.7-0.1,1.1-0.1l13.5-2.8v15.4c0,0.5,0.4,0.9,0.9,0.8l1.4-0.3c0.4-0.1,0.6-0.4,0.6-0.8v-16
		C49.7,34.7,49.5,33.3,48.2,32.5z M21.2,30.2c-0.3,0.1-0.6,0.2-0.8,0.4V24l16.5-3.4v6.6c-0.4,0-0.9,0.1-1.3,0.1L21.2,30.2z"/>
</g>
</svg>
