<?xml version="1.0" encoding="utf-8"?>
<!-- Generator: Adobe Illustrator 25.0.1, SVG Export Plug-In . SVG Version: 6.00 Build 0)  -->
<svg version="1.1" id="レイヤー_1" xmlns="http://www.w3.org/2000/svg" xmlns:xlink="http://www.w3.org/1999/xlink" x="0px"
	 y="0px" width="130px" height="72px" viewBox="0 0 130 72" style="enable-background:new 0 0 130 72;" xml:space="preserve">
<style type="text/css">
	.st0{fill:#1A1A1A;}
	.st1{fill:none;stroke:#4D4D4D;stroke-width:0.3;}
	.st2{fill:none;stroke:#0071BC;stroke-miterlimit:10;}
</style>
<g>
	<g>
		<path class="st0" d="M27.4,32.4v5.1c0,4-0.1,7.8-1.6,10.6L24,46.4c1.2-2.2,1.3-5.7,1.3-10v-5.8h7.5v-1.5h2.3v1.5h7.4v1.8H27.4z
			 M27.3,47.2v-1.8h6.6v-2.5h-5.6v-1.7h5.6V33H36v8.1h5.9v1.7H36v2.5h7v1.8H27.3z M32.4,39.7c-0.5-0.4-1.2-1-1.8-2.2
			c-0.3,0.8-1,1.8-1.6,2.4l-1.6-1.4c2.4-2,2.6-5.3,2.6-5.3l1.9,0.4c0,0-0.1,0.9-0.7,2.4c0.4,0.6,1.2,1.4,2.3,2L32.4,39.7z
			 M41.3,39.7c-1-0.6-1.6-1.7-2.1-2.4c-0.3,0.8-0.8,1.8-1.5,2.4l-1.6-1.3c2.1-1.8,2.4-5.2,2.4-5.2l1.9,0.4c0,0-0.1,0.8-0.6,2.2
			c0.4,0.6,1.3,1.6,2.6,2.3L41.3,39.7z"/>
		<path class="st0" d="M48.4,32.2v4.4c0,4.2-0.1,8.1-1.6,11l-1.7-1.6c1.1-2.1,1.2-5.5,1.2-9.5v-6.2h7.5v-1.3h2.3v1.3h7.4v1.8H48.4z
			 M58.9,45.1c2.1,0,2.4-0.1,2.4-0.7v-2.1h-4V48h-2v-5.6h-3.6V47h-2v-6.3h5.6v-1.4h-3.7v-3.4h-2.4v-1.7h2.4v-1.3h2.1v1.3h5.5v-1.3
			h2.1v1.3h2.7v1.7h-2.7v3.4h-3.9v1.4h6v3.7c0,2.3-1.6,2.5-3.6,2.5L58.9,45.1z M59.1,35.9h-5.5v1.8h5.5V35.9z"/>
		<path class="st0" d="M78.9,42.3c0,0,2.5-1.6,3.5-4.1h-5.3v6.5c0,2.1-0.6,3.2-5.5,3.2l-1-2c3.8,0,4.3-0.1,4.3-1.1v-6.6h-8.7v-1.9
			h9.1c-1.6-1.4-3.5-2.7-3.5-2.7l1.5-1.3c0,0,1.3,0.8,2.3,1.6c2.2-1,3.7-2.3,3.7-2.3H68.4v-1.8h14v1.8c0,0-2.4,2.2-5.2,3.6l0.7,0.5
			l-0.7,0.5h7.4v1.6c-0.9,3.2-4.1,5.9-4.1,5.9L78.9,42.3z"/>
		<path class="st0" d="M87.1,46.6c0.8-2.5,1.3-5.4,1.3-5.4l1.7,0.2c0,0-0.5,3.7-1.1,5.7L87.1,46.6z M90.6,48v-7.8
			c-1.7,0-3.2,0-3.2,0l-0.3-1.9c0,0,0.6,0,1.5,0c0.7-0.7,1.3-1.4,1.8-2.1c-0.8-0.8-2.1-1.9-3.3-2.7l1.2-1.6c0.2,0.2,0.5,0.4,0.7,0.5
			c0.6-0.8,1.4-2,2.1-3.4L93,30c-0.8,1.4-1.9,3-2.6,3.8c0.4,0.4,0.8,0.7,1.1,1c1.2-1.6,1.8-2.8,1.8-2.8l1.8,1c0,0-2.1,3.1-4.3,5.4
			c0.6,0,2,0,2.6-0.1C93.3,38,93,37.5,93,37.5l1.6-0.7c1,1.8,1.8,3.7,1.8,3.7l-1.8,0.7c0,0-0.1-0.5-0.4-1.2c-0.4,0-1.2,0.1-1.7,0.1
			V48H90.6z M94,46.7c0,0-0.3-2.4-0.9-4.7l1.6-0.4c0.7,2.6,1.2,4.7,1.2,4.7L94,46.7z M98.7,45.8c4.5-0.1,4.6,0,4.6-10.8v-1.5h-4.9
			c-0.7,1.2-1.5,2.5-2.6,3.5l-1.4-1.7c2.6-2.3,3.4-6.1,3.4-6.1l2.1,0.2c0,0-0.2,0.9-0.7,2.2h6.1c0,14.8,0,15.9-5.7,16.3L98.7,45.8z
			 M99.6,42.1c-1.1-2.7-2.3-4.5-2.3-4.5l1.7-1c0,0,1.1,1.8,2.4,4.5L99.6,42.1z"/>
	</g>
	<g>
		<path class="st1" d="M44.3,15.6c0.9-0.3,1.8,0.2,2.7,1.1c1.2,1.2,2,1.9,2.4,2.1l-1.1,0.7c-0.3-0.2-1.1-0.9-2.1-1.9
			C45,16.5,44.1,16.2,43,17l-1.2,0.8l2.8,4.2l-1,0.7l-6.2-9.4c0.5-0.5,1.3-1.1,2-1.6c1.2-0.8,2.2-1.1,3.1-1c0.7,0.1,1.4,0.6,1.9,1.3
			C45.2,13.2,45,14.5,44.3,15.6L44.3,15.6z M42.5,16.1c1.3-0.9,1.7-2.2,0.9-3.3c-0.9-1.4-2.3-1.1-3.5-0.4c-0.6,0.4-0.9,0.7-1.1,0.9
			l2.4,3.7L42.5,16.1z"/>
		<path class="st1" d="M55.8,16c-0.4,0.4-1.1,0.9-2.2,1.4c-2.2,0.8-4.2-0.2-5-2.5c-0.9-2.4-0.2-4.6,1.8-5.4c2.4-0.9,3.8,1,4.3,2.4
			c0.1,0.3,0.2,0.5,0.2,0.7l-5.2,2c0.8,2.1,2.3,2.5,3.7,1.9c1-0.4,1.5-0.8,1.9-1.2L55.8,16z M53.5,12c-0.4-1-1.3-2.2-2.8-1.7
			c-1.4,0.5-1.5,2.1-1.2,3.2L53.5,12z"/>
		<path class="st1" d="M60.5,8.4c-0.3-0.1-0.9-0.3-1.6-0.2c-0.9,0.2-1.3,0.8-1.2,1.4c0.1,0.7,0.6,0.9,1.7,1.2
			c1.4,0.3,2.3,0.9,2.5,2.1c0.2,1.4-0.7,2.6-2.4,2.9c-0.8,0.1-1.6,0-2.2-0.2l0.2-1c0.5,0.2,1.2,0.4,1.9,0.2c1.1-0.2,1.5-0.9,1.4-1.6
			c-0.1-0.8-0.6-1.1-1.8-1.3c-1.5-0.3-2.3-0.9-2.4-1.9c-0.2-1.3,0.6-2.5,2.2-2.7c0.8-0.1,1.5,0,1.9,0.2L60.5,8.4z"/>
		<path class="st1" d="M69.6,14.7c-0.5,0.2-1.3,0.5-2.6,0.5c-2.4,0-3.8-1.8-3.7-4.2c0-2.6,1.5-4.4,3.7-4.3c2.5,0,3.1,2.4,3.1,3.8
			c0,0.3,0,0.5,0,0.7L64.5,11c0,2.3,1.2,3.1,2.7,3.2c1,0,1.6-0.2,2.2-0.4L69.6,14.7z M68.9,10.2c0-1.1-0.4-2.6-2-2.6
			c-1.5,0-2.2,1.4-2.3,2.5L68.9,10.2z"/>
		<path class="st1" d="M76.6,9.1c-0.1,0-0.3-0.1-0.4-0.1c-1.3-0.3-2.3,0.9-2.5,2.3l-0.9,4.4l-1.2-0.2l1.1-5.6
			c0.2-0.9,0.3-1.6,0.4-2.4l1.1,0.2l-0.2,1.6l0,0c0.5-0.9,1.5-1.5,2.5-1.3c0.1,0,0.2,0.1,0.4,0.1L76.6,9.1z"/>
		<path class="st1" d="M85.1,11l-5.8,6.5l-1.1-0.4l0.1-8.7l1.2,0.5l-0.2,5c0,0.8-0.1,1.5-0.1,2.2l0,0c0.4-0.6,0.9-1.1,1.4-1.7
			l3.2-3.8L85.1,11z"/>
		<path class="st1" d="M88.2,22.1c-0.5-0.1-1.4-0.3-2.4-1c-2-1.3-2.3-3.5-1-5.5c1.4-2.2,3.6-2.9,5.5-1.7c2.1,1.4,1.4,3.7,0.6,4.9
			c-0.2,0.2-0.3,0.4-0.4,0.6l-4.7-3c-1.2,1.9-0.6,3.3,0.6,4.1c0.9,0.6,1.5,0.7,2,0.8L88.2,22.1z M90,17.9c0.6-0.9,1-2.4-0.3-3.3
			c-1.3-0.8-2.6,0-3.3,0.9L90,17.9z"/>
	</g>
	<g>
		<polyline class="st2" points="36.4,57.1 41.3,63.1 46.2,57.1 51,63.1 55.9,57.1 60.8,63.1 65.6,57.1 70.5,63.1 75.4,57.1 
			80.2,63.1 85.1,57.1 90,63.1 94.8,57.1 		"/>
	</g>
</g>
</svg>
