<?xml version="1.0" encoding="utf-8"?>
<!-- Generator: Adobe Illustrator 25.0.1, SVG Export Plug-In . SVG Version: 6.00 Build 0)  -->
<svg version="1.1" id="レイヤー_1" xmlns="http://www.w3.org/2000/svg" xmlns:xlink="http://www.w3.org/1999/xlink" x="0px"
	 y="0px" width="130px" height="72px" viewBox="0 0 130 72" style="enable-background:new 0 0 130 72;" xml:space="preserve">
<style type="text/css">
	.st0{fill:#1A1A1A;}
	.st1{fill:none;stroke:#4D4D4D;stroke-width:0.3;}
	.st2{fill:none;stroke:#F7931E;stroke-miterlimit:10;}
</style>
<g>
	<g>
		<path class="st0" d="M21.5,38.1c-1.7,0-4.3-0.1-7.1-0.1c-0.1,4.6-1.5,7.8-5.9,9.9l-2.1-1.7c4.2-1.5,5.7-4.4,5.7-7.8V38
			c-3.3,0-6.6,0-8.5,0.1v-2.1C5.5,36,8.7,36,12,36c3.5,0,7.2,0,9.5-0.1V38.1z M18.6,32.8c-1.6-0.1-4-0.1-6.3-0.1c-2.3,0-4.5,0-6,0.1
			v-2.1c1.4,0.1,3.5,0.1,5.7,0.1c2.4,0,4.9,0,6.6-0.1V32.8z"/>
		<path class="st0" d="M33.8,47.7c0-2.5,0.1-5.3,0.1-8c0-0.8,0-1.5,0-2.2c-2.3,1.6-4.8,3-7.4,4.3l-1.7-1.9
			c5.3-2.3,12.3-6.7,14.8-10.6l2.1,1.5c-1.6,1.8-3.5,3.5-5.5,5c-0.1,1.9-0.1,3.9-0.1,6.1c0,2,0,4,0.1,5.9H33.8z"/>
		<path class="st0" d="M47.8,45.7c7.2-1.5,11.3-6,12.6-11.2c-0.5,0-1.1,0-1.7,0c-1.8,0-3.7,0.1-5.4,0.1c-1.3,1.9-3.1,3.5-5.4,4.9
			l-1.9-1.5c4-2,6.5-5.4,7.4-8.4l2.3,0.7c-0.3,0.8-0.7,1.6-1.1,2.3h1.1c2,0,4.2,0,5.9-0.1l1.5,1.4c-2.1,6.6-5.2,11.6-13.3,13.9
			L47.8,45.7z"/>
		<path class="st0" d="M76.6,38.3c2.9-1.2,4.4-3.2,5.1-5.2h-1.4c-3.6,0-9.1,0.1-12.9,0.2l-0.1-2.3c2.5,0.1,5.9,0.1,9,0.1
			c2.6,0,5.1,0,6.5-0.1l1.8,1.4c-1.2,3.3-3,6.1-6.1,7.8L76.6,38.3z M67.7,45.7c5.2-1.8,6.3-5.7,6.3-9.6c0-0.3,0-0.7,0-1l2.5,0.1
			c-0.4,5.6-1.2,9.5-6.9,12.4L67.7,45.7z"/>
		<path class="st0" d="M91.5,45.2c6.8-0.8,10.3-4.6,10.8-10.4h-4c-2.5,0-5.5,0-7.2,0c0,0.5-0.1,1.3-0.1,2.2s0,1.8,0,2.7l-2.3,0
			c0-1,0.1-2.5,0.1-3.9c0-1.2,0-2.3-0.1-3.2c1.4,0.1,4.2,0.1,6.9,0.1c0-0.5,0-1,0-1.6c0-0.7,0-1.4,0-2.1l2.4,0
			c-0.1,0.7-0.1,1.5-0.1,2.3c0,0.5,0,0.9,0,1.4c2.3,0,4.3,0,5.2-0.1l1.7,1.1c-0.9,6.7-3.1,11.7-11.7,13.5L91.5,45.2z"/>
		<path class="st0" d="M114.1,47.9c0.1-3.4,0.1-9,0.1-13.6c0-1.9,0-3.7,0-5l2.4,0c0,1.7-0.1,4.2-0.1,6.9l1.2-1.3
			c2.4,1,5.5,2.7,7.6,4.1l-1.3,2c-2.3-1.7-4.9-3.1-7.5-4.3v2.8c0,3.1,0,6.2,0.1,8.4L114.1,47.9z"/>
	</g>
	<g>
		<path class="st1" d="M40.4,12.1l-2.7,2.1l6.4,8.1l-1,0.8L36.8,15L34.1,17l-0.7-0.8l6.3-4.9L40.4,12.1z"/>
		<path class="st1" d="M51.5,15.8c0.3,0.6,0.6,1.2,1,1.7l-1,0.5l-0.6-0.9l0,0c-0.1,0.8-0.6,1.7-1.6,2.2c-1.4,0.7-2.6,0-3.2-1
			c-0.9-1.8,0.2-3.5,2.9-4.8c-0.3-0.6-1-2-2.7-1.2c-0.6,0.3-1.2,0.8-1.5,1.4L44.1,13c0.4-0.7,1.1-1.3,1.9-1.7c2.1-1,3.3,0.2,4.1,1.6
			L51.5,15.8z M49.4,14.3c-1.4,0.7-3,1.7-2.3,3.3c0.5,0.9,1.3,1.1,1.9,0.7c1.1-0.5,1.4-1.8,1-2.6L49.4,14.3z"/>
		<path class="st1" d="M60.4,15.2L59,15.6l-3.8-3.2l-0.5,1l0.8,3.1l-1.2,0.3L51.2,5.2l1.2-0.3l1.9,7.4l0,0c0.1-0.3,0.3-0.7,0.4-1.1
			l1.6-3.4l1.4-0.4l-2.1,4L60.4,15.2z"/>
		<path class="st1" d="M67,14.6c-0.5,0.2-1.3,0.6-2.5,0.6c-2.4,0.1-3.9-1.5-4-3.9c-0.1-2.6,1.2-4.5,3.4-4.6c2.5-0.1,3.3,2.1,3.4,3.6
			c0,0.3,0,0.5,0,0.7l-5.6,0.3c0.1,2.3,1.5,3,2.9,3c1-0.1,1.6-0.3,2.1-0.5L67,14.6z M65.9,10.1c0-1.1-0.6-2.5-2.2-2.4
			c-1.5,0.1-2.1,1.5-2.1,2.7L65.9,10.1z"/>
		<path class="st1" d="M80,13.2c-0.8,2.9-3.1,3.7-4.8,3.2c-2-0.5-3.2-2.5-2.5-5c0.7-2.7,2.8-3.7,4.8-3.2C79.7,8.7,80.7,10.8,80,13.2
			z M77.2,9.1c-1.7-0.5-2.9,1-3.3,2.6c-0.5,1.8,0.1,3.4,1.5,3.8c1.4,0.4,2.8-0.8,3.3-2.5C79.1,11.5,78.9,9.6,77.2,9.1z"/>
		<path class="st1" d="M87,19c-0.4,0.7-0.7,1.4-1,1.9l-1-0.5l0.6-1.2l0,0c-0.6,0.4-1.8,0.7-3,0c-1.1-0.6-2-1.9-0.7-4.4l2.3-4.2
			l1.1,0.6l-2.2,4c-0.8,1.4-0.9,2.6,0.3,3.2c0.9,0.5,2.2,0.3,2.9-0.9l2.4-4.5l1.1,0.6L87,19z"/>
		<path class="st1" d="M94,14.9l1.2,0.5L94,16.9l1.6,1.3L95,19l-1.6-1.3l-3,3.7c-0.7,0.8-0.8,1.4-0.2,1.9c0.3,0.2,0.5,0.4,0.7,0.4
			l-0.5,0.8c-0.3-0.1-0.7-0.3-1.1-0.6c-1.5-1.3-0.4-2.7,0.1-3.4l3-3.6l-1-0.8l0.6-0.8l1,0.8L94,14.9z"/>
	</g>
	<g>
		<polyline class="st2" points="36.4,57.1 41.3,63.1 46.2,57.1 51,63.1 55.9,57.1 60.8,63.1 65.6,57.1 70.5,63.1 75.4,57.1 
			80.2,63.1 85.1,57.1 90,63.1 94.8,57.1 		"/>
	</g>
</g>
</svg>
