<?xml version="1.0" encoding="utf-8"?>
<!-- Generator: Adobe Illustrator 25.0.0, SVG Export Plug-In . SVG Version: 6.00 Build 0)  -->
<svg version="1.1" id="レイヤー_1" xmlns="http://www.w3.org/2000/svg" xmlns:xlink="http://www.w3.org/1999/xlink" x="0px"
	 y="0px" width="130px" height="72px" viewBox="0 0 130 72" style="enable-background:new 0 0 130 72;" xml:space="preserve">
<style type="text/css">
	.st0{fill:none;stroke:#C985FF;stroke-miterlimit:10;}
	.st1{fill:#1A1A1A;}
	.st2{fill:none;stroke:#4D4D4D;stroke-width:0.3;}
</style>
<g>
	<polyline class="st0" points="36.4,57.1 41.2,63.1 46.1,57.1 51,63.1 55.8,57.1 60.7,63.1 65.6,57.1 70.4,63.1 75.3,57.1 
		80.2,63.1 85,57.1 89.9,63.1 94.8,57.1 	"/>
</g>
<g>
	<path class="st1" d="M46.8,43.3c0.7,0.4,1.5,0.6,2.2,0.6c1.9,0,3.4-1.3,3.4-2.9c0-0.2,0-3-4.4-3c-1.2,0-2.5,0.2-3.7,0.6
		c0,1.4,0,2.8,0.1,3.9v0.2c0,2.2-0.9,3.4-2.9,3.4c-1.1,0-4.8-0.5-4.8-3.2c0-2,2.1-4.3,5.6-5.6v-3.9c-0.7,0-1.3,0-2,0
		c-0.8,0-1.4,0-2,0L38,31.3c0.8,0.1,2,0.1,3.3,0.1h0.8c0-1.2,0-2.3-0.1-3.3l2.4,0c-0.1,0.9-0.1,2-0.1,3.2c1.3-0.1,2.6-0.1,3.4-0.3
		l-0.1,2.1c-0.9,0.1-2.1,0.1-3.3,0.2c0,1.1,0,2.2,0,3.3c1.3-0.3,2.5-0.5,3.8-0.5c4.6,0,6.5,2.5,6.5,4.9c0,2.6-2.3,5-5.6,5
		c-0.8,0-1.8-0.1-2.7-0.5L46.8,43.3z M42.2,42.4c0-0.9,0-1.9,0-2.9c-1.6,0.8-3.3,2.1-3.3,3.1c0,0.8,1,1.4,2.1,1.4
		C41.7,44,42.2,43.6,42.2,42.4L42.2,42.4z M53.3,35.6c-1-1.1-2.9-2.6-4.3-3.4l1.4-1.5c1.4,0.9,3.3,2.3,4.3,3.3L53.3,35.6z"/>
	<path class="st1" d="M57,44.3c1.5-1.8,2.2-3.8,2.2-3.8l1.8,0.9c0,0-0.7,2.3-2.3,4.2L57,44.3z M61.4,39.1v-2.6
		c-0.9,0.3-2,0.6-3.2,0.9l-0.9-1.8c1.3-0.3,3-0.7,4.1-1v-2.6h-1.6c-0.2,0.6-0.4,1.2-0.7,1.7l-1.9-0.9c1.3-1.6,1.7-4.7,1.7-4.7
		l1.7,0.3c0,0-0.1,1-0.3,1.7h1.1v-2.2h1.8v2.2H65v1.8h-1.7v2c1-0.4,1.7-0.7,1.7-0.7l0.4,1.7c0,0-0.9,0.4-2.1,0.8v3.3H61.4z
		 M64.1,46.2c-1.7,0-2.4-1-2.4-2.5v-3.5h2.1v3c0,0.8,0.2,1.2,0.9,1.2h4.4c0.7,0,1-0.1,1.3-1.8l2.1,1c-0.5,2.6-1.7,2.7-2.9,2.7H64.1z
		 M67.6,42.6c0,0-1.2-1.5-2.8-2.8l1.3-1.3c2.1,1.7,2.8,2.8,2.8,2.8L67.6,42.6z M70.6,37.5c2.8,0,2.8-0.8,2.8-6.1h-0.7
		c-0.2,1.3-1,5.3-3.8,7.8l-1.4-1.4c2.3-1.7,3.3-4.8,3.6-6.4h-0.8c-0.3,1.2-1.3,3.9-3.4,5.8l-1.2-1.4c1.7-1.2,2.7-3.3,3-4.4h-0.9
		c-0.7,1.4-1.3,2-1.3,2L65,32.2c0,0,1.5-1.3,2.2-4.2l1.8,0.3c-0.1,0.5-0.3,1-0.4,1.4h6.6c0,8.6-0.2,9.6-3.8,9.7L70.6,37.5z
		 M74.1,44.9c0,0-1.1-2.2-2.8-3.9l1.6-1.2c2,1.9,3,4,3,4L74.1,44.9z"/>
	<path class="st1" d="M95.7,46.1c-3.4-1.3-6-3.4-7.1-5v5.7h-2.1v-5.6c-1,1.5-3.9,3.8-7.4,4.9l-1.2-2c3.4-0.9,5.6-2.1,6.8-3.3h-6.5
		v-1.8h8.3v-1.6h1.2c-0.2-0.4-0.5-1.1-1.3-2.2l1-0.5c-1.6,0-5.3,0.1-8,0.1l-0.6-1.8H81c10.9,0,14.4-0.7,14.4-0.7l0.9,1.7
		c0,0-0.6,0.1-2,0.3l1.4,0.9c0,0-1.3,2.1-2.6,3.6l-1.6-1.4c1.2-1.2,2.1-2.4,2.4-3c-1.3,0.1-3,0.3-5.5,0.4c0.6,0.9,1.2,2,1.2,2
		l-1.2,0.7h0.3v1.6h8v1.8h-6.2c1.3,1.2,3.5,2.3,6.4,3.2L95.7,46.1z M91.9,31v1.3h-2.1V31h-4.4v1.3h-2.1V31h-5.2v-1.8h5.2v-1.3h2.1
		v1.3h4.4v-1.3h2.1v1.3h4.7V31H91.9z M82.3,38.4c0,0-0.7-1.1-1.6-2.2l1.7-1.1c0.9,1,1.7,2.2,1.7,2.2L82.3,38.4z"/>
</g>
<g>
	<path class="st2" d="M61,12.1c0.1,0.6,0.3,1.4,0.5,2l-1.1,0.2L60,13l0,0c-0.2,0.9-1,1.8-2.3,2.1c-1.8,0.4-3.6-0.9-4.2-3.3
		c-0.6-2.7,0.7-4.6,2.5-5c1.2-0.3,2.1,0.1,2.6,0.7l0,0l-1-4.8l1.2-0.3L61,12.1z M59.2,9.6c-0.3-1.6-1.6-2.1-2.7-1.9
		C55,8,54.4,9.6,54.8,11.4c0.4,1.7,1.5,3,3,2.6c1.3-0.3,1.9-1.6,1.7-2.9L59.2,9.6z"/>
	<path class="st2" d="M69.3,13.7c-0.5,0.2-1.3,0.5-2.6,0.5c-2.4,0-3.8-1.7-3.7-4.2c0-2.6,1.5-4.4,3.7-4.4c2.5,0,3.1,2.4,3.1,3.8
		c0,0.3,0,0.5,0,0.7L64.2,10c0,2.3,1.3,3.1,2.7,3.2c1,0,1.6-0.2,2.2-0.4L69.3,13.7z M68.5,9.2c0-1.1-0.4-2.6-2-2.6
		c-1.5,0-2.2,1.4-2.3,2.5L68.5,9.2z"/>
	<path class="st2" d="M72.5,14.6l-1.2-0.2l2-11.8l1.2,0.2L72.5,14.6z"/>
	<path class="st2" d="M76,15.4l-1.2-0.3L77,7.2l1.2,0.3L76,15.4z M78,6c-0.5-0.1-0.7-0.6-0.6-1c0.1-0.4,0.6-0.7,1-0.6
		c0.5,0.1,0.7,0.6,0.6,1C78.8,5.9,78.4,6.1,78,6z"/>
</g>
</svg>
