<?xml version="1.0" encoding="utf-8"?>
<!-- Generator: Adobe Illustrator 24.3.0, SVG Export Plug-In . SVG Version: 6.00 Build 0)  -->
<svg version="1.1" id="レイヤー_1" xmlns="http://www.w3.org/2000/svg" xmlns:xlink="http://www.w3.org/1999/xlink" x="0px"
	 y="0px" width="130px" height="72px" viewBox="0 0 130 72" style="enable-background:new 0 0 130 72;" xml:space="preserve">
<style type="text/css">
	.st0{fill:#1A1A1A;}
	.st1{fill:none;stroke:#4D4D4D;stroke-width:0.3;}
	.st2{fill:none;stroke:#A9FF85;stroke-miterlimit:10;}
</style>
<g>
	<path class="st0" d="M20.1,50c-2.3,0.4-4.9,0.5-7.1,0.5c-1.4,0-2.6,0-3.5-0.1c-3.1-0.3-4.6-1.9-4.6-3.8c0-1,0.4-2,1.1-3l2,0.7
		c-0.6,0.6-0.9,1.3-0.9,1.9c0,1.8,2.2,2.3,5.8,2.3c2,0,4.4-0.2,7.1-0.8L20.1,50z M11.5,38.7c0.8-0.5,1.9-1.2,2.9-1.7
		c-1,0-2.1,0.1-3.2,0.1c-1.5,0-3.1,0-4.6-0.1l0-2.1c1.3,0.2,3.5,0.3,5.7,0.3c2,0,3.9-0.1,5.5-0.3l0.9,1.9c-1.4,0.6-4.1,2.2-5.5,3.2
		L11.5,38.7z"/>
	<path class="st0" d="M24.5,50.4c1.3-2.8,3.1-7.3,4.2-11.7c-1.2,0.1-2.3,0.1-3.3,0.1l-0.1-2.1c0.5,0,1.1,0,1.9,0c0.6,0,1.3,0,2,0
		c0.3-1.2,0.5-2.5,0.6-3.6l2.3,0.2c-0.2,1.1-0.5,2.2-0.7,3.3c1.4-0.1,2.8-0.2,3.8-0.4l-0.1,2c-1.2,0.1-2.7,0.2-4.2,0.3
		c-1.1,4.4-2.6,9-4.2,13L24.5,50.4z M41.8,50.8c-1.5,0.1-3.3,0.2-4.7,0.2c-1.8,0-5.5,0-5.5-3.3c0-0.6,0.1-1.2,0.3-1.9l2,0.3
		c-0.2,0.5-0.3,0.9-0.3,1.2c0,1.5,1.7,1.6,3,1.6c1.4,0,3.4-0.1,4.9-0.3L41.8,50.8z M41.4,42.2c-1.3-0.1-2.6-0.2-4-0.2
		s-2.8,0.1-4.1,0.2l-0.1-2c1.2-0.1,2.5-0.1,3.8-0.1c1.5,0,3,0,4.4,0.1L41.4,42.2z M39.5,37.9c-0.6-0.7-1.4-1.5-2.2-2.1l1.1-1
		c0.8,0.6,1.6,1.3,2.2,2L39.5,37.9z M41.3,36.4c-0.6-0.7-1.3-1.4-2.2-2.1l1.1-0.9c0.8,0.6,1.6,1.3,2.2,2L41.3,36.4z"/>
	<path class="st0" d="M55.1,48.6c3.9-0.1,6.3-2.7,6.3-5.2c0-1.6-1.1-3.4-3.5-3.4c-1.8,0-4.1,1-6.6,3.3c0,2.9,0.1,5.9,0.3,8.2
		l-2.3,0.1c0-1.7,0-3.9,0-6.2c-0.8,0.9-1.7,2-2.5,3.4l-1.5-2.1c1.3-1.4,2.9-3.3,4.1-4.8c0-1,0-2,0-3c-1,0.2-2.3,0.4-3.2,0.6
		l-0.4-2.2H46c0.9,0,2.2-0.1,3.4-0.4c0-1.3,0-2.6,0.1-3.7l2.1,0.1c-0.1,0.9-0.1,2-0.2,3.2c0.4-0.1,0.7-0.2,1-0.3l0.9,1.1
		c-0.5,0.6-1.4,1.4-2.1,2.2c0,0.4,0,0.9,0,1.4C53.4,39,55.8,38,58,38c3.8,0,5.6,2.8,5.6,5.5c0,3.4-3,6.8-7.3,7.4L55.1,48.6z"/>
	<path class="st0" d="M73.6,40.3c-0.8,1.4-1.6,3.1-2.4,4.5c-0.3,0.6-0.8,1-1.2,1c-0.8,0-1.1-1.6-1.1-4.3c0-2.5,0.2-5.6,0.4-7.6
		l2.4,0.2c-0.3,1.7-0.7,4.4-0.7,5.9v0.1c0,0.7,0.1,0.9,0.3,0.9c0.3,0,0.7-0.6,1.3-1.6L73.6,40.3z M72.4,49.6
		c3.7-0.2,6.9-1.7,7.2-5.8c0.1-0.7,0.1-1.4,0.1-2.2c0-2.3-0.2-5.1-0.4-7.9l2.4,0v0.4c0,3.1,0.2,6.2,0.2,8.4c0,2.4,0,7.7-8.1,9.3
		L72.4,49.6z"/>
	<path class="st0" d="M104.9,51.9c-5.4-1.2-8-4.4-9-5.7h-3.3v3.1c1.4-0.2,2.9-0.5,4.5-0.8l0.1,1.8c-3.2,1-8.9,1.6-8.9,1.6l-0.5-2
		c0,0,1.2,0,2.7-0.3V38.8c-0.8,0.4-1.6,0.8-2.4,1.1l-1.1-1.9c6.3-2,8.4-5.2,8.4-5.2h2.2c0,0,3.1,3.1,8.5,4.6l-0.9,2
		c-0.8-0.2-1.6-0.6-2.4-0.9v7.3c0.3-0.3,0.8-0.7,1.1-1l1.4,1.4c-1,0.9-2.5,1.9-3.4,2.4c1,0.5,2.6,1,4.2,1.3L104.9,51.9z M101.6,38
		c-1.8-0.9-3.9-2.5-5.1-3.5c-0.9,1-3,2.5-4.6,3.5h3.5v-1.7h2.1V38H101.6z M100.6,39.7h-8v1.6h8V39.7z M100.6,42.9h-8v1.7h8V42.9z
		 M98.4,46.2c0.4,0.4,1.1,1,1.8,1.4c0.5-0.3,1.4-0.9,2.1-1.4H98.4z"/>
	<path class="st0" d="M111.7,51.9V40.7c-0.4,1.6-1.3,3.7-2.4,5.4L108,44c1.5-1.7,2.6-3.9,3.1-5.5h-2.5v-1.9h3.1V33h2v3.5h2.7v1.9
		h-2.1c1.1,2,2.6,3.3,2.6,3.3l-1.3,2.1c0,0-1.2-1.6-1.9-3.8v11.9H111.7z M119.5,49.8c3,0,3.1-0.1,3.1-1v-7.5
		c-0.9,2.3-2.9,5.4-5.4,7.6l-1.6-1.8c3.3-2.3,5.8-6.3,6.5-8.6h-5v-1.9h5.4V33h2.1v3.5h2.3v1.9h-2.3V49c0,2-0.5,2.8-4.2,2.8
		L119.5,49.8z"/>
</g>
<g>
	<path class="st1" d="M33.4,18.8c-0.7-0.7-1.7-1.6-1.7-2.9c0-0.8,0.3-1.4,0.8-1.9c0.4-0.4,0.7-0.6,1-0.7l0.6,0.8
		c-0.2,0.1-0.5,0.2-0.8,0.5c-0.9,0.9-0.3,2,0.7,2.9l0.3,0.3l1.4-1.4l0.7,0.7L35,18.6l5.2,5l-0.9,0.9l-5.2-5l-0.8,0.8l-0.7-0.7
		L33.4,18.8z"/>
	<path class="st1" d="M45.4,16.7c0.4,0.5,0.8,1.1,1.3,1.5l-0.9,0.7l-0.7-0.8l0,0c0,0.8-0.3,1.7-1.2,2.4c-1.3,0.9-2.6,0.5-3.3-0.4
		c-1.2-1.6-0.4-3.5,2-5.2c-0.4-0.6-1.3-1.8-2.8-0.7c-0.6,0.4-1,1-1.3,1.7l-0.8-0.5c0.3-0.7,0.9-1.5,1.6-2c1.9-1.4,3.3-0.4,4.3,0.9
		L45.4,16.7z M43.1,15.6c-1.2,0.9-2.7,2.3-1.6,3.6c0.6,0.8,1.4,0.8,2,0.4c1-0.7,1.1-2,0.5-2.8L43.1,15.6z"/>
	<path class="st1" d="M48.8,9.4c-0.4,0-1-0.1-1.6,0.3c-0.8,0.4-1,1.1-0.7,1.7c0.3,0.6,0.9,0.7,2,0.7c1.4-0.1,2.4,0.2,2.9,1.3
		c0.6,1.3,0.1,2.7-1.5,3.4c-0.7,0.4-1.5,0.5-2.2,0.4l-0.1-1c0.5,0,1.3,0,1.9-0.3c1-0.5,1.2-1.2,0.9-1.9c-0.3-0.7-0.9-0.9-2.1-0.8
		c-1.5,0.1-2.5-0.3-2.9-1.2c-0.6-1.1-0.1-2.5,1.4-3.3c0.7-0.3,1.4-0.4,1.9-0.4L48.8,9.4z"/>
	<path class="st1" d="M51.5,5.5l1.1-0.8l0.6,1.8l2-0.6l0.3,0.9l-2,0.6l1.4,4.5c0.3,1,0.8,1.4,1.5,1.2c0.4-0.1,0.6-0.2,0.8-0.4
		l0.4,0.9c-0.2,0.2-0.6,0.4-1.1,0.5c-1.9,0.6-2.5-1.1-2.7-2l-1.4-4.5L51,8.2l-0.3-0.9l1.2-0.4L51.5,5.5z"/>
	<path class="st1" d="M57.9,3.9C57.4,4,57,3.7,57,3.2c-0.1-0.5,0.2-0.9,0.7-1c0.5-0.1,0.9,0.2,0.9,0.7C58.7,3.4,58.4,3.8,57.9,3.9z
		 M60.2,13.3L59,13.5l-1.4-8l1.2-0.2L60.2,13.3z"/>
	<path class="st1" d="M68.9,10.8c0,0.7,0.1,1.5,0.1,2l-1.1,0l-0.1-1.4l0,0c-0.4,0.9-1.3,1.6-2.6,1.6c-1.9,0-3.4-1.6-3.4-4.1
		c0-2.8,1.5-4.4,3.5-4.4c1.2,0,2,0.6,2.4,1.2l0,0l-0.1-4.9l1.2,0L68.9,10.8z M67.6,7.9c0-1.6-1.2-2.4-2.2-2.4
		c-1.5,0-2.4,1.5-2.4,3.4c0,1.7,0.9,3.2,2.5,3.2c1.3,0,2.2-1.2,2.2-2.5L67.6,7.9z"/>
	<path class="st1" d="M72.3,13.4l-1.2-0.2l1.3-8.1l1.2,0.2L72.3,13.4z M73.3,3.8c-0.5-0.1-0.7-0.5-0.7-1c0.1-0.5,0.5-0.8,0.9-0.7
		c0.5,0.1,0.7,0.5,0.7,1C74.1,3.6,73.7,3.9,73.3,3.8z"/>
	<path class="st1" d="M82.4,12c-1,2.9-3.3,3.5-5,2.9c-2-0.7-3-2.7-2.2-5.2c0.9-2.6,3-3.5,5-2.9C82.4,7.6,83.2,9.7,82.4,12z
		 M79.9,7.8c-1.7-0.6-2.9,0.8-3.4,2.3c-0.6,1.7-0.1,3.4,1.3,3.9c1.4,0.5,2.9-0.6,3.5-2.3C81.7,10.3,81.6,8.3,79.9,7.8z"/>
	<path class="st1" d="M89,18.3c-0.4,0.7-0.8,1.3-1.1,1.9l-1-0.6l0.6-1.1l0,0c-0.7,0.3-1.8,0.6-3-0.2c-1-0.7-1.9-2-0.4-4.4l2.6-4.1
		l1.1,0.7l-2.5,3.9c-0.9,1.3-1.1,2.5,0.1,3.3c0.8,0.5,2.2,0.5,3-0.7l2.7-4.3l1.1,0.7L89,18.3z"/>
	<path class="st1" d="M96.9,19.1c-0.1-0.3-0.3-0.9-0.8-1.4c-0.6-0.6-1.4-0.6-1.8-0.1c-0.5,0.5-0.4,1.1,0.1,2.1
		c0.6,1.3,0.7,2.3-0.2,3.2c-1,1.1-2.5,1-3.8-0.3c-0.6-0.6-1-1.3-1.2-1.9l0.9-0.5c0.1,0.5,0.4,1.2,0.9,1.7c0.8,0.8,1.6,0.7,2.1,0.2
		c0.5-0.6,0.5-1.2,0-2.2c-0.6-1.4-0.6-2.4,0.1-3.1c0.9-0.9,2.3-1,3.5,0.2c0.6,0.5,0.9,1.2,1,1.7L96.9,19.1z"/>
</g>
<g>
	<polyline class="st2" points="36.4,62 41.2,68 46.1,62 51,68 55.8,62 60.7,68 65.6,62 70.4,68 75.3,62 80.2,68 85,62 89.9,68 
		94.8,62 	"/>
</g>
</svg>
