<?xml version="1.0" encoding="utf-8"?>
<!-- Generator: Adobe Illustrator 24.3.0, SVG Export Plug-In . SVG Version: 6.00 Build 0)  -->
<svg version="1.1" id="レイヤー_1" xmlns="http://www.w3.org/2000/svg" xmlns:xlink="http://www.w3.org/1999/xlink" x="0px"
	 y="0px" width="130px" height="72px" viewBox="0 0 130 72" style="enable-background:new 0 0 130 72;" xml:space="preserve">
<style type="text/css">
	.st0{fill:#1A1A1A;}
	.st1{fill:none;stroke:#4D4D4D;stroke-width:0.3;}
	.st2{fill:none;stroke:#83CAFF;stroke-miterlimit:10;}
</style>
<g>
	<path class="st0" d="M34.9,43.6c0.7,0.4,1.5,0.6,2.2,0.6c1.9,0,3.4-1.3,3.4-2.9c0-0.2,0-3-4.4-3c-1.2,0-2.5,0.2-3.7,0.6
		c0,1.4,0,2.8,0.1,3.9V43c0,2.2-0.9,3.4-2.9,3.4c-1.1,0-4.8-0.5-4.8-3.2c0-2,2.1-4.3,5.6-5.6v-3.9c-0.7,0-1.3,0-2,0
		c-0.8,0-1.4,0-2,0l-0.1-2.2c0.8,0.1,2,0.1,3.3,0.1h0.8c0-1.2,0-2.3-0.1-3.3l2.4,0c-0.1,0.9-0.1,2-0.1,3.2c1.3-0.1,2.6-0.1,3.4-0.3
		l-0.1,2.1c-0.9,0.1-2.1,0.1-3.3,0.2c0,1.1,0,2.2,0,3.3c1.3-0.3,2.5-0.5,3.8-0.5c4.6,0,6.5,2.5,6.5,4.9c0,2.6-2.3,5-5.6,5
		c-0.8,0-1.8-0.1-2.7-0.5L34.9,43.6z M30.3,42.6c0-0.9,0-1.9,0-2.9c-1.6,0.8-3.3,2.1-3.3,3.1c0,0.8,1,1.4,2.1,1.4
		C29.7,44.2,30.3,43.8,30.3,42.6L30.3,42.6z M41.4,35.8c-1-1.1-2.9-2.6-4.3-3.4l1.4-1.5c1.4,0.9,3.3,2.3,4.3,3.3L41.4,35.8z"/>
	<path class="st0" d="M62.6,47c-1.8-2-3-4.9-3.5-7.2c-0.6,2.6-1.6,5.4-3.5,7.2l-1-1.4l-1.6,1c0,0-0.2-0.7-0.7-1.6
		c-2.9,0.9-6.8,1.6-6.8,1.6l-0.5-2.1c0,0,0.5,0,1.2-0.1V33.8c-0.2,0.1-0.4,0.3-0.6,0.4l-0.7-2c2.9-1.6,4.3-4,4.3-4h1.8
		c0,0,1,1.7,3.8,2.8l-1,1.7C52.5,32,51,30.7,50.4,30c-0.6,0.8-1.8,2.1-3.1,3.1h2.1v-1.5h2V33h2.5v8h-5.5v3.1c1-0.2,2.1-0.5,3.2-0.8
		c-0.2-0.4-0.5-0.9-0.8-1.3l1.7-0.9c0.7,1.1,1.4,2.6,2.1,3.7c3.3-3.4,3.6-8.8,3.6-10.6c0-0.4,0-0.6,0-0.6h2v2.5c0,0,0.1,4.8,4,8.9
		L62.6,47z M51.9,34.7h-3.6v1.5h3.6V34.7z M51.9,37.7h-3.6v1.6h3.6V37.7z M60.7,37.2c0.9-2,0.9-4.1,0.9-4.5v-0.1h-4
		c-0.8,2.5-1.8,3.6-1.8,3.6l-1.8-1.2c0,0,2-2.7,2.5-6.8l2,0.3c-0.1,0.8-0.3,1.5-0.4,2.2h5.4v0.5c0,1.2-0.1,4.7-1.1,7L60.7,37.2z"/>
	<path class="st0" d="M84.2,42.6c-0.8-0.6-1.7-1.1-2.6-1.6c-1.1,2.2-2.8,4.3-5.3,5.9l-1.7-1.8c2.3-1,4-2.8,5.1-5
		c-1.6-0.7-3.1-1.2-4.5-1.6c-0.8,1.5-1.4,2.9-2.1,3.9c-1,1.7-2.6,2.4-3.9,2.4c-1.6,0-2.9-1-3-2.8c0-0.1,0-0.2,0-0.3
		c0-2.8,2.2-5.5,6.4-5.5c0.5,0,0.9,0,1.4,0.1c0.8-1.6,1.6-3.2,2.3-4.6c-1.8,0.2-4.7,0.3-6.6,0.4l-0.1-2.2c0.5,0,1.2,0,1.9,0
		c2.1,0,4.9-0.1,6.1-0.3l1.5,1.4c-1.1,1.8-2.1,3.8-3,5.6c1.4,0.4,2.9,0.9,4.4,1.5c0.3-1,0.6-2.2,0.7-3.3l2.1,0.5
		c-0.2,1.2-0.5,2.4-1,3.7c1,0.5,2,0.9,2.9,1.4L84.2,42.6z M68.2,41.5c0,0.7,0.5,1.2,1.2,1.2c1.2,0,2-1.1,3.7-4.6c-0.2,0-0.4,0-0.6,0
		c-2.9,0-4.3,2-4.3,3.3V41.5z"/>
	<path class="st0" d="M99.3,44.7c3.7-0.1,4.1-0.2,4.1-9.3v-2.5h-0.6c-0.2,2.7-1.3,10-6.3,13.9l-1.6-1.7c4.9-3.7,5.8-9.6,6.1-12.2
		h-1.2c-0.3,1.9-1.1,6.4-4.3,9.4L94,40.7c2.8-2.4,3.6-5.9,3.9-7.8h-0.8c-0.4,0.9-1,1.9-1.7,2.8l-1.6-1.3l0.1-0.2h-1.3v4.5
		c0.8-0.2,1.7-0.4,1.7-0.4v1.9c0,0-0.8,0.3-1.7,0.5V47h-2v-5.9c-0.9,0.2-2,0.4-3.1,0.6l-0.4-2.1c1.3-0.2,2.6-0.4,3.5-0.6v-4.9h-1
		c-0.1,1-0.2,1.7-0.6,2.9l-1.8-0.7c0.8-2.5,0.9-6.1,0.9-6.4v0l1.9,0.1c0,0,0,0.9-0.1,2.2h0.8v-4.2h2v4.2h1.5v1.6
		c1.9-2.4,2.5-5.7,2.5-5.7l2.1,0.3c0,0-0.3,1.3-0.8,2.6h7.5v1.3c0,13.1-0.1,13.9-5.2,14.4L99.3,44.7z"/>
</g>
<g>
	<path class="st1" d="M56.1,13.1c0.2,0.6,0.5,1.4,0.7,1.9l-1,0.4L55.3,14l0,0c-0.1,0.9-0.7,1.9-2,2.4c-1.8,0.6-3.7-0.4-4.6-2.8
		c-0.9-2.6,0-4.7,1.8-5.3c1.1-0.4,2.1-0.1,2.7,0.4l0,0l-1.7-4.6l1.2-0.4L56.1,13.1z M54,10.8c-0.6-1.5-1.9-1.9-2.9-1.6
		c-1.5,0.5-1.8,2.2-1.2,4c0.6,1.6,1.8,2.7,3.4,2.2c1.3-0.5,1.7-1.9,1.3-3.1L54,10.8z"/>
	<path class="st1" d="M61.5,7c-0.1,0-0.3,0-0.4,0c-1.3,0.2-1.8,1.6-1.6,3l0.7,4.4l-1.2,0.2L58,9c-0.1-0.9-0.3-1.6-0.4-2.4l1.1-0.2
		L59,8l0,0C59.2,6.9,60,6,61,5.9c0.1,0,0.2,0,0.4,0L61.5,7z"/>
	<path class="st1" d="M64.2,4.4c-0.5,0-0.8-0.3-0.8-0.8c0-0.5,0.3-0.9,0.8-0.9c0.5,0,0.8,0.3,0.8,0.8C65,4.1,64.7,4.4,64.2,4.4z
		 M65.2,14l-1.2,0l-0.3-8.2l1.2,0L65.2,14z"/>
	<path class="st1" d="M73.9,14.7l-1.2-0.2l0.6-4.8c0.2-1.3-0.2-2.5-1.6-2.7c-1.1-0.1-2.2,0.6-2.4,2l-0.7,5l-1.2-0.2l0.8-6
		c0.1-0.8,0.2-1.4,0.2-2.1l1.1,0.1l-0.1,1.3l0,0c0.5-0.7,1.5-1.3,2.8-1.2c1,0.1,2.7,1,2.3,3.7L73.9,14.7z"/>
	<path class="st1" d="M81.8,17.5l-1.4-0.5l-1.3-4.8l-1,0.5l-1.1,3l-1.2-0.4L79.9,4l1.2,0.4l-2.6,7.2l0,0c0.3-0.2,0.7-0.4,1-0.6
		l3.3-1.9l1.4,0.5l-4,2.1L81.8,17.5z"/>
</g>
<g>
	<polyline class="st2" points="36.4,57.1 41.2,63.1 46.1,57.1 51,63.1 55.8,57.1 60.7,63.1 65.6,57.1 70.4,63.1 75.3,57.1 
		80.2,63.1 85,57.1 89.9,63.1 94.8,57.1 	"/>
</g>
</svg>
