<?xml version="1.0" encoding="utf-8"?>
<!-- Generator: Adobe Illustrator 24.3.0, SVG Export Plug-In . SVG Version: 6.00 Build 0)  -->
<svg version="1.1" id="レイヤー_1" xmlns="http://www.w3.org/2000/svg" xmlns:xlink="http://www.w3.org/1999/xlink" x="0px"
	 y="0px" width="130px" height="77.5px" viewBox="0 0 130 77.5" style="enable-background:new 0 0 130 77.5;" xml:space="preserve">
<style type="text/css">
	.st0{fill:#1A1A1A;}
	.st1{fill:none;stroke:#4D4D4D;stroke-width:0.3;}
	.st2{fill:none;stroke:#FFA785;stroke-miterlimit:10;}
</style>
<g>
	<g>
		<path class="st0" d="M34.9,51.6c0.7,0.4,1.5,0.6,2.2,0.6c1.9,0,3.4-1.3,3.4-2.9c0-0.2,0-3-4.4-3c-1.2,0-2.5,0.2-3.7,0.6
			c0,1.4,0,2.8,0.1,3.9V51c0,2.2-0.9,3.4-2.9,3.4c-1.1,0-4.8-0.5-4.8-3.2c0-2,2.1-4.3,5.6-5.6v-3.9c-0.7,0-1.3,0-2,0
			c-0.8,0-1.4,0-2,0l-0.1-2.2c0.8,0.1,2,0.1,3.3,0.1h0.8c0-1.2,0-2.3-0.1-3.3l2.4,0c-0.1,0.9-0.1,2-0.1,3.2c1.3-0.1,2.6-0.1,3.4-0.3
			l-0.1,2.1c-0.9,0.1-2.1,0.1-3.3,0.2c0,1.1,0,2.2,0,3.3c1.3-0.3,2.5-0.5,3.8-0.5c4.6,0,6.5,2.5,6.5,4.9c0,2.6-2.3,5-5.6,5
			c-0.8,0-1.8-0.1-2.7-0.5L34.9,51.6z M30.3,50.6c0-0.9,0-1.9,0-2.9c-1.6,0.8-3.3,2.1-3.3,3.1c0,0.8,1,1.4,2.1,1.4
			C29.7,52.2,30.3,51.8,30.3,50.6L30.3,50.6z M41.4,43.8c-1-1.1-2.9-2.6-4.3-3.4l1.4-1.5c1.4,0.9,3.3,2.3,4.3,3.3L41.4,43.8z"/>
		<path class="st0" d="M53.5,53c-1.2-1.7-2.2-3.4-3-4.2c-0.6,2-2,4.4-4.1,6.2L45,53.2c2.5-1.8,3.7-4.8,4-6.8h-3.5v-1.8h3.8
			c0.1-0.7,0.1-2,0.1-2.8v-1h-1.3c-0.4,0.8-0.8,1.7-1.3,2.4l-1.7-1.2c1.9-2.6,2.4-5.8,2.4-5.8l1.9,0.4c0,0-0.2,1-0.7,2.4H54v1.8
			h-2.4c0,0,0,0.7,0,1.5c0,0.8,0,1.8-0.1,2.4h3.1v1.8h-3.3c0,0.2-0.1,0.6-0.1,0.6c0.8,0.8,2.6,2.8,3.9,4.5L53.5,53z M61.2,54.4v-1.9
			h-3.5v1.9h-2V38.1h7.5v16.3H61.2z M61.2,40h-3.5v10.6h3.5V40z"/>
		<path class="st0" d="M71.4,51.8c1,0.2,2.1,0.3,3.1,0.3c4.1,0,7.2-1.5,7.2-3.9c0-1.8-1.7-2.8-3.8-2.8c-2.4,0-5.5,1.2-7.5,3.7
			l-2.1-0.5c0.2-2.1,0.6-6.3,0.8-8.3l2.2,0.3c-0.3,1.8-0.6,4.1-0.7,5.7c2.4-1.9,5.1-2.8,7.4-2.8c3.1,0,5.9,1.6,5.9,4.9
			c0,3.5-3.9,5.9-9.4,5.9c-0.8,0-1.6,0-2.4-0.1L71.4,51.8z M77.3,40.4c-1.5-0.8-4.5-2-6.4-2.5l1.1-1.7c2,0.4,4.8,1.4,6.4,2.2
			L77.3,40.4z"/>
		<path class="st0" d="M102.9,53.6c-1.4,0.1-2.9,0.1-4.4,0.1c-5,0-7.2-0.1-7.2-3.7v-0.4c0.1-1.3,0.1-3.8,0.1-6.3
			c-1.7,0-3.1,0.1-4.3,0.1L87,41.5c1.3,0,2.8,0,4.5-0.1c0-0.8,0-1.6,0-2.2s0-1.3,0-1.7l2.4,0.1c-0.1,0.9-0.1,2.3-0.2,3.8
			c1.9,0,3.8,0,5.7-0.1c0-1.4,0-2.9,0-4.4l2.3,0c-0.1,1.5-0.1,3-0.1,4.3c1.7,0,3.2,0,4.4,0l0,2c-1.1,0-2.6,0-4.4,0
			c0,1.1,0,2.2,0,3.3c0,1.7-0.8,2.7-3.9,2.7H97L96.3,47c0.7,0.1,1.2,0.2,1.6,0.2c1.2,0,1.4-0.4,1.4-1.5c0-0.8,0-1.6,0-2.4
			c-1.8,0-3.8,0-5.7,0.1c-0.1,2.1-0.1,4.4-0.1,6.1c0,2.2,0.7,2.2,3.5,2.2c1.7,0,4-0.1,6-0.3L102.9,53.6z"/>
	</g>
	<g>
		<path class="st1" d="M29,20.1c-0.3,0.4-0.8,0.4-1.2,0.1c-0.4-0.3-0.5-0.8-0.2-1.2c0.3-0.4,0.8-0.4,1.2-0.2
			C29.3,19.2,29.3,19.7,29,20.1z M37.2,25.3l-0.7,1l-6.6-4.8l0.7-1L37.2,25.3z"/>
		<path class="st1" d="M43.1,18.9l-0.9,0.9l-3.4-3.5c-0.9-1-2.1-1.5-3.1-0.5C35,16.6,34.8,18,35.8,19l3.5,3.6l-0.9,0.9l-4.2-4.4
			c-0.6-0.6-1-1-1.5-1.5l0.8-0.8l1,0.9l0,0c-0.3-0.9-0.1-2,0.8-2.9c0.7-0.7,2.4-1.5,4.3,0.5L43.1,18.9z"/>
		<path class="st1" d="M40.4,10.9c-0.6-0.8-1.3-2-1.1-3.2C39.5,6.9,40,6.4,40.5,6c0.4-0.3,0.9-0.4,1.1-0.5L42,6.4
			c-0.2,0.1-0.5,0.1-0.9,0.4c-1.1,0.7-0.7,1.9,0.1,3l0.3,0.4l1.6-1.1l0.5,0.8L42,11l4,6l-1,0.7l-4-6L40,12.3l-0.5-0.8L40.4,10.9z"/>
		<path class="st1" d="M53.2,8.7c1.2,2.8-0.1,4.8-1.8,5.5c-1.9,0.8-4,0.1-5.1-2.4c-1.1-2.6-0.1-4.7,1.8-5.5
			C50.2,5.4,52.2,6.4,53.2,8.7z M48.5,7.2c-1.6,0.7-1.6,2.6-1,4c0.7,1.7,2.2,2.6,3.6,2c1.4-0.6,1.7-2.4,1-4
			C51.5,7.9,50.1,6.5,48.5,7.2z"/>
		<path class="st1" d="M67.1,10.6l-1.2,0.1l-0.6-4.7c-0.2-1.6-0.9-2.5-2.1-2.4c-1,0.1-1.8,1.2-1.7,2.4l0.6,5.1L61,11.3l-0.6-5
			c-0.2-1.3-0.8-2.2-2-2.1c-1.1,0.1-1.9,1.3-1.7,2.5l0.6,5l-1.2,0.1l-0.7-6c-0.1-0.8-0.2-1.4-0.3-2.1l1.1-0.1L56.4,5l0,0
			c0.4-0.8,1-1.6,2.3-1.8c1.1-0.1,2,0.4,2.4,1.4l0,0c0.4-1,1.2-1.8,2.4-1.9c1-0.1,2.7,0.3,3,3.1L67.1,10.6z"/>
		<path class="st1" d="M74.6,10c-0.1,0.7-0.2,1.4-0.2,1.9l-1.1-0.2l0-1.1l0,0c-0.5,0.6-1.4,1-2.6,0.8c-1.5-0.2-2.2-1.5-2-2.7
			c0.3-1.9,2.2-2.7,5.2-2.2c0.1-0.7,0.4-2.2-1.5-2.5C71.7,4,71,4,70.4,4.3l-0.2-0.9c0.7-0.3,1.7-0.4,2.6-0.3
			c2.3,0.4,2.6,2.1,2.4,3.7L74.6,10z M73.8,7.5c-1.5-0.2-3.5-0.3-3.7,1.4c-0.2,1,0.4,1.6,1.2,1.7c1.2,0.2,2.2-0.6,2.3-1.6L73.8,7.5z
			"/>
		<path class="st1" d="M79.8,3.5l1.3,0l-0.6,1.8l2,0.7l-0.3,0.9l-2-0.7l-1.5,4.5c-0.3,1-0.2,1.6,0.5,1.9c0.4,0.1,0.6,0.2,0.8,0.2
			l-0.2,0.9c-0.3,0-0.7,0-1.2-0.2c-1.9-0.6-1.3-2.4-1.1-3.2L79,5.8l-1.2-0.4l0.3-0.9l1.2,0.4L79.8,3.5z"/>
		<path class="st1" d="M82.2,14.9l-1.1-0.5L84.7,7l1.1,0.5L82.2,14.9z M85.9,6c-0.4-0.2-0.6-0.7-0.4-1.1c0.2-0.4,0.7-0.6,1.1-0.4
			c0.4,0.2,0.6,0.7,0.4,1.1C86.8,6.1,86.3,6.2,85.9,6z"/>
		<path class="st1" d="M92.3,16.5c-1.8,2.5-4.2,2.4-5.6,1.3c-1.7-1.2-2.1-3.4-0.6-5.6c1.6-2.3,3.9-2.5,5.6-1.3
			C93.6,12.2,93.8,14.5,92.3,16.5z M91.1,11.7c-1.4-1-3,0-4,1.2c-1.1,1.5-1.1,3.3,0.1,4.1c1.2,0.9,2.9,0.3,4-1.2
			C92.1,14.6,92.6,12.7,91.1,11.7z"/>
		<path class="st1" d="M95.2,25.9l-0.8-0.9l3.6-3.2c1-0.9,1.6-2,0.6-3.1c-0.7-0.8-2.1-1-3.2-0.1l-3.8,3.3l-0.8-0.9l4.6-4
			c0.6-0.6,1.1-1,1.6-1.4l0.7,0.8l-1,0.9l0,0c0.9-0.2,2,0,2.9,1c0.7,0.8,1.3,2.5-0.7,4.3L95.2,25.9z"/>
	</g>
	<g>
		<polyline class="st2" points="36.4,68.4 41.2,74.4 46.1,68.4 51,74.4 55.8,68.4 60.7,74.4 65.6,68.4 70.4,74.4 75.3,68.4 
			80.2,74.4 85,68.4 89.9,74.4 94.8,68.4 		"/>
	</g>
</g>
</svg>
