<?xml version="1.0" encoding="utf-8"?>
<!-- Generator: Adobe Illustrator 24.3.0, SVG Export Plug-In . SVG Version: 6.00 Build 0)  -->
<svg version="1.1" id="レイヤー_1" xmlns="http://www.w3.org/2000/svg" xmlns:xlink="http://www.w3.org/1999/xlink" x="0px"
	 y="0px" width="130px" height="72px" viewBox="0 0 130 72" style="enable-background:new 0 0 130 72;" xml:space="preserve">
<style type="text/css">
	.st0{fill:#1A1A1A;}
	.st1{fill:none;stroke:#4D4D4D;stroke-width:0.3;}
	.st2{fill:none;stroke:#FFD880;stroke-miterlimit:10;}
</style>
<g>
	<path class="st0" d="M39.3,41.1c-1.2-1.2-2.5-2.3-3.8-3.4c-1.6,2.4-4.5,5.6-8,7.5l-2.1-1.6c3.4-1.6,6.2-4.3,8.4-7.3
		c-1.6-1.2-3.2-2.2-4.8-3.1l1.7-1.4c1.3,0.7,2.9,1.7,4.4,2.8c1.3-2.2,2.3-4.5,3-6.7l2.3,0.9c-0.8,2.1-1.8,4.3-3.5,7.1
		c1.5,1.1,3,2.3,4.3,3.5L39.3,41.1z"/>
	<path class="st0" d="M63.2,43.3c-1.9-0.1-5.6-0.1-9.3-0.1c-3.4,0-6.6,0-8.2,0.1v-2.3c1.8,0.1,5.9,0.1,9.8,0.1c3.1,0,6.1,0,7.7-0.1
		V43.3z M60.8,32c-1.3,0-3.5-0.1-5.9-0.1c-2.6,0-5.3,0-6.7,0.1v-2.2c1.2,0.1,3.6,0.1,6,0.1c2.6,0,5.3,0,6.6-0.1V32z"/>
	<path class="st0" d="M82.9,43.9c-1.4,0-3.7-0.1-6.2-0.1c-3.1,0-6.5,0-8.7,0.1v-1.9c1.6,0,3.9,0.1,6.3,0.1c0.8,0,1.6,0,2.4,0
		c0.3-2.4,0.8-6.3,0.9-8.4h-0.5c-2.2,0-5.2,0.1-6.9,0.2L70.2,32c1.3,0,2.8,0,4.5,0c1.6,0,3.4,0,5.2,0c-0.4,3.4-0.9,7.7-1.1,10.1
		c1.7,0,3.1,0,4.2-0.1V43.9z"/>
	<path class="st0" d="M105.3,37.5c-1.8-0.1-5.2-0.1-8.7-0.1c-3.4,0-6.9,0-8.8,0.1v-2.3c1.5,0,4.8,0.1,8.1,0.1c3.9,0,7.9,0,9.3-0.1
		V37.5z"/>
</g>
<g>
	<path class="st1" d="M58.8,13.2l-1.2,0.4L56,9.2c-0.5-1.5-1.4-2.3-2.6-1.8c-0.9,0.3-1.5,1.5-1.1,2.7l1.8,4.8L53,15.4l-1.7-4.7
		c-0.4-1.2-1.3-2-2.4-1.6c-1,0.4-1.5,1.7-1.1,2.9l1.7,4.7l-1.2,0.4l-2.1-5.7c-0.3-0.8-0.5-1.3-0.8-2l1-0.4l0.5,1.2l0,0
		c0.2-0.9,0.6-1.8,1.8-2.3c1-0.4,2,0,2.7,0.8l0,0c0.2-1.1,0.7-2,1.9-2.4c0.9-0.3,2.7-0.3,3.6,2.4L58.8,13.2z"/>
	<path class="st1" d="M66.5,12.5c-0.5,0.3-1.3,0.6-2.5,0.7c-2.4,0.2-3.9-1.4-4.1-3.9c-0.2-2.6,1.2-4.5,3.4-4.6
		c2.5-0.2,3.3,2.1,3.4,3.5c0,0.3,0,0.5,0,0.7l-5.6,0.4c0.2,2.3,1.5,3,3,2.9c1-0.1,1.6-0.3,2.1-0.6L66.5,12.5z M65.4,8.1
		c-0.1-1.1-0.6-2.5-2.2-2.4c-1.5,0.1-2.1,1.6-2.1,2.7L65.4,8.1z"/>
	<path class="st1" d="M74.8,14l-1.2-0.2L74.4,9c0.2-1.3-0.1-2.5-1.5-2.8c-1.1-0.2-2.3,0.6-2.5,2l-0.8,4.9l-1.2-0.2l1-6
		c0.1-0.8,0.2-1.4,0.3-2.1L70.7,5l-0.1,1.3l0,0c0.5-0.7,1.6-1.3,2.8-1.1c1,0.2,2.6,1,2.2,3.8L74.8,14z"/>
	<path class="st1" d="M83.5,15c-0.3,0.8-0.6,1.4-0.8,2l-1-0.4l0.4-1.2l0,0c-0.6,0.5-1.7,0.9-3,0.4C78,15.2,76.9,14,78,11.4l1.9-4.5
		L81,7.4l-1.8,4.3c-0.6,1.5-0.6,2.7,0.7,3.2c0.9,0.4,2.3,0.1,2.8-1.2l2-4.7l1.2,0.5L83.5,15z"/>
</g>
<g>
	<polyline class="st2" points="36.4,55.1 41.2,61.1 46.1,55.1 51,61.1 55.8,55.1 60.7,61.1 65.6,55.1 70.4,61.1 75.3,55.1 
		80.2,61.1 85,55.1 89.9,61.1 94.8,55.1 	"/>
</g>
</svg>
